G04 #@! TF.FileFunction,Copper,L1,Top,Signal*
%FSLAX46Y46*%
G04 Gerber Fmt 4.6, Leading zero omitted, Abs format (unit mm)*
G04 Created by KiCad (PCBNEW 4.0.7-e2-6376~58~ubuntu16.04.1) date Tue Dec 12 15:57:28 2017*
%MOMM*%
%LPD*%
G01*
G04 APERTURE LIST*
%ADD10C,0.100000*%
%ADD11R,0.600000X1.550000*%
%ADD12C,2.000000*%
%ADD13R,2.540000X2.540000*%
%ADD14C,2.540000*%
%ADD15R,1.727200X2.032000*%
%ADD16O,1.727200X2.032000*%
%ADD17O,2.540000X2.032000*%
%ADD18R,2.800000X1.100000*%
%ADD19O,2.800000X1.100000*%
%ADD20R,1.300000X1.300000*%
%ADD21C,1.300000*%
%ADD22R,2.000000X2.000000*%
%ADD23R,2.032000X1.727200*%
%ADD24O,2.032000X1.727200*%
%ADD25C,1.998980*%
%ADD26C,1.600000*%
%ADD27R,1.600000X1.600000*%
%ADD28R,1.500000X1.250000*%
%ADD29C,1.900000*%
%ADD30C,0.600000*%
%ADD31C,1.200000*%
%ADD32C,0.800000*%
%ADD33C,0.600000*%
%ADD34C,1.000000*%
%ADD35C,1.600000*%
%ADD36C,1.400000*%
%ADD37C,0.254000*%
G04 APERTURE END LIST*
D10*
D11*
X159893000Y-55974000D03*
X158623000Y-55974000D03*
X157353000Y-55974000D03*
X156083000Y-55974000D03*
X156083000Y-61374000D03*
X157353000Y-61374000D03*
X158623000Y-61374000D03*
X159893000Y-61374000D03*
D12*
X166624000Y-79756000D03*
X166624000Y-92964000D03*
X185166000Y-79756000D03*
X185166000Y-92964000D03*
D13*
X185420000Y-49530000D03*
D14*
X180340000Y-49530000D03*
D15*
X121285000Y-95250000D03*
D16*
X123825000Y-95250000D03*
X126365000Y-95250000D03*
X128905000Y-95250000D03*
D17*
X98044000Y-68580000D03*
X98044000Y-66040000D03*
X98044000Y-71120000D03*
D18*
X110300000Y-52700000D03*
D19*
X110300000Y-54700000D03*
X110300000Y-56700000D03*
X110300000Y-58700000D03*
X110300000Y-60700000D03*
X110300000Y-62700000D03*
X110300000Y-64700000D03*
X110300000Y-66700000D03*
X125300000Y-66700000D03*
X125300000Y-64700000D03*
X125300000Y-62700000D03*
X125300000Y-60700000D03*
X125300000Y-58700000D03*
X125300000Y-56700000D03*
X125300000Y-54700000D03*
X125300000Y-52700000D03*
D20*
X181483000Y-72517000D03*
D21*
X179483000Y-72517000D03*
D20*
X98552000Y-57404000D03*
D21*
X98552000Y-55404000D03*
D12*
X185417460Y-56133480D03*
D22*
X185417460Y-66293480D03*
D13*
X93472000Y-123444000D03*
D14*
X98552000Y-123444000D03*
D15*
X100965000Y-95250000D03*
D16*
X103505000Y-95250000D03*
X106045000Y-95250000D03*
X108585000Y-95250000D03*
X111125000Y-95250000D03*
X113665000Y-95250000D03*
X116205000Y-95250000D03*
X118745000Y-95250000D03*
D23*
X145034000Y-77597000D03*
D24*
X145034000Y-80137000D03*
X145034000Y-82677000D03*
X145034000Y-85217000D03*
D15*
X118745000Y-80010000D03*
D16*
X116205000Y-80010000D03*
X113665000Y-80010000D03*
X111125000Y-80010000D03*
X108585000Y-80010000D03*
X106045000Y-80010000D03*
D25*
X131445000Y-64770000D03*
X131445000Y-54610000D03*
X104140000Y-59690000D03*
X104140000Y-49530000D03*
X180086000Y-61214000D03*
X101854000Y-66167000D03*
D26*
X93472000Y-58420000D03*
X93472000Y-53420000D03*
D25*
X161290000Y-93091000D03*
D27*
X172847000Y-73406000D03*
D26*
X172847000Y-71406000D03*
D28*
X174518000Y-106426000D03*
X177018000Y-106426000D03*
X107208000Y-106680000D03*
X109708000Y-106680000D03*
X166731000Y-66294000D03*
X164231000Y-66294000D03*
X117368000Y-106680000D03*
X119868000Y-106680000D03*
X156571000Y-66294000D03*
X154071000Y-66294000D03*
X154198000Y-106680000D03*
X156698000Y-106680000D03*
X164231000Y-106426000D03*
X166731000Y-106426000D03*
D13*
X170434000Y-123444000D03*
D14*
X175514000Y-123444000D03*
D13*
X103505000Y-123444000D03*
D14*
X108585000Y-123444000D03*
D13*
X170688000Y-49530000D03*
D14*
X165608000Y-49530000D03*
D13*
X113538000Y-123444000D03*
D14*
X118618000Y-123444000D03*
D13*
X160528000Y-49530000D03*
D14*
X155448000Y-49530000D03*
D13*
X150368000Y-123444000D03*
D14*
X155448000Y-123444000D03*
D13*
X160401000Y-123444000D03*
D14*
X165481000Y-123444000D03*
D11*
X94107000Y-117000000D03*
X95377000Y-117000000D03*
X96647000Y-117000000D03*
X97917000Y-117000000D03*
X97917000Y-111600000D03*
X96647000Y-111600000D03*
X95377000Y-111600000D03*
X94107000Y-111600000D03*
X171196000Y-117000000D03*
X172466000Y-117000000D03*
X173736000Y-117000000D03*
X175006000Y-117000000D03*
X175006000Y-111600000D03*
X173736000Y-111600000D03*
X172466000Y-111600000D03*
X171196000Y-111600000D03*
X104013000Y-117000000D03*
X105283000Y-117000000D03*
X106553000Y-117000000D03*
X107823000Y-117000000D03*
X107823000Y-111600000D03*
X106553000Y-111600000D03*
X105283000Y-111600000D03*
X104013000Y-111600000D03*
X170053000Y-55974000D03*
X168783000Y-55974000D03*
X167513000Y-55974000D03*
X166243000Y-55974000D03*
X166243000Y-61374000D03*
X167513000Y-61374000D03*
X168783000Y-61374000D03*
X170053000Y-61374000D03*
X114173000Y-117000000D03*
X115443000Y-117000000D03*
X116713000Y-117000000D03*
X117983000Y-117000000D03*
X117983000Y-111600000D03*
X116713000Y-111600000D03*
X115443000Y-111600000D03*
X114173000Y-111600000D03*
X150876000Y-117000000D03*
X152146000Y-117000000D03*
X153416000Y-117000000D03*
X154686000Y-117000000D03*
X154686000Y-111600000D03*
X153416000Y-111600000D03*
X152146000Y-111600000D03*
X150876000Y-111600000D03*
X160909000Y-117000000D03*
X162179000Y-117000000D03*
X163449000Y-117000000D03*
X164719000Y-117000000D03*
X164719000Y-111600000D03*
X163449000Y-111600000D03*
X162179000Y-111600000D03*
X160909000Y-111600000D03*
D28*
X97429000Y-106680000D03*
X99929000Y-106680000D03*
D29*
X107188000Y-71247000D03*
D30*
X105283000Y-108966000D03*
X168910000Y-63881000D03*
X115443000Y-108966000D03*
X152146000Y-108966000D03*
X95377000Y-108966000D03*
X158623000Y-63881000D03*
X172466000Y-108966000D03*
X162179000Y-108966000D03*
D31*
X166624000Y-79756000D02*
X158115000Y-71247000D01*
X158115000Y-71247000D02*
X107188000Y-71247000D01*
D32*
X145034000Y-82677000D02*
X142748000Y-82677000D01*
X140716000Y-97536000D02*
X135509000Y-102743000D01*
X140716000Y-84709000D02*
X140716000Y-97536000D01*
X142748000Y-82677000D02*
X140716000Y-84709000D01*
D33*
X170053000Y-66548000D02*
X171831000Y-68326000D01*
X170053000Y-61374000D02*
X170053000Y-66548000D01*
D34*
X171831000Y-68326000D02*
X172974000Y-68326000D01*
X161544000Y-68326000D02*
X171831000Y-68326000D01*
D33*
X159893000Y-66548000D02*
X161544000Y-68199000D01*
X161544000Y-68199000D02*
X161544000Y-68326000D01*
X159893000Y-61374000D02*
X159893000Y-66548000D01*
D34*
X176530000Y-93218000D02*
X167005000Y-102743000D01*
X176530000Y-70485000D02*
X176530000Y-93218000D01*
X174371000Y-68326000D02*
X176530000Y-70485000D01*
X172974000Y-68326000D02*
X174371000Y-68326000D01*
D33*
X114173000Y-111600000D02*
X114173000Y-104648000D01*
X114173000Y-104648000D02*
X115951000Y-102870000D01*
X104013000Y-111600000D02*
X104013000Y-104394000D01*
X104013000Y-104394000D02*
X105537000Y-102870000D01*
X94107000Y-111600000D02*
X94107000Y-104648000D01*
D34*
X118110000Y-102870000D02*
X115951000Y-102870000D01*
X115951000Y-102870000D02*
X105537000Y-102870000D01*
X105537000Y-102870000D02*
X95885000Y-102870000D01*
X95885000Y-102870000D02*
X94107000Y-104648000D01*
X118110000Y-102870000D02*
X121285000Y-99695000D01*
X121285000Y-95250000D02*
X121285000Y-99695000D01*
D33*
X150876000Y-111600000D02*
X150876000Y-106299000D01*
X150876000Y-106299000D02*
X147320000Y-102743000D01*
X160909000Y-111600000D02*
X160909000Y-106680000D01*
X160909000Y-106680000D02*
X156972000Y-102743000D01*
X156972000Y-102743000D02*
X156972000Y-102616000D01*
X156972000Y-102616000D02*
X156972000Y-102743000D01*
X170942000Y-106680000D02*
X170942000Y-106807000D01*
D34*
X121285000Y-99695000D02*
X124333000Y-102743000D01*
X124333000Y-102743000D02*
X135509000Y-102743000D01*
X135509000Y-102743000D02*
X147320000Y-102743000D01*
X147320000Y-102743000D02*
X156972000Y-102743000D01*
X156972000Y-102743000D02*
X167005000Y-102743000D01*
X167005000Y-102743000D02*
X170942000Y-106680000D01*
D33*
X171196000Y-107061000D02*
X171196000Y-111600000D01*
X170942000Y-106807000D02*
X171196000Y-107061000D01*
X105283000Y-111600000D02*
X105283000Y-108966000D01*
X168783000Y-63754000D02*
X168783000Y-61374000D01*
X168910000Y-63881000D02*
X168783000Y-63754000D01*
X115443000Y-108966000D02*
X115443000Y-111600000D01*
X152146000Y-108966000D02*
X152146000Y-111600000D01*
X95377000Y-111600000D02*
X95377000Y-108966000D01*
X158623000Y-63881000D02*
X158623000Y-61374000D01*
X172466000Y-108966000D02*
X172466000Y-111600000D01*
X162179000Y-108966000D02*
X162179000Y-111600000D01*
X96647000Y-111600000D02*
X96647000Y-109982000D01*
X97429000Y-109200000D02*
X97429000Y-106680000D01*
X96647000Y-109982000D02*
X97429000Y-109200000D01*
D32*
X94107000Y-117000000D02*
X95377000Y-117000000D01*
D33*
X95377000Y-117000000D02*
X95377000Y-117094000D01*
X95377000Y-117094000D02*
X93472000Y-118999000D01*
D35*
X93472000Y-123444000D02*
X93472000Y-118999000D01*
X93472000Y-118999000D02*
X93472000Y-117635000D01*
X93472000Y-117635000D02*
X94107000Y-117000000D01*
D32*
X96647000Y-117000000D02*
X97917000Y-117000000D01*
D33*
X96647000Y-117000000D02*
X96680000Y-117000000D01*
X96680000Y-117000000D02*
X98552000Y-118872000D01*
D35*
X98552000Y-123444000D02*
X98552000Y-118872000D01*
X98552000Y-118872000D02*
X98552000Y-117635000D01*
X98552000Y-117635000D02*
X97917000Y-117000000D01*
D33*
X173736000Y-111600000D02*
X173736000Y-109855000D01*
X174518000Y-109073000D02*
X174518000Y-106426000D01*
X173736000Y-109855000D02*
X174518000Y-109073000D01*
X106553000Y-111600000D02*
X106553000Y-110490000D01*
X107208000Y-109835000D02*
X107208000Y-106680000D01*
X106553000Y-110490000D02*
X107208000Y-109835000D01*
X167513000Y-61374000D02*
X167513000Y-62865000D01*
X166731000Y-63647000D02*
X166731000Y-66294000D01*
X167513000Y-62865000D02*
X166731000Y-63647000D01*
X116713000Y-111600000D02*
X116713000Y-110109000D01*
X117368000Y-109454000D02*
X117368000Y-106680000D01*
X116713000Y-110109000D02*
X117368000Y-109454000D01*
X157353000Y-61374000D02*
X157353000Y-63246000D01*
X156571000Y-64028000D02*
X156571000Y-66294000D01*
X157353000Y-63246000D02*
X156571000Y-64028000D01*
X153416000Y-111600000D02*
X153416000Y-109982000D01*
X154198000Y-109200000D02*
X154198000Y-106680000D01*
X153416000Y-109982000D02*
X154198000Y-109200000D01*
X163449000Y-111600000D02*
X163449000Y-110109000D01*
X164231000Y-109327000D02*
X164231000Y-106426000D01*
X163449000Y-110109000D02*
X164231000Y-109327000D01*
D32*
X171196000Y-117000000D02*
X172466000Y-117000000D01*
D33*
X172466000Y-117000000D02*
X172466000Y-117094000D01*
X172466000Y-117094000D02*
X170434000Y-119126000D01*
D35*
X170434000Y-123444000D02*
X170434000Y-119126000D01*
X170434000Y-119126000D02*
X170434000Y-117762000D01*
X170434000Y-117762000D02*
X171196000Y-117000000D01*
D32*
X173736000Y-117000000D02*
X175006000Y-117000000D01*
D33*
X173736000Y-117000000D02*
X173736000Y-117094000D01*
X173736000Y-117094000D02*
X175514000Y-118872000D01*
D35*
X175514000Y-123444000D02*
X175514000Y-118872000D01*
X175514000Y-118872000D02*
X175514000Y-117508000D01*
X175514000Y-117508000D02*
X175006000Y-117000000D01*
D32*
X104013000Y-117000000D02*
X105283000Y-117000000D01*
D33*
X105283000Y-117000000D02*
X105283000Y-117094000D01*
X105283000Y-117094000D02*
X103505000Y-118872000D01*
D35*
X103505000Y-123444000D02*
X103505000Y-118872000D01*
X103505000Y-118872000D02*
X103505000Y-117508000D01*
X103505000Y-117508000D02*
X104013000Y-117000000D01*
D32*
X106553000Y-117000000D02*
X107823000Y-117000000D01*
D33*
X106553000Y-117000000D02*
X106586000Y-117000000D01*
X106586000Y-117000000D02*
X108585000Y-118999000D01*
D35*
X108585000Y-123444000D02*
X108585000Y-118999000D01*
X108585000Y-118999000D02*
X108585000Y-117762000D01*
X108585000Y-117762000D02*
X107823000Y-117000000D01*
D33*
X168783000Y-55974000D02*
X170053000Y-55974000D01*
D32*
X168783000Y-55974000D02*
X168783000Y-55753000D01*
X168783000Y-55753000D02*
X170688000Y-53848000D01*
X170688000Y-53848000D02*
X170688000Y-49530000D01*
D36*
X170688000Y-49530000D02*
X170688000Y-55339000D01*
X170688000Y-55339000D02*
X170053000Y-55974000D01*
D32*
X166243000Y-55974000D02*
X167513000Y-55974000D01*
D33*
X167513000Y-55974000D02*
X167513000Y-55880000D01*
X167513000Y-55880000D02*
X165608000Y-53975000D01*
D35*
X165608000Y-49530000D02*
X165608000Y-53975000D01*
X165608000Y-53975000D02*
X165608000Y-55339000D01*
X165608000Y-55339000D02*
X166243000Y-55974000D01*
D32*
X114173000Y-117000000D02*
X115443000Y-117000000D01*
D33*
X115443000Y-117000000D02*
X115410000Y-117000000D01*
X115410000Y-117000000D02*
X113538000Y-118872000D01*
D35*
X113538000Y-123444000D02*
X113538000Y-118872000D01*
X113538000Y-118872000D02*
X113538000Y-117635000D01*
X113538000Y-117635000D02*
X114173000Y-117000000D01*
D32*
X116713000Y-117000000D02*
X117983000Y-117000000D01*
D33*
X116713000Y-117000000D02*
X116713000Y-117094000D01*
X116713000Y-117094000D02*
X118618000Y-118999000D01*
D35*
X118618000Y-123444000D02*
X118618000Y-118999000D01*
X118618000Y-118999000D02*
X118618000Y-117635000D01*
X118618000Y-117635000D02*
X117983000Y-117000000D01*
D32*
X158623000Y-55974000D02*
X159893000Y-55974000D01*
D33*
X158623000Y-55974000D02*
X158623000Y-55880000D01*
X158623000Y-55880000D02*
X160528000Y-53975000D01*
D35*
X160528000Y-49530000D02*
X160528000Y-53975000D01*
X160528000Y-53975000D02*
X160528000Y-55339000D01*
X160528000Y-55339000D02*
X159893000Y-55974000D01*
D32*
X156083000Y-55974000D02*
X157353000Y-55974000D01*
D33*
X157353000Y-55974000D02*
X157353000Y-55753000D01*
X157353000Y-55753000D02*
X155448000Y-53848000D01*
X155448000Y-53848000D02*
X155448000Y-49530000D01*
D35*
X155448000Y-49530000D02*
X155448000Y-55339000D01*
X155448000Y-55339000D02*
X156083000Y-55974000D01*
D32*
X150876000Y-117000000D02*
X152146000Y-117000000D01*
D33*
X152146000Y-117000000D02*
X152146000Y-117094000D01*
X152146000Y-117094000D02*
X150368000Y-118872000D01*
D35*
X150368000Y-123444000D02*
X150368000Y-118872000D01*
X150368000Y-118872000D02*
X150368000Y-117508000D01*
X150368000Y-117508000D02*
X150876000Y-117000000D01*
D32*
X153416000Y-117000000D02*
X154686000Y-117000000D01*
D33*
X153416000Y-117000000D02*
X153416000Y-117094000D01*
X153416000Y-117094000D02*
X155448000Y-119126000D01*
D35*
X155448000Y-123444000D02*
X155448000Y-119126000D01*
X155448000Y-119126000D02*
X155448000Y-117762000D01*
X155448000Y-117762000D02*
X154686000Y-117000000D01*
D32*
X160909000Y-117000000D02*
X162179000Y-117000000D01*
D33*
X162179000Y-117000000D02*
X162179000Y-117094000D01*
X162179000Y-117094000D02*
X160401000Y-118872000D01*
D35*
X160401000Y-123444000D02*
X160401000Y-118872000D01*
X160401000Y-118872000D02*
X160401000Y-117508000D01*
X160401000Y-117508000D02*
X160909000Y-117000000D01*
D32*
X163449000Y-117000000D02*
X164719000Y-117000000D01*
D33*
X163449000Y-117000000D02*
X163482000Y-117000000D01*
X163482000Y-117000000D02*
X165481000Y-118999000D01*
X165481000Y-118999000D02*
X165481000Y-118872000D01*
D35*
X165481000Y-123444000D02*
X165481000Y-118872000D01*
X165481000Y-118872000D02*
X165481000Y-117762000D01*
X165481000Y-117762000D02*
X164719000Y-117000000D01*
D37*
G36*
X107188000Y-52070000D02*
X107196685Y-52116159D01*
X107223965Y-52158553D01*
X107265590Y-52186994D01*
X107315000Y-52197000D01*
X108252560Y-52197000D01*
X108252560Y-53250000D01*
X108296838Y-53485317D01*
X108435910Y-53701441D01*
X108622162Y-53828701D01*
X108572210Y-53862078D01*
X108315335Y-54246520D01*
X108225132Y-54700000D01*
X108315335Y-55153480D01*
X108572210Y-55537922D01*
X108814778Y-55700000D01*
X108572210Y-55862078D01*
X108315335Y-56246520D01*
X108225132Y-56700000D01*
X108315335Y-57153480D01*
X108572210Y-57537922D01*
X108814778Y-57700000D01*
X108572210Y-57862078D01*
X108315335Y-58246520D01*
X108225132Y-58700000D01*
X108315335Y-59153480D01*
X108572210Y-59537922D01*
X108814778Y-59700000D01*
X108572210Y-59862078D01*
X108315335Y-60246520D01*
X108225132Y-60700000D01*
X108315335Y-61153480D01*
X108572210Y-61537922D01*
X108814778Y-61700000D01*
X108572210Y-61862078D01*
X108315335Y-62246520D01*
X108225132Y-62700000D01*
X108315335Y-63153480D01*
X108572210Y-63537922D01*
X108814778Y-63700000D01*
X108572210Y-63862078D01*
X108315335Y-64246520D01*
X108225132Y-64700000D01*
X108315335Y-65153480D01*
X108572210Y-65537922D01*
X108814778Y-65700000D01*
X108572210Y-65862078D01*
X108315335Y-66246520D01*
X108225132Y-66700000D01*
X108315335Y-67153480D01*
X108572210Y-67537922D01*
X108956652Y-67794797D01*
X109410132Y-67885000D01*
X111189868Y-67885000D01*
X111643348Y-67794797D01*
X112027790Y-67537922D01*
X112284665Y-67153480D01*
X112313255Y-67009744D01*
X123306197Y-67009744D01*
X123306602Y-67036146D01*
X123522276Y-67448118D01*
X123879187Y-67746196D01*
X124323000Y-67885000D01*
X125173000Y-67885000D01*
X125173000Y-66827000D01*
X125427000Y-66827000D01*
X125427000Y-67885000D01*
X126277000Y-67885000D01*
X126720813Y-67746196D01*
X127077724Y-67448118D01*
X127293398Y-67036146D01*
X127293803Y-67009744D01*
X127168361Y-66827000D01*
X125427000Y-66827000D01*
X125173000Y-66827000D01*
X123431639Y-66827000D01*
X123306197Y-67009744D01*
X112313255Y-67009744D01*
X112374868Y-66700000D01*
X112350949Y-66579750D01*
X152686000Y-66579750D01*
X152686000Y-67045310D01*
X152782673Y-67278699D01*
X152961302Y-67457327D01*
X153194691Y-67554000D01*
X153785250Y-67554000D01*
X153944000Y-67395250D01*
X153944000Y-66421000D01*
X152844750Y-66421000D01*
X152686000Y-66579750D01*
X112350949Y-66579750D01*
X112284665Y-66246520D01*
X112027790Y-65862078D01*
X111785222Y-65700000D01*
X112027790Y-65537922D01*
X112284665Y-65153480D01*
X112374868Y-64700000D01*
X112284665Y-64246520D01*
X112027790Y-63862078D01*
X111785222Y-63700000D01*
X112027790Y-63537922D01*
X112284665Y-63153480D01*
X112374868Y-62700000D01*
X112284665Y-62246520D01*
X112027790Y-61862078D01*
X111785222Y-61700000D01*
X112027790Y-61537922D01*
X112284665Y-61153480D01*
X112374868Y-60700000D01*
X112284665Y-60246520D01*
X112027790Y-59862078D01*
X111785222Y-59700000D01*
X112027790Y-59537922D01*
X112284665Y-59153480D01*
X112374868Y-58700000D01*
X112284665Y-58246520D01*
X112027790Y-57862078D01*
X111785222Y-57700000D01*
X112027790Y-57537922D01*
X112284665Y-57153480D01*
X112374868Y-56700000D01*
X112284665Y-56246520D01*
X112027790Y-55862078D01*
X111785222Y-55700000D01*
X112027790Y-55537922D01*
X112284665Y-55153480D01*
X112374868Y-54700000D01*
X112284665Y-54246520D01*
X112027790Y-53862078D01*
X111975626Y-53827224D01*
X112151441Y-53714090D01*
X112296431Y-53501890D01*
X112347440Y-53250000D01*
X112347440Y-52197000D01*
X123348423Y-52197000D01*
X123315335Y-52246520D01*
X123225132Y-52700000D01*
X123315335Y-53153480D01*
X123572210Y-53537922D01*
X123814778Y-53700000D01*
X123572210Y-53862078D01*
X123315335Y-54246520D01*
X123225132Y-54700000D01*
X123315335Y-55153480D01*
X123572210Y-55537922D01*
X123814778Y-55700000D01*
X123572210Y-55862078D01*
X123315335Y-56246520D01*
X123225132Y-56700000D01*
X123315335Y-57153480D01*
X123572210Y-57537922D01*
X123814778Y-57700000D01*
X123572210Y-57862078D01*
X123315335Y-58246520D01*
X123225132Y-58700000D01*
X123315335Y-59153480D01*
X123572210Y-59537922D01*
X123814778Y-59700000D01*
X123572210Y-59862078D01*
X123315335Y-60246520D01*
X123225132Y-60700000D01*
X123315335Y-61153480D01*
X123572210Y-61537922D01*
X123814778Y-61700000D01*
X123572210Y-61862078D01*
X123315335Y-62246520D01*
X123225132Y-62700000D01*
X123315335Y-63153480D01*
X123572210Y-63537922D01*
X123814778Y-63700000D01*
X123572210Y-63862078D01*
X123315335Y-64246520D01*
X123225132Y-64700000D01*
X123315335Y-65153480D01*
X123572210Y-65537922D01*
X123819831Y-65703376D01*
X123522276Y-65951882D01*
X123306602Y-66363854D01*
X123306197Y-66390256D01*
X123431639Y-66573000D01*
X125173000Y-66573000D01*
X125173000Y-66553000D01*
X125427000Y-66553000D01*
X125427000Y-66573000D01*
X127168361Y-66573000D01*
X127293803Y-66390256D01*
X127293398Y-66363854D01*
X127077724Y-65951882D01*
X126780169Y-65703376D01*
X127027790Y-65537922D01*
X127284665Y-65153480D01*
X127296557Y-65093694D01*
X129810226Y-65093694D01*
X130058538Y-65694655D01*
X130517927Y-66154846D01*
X131118453Y-66404206D01*
X131768694Y-66404774D01*
X132369655Y-66156462D01*
X132829846Y-65697073D01*
X132893951Y-65542690D01*
X152686000Y-65542690D01*
X152686000Y-66008250D01*
X152844750Y-66167000D01*
X153944000Y-66167000D01*
X153944000Y-65192750D01*
X153785250Y-65034000D01*
X153194691Y-65034000D01*
X152961302Y-65130673D01*
X152782673Y-65309301D01*
X152686000Y-65542690D01*
X132893951Y-65542690D01*
X133079206Y-65096547D01*
X133079774Y-64446306D01*
X132831462Y-63845345D01*
X132372073Y-63385154D01*
X131771547Y-63135794D01*
X131121306Y-63135226D01*
X130520345Y-63383538D01*
X130060154Y-63842927D01*
X129810794Y-64443453D01*
X129810226Y-65093694D01*
X127296557Y-65093694D01*
X127374868Y-64700000D01*
X127284665Y-64246520D01*
X127027790Y-63862078D01*
X126785222Y-63700000D01*
X127027790Y-63537922D01*
X127284665Y-63153480D01*
X127374868Y-62700000D01*
X127284665Y-62246520D01*
X127027790Y-61862078D01*
X126785222Y-61700000D01*
X126845460Y-61659750D01*
X155148000Y-61659750D01*
X155148000Y-62275309D01*
X155244673Y-62508698D01*
X155423301Y-62687327D01*
X155656690Y-62784000D01*
X155797250Y-62784000D01*
X155956000Y-62625250D01*
X155956000Y-61501000D01*
X155306750Y-61501000D01*
X155148000Y-61659750D01*
X126845460Y-61659750D01*
X127027790Y-61537922D01*
X127284665Y-61153480D01*
X127374868Y-60700000D01*
X127329654Y-60472691D01*
X155148000Y-60472691D01*
X155148000Y-61088250D01*
X155306750Y-61247000D01*
X155956000Y-61247000D01*
X155956000Y-60122750D01*
X155797250Y-59964000D01*
X155656690Y-59964000D01*
X155423301Y-60060673D01*
X155244673Y-60239302D01*
X155148000Y-60472691D01*
X127329654Y-60472691D01*
X127284665Y-60246520D01*
X127027790Y-59862078D01*
X126785222Y-59700000D01*
X127027790Y-59537922D01*
X127284665Y-59153480D01*
X127374868Y-58700000D01*
X127284665Y-58246520D01*
X127027790Y-57862078D01*
X126785222Y-57700000D01*
X127027790Y-57537922D01*
X127284665Y-57153480D01*
X127374868Y-56700000D01*
X127284665Y-56246520D01*
X127027790Y-55862078D01*
X126878256Y-55762163D01*
X130472443Y-55762163D01*
X130571042Y-56028965D01*
X131180582Y-56255401D01*
X131830377Y-56231341D01*
X132318958Y-56028965D01*
X132417557Y-55762163D01*
X131445000Y-54789605D01*
X130472443Y-55762163D01*
X126878256Y-55762163D01*
X126785222Y-55700000D01*
X127027790Y-55537922D01*
X127284665Y-55153480D01*
X127374868Y-54700000D01*
X127304370Y-54345582D01*
X129799599Y-54345582D01*
X129823659Y-54995377D01*
X130026035Y-55483958D01*
X130292837Y-55582557D01*
X131265395Y-54610000D01*
X131624605Y-54610000D01*
X132597163Y-55582557D01*
X132863965Y-55483958D01*
X133090401Y-54874418D01*
X133066341Y-54224623D01*
X132863965Y-53736042D01*
X132597163Y-53637443D01*
X131624605Y-54610000D01*
X131265395Y-54610000D01*
X130292837Y-53637443D01*
X130026035Y-53736042D01*
X129799599Y-54345582D01*
X127304370Y-54345582D01*
X127284665Y-54246520D01*
X127027790Y-53862078D01*
X126785222Y-53700000D01*
X127027790Y-53537922D01*
X127081300Y-53457837D01*
X130472443Y-53457837D01*
X131445000Y-54430395D01*
X132417557Y-53457837D01*
X132318958Y-53191035D01*
X131709418Y-52964599D01*
X131059623Y-52988659D01*
X130571042Y-53191035D01*
X130472443Y-53457837D01*
X127081300Y-53457837D01*
X127284665Y-53153480D01*
X127374868Y-52700000D01*
X127284665Y-52246520D01*
X127251577Y-52197000D01*
X128905000Y-52197000D01*
X128951159Y-52188315D01*
X128993553Y-52161035D01*
X129021994Y-52119410D01*
X129032000Y-52070000D01*
X129032000Y-49907265D01*
X153542670Y-49907265D01*
X153832078Y-50607686D01*
X154013000Y-50788924D01*
X154013000Y-55339000D01*
X154122233Y-55888151D01*
X154361688Y-56246520D01*
X154433302Y-56353698D01*
X155068302Y-56988699D01*
X155268912Y-57122742D01*
X155318910Y-57200441D01*
X155531110Y-57345431D01*
X155783000Y-57396440D01*
X156019856Y-57396440D01*
X156083000Y-57409000D01*
X156146144Y-57396440D01*
X156383000Y-57396440D01*
X156618317Y-57352162D01*
X156717528Y-57288322D01*
X156801110Y-57345431D01*
X157053000Y-57396440D01*
X157653000Y-57396440D01*
X157888317Y-57352162D01*
X157987528Y-57288322D01*
X158071110Y-57345431D01*
X158323000Y-57396440D01*
X158923000Y-57396440D01*
X159158317Y-57352162D01*
X159257528Y-57288322D01*
X159341110Y-57345431D01*
X159593000Y-57396440D01*
X159829857Y-57396440D01*
X159893000Y-57409000D01*
X159956143Y-57396440D01*
X160193000Y-57396440D01*
X160428317Y-57352162D01*
X160644441Y-57213090D01*
X160705406Y-57123865D01*
X160907698Y-56988698D01*
X161542699Y-56353698D01*
X161853768Y-55888150D01*
X161963000Y-55339000D01*
X161963000Y-51416393D01*
X162033317Y-51403162D01*
X162249441Y-51264090D01*
X162394431Y-51051890D01*
X162445440Y-50800000D01*
X162445440Y-49907265D01*
X163702670Y-49907265D01*
X163992078Y-50607686D01*
X164173000Y-50788924D01*
X164173000Y-55339000D01*
X164282233Y-55888151D01*
X164521688Y-56246520D01*
X164593302Y-56353698D01*
X165228302Y-56988699D01*
X165428912Y-57122742D01*
X165478910Y-57200441D01*
X165691110Y-57345431D01*
X165943000Y-57396440D01*
X166179856Y-57396440D01*
X166243000Y-57409000D01*
X166306144Y-57396440D01*
X166543000Y-57396440D01*
X166778317Y-57352162D01*
X166877528Y-57288322D01*
X166961110Y-57345431D01*
X167213000Y-57396440D01*
X167813000Y-57396440D01*
X168048317Y-57352162D01*
X168147528Y-57288322D01*
X168231110Y-57345431D01*
X168483000Y-57396440D01*
X169083000Y-57396440D01*
X169318317Y-57352162D01*
X169417528Y-57288322D01*
X169501110Y-57345431D01*
X169753000Y-57396440D01*
X170353000Y-57396440D01*
X170588317Y-57352162D01*
X170804441Y-57213090D01*
X170949431Y-57000890D01*
X170961404Y-56941764D01*
X170996988Y-56917988D01*
X171457700Y-56457275D01*
X183782176Y-56457275D01*
X184030566Y-57058423D01*
X184490097Y-57518758D01*
X185090812Y-57768196D01*
X185741255Y-57768764D01*
X186342403Y-57520374D01*
X186802738Y-57060843D01*
X187052176Y-56460128D01*
X187052744Y-55809685D01*
X186804354Y-55208537D01*
X186344823Y-54748202D01*
X185744108Y-54498764D01*
X185093665Y-54498196D01*
X184492517Y-54746586D01*
X184032182Y-55206117D01*
X183782744Y-55806832D01*
X183782176Y-56457275D01*
X171457700Y-56457275D01*
X171631985Y-56282990D01*
X171631988Y-56282988D01*
X171921379Y-55849882D01*
X171932336Y-55794797D01*
X172023001Y-55339000D01*
X172023000Y-55338995D01*
X172023000Y-51435209D01*
X172193317Y-51403162D01*
X172409441Y-51264090D01*
X172554431Y-51051890D01*
X172589689Y-50877777D01*
X179171828Y-50877777D01*
X179303520Y-51172657D01*
X180011036Y-51444261D01*
X180768632Y-51424436D01*
X181376480Y-51172657D01*
X181508172Y-50877777D01*
X180340000Y-49709605D01*
X179171828Y-50877777D01*
X172589689Y-50877777D01*
X172605440Y-50800000D01*
X172605440Y-49201036D01*
X178425739Y-49201036D01*
X178445564Y-49958632D01*
X178697343Y-50566480D01*
X178992223Y-50698172D01*
X180160395Y-49530000D01*
X180519605Y-49530000D01*
X181687777Y-50698172D01*
X181982657Y-50566480D01*
X182254261Y-49858964D01*
X182234436Y-49101368D01*
X181982657Y-48493520D01*
X181687777Y-48361828D01*
X180519605Y-49530000D01*
X180160395Y-49530000D01*
X178992223Y-48361828D01*
X178697343Y-48493520D01*
X178425739Y-49201036D01*
X172605440Y-49201036D01*
X172605440Y-48260000D01*
X172590806Y-48182223D01*
X179171828Y-48182223D01*
X180340000Y-49350395D01*
X181430395Y-48260000D01*
X183502560Y-48260000D01*
X183502560Y-50800000D01*
X183546838Y-51035317D01*
X183685910Y-51251441D01*
X183898110Y-51396431D01*
X184150000Y-51447440D01*
X186690000Y-51447440D01*
X186925317Y-51403162D01*
X187141441Y-51264090D01*
X187286431Y-51051890D01*
X187337440Y-50800000D01*
X187337440Y-48260000D01*
X187293162Y-48024683D01*
X187154090Y-47808559D01*
X186941890Y-47663569D01*
X186690000Y-47612560D01*
X184150000Y-47612560D01*
X183914683Y-47656838D01*
X183698559Y-47795910D01*
X183553569Y-48008110D01*
X183502560Y-48260000D01*
X181430395Y-48260000D01*
X181508172Y-48182223D01*
X181376480Y-47887343D01*
X180668964Y-47615739D01*
X179911368Y-47635564D01*
X179303520Y-47887343D01*
X179171828Y-48182223D01*
X172590806Y-48182223D01*
X172561162Y-48024683D01*
X172422090Y-47808559D01*
X172209890Y-47663569D01*
X171958000Y-47612560D01*
X169418000Y-47612560D01*
X169182683Y-47656838D01*
X168966559Y-47795910D01*
X168821569Y-48008110D01*
X168770560Y-48260000D01*
X168770560Y-50800000D01*
X168814838Y-51035317D01*
X168953910Y-51251441D01*
X169166110Y-51396431D01*
X169353000Y-51434277D01*
X169353000Y-53719289D01*
X168520728Y-54551560D01*
X168483000Y-54551560D01*
X168247683Y-54595838D01*
X168148472Y-54659678D01*
X168064890Y-54602569D01*
X167813000Y-54551560D01*
X167506850Y-54551560D01*
X167043000Y-54087710D01*
X167043000Y-50789232D01*
X167222039Y-50610505D01*
X167512668Y-49910590D01*
X167513330Y-49152735D01*
X167223922Y-48452314D01*
X166688505Y-47915961D01*
X165988590Y-47625332D01*
X165230735Y-47624670D01*
X164530314Y-47914078D01*
X163993961Y-48449495D01*
X163703332Y-49149410D01*
X163702670Y-49907265D01*
X162445440Y-49907265D01*
X162445440Y-48260000D01*
X162401162Y-48024683D01*
X162262090Y-47808559D01*
X162049890Y-47663569D01*
X161798000Y-47612560D01*
X159258000Y-47612560D01*
X159022683Y-47656838D01*
X158806559Y-47795910D01*
X158661569Y-48008110D01*
X158610560Y-48260000D01*
X158610560Y-50800000D01*
X158654838Y-51035317D01*
X158793910Y-51251441D01*
X159006110Y-51396431D01*
X159093000Y-51414027D01*
X159093000Y-54087710D01*
X158629150Y-54551560D01*
X158323000Y-54551560D01*
X158087683Y-54595838D01*
X157988472Y-54659678D01*
X157904890Y-54602569D01*
X157653000Y-54551560D01*
X157473850Y-54551560D01*
X156883000Y-53960710D01*
X156883000Y-50789232D01*
X157062039Y-50610505D01*
X157352668Y-49910590D01*
X157353330Y-49152735D01*
X157063922Y-48452314D01*
X156528505Y-47915961D01*
X155828590Y-47625332D01*
X155070735Y-47624670D01*
X154370314Y-47914078D01*
X153833961Y-48449495D01*
X153543332Y-49149410D01*
X153542670Y-49907265D01*
X129032000Y-49907265D01*
X129032000Y-44310000D01*
X189690000Y-44310000D01*
X189690000Y-128790000D01*
X89789000Y-128790000D01*
X89789000Y-122174000D01*
X91554560Y-122174000D01*
X91554560Y-124714000D01*
X91598838Y-124949317D01*
X91737910Y-125165441D01*
X91950110Y-125310431D01*
X92202000Y-125361440D01*
X94742000Y-125361440D01*
X94977317Y-125317162D01*
X95193441Y-125178090D01*
X95338431Y-124965890D01*
X95389440Y-124714000D01*
X95389440Y-122174000D01*
X95345162Y-121938683D01*
X95206090Y-121722559D01*
X94993890Y-121577569D01*
X94907000Y-121559973D01*
X94907000Y-118886290D01*
X95370850Y-118422440D01*
X95677000Y-118422440D01*
X95912317Y-118378162D01*
X96011528Y-118314322D01*
X96095110Y-118371431D01*
X96347000Y-118422440D01*
X96780150Y-118422440D01*
X97117000Y-118759290D01*
X97117000Y-122184768D01*
X96937961Y-122363495D01*
X96647332Y-123063410D01*
X96646670Y-123821265D01*
X96936078Y-124521686D01*
X97471495Y-125058039D01*
X98171410Y-125348668D01*
X98929265Y-125349330D01*
X99629686Y-125059922D01*
X100166039Y-124524505D01*
X100456668Y-123824590D01*
X100457330Y-123066735D01*
X100167922Y-122366314D01*
X99987000Y-122185076D01*
X99987000Y-122174000D01*
X101587560Y-122174000D01*
X101587560Y-124714000D01*
X101631838Y-124949317D01*
X101770910Y-125165441D01*
X101983110Y-125310431D01*
X102235000Y-125361440D01*
X104775000Y-125361440D01*
X105010317Y-125317162D01*
X105226441Y-125178090D01*
X105371431Y-124965890D01*
X105422440Y-124714000D01*
X105422440Y-122174000D01*
X105378162Y-121938683D01*
X105239090Y-121722559D01*
X105026890Y-121577569D01*
X104940000Y-121559973D01*
X104940000Y-118759290D01*
X105276850Y-118422440D01*
X105583000Y-118422440D01*
X105818317Y-118378162D01*
X105917528Y-118314322D01*
X106001110Y-118371431D01*
X106253000Y-118422440D01*
X106686150Y-118422440D01*
X107150000Y-118886290D01*
X107150000Y-122184768D01*
X106970961Y-122363495D01*
X106680332Y-123063410D01*
X106679670Y-123821265D01*
X106969078Y-124521686D01*
X107504495Y-125058039D01*
X108204410Y-125348668D01*
X108962265Y-125349330D01*
X109662686Y-125059922D01*
X110199039Y-124524505D01*
X110489668Y-123824590D01*
X110490330Y-123066735D01*
X110200922Y-122366314D01*
X110020000Y-122185076D01*
X110020000Y-122174000D01*
X111620560Y-122174000D01*
X111620560Y-124714000D01*
X111664838Y-124949317D01*
X111803910Y-125165441D01*
X112016110Y-125310431D01*
X112268000Y-125361440D01*
X114808000Y-125361440D01*
X115043317Y-125317162D01*
X115259441Y-125178090D01*
X115404431Y-124965890D01*
X115455440Y-124714000D01*
X115455440Y-122174000D01*
X115411162Y-121938683D01*
X115272090Y-121722559D01*
X115059890Y-121577569D01*
X114973000Y-121559973D01*
X114973000Y-118759290D01*
X115309850Y-118422440D01*
X115743000Y-118422440D01*
X115978317Y-118378162D01*
X116077528Y-118314322D01*
X116161110Y-118371431D01*
X116413000Y-118422440D01*
X116719150Y-118422440D01*
X117183000Y-118886290D01*
X117183000Y-122184768D01*
X117003961Y-122363495D01*
X116713332Y-123063410D01*
X116712670Y-123821265D01*
X117002078Y-124521686D01*
X117537495Y-125058039D01*
X118237410Y-125348668D01*
X118995265Y-125349330D01*
X119695686Y-125059922D01*
X120232039Y-124524505D01*
X120522668Y-123824590D01*
X120523330Y-123066735D01*
X120233922Y-122366314D01*
X120053000Y-122185076D01*
X120053000Y-122174000D01*
X148450560Y-122174000D01*
X148450560Y-124714000D01*
X148494838Y-124949317D01*
X148633910Y-125165441D01*
X148846110Y-125310431D01*
X149098000Y-125361440D01*
X151638000Y-125361440D01*
X151873317Y-125317162D01*
X152089441Y-125178090D01*
X152234431Y-124965890D01*
X152285440Y-124714000D01*
X152285440Y-122174000D01*
X152241162Y-121938683D01*
X152102090Y-121722559D01*
X151889890Y-121577569D01*
X151803000Y-121559973D01*
X151803000Y-118759290D01*
X152139850Y-118422440D01*
X152446000Y-118422440D01*
X152681317Y-118378162D01*
X152780528Y-118314322D01*
X152864110Y-118371431D01*
X153116000Y-118422440D01*
X153422150Y-118422440D01*
X154013000Y-119013290D01*
X154013000Y-122184768D01*
X153833961Y-122363495D01*
X153543332Y-123063410D01*
X153542670Y-123821265D01*
X153832078Y-124521686D01*
X154367495Y-125058039D01*
X155067410Y-125348668D01*
X155825265Y-125349330D01*
X156525686Y-125059922D01*
X157062039Y-124524505D01*
X157352668Y-123824590D01*
X157353330Y-123066735D01*
X157063922Y-122366314D01*
X156883000Y-122185076D01*
X156883000Y-122174000D01*
X158483560Y-122174000D01*
X158483560Y-124714000D01*
X158527838Y-124949317D01*
X158666910Y-125165441D01*
X158879110Y-125310431D01*
X159131000Y-125361440D01*
X161671000Y-125361440D01*
X161906317Y-125317162D01*
X162122441Y-125178090D01*
X162267431Y-124965890D01*
X162318440Y-124714000D01*
X162318440Y-122174000D01*
X162274162Y-121938683D01*
X162135090Y-121722559D01*
X161922890Y-121577569D01*
X161836000Y-121559973D01*
X161836000Y-118759290D01*
X162172850Y-118422440D01*
X162479000Y-118422440D01*
X162714317Y-118378162D01*
X162813528Y-118314322D01*
X162897110Y-118371431D01*
X163149000Y-118422440D01*
X163582150Y-118422440D01*
X164046000Y-118886290D01*
X164046000Y-122184768D01*
X163866961Y-122363495D01*
X163576332Y-123063410D01*
X163575670Y-123821265D01*
X163865078Y-124521686D01*
X164400495Y-125058039D01*
X165100410Y-125348668D01*
X165858265Y-125349330D01*
X166558686Y-125059922D01*
X167095039Y-124524505D01*
X167385668Y-123824590D01*
X167386330Y-123066735D01*
X167096922Y-122366314D01*
X166916000Y-122185076D01*
X166916000Y-122174000D01*
X168516560Y-122174000D01*
X168516560Y-124714000D01*
X168560838Y-124949317D01*
X168699910Y-125165441D01*
X168912110Y-125310431D01*
X169164000Y-125361440D01*
X171704000Y-125361440D01*
X171939317Y-125317162D01*
X172155441Y-125178090D01*
X172300431Y-124965890D01*
X172351440Y-124714000D01*
X172351440Y-122174000D01*
X172307162Y-121938683D01*
X172168090Y-121722559D01*
X171955890Y-121577569D01*
X171869000Y-121559973D01*
X171869000Y-119013290D01*
X172459850Y-118422440D01*
X172766000Y-118422440D01*
X173001317Y-118378162D01*
X173100528Y-118314322D01*
X173184110Y-118371431D01*
X173436000Y-118422440D01*
X173742150Y-118422440D01*
X174079000Y-118759290D01*
X174079000Y-122184768D01*
X173899961Y-122363495D01*
X173609332Y-123063410D01*
X173608670Y-123821265D01*
X173898078Y-124521686D01*
X174433495Y-125058039D01*
X175133410Y-125348668D01*
X175891265Y-125349330D01*
X176591686Y-125059922D01*
X177128039Y-124524505D01*
X177418668Y-123824590D01*
X177419330Y-123066735D01*
X177129922Y-122366314D01*
X176949000Y-122185076D01*
X176949000Y-117508000D01*
X176839767Y-116958849D01*
X176698416Y-116747302D01*
X176528698Y-116493301D01*
X176020698Y-115985302D01*
X175820089Y-115851259D01*
X175770090Y-115773559D01*
X175557890Y-115628569D01*
X175306000Y-115577560D01*
X175069143Y-115577560D01*
X175006000Y-115565000D01*
X174942857Y-115577560D01*
X174706000Y-115577560D01*
X174470683Y-115621838D01*
X174371472Y-115685678D01*
X174287890Y-115628569D01*
X174036000Y-115577560D01*
X173436000Y-115577560D01*
X173200683Y-115621838D01*
X173101472Y-115685678D01*
X173017890Y-115628569D01*
X172766000Y-115577560D01*
X172166000Y-115577560D01*
X171930683Y-115621838D01*
X171831472Y-115685678D01*
X171747890Y-115628569D01*
X171496000Y-115577560D01*
X171259143Y-115577560D01*
X171196000Y-115565000D01*
X171132857Y-115577560D01*
X170896000Y-115577560D01*
X170660683Y-115621838D01*
X170444559Y-115760910D01*
X170383594Y-115850135D01*
X170181302Y-115985302D01*
X169419302Y-116747302D01*
X169108233Y-117212849D01*
X168999000Y-117762000D01*
X168999000Y-121557607D01*
X168928683Y-121570838D01*
X168712559Y-121709910D01*
X168567569Y-121922110D01*
X168516560Y-122174000D01*
X166916000Y-122174000D01*
X166916000Y-117762000D01*
X166806767Y-117212849D01*
X166495698Y-116747302D01*
X165733698Y-115985302D01*
X165533089Y-115851259D01*
X165483090Y-115773559D01*
X165270890Y-115628569D01*
X165019000Y-115577560D01*
X164782143Y-115577560D01*
X164719000Y-115565000D01*
X164655857Y-115577560D01*
X164419000Y-115577560D01*
X164183683Y-115621838D01*
X164084472Y-115685678D01*
X164000890Y-115628569D01*
X163749000Y-115577560D01*
X163149000Y-115577560D01*
X162913683Y-115621838D01*
X162814472Y-115685678D01*
X162730890Y-115628569D01*
X162479000Y-115577560D01*
X161879000Y-115577560D01*
X161643683Y-115621838D01*
X161544472Y-115685678D01*
X161460890Y-115628569D01*
X161209000Y-115577560D01*
X160972139Y-115577560D01*
X160909000Y-115565001D01*
X160845861Y-115577560D01*
X160609000Y-115577560D01*
X160373683Y-115621838D01*
X160157559Y-115760910D01*
X160096595Y-115850133D01*
X159894301Y-115985302D01*
X159386303Y-116493301D01*
X159386302Y-116493302D01*
X159075233Y-116958849D01*
X158966000Y-117508000D01*
X158966000Y-121557607D01*
X158895683Y-121570838D01*
X158679559Y-121709910D01*
X158534569Y-121922110D01*
X158483560Y-122174000D01*
X156883000Y-122174000D01*
X156883000Y-117762000D01*
X156773767Y-117212849D01*
X156462698Y-116747302D01*
X155700698Y-115985302D01*
X155500089Y-115851259D01*
X155450090Y-115773559D01*
X155237890Y-115628569D01*
X154986000Y-115577560D01*
X154749143Y-115577560D01*
X154686000Y-115565000D01*
X154622857Y-115577560D01*
X154386000Y-115577560D01*
X154150683Y-115621838D01*
X154051472Y-115685678D01*
X153967890Y-115628569D01*
X153716000Y-115577560D01*
X153116000Y-115577560D01*
X152880683Y-115621838D01*
X152781472Y-115685678D01*
X152697890Y-115628569D01*
X152446000Y-115577560D01*
X151846000Y-115577560D01*
X151610683Y-115621838D01*
X151511472Y-115685678D01*
X151427890Y-115628569D01*
X151176000Y-115577560D01*
X150939139Y-115577560D01*
X150876000Y-115565001D01*
X150812861Y-115577560D01*
X150576000Y-115577560D01*
X150340683Y-115621838D01*
X150124559Y-115760910D01*
X150063595Y-115850133D01*
X149861301Y-115985302D01*
X149353303Y-116493301D01*
X149353302Y-116493302D01*
X149042233Y-116958849D01*
X148933000Y-117508000D01*
X148933000Y-121557607D01*
X148862683Y-121570838D01*
X148646559Y-121709910D01*
X148501569Y-121922110D01*
X148450560Y-122174000D01*
X120053000Y-122174000D01*
X120053000Y-117635000D01*
X120016561Y-117451809D01*
X119943768Y-117085850D01*
X119632699Y-116620302D01*
X118997698Y-115985302D01*
X118797089Y-115851259D01*
X118747090Y-115773559D01*
X118534890Y-115628569D01*
X118283000Y-115577560D01*
X118046143Y-115577560D01*
X117983000Y-115565000D01*
X117919857Y-115577560D01*
X117683000Y-115577560D01*
X117447683Y-115621838D01*
X117348472Y-115685678D01*
X117264890Y-115628569D01*
X117013000Y-115577560D01*
X116413000Y-115577560D01*
X116177683Y-115621838D01*
X116078472Y-115685678D01*
X115994890Y-115628569D01*
X115743000Y-115577560D01*
X115143000Y-115577560D01*
X114907683Y-115621838D01*
X114808472Y-115685678D01*
X114724890Y-115628569D01*
X114473000Y-115577560D01*
X114236144Y-115577560D01*
X114173000Y-115565000D01*
X114109856Y-115577560D01*
X113873000Y-115577560D01*
X113637683Y-115621838D01*
X113421559Y-115760910D01*
X113360596Y-115850133D01*
X113158302Y-115985301D01*
X112523302Y-116620302D01*
X112212233Y-117085849D01*
X112103000Y-117635000D01*
X112103000Y-121557607D01*
X112032683Y-121570838D01*
X111816559Y-121709910D01*
X111671569Y-121922110D01*
X111620560Y-122174000D01*
X110020000Y-122174000D01*
X110020000Y-117762000D01*
X109910767Y-117212849D01*
X109599698Y-116747302D01*
X108837698Y-115985302D01*
X108637089Y-115851259D01*
X108587090Y-115773559D01*
X108374890Y-115628569D01*
X108123000Y-115577560D01*
X107886143Y-115577560D01*
X107823000Y-115565000D01*
X107759857Y-115577560D01*
X107523000Y-115577560D01*
X107287683Y-115621838D01*
X107188472Y-115685678D01*
X107104890Y-115628569D01*
X106853000Y-115577560D01*
X106253000Y-115577560D01*
X106017683Y-115621838D01*
X105918472Y-115685678D01*
X105834890Y-115628569D01*
X105583000Y-115577560D01*
X104983000Y-115577560D01*
X104747683Y-115621838D01*
X104648472Y-115685678D01*
X104564890Y-115628569D01*
X104313000Y-115577560D01*
X104076139Y-115577560D01*
X104013000Y-115565001D01*
X103949861Y-115577560D01*
X103713000Y-115577560D01*
X103477683Y-115621838D01*
X103261559Y-115760910D01*
X103200595Y-115850133D01*
X102998301Y-115985302D01*
X102490303Y-116493301D01*
X102490302Y-116493302D01*
X102179233Y-116958849D01*
X102070000Y-117508000D01*
X102070000Y-121557607D01*
X101999683Y-121570838D01*
X101783559Y-121709910D01*
X101638569Y-121922110D01*
X101587560Y-122174000D01*
X99987000Y-122174000D01*
X99987000Y-117635000D01*
X99950561Y-117451809D01*
X99877768Y-117085850D01*
X99566699Y-116620302D01*
X98931698Y-115985302D01*
X98731089Y-115851259D01*
X98681090Y-115773559D01*
X98468890Y-115628569D01*
X98217000Y-115577560D01*
X97980143Y-115577560D01*
X97917000Y-115565000D01*
X97853857Y-115577560D01*
X97617000Y-115577560D01*
X97381683Y-115621838D01*
X97282472Y-115685678D01*
X97198890Y-115628569D01*
X96947000Y-115577560D01*
X96347000Y-115577560D01*
X96111683Y-115621838D01*
X96012472Y-115685678D01*
X95928890Y-115628569D01*
X95677000Y-115577560D01*
X95077000Y-115577560D01*
X94841683Y-115621838D01*
X94742472Y-115685678D01*
X94658890Y-115628569D01*
X94407000Y-115577560D01*
X94170144Y-115577560D01*
X94107000Y-115565000D01*
X94043856Y-115577560D01*
X93807000Y-115577560D01*
X93571683Y-115621838D01*
X93355559Y-115760910D01*
X93294596Y-115850133D01*
X93092302Y-115985301D01*
X92457302Y-116620302D01*
X92146233Y-117085849D01*
X92037000Y-117635000D01*
X92037000Y-121557607D01*
X91966683Y-121570838D01*
X91750559Y-121709910D01*
X91605569Y-121922110D01*
X91554560Y-122174000D01*
X89789000Y-122174000D01*
X89789000Y-104648000D01*
X92972000Y-104648000D01*
X93058397Y-105082345D01*
X93172000Y-105252364D01*
X93172000Y-110763569D01*
X93159560Y-110825000D01*
X93159560Y-112375000D01*
X93203838Y-112610317D01*
X93342910Y-112826441D01*
X93555110Y-112971431D01*
X93807000Y-113022440D01*
X94407000Y-113022440D01*
X94642317Y-112978162D01*
X94741528Y-112914322D01*
X94825110Y-112971431D01*
X95077000Y-113022440D01*
X95677000Y-113022440D01*
X95912317Y-112978162D01*
X96011528Y-112914322D01*
X96095110Y-112971431D01*
X96347000Y-113022440D01*
X96947000Y-113022440D01*
X97182317Y-112978162D01*
X97272980Y-112919822D01*
X97490690Y-113010000D01*
X97631250Y-113010000D01*
X97790000Y-112851250D01*
X97790000Y-111727000D01*
X98044000Y-111727000D01*
X98044000Y-112851250D01*
X98202750Y-113010000D01*
X98343310Y-113010000D01*
X98576699Y-112913327D01*
X98755327Y-112734698D01*
X98852000Y-112501309D01*
X98852000Y-111885750D01*
X98693250Y-111727000D01*
X98044000Y-111727000D01*
X97790000Y-111727000D01*
X97770000Y-111727000D01*
X97770000Y-111473000D01*
X97790000Y-111473000D01*
X97790000Y-110348750D01*
X98044000Y-110348750D01*
X98044000Y-111473000D01*
X98693250Y-111473000D01*
X98852000Y-111314250D01*
X98852000Y-110698691D01*
X98755327Y-110465302D01*
X98576699Y-110286673D01*
X98343310Y-110190000D01*
X98202750Y-110190000D01*
X98044000Y-110348750D01*
X97790000Y-110348750D01*
X97696270Y-110255020D01*
X98090145Y-109861145D01*
X98292827Y-109557809D01*
X98364000Y-109200000D01*
X98364000Y-107917630D01*
X98414317Y-107908162D01*
X98630441Y-107769090D01*
X98676969Y-107700994D01*
X98819302Y-107843327D01*
X99052691Y-107940000D01*
X99643250Y-107940000D01*
X99802000Y-107781250D01*
X99802000Y-106807000D01*
X100056000Y-106807000D01*
X100056000Y-107781250D01*
X100214750Y-107940000D01*
X100805309Y-107940000D01*
X101038698Y-107843327D01*
X101217327Y-107664699D01*
X101314000Y-107431310D01*
X101314000Y-106965750D01*
X101155250Y-106807000D01*
X100056000Y-106807000D01*
X99802000Y-106807000D01*
X99782000Y-106807000D01*
X99782000Y-106553000D01*
X99802000Y-106553000D01*
X99802000Y-105578750D01*
X100056000Y-105578750D01*
X100056000Y-106553000D01*
X101155250Y-106553000D01*
X101314000Y-106394250D01*
X101314000Y-105928690D01*
X101217327Y-105695301D01*
X101038698Y-105516673D01*
X100805309Y-105420000D01*
X100214750Y-105420000D01*
X100056000Y-105578750D01*
X99802000Y-105578750D01*
X99643250Y-105420000D01*
X99052691Y-105420000D01*
X98819302Y-105516673D01*
X98678064Y-105657910D01*
X98643090Y-105603559D01*
X98430890Y-105458569D01*
X98179000Y-105407560D01*
X96679000Y-105407560D01*
X96443683Y-105451838D01*
X96227559Y-105590910D01*
X96082569Y-105803110D01*
X96031560Y-106055000D01*
X96031560Y-107305000D01*
X96075838Y-107540317D01*
X96214910Y-107756441D01*
X96427110Y-107901431D01*
X96494000Y-107914977D01*
X96494000Y-108812710D01*
X96312000Y-108994710D01*
X96312000Y-108966816D01*
X96312162Y-108780833D01*
X96170117Y-108437057D01*
X95907327Y-108173808D01*
X95563799Y-108031162D01*
X95191833Y-108030838D01*
X95042000Y-108092748D01*
X95042000Y-105318132D01*
X96355132Y-104005000D01*
X103170014Y-104005000D01*
X103149173Y-104036191D01*
X103078000Y-104394000D01*
X103078000Y-110763569D01*
X103065560Y-110825000D01*
X103065560Y-112375000D01*
X103109838Y-112610317D01*
X103248910Y-112826441D01*
X103461110Y-112971431D01*
X103713000Y-113022440D01*
X104313000Y-113022440D01*
X104548317Y-112978162D01*
X104647528Y-112914322D01*
X104731110Y-112971431D01*
X104983000Y-113022440D01*
X105583000Y-113022440D01*
X105818317Y-112978162D01*
X105917528Y-112914322D01*
X106001110Y-112971431D01*
X106253000Y-113022440D01*
X106853000Y-113022440D01*
X107088317Y-112978162D01*
X107178980Y-112919822D01*
X107396690Y-113010000D01*
X107537250Y-113010000D01*
X107696000Y-112851250D01*
X107696000Y-111727000D01*
X107950000Y-111727000D01*
X107950000Y-112851250D01*
X108108750Y-113010000D01*
X108249310Y-113010000D01*
X108482699Y-112913327D01*
X108661327Y-112734698D01*
X108758000Y-112501309D01*
X108758000Y-111885750D01*
X108599250Y-111727000D01*
X107950000Y-111727000D01*
X107696000Y-111727000D01*
X107676000Y-111727000D01*
X107676000Y-111473000D01*
X107696000Y-111473000D01*
X107696000Y-111453000D01*
X107950000Y-111453000D01*
X107950000Y-111473000D01*
X108599250Y-111473000D01*
X108758000Y-111314250D01*
X108758000Y-110698691D01*
X108661327Y-110465302D01*
X108482699Y-110286673D01*
X108249310Y-110190000D01*
X108108750Y-110190000D01*
X108003133Y-110295617D01*
X108071827Y-110192809D01*
X108143000Y-109835000D01*
X108143000Y-107917630D01*
X108193317Y-107908162D01*
X108409441Y-107769090D01*
X108455969Y-107700994D01*
X108598302Y-107843327D01*
X108831691Y-107940000D01*
X109422250Y-107940000D01*
X109581000Y-107781250D01*
X109581000Y-106807000D01*
X109835000Y-106807000D01*
X109835000Y-107781250D01*
X109993750Y-107940000D01*
X110584309Y-107940000D01*
X110817698Y-107843327D01*
X110996327Y-107664699D01*
X111093000Y-107431310D01*
X111093000Y-106965750D01*
X110934250Y-106807000D01*
X109835000Y-106807000D01*
X109581000Y-106807000D01*
X109561000Y-106807000D01*
X109561000Y-106553000D01*
X109581000Y-106553000D01*
X109581000Y-105578750D01*
X109835000Y-105578750D01*
X109835000Y-106553000D01*
X110934250Y-106553000D01*
X111093000Y-106394250D01*
X111093000Y-105928690D01*
X110996327Y-105695301D01*
X110817698Y-105516673D01*
X110584309Y-105420000D01*
X109993750Y-105420000D01*
X109835000Y-105578750D01*
X109581000Y-105578750D01*
X109422250Y-105420000D01*
X108831691Y-105420000D01*
X108598302Y-105516673D01*
X108457064Y-105657910D01*
X108422090Y-105603559D01*
X108209890Y-105458569D01*
X107958000Y-105407560D01*
X106458000Y-105407560D01*
X106222683Y-105451838D01*
X106006559Y-105590910D01*
X105861569Y-105803110D01*
X105810560Y-106055000D01*
X105810560Y-107305000D01*
X105854838Y-107540317D01*
X105993910Y-107756441D01*
X106206110Y-107901431D01*
X106273000Y-107914977D01*
X106273000Y-109447710D01*
X106218000Y-109502710D01*
X106218000Y-108966816D01*
X106218162Y-108780833D01*
X106076117Y-108437057D01*
X105813327Y-108173808D01*
X105469799Y-108031162D01*
X105097833Y-108030838D01*
X104948000Y-108092748D01*
X104948000Y-104781290D01*
X105724290Y-104005000D01*
X113499731Y-104005000D01*
X113309173Y-104290191D01*
X113238000Y-104648000D01*
X113238000Y-110763569D01*
X113225560Y-110825000D01*
X113225560Y-112375000D01*
X113269838Y-112610317D01*
X113408910Y-112826441D01*
X113621110Y-112971431D01*
X113873000Y-113022440D01*
X114473000Y-113022440D01*
X114708317Y-112978162D01*
X114807528Y-112914322D01*
X114891110Y-112971431D01*
X115143000Y-113022440D01*
X115743000Y-113022440D01*
X115978317Y-112978162D01*
X116077528Y-112914322D01*
X116161110Y-112971431D01*
X116413000Y-113022440D01*
X117013000Y-113022440D01*
X117248317Y-112978162D01*
X117338980Y-112919822D01*
X117556690Y-113010000D01*
X117697250Y-113010000D01*
X117856000Y-112851250D01*
X117856000Y-111727000D01*
X118110000Y-111727000D01*
X118110000Y-112851250D01*
X118268750Y-113010000D01*
X118409310Y-113010000D01*
X118642699Y-112913327D01*
X118821327Y-112734698D01*
X118918000Y-112501309D01*
X118918000Y-111885750D01*
X118759250Y-111727000D01*
X118110000Y-111727000D01*
X117856000Y-111727000D01*
X117836000Y-111727000D01*
X117836000Y-111473000D01*
X117856000Y-111473000D01*
X117856000Y-110348750D01*
X118110000Y-110348750D01*
X118110000Y-111473000D01*
X118759250Y-111473000D01*
X118918000Y-111314250D01*
X118918000Y-110698691D01*
X118821327Y-110465302D01*
X118642699Y-110286673D01*
X118409310Y-110190000D01*
X118268750Y-110190000D01*
X118110000Y-110348750D01*
X117856000Y-110348750D01*
X117825770Y-110318520D01*
X118029145Y-110115145D01*
X118231827Y-109811809D01*
X118303000Y-109454000D01*
X118303000Y-107917630D01*
X118353317Y-107908162D01*
X118569441Y-107769090D01*
X118615969Y-107700994D01*
X118758302Y-107843327D01*
X118991691Y-107940000D01*
X119582250Y-107940000D01*
X119741000Y-107781250D01*
X119741000Y-106807000D01*
X119995000Y-106807000D01*
X119995000Y-107781250D01*
X120153750Y-107940000D01*
X120744309Y-107940000D01*
X120977698Y-107843327D01*
X121156327Y-107664699D01*
X121253000Y-107431310D01*
X121253000Y-106965750D01*
X121094250Y-106807000D01*
X119995000Y-106807000D01*
X119741000Y-106807000D01*
X119721000Y-106807000D01*
X119721000Y-106553000D01*
X119741000Y-106553000D01*
X119741000Y-105578750D01*
X119995000Y-105578750D01*
X119995000Y-106553000D01*
X121094250Y-106553000D01*
X121253000Y-106394250D01*
X121253000Y-105928690D01*
X121156327Y-105695301D01*
X120977698Y-105516673D01*
X120744309Y-105420000D01*
X120153750Y-105420000D01*
X119995000Y-105578750D01*
X119741000Y-105578750D01*
X119582250Y-105420000D01*
X118991691Y-105420000D01*
X118758302Y-105516673D01*
X118617064Y-105657910D01*
X118582090Y-105603559D01*
X118369890Y-105458569D01*
X118118000Y-105407560D01*
X116618000Y-105407560D01*
X116382683Y-105451838D01*
X116166559Y-105590910D01*
X116021569Y-105803110D01*
X115970560Y-106055000D01*
X115970560Y-107305000D01*
X116014838Y-107540317D01*
X116153910Y-107756441D01*
X116366110Y-107901431D01*
X116433000Y-107914977D01*
X116433000Y-109066710D01*
X116378000Y-109121710D01*
X116378000Y-108966816D01*
X116378162Y-108780833D01*
X116236117Y-108437057D01*
X115973327Y-108173808D01*
X115629799Y-108031162D01*
X115257833Y-108030838D01*
X115108000Y-108092748D01*
X115108000Y-105035290D01*
X116138290Y-104005000D01*
X118110000Y-104005000D01*
X118544346Y-103918603D01*
X118912566Y-103672566D01*
X121285000Y-101300132D01*
X123530434Y-103545566D01*
X123898654Y-103791603D01*
X124333000Y-103878000D01*
X147132710Y-103878000D01*
X149941000Y-106686290D01*
X149941000Y-110763569D01*
X149928560Y-110825000D01*
X149928560Y-112375000D01*
X149972838Y-112610317D01*
X150111910Y-112826441D01*
X150324110Y-112971431D01*
X150576000Y-113022440D01*
X151176000Y-113022440D01*
X151411317Y-112978162D01*
X151510528Y-112914322D01*
X151594110Y-112971431D01*
X151846000Y-113022440D01*
X152446000Y-113022440D01*
X152681317Y-112978162D01*
X152780528Y-112914322D01*
X152864110Y-112971431D01*
X153116000Y-113022440D01*
X153716000Y-113022440D01*
X153951317Y-112978162D01*
X154041980Y-112919822D01*
X154259690Y-113010000D01*
X154400250Y-113010000D01*
X154559000Y-112851250D01*
X154559000Y-111727000D01*
X154813000Y-111727000D01*
X154813000Y-112851250D01*
X154971750Y-113010000D01*
X155112310Y-113010000D01*
X155345699Y-112913327D01*
X155524327Y-112734698D01*
X155621000Y-112501309D01*
X155621000Y-111885750D01*
X155462250Y-111727000D01*
X154813000Y-111727000D01*
X154559000Y-111727000D01*
X154539000Y-111727000D01*
X154539000Y-111473000D01*
X154559000Y-111473000D01*
X154559000Y-110348750D01*
X154813000Y-110348750D01*
X154813000Y-111473000D01*
X155462250Y-111473000D01*
X155621000Y-111314250D01*
X155621000Y-110698691D01*
X155524327Y-110465302D01*
X155345699Y-110286673D01*
X155112310Y-110190000D01*
X154971750Y-110190000D01*
X154813000Y-110348750D01*
X154559000Y-110348750D01*
X154465270Y-110255020D01*
X154859145Y-109861145D01*
X155061827Y-109557809D01*
X155133000Y-109200000D01*
X155133000Y-107917630D01*
X155183317Y-107908162D01*
X155399441Y-107769090D01*
X155445969Y-107700994D01*
X155588302Y-107843327D01*
X155821691Y-107940000D01*
X156412250Y-107940000D01*
X156571000Y-107781250D01*
X156571000Y-106807000D01*
X156825000Y-106807000D01*
X156825000Y-107781250D01*
X156983750Y-107940000D01*
X157574309Y-107940000D01*
X157807698Y-107843327D01*
X157986327Y-107664699D01*
X158083000Y-107431310D01*
X158083000Y-106965750D01*
X157924250Y-106807000D01*
X156825000Y-106807000D01*
X156571000Y-106807000D01*
X156551000Y-106807000D01*
X156551000Y-106553000D01*
X156571000Y-106553000D01*
X156571000Y-105578750D01*
X156825000Y-105578750D01*
X156825000Y-106553000D01*
X157924250Y-106553000D01*
X158083000Y-106394250D01*
X158083000Y-105928690D01*
X157986327Y-105695301D01*
X157807698Y-105516673D01*
X157574309Y-105420000D01*
X156983750Y-105420000D01*
X156825000Y-105578750D01*
X156571000Y-105578750D01*
X156412250Y-105420000D01*
X155821691Y-105420000D01*
X155588302Y-105516673D01*
X155447064Y-105657910D01*
X155412090Y-105603559D01*
X155199890Y-105458569D01*
X154948000Y-105407560D01*
X153448000Y-105407560D01*
X153212683Y-105451838D01*
X152996559Y-105590910D01*
X152851569Y-105803110D01*
X152800560Y-106055000D01*
X152800560Y-107305000D01*
X152844838Y-107540317D01*
X152983910Y-107756441D01*
X153196110Y-107901431D01*
X153263000Y-107914977D01*
X153263000Y-108812710D01*
X153081000Y-108994710D01*
X153081000Y-108966816D01*
X153081162Y-108780833D01*
X152939117Y-108437057D01*
X152676327Y-108173808D01*
X152332799Y-108031162D01*
X151960833Y-108030838D01*
X151811000Y-108092748D01*
X151811000Y-106299000D01*
X151739827Y-105941191D01*
X151537145Y-105637855D01*
X149777290Y-103878000D01*
X156784710Y-103878000D01*
X159974000Y-107067290D01*
X159974000Y-110763569D01*
X159961560Y-110825000D01*
X159961560Y-112375000D01*
X160005838Y-112610317D01*
X160144910Y-112826441D01*
X160357110Y-112971431D01*
X160609000Y-113022440D01*
X161209000Y-113022440D01*
X161444317Y-112978162D01*
X161543528Y-112914322D01*
X161627110Y-112971431D01*
X161879000Y-113022440D01*
X162479000Y-113022440D01*
X162714317Y-112978162D01*
X162813528Y-112914322D01*
X162897110Y-112971431D01*
X163149000Y-113022440D01*
X163749000Y-113022440D01*
X163984317Y-112978162D01*
X164074980Y-112919822D01*
X164292690Y-113010000D01*
X164433250Y-113010000D01*
X164592000Y-112851250D01*
X164592000Y-111727000D01*
X164846000Y-111727000D01*
X164846000Y-112851250D01*
X165004750Y-113010000D01*
X165145310Y-113010000D01*
X165378699Y-112913327D01*
X165557327Y-112734698D01*
X165654000Y-112501309D01*
X165654000Y-111885750D01*
X165495250Y-111727000D01*
X164846000Y-111727000D01*
X164592000Y-111727000D01*
X164572000Y-111727000D01*
X164572000Y-111473000D01*
X164592000Y-111473000D01*
X164592000Y-110348750D01*
X164846000Y-110348750D01*
X164846000Y-111473000D01*
X165495250Y-111473000D01*
X165654000Y-111314250D01*
X165654000Y-110698691D01*
X165557327Y-110465302D01*
X165378699Y-110286673D01*
X165145310Y-110190000D01*
X165004750Y-110190000D01*
X164846000Y-110348750D01*
X164592000Y-110348750D01*
X164561770Y-110318520D01*
X164892145Y-109988145D01*
X165094827Y-109684809D01*
X165166000Y-109327000D01*
X165166000Y-107663630D01*
X165216317Y-107654162D01*
X165432441Y-107515090D01*
X165478969Y-107446994D01*
X165621302Y-107589327D01*
X165854691Y-107686000D01*
X166445250Y-107686000D01*
X166604000Y-107527250D01*
X166604000Y-106553000D01*
X166858000Y-106553000D01*
X166858000Y-107527250D01*
X167016750Y-107686000D01*
X167607309Y-107686000D01*
X167840698Y-107589327D01*
X168019327Y-107410699D01*
X168116000Y-107177310D01*
X168116000Y-106711750D01*
X167957250Y-106553000D01*
X166858000Y-106553000D01*
X166604000Y-106553000D01*
X166584000Y-106553000D01*
X166584000Y-106299000D01*
X166604000Y-106299000D01*
X166604000Y-105324750D01*
X166858000Y-105324750D01*
X166858000Y-106299000D01*
X167957250Y-106299000D01*
X168116000Y-106140250D01*
X168116000Y-105674690D01*
X168019327Y-105441301D01*
X167840698Y-105262673D01*
X167607309Y-105166000D01*
X167016750Y-105166000D01*
X166858000Y-105324750D01*
X166604000Y-105324750D01*
X166445250Y-105166000D01*
X165854691Y-105166000D01*
X165621302Y-105262673D01*
X165480064Y-105403910D01*
X165445090Y-105349559D01*
X165232890Y-105204569D01*
X164981000Y-105153560D01*
X163481000Y-105153560D01*
X163245683Y-105197838D01*
X163029559Y-105336910D01*
X162884569Y-105549110D01*
X162833560Y-105801000D01*
X162833560Y-107051000D01*
X162877838Y-107286317D01*
X163016910Y-107502441D01*
X163229110Y-107647431D01*
X163296000Y-107660977D01*
X163296000Y-108939710D01*
X163114000Y-109121710D01*
X163114000Y-108966816D01*
X163114162Y-108780833D01*
X162972117Y-108437057D01*
X162709327Y-108173808D01*
X162365799Y-108031162D01*
X161993833Y-108030838D01*
X161844000Y-108092748D01*
X161844000Y-106680000D01*
X161772827Y-106322191D01*
X161570145Y-106018855D01*
X159429290Y-103878000D01*
X166534868Y-103878000D01*
X170139434Y-107482566D01*
X170261000Y-107563794D01*
X170261000Y-110763569D01*
X170248560Y-110825000D01*
X170248560Y-112375000D01*
X170292838Y-112610317D01*
X170431910Y-112826441D01*
X170644110Y-112971431D01*
X170896000Y-113022440D01*
X171496000Y-113022440D01*
X171731317Y-112978162D01*
X171830528Y-112914322D01*
X171914110Y-112971431D01*
X172166000Y-113022440D01*
X172766000Y-113022440D01*
X173001317Y-112978162D01*
X173100528Y-112914322D01*
X173184110Y-112971431D01*
X173436000Y-113022440D01*
X174036000Y-113022440D01*
X174271317Y-112978162D01*
X174361980Y-112919822D01*
X174579690Y-113010000D01*
X174720250Y-113010000D01*
X174879000Y-112851250D01*
X174879000Y-111727000D01*
X175133000Y-111727000D01*
X175133000Y-112851250D01*
X175291750Y-113010000D01*
X175432310Y-113010000D01*
X175665699Y-112913327D01*
X175844327Y-112734698D01*
X175941000Y-112501309D01*
X175941000Y-111885750D01*
X175782250Y-111727000D01*
X175133000Y-111727000D01*
X174879000Y-111727000D01*
X174859000Y-111727000D01*
X174859000Y-111473000D01*
X174879000Y-111473000D01*
X174879000Y-110348750D01*
X175133000Y-110348750D01*
X175133000Y-111473000D01*
X175782250Y-111473000D01*
X175941000Y-111314250D01*
X175941000Y-110698691D01*
X175844327Y-110465302D01*
X175665699Y-110286673D01*
X175432310Y-110190000D01*
X175291750Y-110190000D01*
X175133000Y-110348750D01*
X174879000Y-110348750D01*
X174721770Y-110191520D01*
X175179145Y-109734145D01*
X175381827Y-109430809D01*
X175453000Y-109073000D01*
X175453000Y-107663630D01*
X175503317Y-107654162D01*
X175719441Y-107515090D01*
X175765969Y-107446994D01*
X175908302Y-107589327D01*
X176141691Y-107686000D01*
X176732250Y-107686000D01*
X176891000Y-107527250D01*
X176891000Y-106553000D01*
X177145000Y-106553000D01*
X177145000Y-107527250D01*
X177303750Y-107686000D01*
X177894309Y-107686000D01*
X178127698Y-107589327D01*
X178306327Y-107410699D01*
X178403000Y-107177310D01*
X178403000Y-106711750D01*
X178244250Y-106553000D01*
X177145000Y-106553000D01*
X176891000Y-106553000D01*
X176871000Y-106553000D01*
X176871000Y-106299000D01*
X176891000Y-106299000D01*
X176891000Y-105324750D01*
X177145000Y-105324750D01*
X177145000Y-106299000D01*
X178244250Y-106299000D01*
X178403000Y-106140250D01*
X178403000Y-105674690D01*
X178306327Y-105441301D01*
X178127698Y-105262673D01*
X177894309Y-105166000D01*
X177303750Y-105166000D01*
X177145000Y-105324750D01*
X176891000Y-105324750D01*
X176732250Y-105166000D01*
X176141691Y-105166000D01*
X175908302Y-105262673D01*
X175767064Y-105403910D01*
X175732090Y-105349559D01*
X175519890Y-105204569D01*
X175268000Y-105153560D01*
X173768000Y-105153560D01*
X173532683Y-105197838D01*
X173316559Y-105336910D01*
X173171569Y-105549110D01*
X173120560Y-105801000D01*
X173120560Y-107051000D01*
X173164838Y-107286317D01*
X173303910Y-107502441D01*
X173516110Y-107647431D01*
X173583000Y-107660977D01*
X173583000Y-108685710D01*
X173401086Y-108867624D01*
X173401162Y-108780833D01*
X173259117Y-108437057D01*
X172996327Y-108173808D01*
X172652799Y-108031162D01*
X172280833Y-108030838D01*
X172131000Y-108092748D01*
X172131000Y-107061000D01*
X172066107Y-106734763D01*
X172077000Y-106680000D01*
X171990603Y-106245655D01*
X171744566Y-105877434D01*
X168610132Y-102743000D01*
X177236600Y-94116532D01*
X184193073Y-94116532D01*
X184291736Y-94383387D01*
X184901461Y-94609908D01*
X185551460Y-94585856D01*
X186040264Y-94383387D01*
X186138927Y-94116532D01*
X185166000Y-93143605D01*
X184193073Y-94116532D01*
X177236600Y-94116532D01*
X177332566Y-94020566D01*
X177347188Y-93998683D01*
X177578603Y-93652346D01*
X177665000Y-93218000D01*
X177665000Y-92699461D01*
X183520092Y-92699461D01*
X183544144Y-93349460D01*
X183746613Y-93838264D01*
X184013468Y-93936927D01*
X184986395Y-92964000D01*
X185345605Y-92964000D01*
X186318532Y-93936927D01*
X186585387Y-93838264D01*
X186811908Y-93228539D01*
X186787856Y-92578540D01*
X186585387Y-92089736D01*
X186318532Y-91991073D01*
X185345605Y-92964000D01*
X184986395Y-92964000D01*
X184013468Y-91991073D01*
X183746613Y-92089736D01*
X183520092Y-92699461D01*
X177665000Y-92699461D01*
X177665000Y-91811468D01*
X184193073Y-91811468D01*
X185166000Y-92784395D01*
X186138927Y-91811468D01*
X186040264Y-91544613D01*
X185430539Y-91318092D01*
X184780540Y-91342144D01*
X184291736Y-91544613D01*
X184193073Y-91811468D01*
X177665000Y-91811468D01*
X177665000Y-80079795D01*
X183530716Y-80079795D01*
X183779106Y-80680943D01*
X184238637Y-81141278D01*
X184839352Y-81390716D01*
X185489795Y-81391284D01*
X186090943Y-81142894D01*
X186551278Y-80683363D01*
X186800716Y-80082648D01*
X186801284Y-79432205D01*
X186552894Y-78831057D01*
X186093363Y-78370722D01*
X185492648Y-78121284D01*
X184842205Y-78120716D01*
X184241057Y-78369106D01*
X183780722Y-78828637D01*
X183531284Y-79429352D01*
X183530716Y-80079795D01*
X177665000Y-80079795D01*
X177665000Y-72336078D01*
X178185378Y-72336078D01*
X178214917Y-72846428D01*
X178353389Y-73180729D01*
X178583984Y-73236410D01*
X179303395Y-72517000D01*
X178583984Y-71797590D01*
X178353389Y-71853271D01*
X178185378Y-72336078D01*
X177665000Y-72336078D01*
X177665000Y-71617984D01*
X178763590Y-71617984D01*
X179483000Y-72337395D01*
X179497142Y-72323252D01*
X179676748Y-72502858D01*
X179662605Y-72517000D01*
X179676748Y-72531142D01*
X179497142Y-72710748D01*
X179483000Y-72696605D01*
X178763590Y-73416016D01*
X178819271Y-73646611D01*
X179302078Y-73814622D01*
X179812428Y-73785083D01*
X180146729Y-73646611D01*
X180202410Y-73416018D01*
X180304072Y-73517680D01*
X180368910Y-73618441D01*
X180581110Y-73763431D01*
X180833000Y-73814440D01*
X182133000Y-73814440D01*
X182368317Y-73770162D01*
X182584441Y-73631090D01*
X182729431Y-73418890D01*
X182780440Y-73167000D01*
X182780440Y-71867000D01*
X182736162Y-71631683D01*
X182597090Y-71415559D01*
X182384890Y-71270569D01*
X182133000Y-71219560D01*
X180833000Y-71219560D01*
X180597683Y-71263838D01*
X180381559Y-71402910D01*
X180304063Y-71516329D01*
X180202410Y-71617982D01*
X180146729Y-71387389D01*
X179663922Y-71219378D01*
X179153572Y-71248917D01*
X178819271Y-71387389D01*
X178763590Y-71617984D01*
X177665000Y-71617984D01*
X177665000Y-70485000D01*
X177578603Y-70050654D01*
X177332566Y-69682434D01*
X175173566Y-67523434D01*
X175074630Y-67457327D01*
X174805346Y-67277397D01*
X174371000Y-67191000D01*
X172018290Y-67191000D01*
X170988000Y-66160710D01*
X170988000Y-65293480D01*
X183770020Y-65293480D01*
X183770020Y-67293480D01*
X183814298Y-67528797D01*
X183953370Y-67744921D01*
X184165570Y-67889911D01*
X184417460Y-67940920D01*
X186417460Y-67940920D01*
X186652777Y-67896642D01*
X186868901Y-67757570D01*
X187013891Y-67545370D01*
X187064900Y-67293480D01*
X187064900Y-65293480D01*
X187020622Y-65058163D01*
X186881550Y-64842039D01*
X186669350Y-64697049D01*
X186417460Y-64646040D01*
X184417460Y-64646040D01*
X184182143Y-64690318D01*
X183966019Y-64829390D01*
X183821029Y-65041590D01*
X183770020Y-65293480D01*
X170988000Y-65293480D01*
X170988000Y-62210431D01*
X171000440Y-62149000D01*
X171000440Y-61537694D01*
X178451226Y-61537694D01*
X178699538Y-62138655D01*
X179158927Y-62598846D01*
X179759453Y-62848206D01*
X180409694Y-62848774D01*
X181010655Y-62600462D01*
X181470846Y-62141073D01*
X181720206Y-61540547D01*
X181720774Y-60890306D01*
X181472462Y-60289345D01*
X181013073Y-59829154D01*
X180412547Y-59579794D01*
X179762306Y-59579226D01*
X179161345Y-59827538D01*
X178701154Y-60286927D01*
X178451794Y-60887453D01*
X178451226Y-61537694D01*
X171000440Y-61537694D01*
X171000440Y-60599000D01*
X170956162Y-60363683D01*
X170817090Y-60147559D01*
X170604890Y-60002569D01*
X170353000Y-59951560D01*
X169753000Y-59951560D01*
X169517683Y-59995838D01*
X169418472Y-60059678D01*
X169334890Y-60002569D01*
X169083000Y-59951560D01*
X168483000Y-59951560D01*
X168247683Y-59995838D01*
X168148472Y-60059678D01*
X168064890Y-60002569D01*
X167813000Y-59951560D01*
X167213000Y-59951560D01*
X166977683Y-59995838D01*
X166887020Y-60054178D01*
X166669310Y-59964000D01*
X166528750Y-59964000D01*
X166370000Y-60122750D01*
X166370000Y-61247000D01*
X166390000Y-61247000D01*
X166390000Y-61501000D01*
X166370000Y-61501000D01*
X166370000Y-62625250D01*
X166400230Y-62655480D01*
X166069855Y-62985855D01*
X165867173Y-63289191D01*
X165796000Y-63647000D01*
X165796000Y-65056370D01*
X165745683Y-65065838D01*
X165529559Y-65204910D01*
X165483031Y-65273006D01*
X165340698Y-65130673D01*
X165107309Y-65034000D01*
X164516750Y-65034000D01*
X164358000Y-65192750D01*
X164358000Y-66167000D01*
X164378000Y-66167000D01*
X164378000Y-66421000D01*
X164358000Y-66421000D01*
X164358000Y-66441000D01*
X164104000Y-66441000D01*
X164104000Y-66421000D01*
X163004750Y-66421000D01*
X162846000Y-66579750D01*
X162846000Y-67045310D01*
X162906347Y-67191000D01*
X161858290Y-67191000D01*
X160828000Y-66160710D01*
X160828000Y-65542690D01*
X162846000Y-65542690D01*
X162846000Y-66008250D01*
X163004750Y-66167000D01*
X164104000Y-66167000D01*
X164104000Y-65192750D01*
X163945250Y-65034000D01*
X163354691Y-65034000D01*
X163121302Y-65130673D01*
X162942673Y-65309301D01*
X162846000Y-65542690D01*
X160828000Y-65542690D01*
X160828000Y-62210431D01*
X160840440Y-62149000D01*
X160840440Y-61659750D01*
X165308000Y-61659750D01*
X165308000Y-62275309D01*
X165404673Y-62508698D01*
X165583301Y-62687327D01*
X165816690Y-62784000D01*
X165957250Y-62784000D01*
X166116000Y-62625250D01*
X166116000Y-61501000D01*
X165466750Y-61501000D01*
X165308000Y-61659750D01*
X160840440Y-61659750D01*
X160840440Y-60599000D01*
X160816674Y-60472691D01*
X165308000Y-60472691D01*
X165308000Y-61088250D01*
X165466750Y-61247000D01*
X166116000Y-61247000D01*
X166116000Y-60122750D01*
X165957250Y-59964000D01*
X165816690Y-59964000D01*
X165583301Y-60060673D01*
X165404673Y-60239302D01*
X165308000Y-60472691D01*
X160816674Y-60472691D01*
X160796162Y-60363683D01*
X160657090Y-60147559D01*
X160444890Y-60002569D01*
X160193000Y-59951560D01*
X159593000Y-59951560D01*
X159357683Y-59995838D01*
X159258472Y-60059678D01*
X159174890Y-60002569D01*
X158923000Y-59951560D01*
X158323000Y-59951560D01*
X158087683Y-59995838D01*
X157988472Y-60059678D01*
X157904890Y-60002569D01*
X157653000Y-59951560D01*
X157053000Y-59951560D01*
X156817683Y-59995838D01*
X156727020Y-60054178D01*
X156509310Y-59964000D01*
X156368750Y-59964000D01*
X156210000Y-60122750D01*
X156210000Y-61247000D01*
X156230000Y-61247000D01*
X156230000Y-61501000D01*
X156210000Y-61501000D01*
X156210000Y-62625250D01*
X156368750Y-62784000D01*
X156418000Y-62784000D01*
X156418000Y-62858710D01*
X155909855Y-63366855D01*
X155707173Y-63670191D01*
X155636000Y-64028000D01*
X155636000Y-65056370D01*
X155585683Y-65065838D01*
X155369559Y-65204910D01*
X155323031Y-65273006D01*
X155180698Y-65130673D01*
X154947309Y-65034000D01*
X154356750Y-65034000D01*
X154198000Y-65192750D01*
X154198000Y-66167000D01*
X154218000Y-66167000D01*
X154218000Y-66421000D01*
X154198000Y-66421000D01*
X154198000Y-67395250D01*
X154356750Y-67554000D01*
X154947309Y-67554000D01*
X155180698Y-67457327D01*
X155321936Y-67316090D01*
X155356910Y-67370441D01*
X155569110Y-67515431D01*
X155821000Y-67566440D01*
X157321000Y-67566440D01*
X157556317Y-67522162D01*
X157772441Y-67383090D01*
X157917431Y-67170890D01*
X157968440Y-66919000D01*
X157968440Y-65669000D01*
X157924162Y-65433683D01*
X157785090Y-65217559D01*
X157572890Y-65072569D01*
X157506000Y-65059023D01*
X157506000Y-64415290D01*
X157736749Y-64184541D01*
X157829883Y-64409943D01*
X158092673Y-64673192D01*
X158436201Y-64815838D01*
X158808167Y-64816162D01*
X158958000Y-64754252D01*
X158958000Y-66548000D01*
X159029173Y-66905809D01*
X159231855Y-67209145D01*
X160423970Y-68401260D01*
X160495397Y-68760346D01*
X160741434Y-69128566D01*
X161109654Y-69374603D01*
X161544000Y-69461000D01*
X173900868Y-69461000D01*
X175395000Y-70955132D01*
X175395000Y-92747868D01*
X166534868Y-101608000D01*
X138107712Y-101608000D01*
X141447856Y-98267856D01*
X141672215Y-97932077D01*
X141751001Y-97536000D01*
X141751000Y-97535995D01*
X141751000Y-93414694D01*
X159655226Y-93414694D01*
X159903538Y-94015655D01*
X160362927Y-94475846D01*
X160963453Y-94725206D01*
X161613694Y-94725774D01*
X162214655Y-94477462D01*
X162576215Y-94116532D01*
X165651073Y-94116532D01*
X165749736Y-94383387D01*
X166359461Y-94609908D01*
X167009460Y-94585856D01*
X167498264Y-94383387D01*
X167596927Y-94116532D01*
X166624000Y-93143605D01*
X165651073Y-94116532D01*
X162576215Y-94116532D01*
X162674846Y-94018073D01*
X162924206Y-93417547D01*
X162924774Y-92767306D01*
X162896742Y-92699461D01*
X164978092Y-92699461D01*
X165002144Y-93349460D01*
X165204613Y-93838264D01*
X165471468Y-93936927D01*
X166444395Y-92964000D01*
X166803605Y-92964000D01*
X167776532Y-93936927D01*
X168043387Y-93838264D01*
X168269908Y-93228539D01*
X168245856Y-92578540D01*
X168043387Y-92089736D01*
X167776532Y-91991073D01*
X166803605Y-92964000D01*
X166444395Y-92964000D01*
X165471468Y-91991073D01*
X165204613Y-92089736D01*
X164978092Y-92699461D01*
X162896742Y-92699461D01*
X162676462Y-92166345D01*
X162322204Y-91811468D01*
X165651073Y-91811468D01*
X166624000Y-92784395D01*
X167596927Y-91811468D01*
X167498264Y-91544613D01*
X166888539Y-91318092D01*
X166238540Y-91342144D01*
X165749736Y-91544613D01*
X165651073Y-91811468D01*
X162322204Y-91811468D01*
X162217073Y-91706154D01*
X161616547Y-91456794D01*
X160966306Y-91456226D01*
X160365345Y-91704538D01*
X159905154Y-92163927D01*
X159655794Y-92764453D01*
X159655226Y-93414694D01*
X141751000Y-93414694D01*
X141751000Y-85576026D01*
X143426642Y-85576026D01*
X143429291Y-85591791D01*
X143683268Y-86119036D01*
X144119680Y-86508954D01*
X144672087Y-86702184D01*
X144907000Y-86557924D01*
X144907000Y-85344000D01*
X145161000Y-85344000D01*
X145161000Y-86557924D01*
X145395913Y-86702184D01*
X145948320Y-86508954D01*
X146384732Y-86119036D01*
X146638709Y-85591791D01*
X146641358Y-85576026D01*
X146520217Y-85344000D01*
X145161000Y-85344000D01*
X144907000Y-85344000D01*
X143547783Y-85344000D01*
X143426642Y-85576026D01*
X141751000Y-85576026D01*
X141751000Y-85137712D01*
X143176711Y-83712000D01*
X143773101Y-83712000D01*
X143789585Y-83736670D01*
X144099069Y-83943461D01*
X143683268Y-84314964D01*
X143429291Y-84842209D01*
X143426642Y-84857974D01*
X143547783Y-85090000D01*
X144907000Y-85090000D01*
X144907000Y-85070000D01*
X145161000Y-85070000D01*
X145161000Y-85090000D01*
X146520217Y-85090000D01*
X146641358Y-84857974D01*
X146638709Y-84842209D01*
X146384732Y-84314964D01*
X145968931Y-83943461D01*
X146278415Y-83736670D01*
X146603271Y-83250489D01*
X146717345Y-82677000D01*
X146603271Y-82103511D01*
X146278415Y-81617330D01*
X145963634Y-81407000D01*
X146278415Y-81196670D01*
X146603271Y-80710489D01*
X146717345Y-80137000D01*
X146603271Y-79563511D01*
X146278415Y-79077330D01*
X146264087Y-79067757D01*
X146285317Y-79063762D01*
X146501441Y-78924690D01*
X146646431Y-78712490D01*
X146697440Y-78460600D01*
X146697440Y-76733400D01*
X146653162Y-76498083D01*
X146514090Y-76281959D01*
X146301890Y-76136969D01*
X146050000Y-76085960D01*
X144018000Y-76085960D01*
X143782683Y-76130238D01*
X143566559Y-76269310D01*
X143421569Y-76481510D01*
X143370560Y-76733400D01*
X143370560Y-78460600D01*
X143414838Y-78695917D01*
X143553910Y-78912041D01*
X143766110Y-79057031D01*
X143807439Y-79065400D01*
X143789585Y-79077330D01*
X143464729Y-79563511D01*
X143350655Y-80137000D01*
X143464729Y-80710489D01*
X143789585Y-81196670D01*
X144104366Y-81407000D01*
X143789585Y-81617330D01*
X143773101Y-81642000D01*
X142748005Y-81642000D01*
X142748000Y-81641999D01*
X142351923Y-81720785D01*
X142016144Y-81945144D01*
X142016142Y-81945147D01*
X139984144Y-83977144D01*
X139759785Y-84312923D01*
X139680999Y-84709000D01*
X139681000Y-84709005D01*
X139681000Y-97107288D01*
X135180288Y-101608000D01*
X124803132Y-101608000D01*
X122420000Y-99224868D01*
X122420000Y-96845943D01*
X122600041Y-96730090D01*
X122745031Y-96517890D01*
X122753400Y-96476561D01*
X122765330Y-96494415D01*
X123251511Y-96819271D01*
X123825000Y-96933345D01*
X124398489Y-96819271D01*
X124884670Y-96494415D01*
X125091461Y-96184931D01*
X125462964Y-96600732D01*
X125990209Y-96854709D01*
X126005974Y-96857358D01*
X126238000Y-96736217D01*
X126238000Y-95377000D01*
X126218000Y-95377000D01*
X126218000Y-95123000D01*
X126238000Y-95123000D01*
X126238000Y-93763783D01*
X126492000Y-93763783D01*
X126492000Y-95123000D01*
X126512000Y-95123000D01*
X126512000Y-95377000D01*
X126492000Y-95377000D01*
X126492000Y-96736217D01*
X126724026Y-96857358D01*
X126739791Y-96854709D01*
X127267036Y-96600732D01*
X127638539Y-96184931D01*
X127845330Y-96494415D01*
X128331511Y-96819271D01*
X128905000Y-96933345D01*
X129478489Y-96819271D01*
X129964670Y-96494415D01*
X130289526Y-96008234D01*
X130403600Y-95434745D01*
X130403600Y-95065255D01*
X130289526Y-94491766D01*
X129964670Y-94005585D01*
X129478489Y-93680729D01*
X128905000Y-93566655D01*
X128331511Y-93680729D01*
X127845330Y-94005585D01*
X127638539Y-94315069D01*
X127267036Y-93899268D01*
X126739791Y-93645291D01*
X126724026Y-93642642D01*
X126492000Y-93763783D01*
X126238000Y-93763783D01*
X126005974Y-93642642D01*
X125990209Y-93645291D01*
X125462964Y-93899268D01*
X125091461Y-94315069D01*
X124884670Y-94005585D01*
X124398489Y-93680729D01*
X123825000Y-93566655D01*
X123251511Y-93680729D01*
X122765330Y-94005585D01*
X122755757Y-94019913D01*
X122751762Y-93998683D01*
X122612690Y-93782559D01*
X122400490Y-93637569D01*
X122148600Y-93586560D01*
X120421400Y-93586560D01*
X120186083Y-93630838D01*
X119969959Y-93769910D01*
X119824969Y-93982110D01*
X119816600Y-94023439D01*
X119804670Y-94005585D01*
X119318489Y-93680729D01*
X118745000Y-93566655D01*
X118171511Y-93680729D01*
X117685330Y-94005585D01*
X117475000Y-94320366D01*
X117264670Y-94005585D01*
X116778489Y-93680729D01*
X116205000Y-93566655D01*
X115631511Y-93680729D01*
X115145330Y-94005585D01*
X114935000Y-94320366D01*
X114724670Y-94005585D01*
X114238489Y-93680729D01*
X113665000Y-93566655D01*
X113091511Y-93680729D01*
X112605330Y-94005585D01*
X112395000Y-94320366D01*
X112184670Y-94005585D01*
X111698489Y-93680729D01*
X111125000Y-93566655D01*
X110551511Y-93680729D01*
X110065330Y-94005585D01*
X109855000Y-94320366D01*
X109644670Y-94005585D01*
X109158489Y-93680729D01*
X108585000Y-93566655D01*
X108011511Y-93680729D01*
X107525330Y-94005585D01*
X107315000Y-94320366D01*
X107104670Y-94005585D01*
X106618489Y-93680729D01*
X106045000Y-93566655D01*
X105471511Y-93680729D01*
X104985330Y-94005585D01*
X104775000Y-94320366D01*
X104564670Y-94005585D01*
X104078489Y-93680729D01*
X103505000Y-93566655D01*
X102931511Y-93680729D01*
X102445330Y-94005585D01*
X102435757Y-94019913D01*
X102431762Y-93998683D01*
X102292690Y-93782559D01*
X102080490Y-93637569D01*
X101828600Y-93586560D01*
X100101400Y-93586560D01*
X99866083Y-93630838D01*
X99649959Y-93769910D01*
X99504969Y-93982110D01*
X99453960Y-94234000D01*
X99453960Y-96266000D01*
X99498238Y-96501317D01*
X99637310Y-96717441D01*
X99849510Y-96862431D01*
X100101400Y-96913440D01*
X101828600Y-96913440D01*
X102063917Y-96869162D01*
X102280041Y-96730090D01*
X102425031Y-96517890D01*
X102433400Y-96476561D01*
X102445330Y-96494415D01*
X102931511Y-96819271D01*
X103505000Y-96933345D01*
X104078489Y-96819271D01*
X104564670Y-96494415D01*
X104775000Y-96179634D01*
X104985330Y-96494415D01*
X105471511Y-96819271D01*
X106045000Y-96933345D01*
X106618489Y-96819271D01*
X107104670Y-96494415D01*
X107315000Y-96179634D01*
X107525330Y-96494415D01*
X108011511Y-96819271D01*
X108585000Y-96933345D01*
X109158489Y-96819271D01*
X109644670Y-96494415D01*
X109855000Y-96179634D01*
X110065330Y-96494415D01*
X110551511Y-96819271D01*
X111125000Y-96933345D01*
X111698489Y-96819271D01*
X112184670Y-96494415D01*
X112395000Y-96179634D01*
X112605330Y-96494415D01*
X113091511Y-96819271D01*
X113665000Y-96933345D01*
X114238489Y-96819271D01*
X114724670Y-96494415D01*
X114935000Y-96179634D01*
X115145330Y-96494415D01*
X115631511Y-96819271D01*
X116205000Y-96933345D01*
X116778489Y-96819271D01*
X117264670Y-96494415D01*
X117475000Y-96179634D01*
X117685330Y-96494415D01*
X118171511Y-96819271D01*
X118745000Y-96933345D01*
X119318489Y-96819271D01*
X119804670Y-96494415D01*
X119814243Y-96480087D01*
X119818238Y-96501317D01*
X119957310Y-96717441D01*
X120150000Y-96849100D01*
X120150000Y-99224868D01*
X117639868Y-101735000D01*
X95885000Y-101735000D01*
X95450654Y-101821397D01*
X95166678Y-102011144D01*
X95082434Y-102067434D01*
X93304434Y-103845434D01*
X93058397Y-104213655D01*
X92972000Y-104648000D01*
X89789000Y-104648000D01*
X89789000Y-79825255D01*
X104546400Y-79825255D01*
X104546400Y-80194745D01*
X104660474Y-80768234D01*
X104985330Y-81254415D01*
X105471511Y-81579271D01*
X106045000Y-81693345D01*
X106618489Y-81579271D01*
X107104670Y-81254415D01*
X107315000Y-80939634D01*
X107525330Y-81254415D01*
X108011511Y-81579271D01*
X108585000Y-81693345D01*
X109158489Y-81579271D01*
X109644670Y-81254415D01*
X109855000Y-80939634D01*
X110065330Y-81254415D01*
X110551511Y-81579271D01*
X111125000Y-81693345D01*
X111698489Y-81579271D01*
X112184670Y-81254415D01*
X112395000Y-80939634D01*
X112605330Y-81254415D01*
X113091511Y-81579271D01*
X113665000Y-81693345D01*
X114238489Y-81579271D01*
X114724670Y-81254415D01*
X114935000Y-80939634D01*
X115145330Y-81254415D01*
X115631511Y-81579271D01*
X116205000Y-81693345D01*
X116778489Y-81579271D01*
X117264670Y-81254415D01*
X117274243Y-81240087D01*
X117278238Y-81261317D01*
X117417310Y-81477441D01*
X117629510Y-81622431D01*
X117881400Y-81673440D01*
X119608600Y-81673440D01*
X119843917Y-81629162D01*
X120060041Y-81490090D01*
X120205031Y-81277890D01*
X120256040Y-81026000D01*
X120256040Y-78994000D01*
X120211762Y-78758683D01*
X120072690Y-78542559D01*
X119860490Y-78397569D01*
X119608600Y-78346560D01*
X117881400Y-78346560D01*
X117646083Y-78390838D01*
X117429959Y-78529910D01*
X117284969Y-78742110D01*
X117276600Y-78783439D01*
X117264670Y-78765585D01*
X116778489Y-78440729D01*
X116205000Y-78326655D01*
X115631511Y-78440729D01*
X115145330Y-78765585D01*
X114935000Y-79080366D01*
X114724670Y-78765585D01*
X114238489Y-78440729D01*
X113665000Y-78326655D01*
X113091511Y-78440729D01*
X112605330Y-78765585D01*
X112395000Y-79080366D01*
X112184670Y-78765585D01*
X111698489Y-78440729D01*
X111125000Y-78326655D01*
X110551511Y-78440729D01*
X110065330Y-78765585D01*
X109855000Y-79080366D01*
X109644670Y-78765585D01*
X109158489Y-78440729D01*
X108585000Y-78326655D01*
X108011511Y-78440729D01*
X107525330Y-78765585D01*
X107315000Y-79080366D01*
X107104670Y-78765585D01*
X106618489Y-78440729D01*
X106045000Y-78326655D01*
X105471511Y-78440729D01*
X104985330Y-78765585D01*
X104660474Y-79251766D01*
X104546400Y-79825255D01*
X89789000Y-79825255D01*
X89789000Y-68580000D01*
X96101679Y-68580000D01*
X96227354Y-69211810D01*
X96585246Y-69747433D01*
X96738748Y-69850000D01*
X96585246Y-69952567D01*
X96227354Y-70488190D01*
X96101679Y-71120000D01*
X96227354Y-71751810D01*
X96585246Y-72287433D01*
X97120869Y-72645325D01*
X97752679Y-72771000D01*
X98335321Y-72771000D01*
X98967131Y-72645325D01*
X99502754Y-72287433D01*
X99860646Y-71751810D01*
X99898621Y-71560893D01*
X105602725Y-71560893D01*
X105843519Y-72143657D01*
X106288997Y-72589914D01*
X106871341Y-72831724D01*
X107501893Y-72832275D01*
X108084657Y-72591481D01*
X108194329Y-72482000D01*
X157603446Y-72482000D01*
X164988901Y-79867455D01*
X164988716Y-80079795D01*
X165237106Y-80680943D01*
X165696637Y-81141278D01*
X166297352Y-81390716D01*
X166947795Y-81391284D01*
X167548943Y-81142894D01*
X168009278Y-80683363D01*
X168258716Y-80082648D01*
X168259284Y-79432205D01*
X168010894Y-78831057D01*
X167551363Y-78370722D01*
X166950648Y-78121284D01*
X166735650Y-78121096D01*
X161220554Y-72606000D01*
X171399560Y-72606000D01*
X171399560Y-74206000D01*
X171443838Y-74441317D01*
X171582910Y-74657441D01*
X171795110Y-74802431D01*
X172047000Y-74853440D01*
X173647000Y-74853440D01*
X173882317Y-74809162D01*
X174098441Y-74670090D01*
X174243431Y-74457890D01*
X174294440Y-74206000D01*
X174294440Y-72606000D01*
X174250162Y-72370683D01*
X174111090Y-72154559D01*
X174104452Y-72150023D01*
X174293965Y-71622777D01*
X174266778Y-71052546D01*
X174100864Y-70651995D01*
X173854745Y-70577861D01*
X173026605Y-71406000D01*
X173040748Y-71420142D01*
X172861143Y-71599748D01*
X172847000Y-71585605D01*
X172832858Y-71599748D01*
X172653252Y-71420142D01*
X172667395Y-71406000D01*
X171839255Y-70577861D01*
X171593136Y-70651995D01*
X171400035Y-71189223D01*
X171427222Y-71759454D01*
X171589384Y-72150947D01*
X171450569Y-72354110D01*
X171399560Y-72606000D01*
X161220554Y-72606000D01*
X159012809Y-70398255D01*
X172018861Y-70398255D01*
X172847000Y-71226395D01*
X173675139Y-70398255D01*
X173601005Y-70152136D01*
X173063777Y-69959035D01*
X172493546Y-69986222D01*
X172092995Y-70152136D01*
X172018861Y-70398255D01*
X159012809Y-70398255D01*
X158988277Y-70373723D01*
X158587614Y-70106009D01*
X158115000Y-70012000D01*
X108194729Y-70012000D01*
X108087003Y-69904086D01*
X107504659Y-69662276D01*
X106874107Y-69661725D01*
X106291343Y-69902519D01*
X105845086Y-70347997D01*
X105603276Y-70930341D01*
X105602725Y-71560893D01*
X99898621Y-71560893D01*
X99986321Y-71120000D01*
X99860646Y-70488190D01*
X99502754Y-69952567D01*
X99349252Y-69850000D01*
X99502754Y-69747433D01*
X99860646Y-69211810D01*
X99986321Y-68580000D01*
X99860646Y-67948190D01*
X99502754Y-67412567D01*
X99328219Y-67295946D01*
X99555236Y-67117630D01*
X99871926Y-66554477D01*
X99887467Y-66490694D01*
X100219226Y-66490694D01*
X100467538Y-67091655D01*
X100926927Y-67551846D01*
X101527453Y-67801206D01*
X102177694Y-67801774D01*
X102778655Y-67553462D01*
X103238846Y-67094073D01*
X103488206Y-66493547D01*
X103488774Y-65843306D01*
X103240462Y-65242345D01*
X102781073Y-64782154D01*
X102180547Y-64532794D01*
X101530306Y-64532226D01*
X100929345Y-64780538D01*
X100469154Y-65239927D01*
X100219794Y-65840453D01*
X100219226Y-66490694D01*
X99887467Y-66490694D01*
X99903975Y-66422944D01*
X99784836Y-66167000D01*
X98171000Y-66167000D01*
X98171000Y-66187000D01*
X97917000Y-66187000D01*
X97917000Y-66167000D01*
X96303164Y-66167000D01*
X96184025Y-66422944D01*
X96216074Y-66554477D01*
X96532764Y-67117630D01*
X96759781Y-67295946D01*
X96585246Y-67412567D01*
X96227354Y-67948190D01*
X96101679Y-68580000D01*
X89789000Y-68580000D01*
X89789000Y-65657056D01*
X96184025Y-65657056D01*
X96303164Y-65913000D01*
X97917000Y-65913000D01*
X97917000Y-64389000D01*
X98171000Y-64389000D01*
X98171000Y-65913000D01*
X99784836Y-65913000D01*
X99903975Y-65657056D01*
X99871926Y-65525523D01*
X99555236Y-64962370D01*
X99047143Y-64563276D01*
X98425000Y-64389000D01*
X98171000Y-64389000D01*
X97917000Y-64389000D01*
X97663000Y-64389000D01*
X97040857Y-64563276D01*
X96532764Y-64962370D01*
X96216074Y-65525523D01*
X96184025Y-65657056D01*
X89789000Y-65657056D01*
X89789000Y-60013694D01*
X102505226Y-60013694D01*
X102753538Y-60614655D01*
X103212927Y-61074846D01*
X103813453Y-61324206D01*
X104463694Y-61324774D01*
X105064655Y-61076462D01*
X105524846Y-60617073D01*
X105774206Y-60016547D01*
X105774774Y-59366306D01*
X105526462Y-58765345D01*
X105067073Y-58305154D01*
X104466547Y-58055794D01*
X103816306Y-58055226D01*
X103215345Y-58303538D01*
X102755154Y-58762927D01*
X102505794Y-59363453D01*
X102505226Y-60013694D01*
X89789000Y-60013694D01*
X89789000Y-58704187D01*
X92036752Y-58704187D01*
X92254757Y-59231800D01*
X92658077Y-59635824D01*
X93185309Y-59854750D01*
X93756187Y-59855248D01*
X94283800Y-59637243D01*
X94687824Y-59233923D01*
X94906750Y-58706691D01*
X94907248Y-58135813D01*
X94689243Y-57608200D01*
X94285923Y-57204176D01*
X93758691Y-56985250D01*
X93187813Y-56984752D01*
X92660200Y-57202757D01*
X92256176Y-57606077D01*
X92037250Y-58133309D01*
X92036752Y-58704187D01*
X89789000Y-58704187D01*
X89789000Y-55223078D01*
X97254378Y-55223078D01*
X97283917Y-55733428D01*
X97422389Y-56067729D01*
X97652982Y-56123410D01*
X97551320Y-56225072D01*
X97450559Y-56289910D01*
X97305569Y-56502110D01*
X97254560Y-56754000D01*
X97254560Y-58054000D01*
X97298838Y-58289317D01*
X97437910Y-58505441D01*
X97650110Y-58650431D01*
X97902000Y-58701440D01*
X99202000Y-58701440D01*
X99437317Y-58657162D01*
X99653441Y-58518090D01*
X99798431Y-58305890D01*
X99849440Y-58054000D01*
X99849440Y-56754000D01*
X99805162Y-56518683D01*
X99666090Y-56302559D01*
X99552671Y-56225063D01*
X99451018Y-56123410D01*
X99681611Y-56067729D01*
X99849622Y-55584922D01*
X99820083Y-55074572D01*
X99681611Y-54740271D01*
X99451016Y-54684590D01*
X98731605Y-55404000D01*
X98745748Y-55418142D01*
X98566142Y-55597748D01*
X98552000Y-55583605D01*
X98537858Y-55597748D01*
X98358252Y-55418142D01*
X98372395Y-55404000D01*
X97652984Y-54684590D01*
X97422389Y-54740271D01*
X97254378Y-55223078D01*
X89789000Y-55223078D01*
X89789000Y-54427745D01*
X92643861Y-54427745D01*
X92717995Y-54673864D01*
X93255223Y-54866965D01*
X93825454Y-54839778D01*
X94226005Y-54673864D01*
X94276873Y-54504984D01*
X97832590Y-54504984D01*
X98552000Y-55224395D01*
X99271410Y-54504984D01*
X99215729Y-54274389D01*
X98732922Y-54106378D01*
X98222572Y-54135917D01*
X97888271Y-54274389D01*
X97832590Y-54504984D01*
X94276873Y-54504984D01*
X94300139Y-54427745D01*
X93472000Y-53599605D01*
X92643861Y-54427745D01*
X89789000Y-54427745D01*
X89789000Y-53203223D01*
X92025035Y-53203223D01*
X92052222Y-53773454D01*
X92218136Y-54174005D01*
X92464255Y-54248139D01*
X93292395Y-53420000D01*
X93651605Y-53420000D01*
X94479745Y-54248139D01*
X94725864Y-54174005D01*
X94918965Y-53636777D01*
X94891778Y-53066546D01*
X94725864Y-52665995D01*
X94479745Y-52591861D01*
X93651605Y-53420000D01*
X93292395Y-53420000D01*
X92464255Y-52591861D01*
X92218136Y-52665995D01*
X92025035Y-53203223D01*
X89789000Y-53203223D01*
X89789000Y-52412255D01*
X92643861Y-52412255D01*
X93472000Y-53240395D01*
X94300139Y-52412255D01*
X94226005Y-52166136D01*
X93688777Y-51973035D01*
X93118546Y-52000222D01*
X92717995Y-52166136D01*
X92643861Y-52412255D01*
X89789000Y-52412255D01*
X89789000Y-49853694D01*
X102505226Y-49853694D01*
X102753538Y-50454655D01*
X103212927Y-50914846D01*
X103813453Y-51164206D01*
X104463694Y-51164774D01*
X105064655Y-50916462D01*
X105524846Y-50457073D01*
X105774206Y-49856547D01*
X105774774Y-49206306D01*
X105526462Y-48605345D01*
X105067073Y-48145154D01*
X104466547Y-47895794D01*
X103816306Y-47895226D01*
X103215345Y-48143538D01*
X102755154Y-48602927D01*
X102505794Y-49203453D01*
X102505226Y-49853694D01*
X89789000Y-49853694D01*
X89789000Y-44310000D01*
X107188000Y-44310000D01*
X107188000Y-52070000D01*
X107188000Y-52070000D01*
G37*
X107188000Y-52070000D02*
X107196685Y-52116159D01*
X107223965Y-52158553D01*
X107265590Y-52186994D01*
X107315000Y-52197000D01*
X108252560Y-52197000D01*
X108252560Y-53250000D01*
X108296838Y-53485317D01*
X108435910Y-53701441D01*
X108622162Y-53828701D01*
X108572210Y-53862078D01*
X108315335Y-54246520D01*
X108225132Y-54700000D01*
X108315335Y-55153480D01*
X108572210Y-55537922D01*
X108814778Y-55700000D01*
X108572210Y-55862078D01*
X108315335Y-56246520D01*
X108225132Y-56700000D01*
X108315335Y-57153480D01*
X108572210Y-57537922D01*
X108814778Y-57700000D01*
X108572210Y-57862078D01*
X108315335Y-58246520D01*
X108225132Y-58700000D01*
X108315335Y-59153480D01*
X108572210Y-59537922D01*
X108814778Y-59700000D01*
X108572210Y-59862078D01*
X108315335Y-60246520D01*
X108225132Y-60700000D01*
X108315335Y-61153480D01*
X108572210Y-61537922D01*
X108814778Y-61700000D01*
X108572210Y-61862078D01*
X108315335Y-62246520D01*
X108225132Y-62700000D01*
X108315335Y-63153480D01*
X108572210Y-63537922D01*
X108814778Y-63700000D01*
X108572210Y-63862078D01*
X108315335Y-64246520D01*
X108225132Y-64700000D01*
X108315335Y-65153480D01*
X108572210Y-65537922D01*
X108814778Y-65700000D01*
X108572210Y-65862078D01*
X108315335Y-66246520D01*
X108225132Y-66700000D01*
X108315335Y-67153480D01*
X108572210Y-67537922D01*
X108956652Y-67794797D01*
X109410132Y-67885000D01*
X111189868Y-67885000D01*
X111643348Y-67794797D01*
X112027790Y-67537922D01*
X112284665Y-67153480D01*
X112313255Y-67009744D01*
X123306197Y-67009744D01*
X123306602Y-67036146D01*
X123522276Y-67448118D01*
X123879187Y-67746196D01*
X124323000Y-67885000D01*
X125173000Y-67885000D01*
X125173000Y-66827000D01*
X125427000Y-66827000D01*
X125427000Y-67885000D01*
X126277000Y-67885000D01*
X126720813Y-67746196D01*
X127077724Y-67448118D01*
X127293398Y-67036146D01*
X127293803Y-67009744D01*
X127168361Y-66827000D01*
X125427000Y-66827000D01*
X125173000Y-66827000D01*
X123431639Y-66827000D01*
X123306197Y-67009744D01*
X112313255Y-67009744D01*
X112374868Y-66700000D01*
X112350949Y-66579750D01*
X152686000Y-66579750D01*
X152686000Y-67045310D01*
X152782673Y-67278699D01*
X152961302Y-67457327D01*
X153194691Y-67554000D01*
X153785250Y-67554000D01*
X153944000Y-67395250D01*
X153944000Y-66421000D01*
X152844750Y-66421000D01*
X152686000Y-66579750D01*
X112350949Y-66579750D01*
X112284665Y-66246520D01*
X112027790Y-65862078D01*
X111785222Y-65700000D01*
X112027790Y-65537922D01*
X112284665Y-65153480D01*
X112374868Y-64700000D01*
X112284665Y-64246520D01*
X112027790Y-63862078D01*
X111785222Y-63700000D01*
X112027790Y-63537922D01*
X112284665Y-63153480D01*
X112374868Y-62700000D01*
X112284665Y-62246520D01*
X112027790Y-61862078D01*
X111785222Y-61700000D01*
X112027790Y-61537922D01*
X112284665Y-61153480D01*
X112374868Y-60700000D01*
X112284665Y-60246520D01*
X112027790Y-59862078D01*
X111785222Y-59700000D01*
X112027790Y-59537922D01*
X112284665Y-59153480D01*
X112374868Y-58700000D01*
X112284665Y-58246520D01*
X112027790Y-57862078D01*
X111785222Y-57700000D01*
X112027790Y-57537922D01*
X112284665Y-57153480D01*
X112374868Y-56700000D01*
X112284665Y-56246520D01*
X112027790Y-55862078D01*
X111785222Y-55700000D01*
X112027790Y-55537922D01*
X112284665Y-55153480D01*
X112374868Y-54700000D01*
X112284665Y-54246520D01*
X112027790Y-53862078D01*
X111975626Y-53827224D01*
X112151441Y-53714090D01*
X112296431Y-53501890D01*
X112347440Y-53250000D01*
X112347440Y-52197000D01*
X123348423Y-52197000D01*
X123315335Y-52246520D01*
X123225132Y-52700000D01*
X123315335Y-53153480D01*
X123572210Y-53537922D01*
X123814778Y-53700000D01*
X123572210Y-53862078D01*
X123315335Y-54246520D01*
X123225132Y-54700000D01*
X123315335Y-55153480D01*
X123572210Y-55537922D01*
X123814778Y-55700000D01*
X123572210Y-55862078D01*
X123315335Y-56246520D01*
X123225132Y-56700000D01*
X123315335Y-57153480D01*
X123572210Y-57537922D01*
X123814778Y-57700000D01*
X123572210Y-57862078D01*
X123315335Y-58246520D01*
X123225132Y-58700000D01*
X123315335Y-59153480D01*
X123572210Y-59537922D01*
X123814778Y-59700000D01*
X123572210Y-59862078D01*
X123315335Y-60246520D01*
X123225132Y-60700000D01*
X123315335Y-61153480D01*
X123572210Y-61537922D01*
X123814778Y-61700000D01*
X123572210Y-61862078D01*
X123315335Y-62246520D01*
X123225132Y-62700000D01*
X123315335Y-63153480D01*
X123572210Y-63537922D01*
X123814778Y-63700000D01*
X123572210Y-63862078D01*
X123315335Y-64246520D01*
X123225132Y-64700000D01*
X123315335Y-65153480D01*
X123572210Y-65537922D01*
X123819831Y-65703376D01*
X123522276Y-65951882D01*
X123306602Y-66363854D01*
X123306197Y-66390256D01*
X123431639Y-66573000D01*
X125173000Y-66573000D01*
X125173000Y-66553000D01*
X125427000Y-66553000D01*
X125427000Y-66573000D01*
X127168361Y-66573000D01*
X127293803Y-66390256D01*
X127293398Y-66363854D01*
X127077724Y-65951882D01*
X126780169Y-65703376D01*
X127027790Y-65537922D01*
X127284665Y-65153480D01*
X127296557Y-65093694D01*
X129810226Y-65093694D01*
X130058538Y-65694655D01*
X130517927Y-66154846D01*
X131118453Y-66404206D01*
X131768694Y-66404774D01*
X132369655Y-66156462D01*
X132829846Y-65697073D01*
X132893951Y-65542690D01*
X152686000Y-65542690D01*
X152686000Y-66008250D01*
X152844750Y-66167000D01*
X153944000Y-66167000D01*
X153944000Y-65192750D01*
X153785250Y-65034000D01*
X153194691Y-65034000D01*
X152961302Y-65130673D01*
X152782673Y-65309301D01*
X152686000Y-65542690D01*
X132893951Y-65542690D01*
X133079206Y-65096547D01*
X133079774Y-64446306D01*
X132831462Y-63845345D01*
X132372073Y-63385154D01*
X131771547Y-63135794D01*
X131121306Y-63135226D01*
X130520345Y-63383538D01*
X130060154Y-63842927D01*
X129810794Y-64443453D01*
X129810226Y-65093694D01*
X127296557Y-65093694D01*
X127374868Y-64700000D01*
X127284665Y-64246520D01*
X127027790Y-63862078D01*
X126785222Y-63700000D01*
X127027790Y-63537922D01*
X127284665Y-63153480D01*
X127374868Y-62700000D01*
X127284665Y-62246520D01*
X127027790Y-61862078D01*
X126785222Y-61700000D01*
X126845460Y-61659750D01*
X155148000Y-61659750D01*
X155148000Y-62275309D01*
X155244673Y-62508698D01*
X155423301Y-62687327D01*
X155656690Y-62784000D01*
X155797250Y-62784000D01*
X155956000Y-62625250D01*
X155956000Y-61501000D01*
X155306750Y-61501000D01*
X155148000Y-61659750D01*
X126845460Y-61659750D01*
X127027790Y-61537922D01*
X127284665Y-61153480D01*
X127374868Y-60700000D01*
X127329654Y-60472691D01*
X155148000Y-60472691D01*
X155148000Y-61088250D01*
X155306750Y-61247000D01*
X155956000Y-61247000D01*
X155956000Y-60122750D01*
X155797250Y-59964000D01*
X155656690Y-59964000D01*
X155423301Y-60060673D01*
X155244673Y-60239302D01*
X155148000Y-60472691D01*
X127329654Y-60472691D01*
X127284665Y-60246520D01*
X127027790Y-59862078D01*
X126785222Y-59700000D01*
X127027790Y-59537922D01*
X127284665Y-59153480D01*
X127374868Y-58700000D01*
X127284665Y-58246520D01*
X127027790Y-57862078D01*
X126785222Y-57700000D01*
X127027790Y-57537922D01*
X127284665Y-57153480D01*
X127374868Y-56700000D01*
X127284665Y-56246520D01*
X127027790Y-55862078D01*
X126878256Y-55762163D01*
X130472443Y-55762163D01*
X130571042Y-56028965D01*
X131180582Y-56255401D01*
X131830377Y-56231341D01*
X132318958Y-56028965D01*
X132417557Y-55762163D01*
X131445000Y-54789605D01*
X130472443Y-55762163D01*
X126878256Y-55762163D01*
X126785222Y-55700000D01*
X127027790Y-55537922D01*
X127284665Y-55153480D01*
X127374868Y-54700000D01*
X127304370Y-54345582D01*
X129799599Y-54345582D01*
X129823659Y-54995377D01*
X130026035Y-55483958D01*
X130292837Y-55582557D01*
X131265395Y-54610000D01*
X131624605Y-54610000D01*
X132597163Y-55582557D01*
X132863965Y-55483958D01*
X133090401Y-54874418D01*
X133066341Y-54224623D01*
X132863965Y-53736042D01*
X132597163Y-53637443D01*
X131624605Y-54610000D01*
X131265395Y-54610000D01*
X130292837Y-53637443D01*
X130026035Y-53736042D01*
X129799599Y-54345582D01*
X127304370Y-54345582D01*
X127284665Y-54246520D01*
X127027790Y-53862078D01*
X126785222Y-53700000D01*
X127027790Y-53537922D01*
X127081300Y-53457837D01*
X130472443Y-53457837D01*
X131445000Y-54430395D01*
X132417557Y-53457837D01*
X132318958Y-53191035D01*
X131709418Y-52964599D01*
X131059623Y-52988659D01*
X130571042Y-53191035D01*
X130472443Y-53457837D01*
X127081300Y-53457837D01*
X127284665Y-53153480D01*
X127374868Y-52700000D01*
X127284665Y-52246520D01*
X127251577Y-52197000D01*
X128905000Y-52197000D01*
X128951159Y-52188315D01*
X128993553Y-52161035D01*
X129021994Y-52119410D01*
X129032000Y-52070000D01*
X129032000Y-49907265D01*
X153542670Y-49907265D01*
X153832078Y-50607686D01*
X154013000Y-50788924D01*
X154013000Y-55339000D01*
X154122233Y-55888151D01*
X154361688Y-56246520D01*
X154433302Y-56353698D01*
X155068302Y-56988699D01*
X155268912Y-57122742D01*
X155318910Y-57200441D01*
X155531110Y-57345431D01*
X155783000Y-57396440D01*
X156019856Y-57396440D01*
X156083000Y-57409000D01*
X156146144Y-57396440D01*
X156383000Y-57396440D01*
X156618317Y-57352162D01*
X156717528Y-57288322D01*
X156801110Y-57345431D01*
X157053000Y-57396440D01*
X157653000Y-57396440D01*
X157888317Y-57352162D01*
X157987528Y-57288322D01*
X158071110Y-57345431D01*
X158323000Y-57396440D01*
X158923000Y-57396440D01*
X159158317Y-57352162D01*
X159257528Y-57288322D01*
X159341110Y-57345431D01*
X159593000Y-57396440D01*
X159829857Y-57396440D01*
X159893000Y-57409000D01*
X159956143Y-57396440D01*
X160193000Y-57396440D01*
X160428317Y-57352162D01*
X160644441Y-57213090D01*
X160705406Y-57123865D01*
X160907698Y-56988698D01*
X161542699Y-56353698D01*
X161853768Y-55888150D01*
X161963000Y-55339000D01*
X161963000Y-51416393D01*
X162033317Y-51403162D01*
X162249441Y-51264090D01*
X162394431Y-51051890D01*
X162445440Y-50800000D01*
X162445440Y-49907265D01*
X163702670Y-49907265D01*
X163992078Y-50607686D01*
X164173000Y-50788924D01*
X164173000Y-55339000D01*
X164282233Y-55888151D01*
X164521688Y-56246520D01*
X164593302Y-56353698D01*
X165228302Y-56988699D01*
X165428912Y-57122742D01*
X165478910Y-57200441D01*
X165691110Y-57345431D01*
X165943000Y-57396440D01*
X166179856Y-57396440D01*
X166243000Y-57409000D01*
X166306144Y-57396440D01*
X166543000Y-57396440D01*
X166778317Y-57352162D01*
X166877528Y-57288322D01*
X166961110Y-57345431D01*
X167213000Y-57396440D01*
X167813000Y-57396440D01*
X168048317Y-57352162D01*
X168147528Y-57288322D01*
X168231110Y-57345431D01*
X168483000Y-57396440D01*
X169083000Y-57396440D01*
X169318317Y-57352162D01*
X169417528Y-57288322D01*
X169501110Y-57345431D01*
X169753000Y-57396440D01*
X170353000Y-57396440D01*
X170588317Y-57352162D01*
X170804441Y-57213090D01*
X170949431Y-57000890D01*
X170961404Y-56941764D01*
X170996988Y-56917988D01*
X171457700Y-56457275D01*
X183782176Y-56457275D01*
X184030566Y-57058423D01*
X184490097Y-57518758D01*
X185090812Y-57768196D01*
X185741255Y-57768764D01*
X186342403Y-57520374D01*
X186802738Y-57060843D01*
X187052176Y-56460128D01*
X187052744Y-55809685D01*
X186804354Y-55208537D01*
X186344823Y-54748202D01*
X185744108Y-54498764D01*
X185093665Y-54498196D01*
X184492517Y-54746586D01*
X184032182Y-55206117D01*
X183782744Y-55806832D01*
X183782176Y-56457275D01*
X171457700Y-56457275D01*
X171631985Y-56282990D01*
X171631988Y-56282988D01*
X171921379Y-55849882D01*
X171932336Y-55794797D01*
X172023001Y-55339000D01*
X172023000Y-55338995D01*
X172023000Y-51435209D01*
X172193317Y-51403162D01*
X172409441Y-51264090D01*
X172554431Y-51051890D01*
X172589689Y-50877777D01*
X179171828Y-50877777D01*
X179303520Y-51172657D01*
X180011036Y-51444261D01*
X180768632Y-51424436D01*
X181376480Y-51172657D01*
X181508172Y-50877777D01*
X180340000Y-49709605D01*
X179171828Y-50877777D01*
X172589689Y-50877777D01*
X172605440Y-50800000D01*
X172605440Y-49201036D01*
X178425739Y-49201036D01*
X178445564Y-49958632D01*
X178697343Y-50566480D01*
X178992223Y-50698172D01*
X180160395Y-49530000D01*
X180519605Y-49530000D01*
X181687777Y-50698172D01*
X181982657Y-50566480D01*
X182254261Y-49858964D01*
X182234436Y-49101368D01*
X181982657Y-48493520D01*
X181687777Y-48361828D01*
X180519605Y-49530000D01*
X180160395Y-49530000D01*
X178992223Y-48361828D01*
X178697343Y-48493520D01*
X178425739Y-49201036D01*
X172605440Y-49201036D01*
X172605440Y-48260000D01*
X172590806Y-48182223D01*
X179171828Y-48182223D01*
X180340000Y-49350395D01*
X181430395Y-48260000D01*
X183502560Y-48260000D01*
X183502560Y-50800000D01*
X183546838Y-51035317D01*
X183685910Y-51251441D01*
X183898110Y-51396431D01*
X184150000Y-51447440D01*
X186690000Y-51447440D01*
X186925317Y-51403162D01*
X187141441Y-51264090D01*
X187286431Y-51051890D01*
X187337440Y-50800000D01*
X187337440Y-48260000D01*
X187293162Y-48024683D01*
X187154090Y-47808559D01*
X186941890Y-47663569D01*
X186690000Y-47612560D01*
X184150000Y-47612560D01*
X183914683Y-47656838D01*
X183698559Y-47795910D01*
X183553569Y-48008110D01*
X183502560Y-48260000D01*
X181430395Y-48260000D01*
X181508172Y-48182223D01*
X181376480Y-47887343D01*
X180668964Y-47615739D01*
X179911368Y-47635564D01*
X179303520Y-47887343D01*
X179171828Y-48182223D01*
X172590806Y-48182223D01*
X172561162Y-48024683D01*
X172422090Y-47808559D01*
X172209890Y-47663569D01*
X171958000Y-47612560D01*
X169418000Y-47612560D01*
X169182683Y-47656838D01*
X168966559Y-47795910D01*
X168821569Y-48008110D01*
X168770560Y-48260000D01*
X168770560Y-50800000D01*
X168814838Y-51035317D01*
X168953910Y-51251441D01*
X169166110Y-51396431D01*
X169353000Y-51434277D01*
X169353000Y-53719289D01*
X168520728Y-54551560D01*
X168483000Y-54551560D01*
X168247683Y-54595838D01*
X168148472Y-54659678D01*
X168064890Y-54602569D01*
X167813000Y-54551560D01*
X167506850Y-54551560D01*
X167043000Y-54087710D01*
X167043000Y-50789232D01*
X167222039Y-50610505D01*
X167512668Y-49910590D01*
X167513330Y-49152735D01*
X167223922Y-48452314D01*
X166688505Y-47915961D01*
X165988590Y-47625332D01*
X165230735Y-47624670D01*
X164530314Y-47914078D01*
X163993961Y-48449495D01*
X163703332Y-49149410D01*
X163702670Y-49907265D01*
X162445440Y-49907265D01*
X162445440Y-48260000D01*
X162401162Y-48024683D01*
X162262090Y-47808559D01*
X162049890Y-47663569D01*
X161798000Y-47612560D01*
X159258000Y-47612560D01*
X159022683Y-47656838D01*
X158806559Y-47795910D01*
X158661569Y-48008110D01*
X158610560Y-48260000D01*
X158610560Y-50800000D01*
X158654838Y-51035317D01*
X158793910Y-51251441D01*
X159006110Y-51396431D01*
X159093000Y-51414027D01*
X159093000Y-54087710D01*
X158629150Y-54551560D01*
X158323000Y-54551560D01*
X158087683Y-54595838D01*
X157988472Y-54659678D01*
X157904890Y-54602569D01*
X157653000Y-54551560D01*
X157473850Y-54551560D01*
X156883000Y-53960710D01*
X156883000Y-50789232D01*
X157062039Y-50610505D01*
X157352668Y-49910590D01*
X157353330Y-49152735D01*
X157063922Y-48452314D01*
X156528505Y-47915961D01*
X155828590Y-47625332D01*
X155070735Y-47624670D01*
X154370314Y-47914078D01*
X153833961Y-48449495D01*
X153543332Y-49149410D01*
X153542670Y-49907265D01*
X129032000Y-49907265D01*
X129032000Y-44310000D01*
X189690000Y-44310000D01*
X189690000Y-128790000D01*
X89789000Y-128790000D01*
X89789000Y-122174000D01*
X91554560Y-122174000D01*
X91554560Y-124714000D01*
X91598838Y-124949317D01*
X91737910Y-125165441D01*
X91950110Y-125310431D01*
X92202000Y-125361440D01*
X94742000Y-125361440D01*
X94977317Y-125317162D01*
X95193441Y-125178090D01*
X95338431Y-124965890D01*
X95389440Y-124714000D01*
X95389440Y-122174000D01*
X95345162Y-121938683D01*
X95206090Y-121722559D01*
X94993890Y-121577569D01*
X94907000Y-121559973D01*
X94907000Y-118886290D01*
X95370850Y-118422440D01*
X95677000Y-118422440D01*
X95912317Y-118378162D01*
X96011528Y-118314322D01*
X96095110Y-118371431D01*
X96347000Y-118422440D01*
X96780150Y-118422440D01*
X97117000Y-118759290D01*
X97117000Y-122184768D01*
X96937961Y-122363495D01*
X96647332Y-123063410D01*
X96646670Y-123821265D01*
X96936078Y-124521686D01*
X97471495Y-125058039D01*
X98171410Y-125348668D01*
X98929265Y-125349330D01*
X99629686Y-125059922D01*
X100166039Y-124524505D01*
X100456668Y-123824590D01*
X100457330Y-123066735D01*
X100167922Y-122366314D01*
X99987000Y-122185076D01*
X99987000Y-122174000D01*
X101587560Y-122174000D01*
X101587560Y-124714000D01*
X101631838Y-124949317D01*
X101770910Y-125165441D01*
X101983110Y-125310431D01*
X102235000Y-125361440D01*
X104775000Y-125361440D01*
X105010317Y-125317162D01*
X105226441Y-125178090D01*
X105371431Y-124965890D01*
X105422440Y-124714000D01*
X105422440Y-122174000D01*
X105378162Y-121938683D01*
X105239090Y-121722559D01*
X105026890Y-121577569D01*
X104940000Y-121559973D01*
X104940000Y-118759290D01*
X105276850Y-118422440D01*
X105583000Y-118422440D01*
X105818317Y-118378162D01*
X105917528Y-118314322D01*
X106001110Y-118371431D01*
X106253000Y-118422440D01*
X106686150Y-118422440D01*
X107150000Y-118886290D01*
X107150000Y-122184768D01*
X106970961Y-122363495D01*
X106680332Y-123063410D01*
X106679670Y-123821265D01*
X106969078Y-124521686D01*
X107504495Y-125058039D01*
X108204410Y-125348668D01*
X108962265Y-125349330D01*
X109662686Y-125059922D01*
X110199039Y-124524505D01*
X110489668Y-123824590D01*
X110490330Y-123066735D01*
X110200922Y-122366314D01*
X110020000Y-122185076D01*
X110020000Y-122174000D01*
X111620560Y-122174000D01*
X111620560Y-124714000D01*
X111664838Y-124949317D01*
X111803910Y-125165441D01*
X112016110Y-125310431D01*
X112268000Y-125361440D01*
X114808000Y-125361440D01*
X115043317Y-125317162D01*
X115259441Y-125178090D01*
X115404431Y-124965890D01*
X115455440Y-124714000D01*
X115455440Y-122174000D01*
X115411162Y-121938683D01*
X115272090Y-121722559D01*
X115059890Y-121577569D01*
X114973000Y-121559973D01*
X114973000Y-118759290D01*
X115309850Y-118422440D01*
X115743000Y-118422440D01*
X115978317Y-118378162D01*
X116077528Y-118314322D01*
X116161110Y-118371431D01*
X116413000Y-118422440D01*
X116719150Y-118422440D01*
X117183000Y-118886290D01*
X117183000Y-122184768D01*
X117003961Y-122363495D01*
X116713332Y-123063410D01*
X116712670Y-123821265D01*
X117002078Y-124521686D01*
X117537495Y-125058039D01*
X118237410Y-125348668D01*
X118995265Y-125349330D01*
X119695686Y-125059922D01*
X120232039Y-124524505D01*
X120522668Y-123824590D01*
X120523330Y-123066735D01*
X120233922Y-122366314D01*
X120053000Y-122185076D01*
X120053000Y-122174000D01*
X148450560Y-122174000D01*
X148450560Y-124714000D01*
X148494838Y-124949317D01*
X148633910Y-125165441D01*
X148846110Y-125310431D01*
X149098000Y-125361440D01*
X151638000Y-125361440D01*
X151873317Y-125317162D01*
X152089441Y-125178090D01*
X152234431Y-124965890D01*
X152285440Y-124714000D01*
X152285440Y-122174000D01*
X152241162Y-121938683D01*
X152102090Y-121722559D01*
X151889890Y-121577569D01*
X151803000Y-121559973D01*
X151803000Y-118759290D01*
X152139850Y-118422440D01*
X152446000Y-118422440D01*
X152681317Y-118378162D01*
X152780528Y-118314322D01*
X152864110Y-118371431D01*
X153116000Y-118422440D01*
X153422150Y-118422440D01*
X154013000Y-119013290D01*
X154013000Y-122184768D01*
X153833961Y-122363495D01*
X153543332Y-123063410D01*
X153542670Y-123821265D01*
X153832078Y-124521686D01*
X154367495Y-125058039D01*
X155067410Y-125348668D01*
X155825265Y-125349330D01*
X156525686Y-125059922D01*
X157062039Y-124524505D01*
X157352668Y-123824590D01*
X157353330Y-123066735D01*
X157063922Y-122366314D01*
X156883000Y-122185076D01*
X156883000Y-122174000D01*
X158483560Y-122174000D01*
X158483560Y-124714000D01*
X158527838Y-124949317D01*
X158666910Y-125165441D01*
X158879110Y-125310431D01*
X159131000Y-125361440D01*
X161671000Y-125361440D01*
X161906317Y-125317162D01*
X162122441Y-125178090D01*
X162267431Y-124965890D01*
X162318440Y-124714000D01*
X162318440Y-122174000D01*
X162274162Y-121938683D01*
X162135090Y-121722559D01*
X161922890Y-121577569D01*
X161836000Y-121559973D01*
X161836000Y-118759290D01*
X162172850Y-118422440D01*
X162479000Y-118422440D01*
X162714317Y-118378162D01*
X162813528Y-118314322D01*
X162897110Y-118371431D01*
X163149000Y-118422440D01*
X163582150Y-118422440D01*
X164046000Y-118886290D01*
X164046000Y-122184768D01*
X163866961Y-122363495D01*
X163576332Y-123063410D01*
X163575670Y-123821265D01*
X163865078Y-124521686D01*
X164400495Y-125058039D01*
X165100410Y-125348668D01*
X165858265Y-125349330D01*
X166558686Y-125059922D01*
X167095039Y-124524505D01*
X167385668Y-123824590D01*
X167386330Y-123066735D01*
X167096922Y-122366314D01*
X166916000Y-122185076D01*
X166916000Y-122174000D01*
X168516560Y-122174000D01*
X168516560Y-124714000D01*
X168560838Y-124949317D01*
X168699910Y-125165441D01*
X168912110Y-125310431D01*
X169164000Y-125361440D01*
X171704000Y-125361440D01*
X171939317Y-125317162D01*
X172155441Y-125178090D01*
X172300431Y-124965890D01*
X172351440Y-124714000D01*
X172351440Y-122174000D01*
X172307162Y-121938683D01*
X172168090Y-121722559D01*
X171955890Y-121577569D01*
X171869000Y-121559973D01*
X171869000Y-119013290D01*
X172459850Y-118422440D01*
X172766000Y-118422440D01*
X173001317Y-118378162D01*
X173100528Y-118314322D01*
X173184110Y-118371431D01*
X173436000Y-118422440D01*
X173742150Y-118422440D01*
X174079000Y-118759290D01*
X174079000Y-122184768D01*
X173899961Y-122363495D01*
X173609332Y-123063410D01*
X173608670Y-123821265D01*
X173898078Y-124521686D01*
X174433495Y-125058039D01*
X175133410Y-125348668D01*
X175891265Y-125349330D01*
X176591686Y-125059922D01*
X177128039Y-124524505D01*
X177418668Y-123824590D01*
X177419330Y-123066735D01*
X177129922Y-122366314D01*
X176949000Y-122185076D01*
X176949000Y-117508000D01*
X176839767Y-116958849D01*
X176698416Y-116747302D01*
X176528698Y-116493301D01*
X176020698Y-115985302D01*
X175820089Y-115851259D01*
X175770090Y-115773559D01*
X175557890Y-115628569D01*
X175306000Y-115577560D01*
X175069143Y-115577560D01*
X175006000Y-115565000D01*
X174942857Y-115577560D01*
X174706000Y-115577560D01*
X174470683Y-115621838D01*
X174371472Y-115685678D01*
X174287890Y-115628569D01*
X174036000Y-115577560D01*
X173436000Y-115577560D01*
X173200683Y-115621838D01*
X173101472Y-115685678D01*
X173017890Y-115628569D01*
X172766000Y-115577560D01*
X172166000Y-115577560D01*
X171930683Y-115621838D01*
X171831472Y-115685678D01*
X171747890Y-115628569D01*
X171496000Y-115577560D01*
X171259143Y-115577560D01*
X171196000Y-115565000D01*
X171132857Y-115577560D01*
X170896000Y-115577560D01*
X170660683Y-115621838D01*
X170444559Y-115760910D01*
X170383594Y-115850135D01*
X170181302Y-115985302D01*
X169419302Y-116747302D01*
X169108233Y-117212849D01*
X168999000Y-117762000D01*
X168999000Y-121557607D01*
X168928683Y-121570838D01*
X168712559Y-121709910D01*
X168567569Y-121922110D01*
X168516560Y-122174000D01*
X166916000Y-122174000D01*
X166916000Y-117762000D01*
X166806767Y-117212849D01*
X166495698Y-116747302D01*
X165733698Y-115985302D01*
X165533089Y-115851259D01*
X165483090Y-115773559D01*
X165270890Y-115628569D01*
X165019000Y-115577560D01*
X164782143Y-115577560D01*
X164719000Y-115565000D01*
X164655857Y-115577560D01*
X164419000Y-115577560D01*
X164183683Y-115621838D01*
X164084472Y-115685678D01*
X164000890Y-115628569D01*
X163749000Y-115577560D01*
X163149000Y-115577560D01*
X162913683Y-115621838D01*
X162814472Y-115685678D01*
X162730890Y-115628569D01*
X162479000Y-115577560D01*
X161879000Y-115577560D01*
X161643683Y-115621838D01*
X161544472Y-115685678D01*
X161460890Y-115628569D01*
X161209000Y-115577560D01*
X160972139Y-115577560D01*
X160909000Y-115565001D01*
X160845861Y-115577560D01*
X160609000Y-115577560D01*
X160373683Y-115621838D01*
X160157559Y-115760910D01*
X160096595Y-115850133D01*
X159894301Y-115985302D01*
X159386303Y-116493301D01*
X159386302Y-116493302D01*
X159075233Y-116958849D01*
X158966000Y-117508000D01*
X158966000Y-121557607D01*
X158895683Y-121570838D01*
X158679559Y-121709910D01*
X158534569Y-121922110D01*
X158483560Y-122174000D01*
X156883000Y-122174000D01*
X156883000Y-117762000D01*
X156773767Y-117212849D01*
X156462698Y-116747302D01*
X155700698Y-115985302D01*
X155500089Y-115851259D01*
X155450090Y-115773559D01*
X155237890Y-115628569D01*
X154986000Y-115577560D01*
X154749143Y-115577560D01*
X154686000Y-115565000D01*
X154622857Y-115577560D01*
X154386000Y-115577560D01*
X154150683Y-115621838D01*
X154051472Y-115685678D01*
X153967890Y-115628569D01*
X153716000Y-115577560D01*
X153116000Y-115577560D01*
X152880683Y-115621838D01*
X152781472Y-115685678D01*
X152697890Y-115628569D01*
X152446000Y-115577560D01*
X151846000Y-115577560D01*
X151610683Y-115621838D01*
X151511472Y-115685678D01*
X151427890Y-115628569D01*
X151176000Y-115577560D01*
X150939139Y-115577560D01*
X150876000Y-115565001D01*
X150812861Y-115577560D01*
X150576000Y-115577560D01*
X150340683Y-115621838D01*
X150124559Y-115760910D01*
X150063595Y-115850133D01*
X149861301Y-115985302D01*
X149353303Y-116493301D01*
X149353302Y-116493302D01*
X149042233Y-116958849D01*
X148933000Y-117508000D01*
X148933000Y-121557607D01*
X148862683Y-121570838D01*
X148646559Y-121709910D01*
X148501569Y-121922110D01*
X148450560Y-122174000D01*
X120053000Y-122174000D01*
X120053000Y-117635000D01*
X120016561Y-117451809D01*
X119943768Y-117085850D01*
X119632699Y-116620302D01*
X118997698Y-115985302D01*
X118797089Y-115851259D01*
X118747090Y-115773559D01*
X118534890Y-115628569D01*
X118283000Y-115577560D01*
X118046143Y-115577560D01*
X117983000Y-115565000D01*
X117919857Y-115577560D01*
X117683000Y-115577560D01*
X117447683Y-115621838D01*
X117348472Y-115685678D01*
X117264890Y-115628569D01*
X117013000Y-115577560D01*
X116413000Y-115577560D01*
X116177683Y-115621838D01*
X116078472Y-115685678D01*
X115994890Y-115628569D01*
X115743000Y-115577560D01*
X115143000Y-115577560D01*
X114907683Y-115621838D01*
X114808472Y-115685678D01*
X114724890Y-115628569D01*
X114473000Y-115577560D01*
X114236144Y-115577560D01*
X114173000Y-115565000D01*
X114109856Y-115577560D01*
X113873000Y-115577560D01*
X113637683Y-115621838D01*
X113421559Y-115760910D01*
X113360596Y-115850133D01*
X113158302Y-115985301D01*
X112523302Y-116620302D01*
X112212233Y-117085849D01*
X112103000Y-117635000D01*
X112103000Y-121557607D01*
X112032683Y-121570838D01*
X111816559Y-121709910D01*
X111671569Y-121922110D01*
X111620560Y-122174000D01*
X110020000Y-122174000D01*
X110020000Y-117762000D01*
X109910767Y-117212849D01*
X109599698Y-116747302D01*
X108837698Y-115985302D01*
X108637089Y-115851259D01*
X108587090Y-115773559D01*
X108374890Y-115628569D01*
X108123000Y-115577560D01*
X107886143Y-115577560D01*
X107823000Y-115565000D01*
X107759857Y-115577560D01*
X107523000Y-115577560D01*
X107287683Y-115621838D01*
X107188472Y-115685678D01*
X107104890Y-115628569D01*
X106853000Y-115577560D01*
X106253000Y-115577560D01*
X106017683Y-115621838D01*
X105918472Y-115685678D01*
X105834890Y-115628569D01*
X105583000Y-115577560D01*
X104983000Y-115577560D01*
X104747683Y-115621838D01*
X104648472Y-115685678D01*
X104564890Y-115628569D01*
X104313000Y-115577560D01*
X104076139Y-115577560D01*
X104013000Y-115565001D01*
X103949861Y-115577560D01*
X103713000Y-115577560D01*
X103477683Y-115621838D01*
X103261559Y-115760910D01*
X103200595Y-115850133D01*
X102998301Y-115985302D01*
X102490303Y-116493301D01*
X102490302Y-116493302D01*
X102179233Y-116958849D01*
X102070000Y-117508000D01*
X102070000Y-121557607D01*
X101999683Y-121570838D01*
X101783559Y-121709910D01*
X101638569Y-121922110D01*
X101587560Y-122174000D01*
X99987000Y-122174000D01*
X99987000Y-117635000D01*
X99950561Y-117451809D01*
X99877768Y-117085850D01*
X99566699Y-116620302D01*
X98931698Y-115985302D01*
X98731089Y-115851259D01*
X98681090Y-115773559D01*
X98468890Y-115628569D01*
X98217000Y-115577560D01*
X97980143Y-115577560D01*
X97917000Y-115565000D01*
X97853857Y-115577560D01*
X97617000Y-115577560D01*
X97381683Y-115621838D01*
X97282472Y-115685678D01*
X97198890Y-115628569D01*
X96947000Y-115577560D01*
X96347000Y-115577560D01*
X96111683Y-115621838D01*
X96012472Y-115685678D01*
X95928890Y-115628569D01*
X95677000Y-115577560D01*
X95077000Y-115577560D01*
X94841683Y-115621838D01*
X94742472Y-115685678D01*
X94658890Y-115628569D01*
X94407000Y-115577560D01*
X94170144Y-115577560D01*
X94107000Y-115565000D01*
X94043856Y-115577560D01*
X93807000Y-115577560D01*
X93571683Y-115621838D01*
X93355559Y-115760910D01*
X93294596Y-115850133D01*
X93092302Y-115985301D01*
X92457302Y-116620302D01*
X92146233Y-117085849D01*
X92037000Y-117635000D01*
X92037000Y-121557607D01*
X91966683Y-121570838D01*
X91750559Y-121709910D01*
X91605569Y-121922110D01*
X91554560Y-122174000D01*
X89789000Y-122174000D01*
X89789000Y-104648000D01*
X92972000Y-104648000D01*
X93058397Y-105082345D01*
X93172000Y-105252364D01*
X93172000Y-110763569D01*
X93159560Y-110825000D01*
X93159560Y-112375000D01*
X93203838Y-112610317D01*
X93342910Y-112826441D01*
X93555110Y-112971431D01*
X93807000Y-113022440D01*
X94407000Y-113022440D01*
X94642317Y-112978162D01*
X94741528Y-112914322D01*
X94825110Y-112971431D01*
X95077000Y-113022440D01*
X95677000Y-113022440D01*
X95912317Y-112978162D01*
X96011528Y-112914322D01*
X96095110Y-112971431D01*
X96347000Y-113022440D01*
X96947000Y-113022440D01*
X97182317Y-112978162D01*
X97272980Y-112919822D01*
X97490690Y-113010000D01*
X97631250Y-113010000D01*
X97790000Y-112851250D01*
X97790000Y-111727000D01*
X98044000Y-111727000D01*
X98044000Y-112851250D01*
X98202750Y-113010000D01*
X98343310Y-113010000D01*
X98576699Y-112913327D01*
X98755327Y-112734698D01*
X98852000Y-112501309D01*
X98852000Y-111885750D01*
X98693250Y-111727000D01*
X98044000Y-111727000D01*
X97790000Y-111727000D01*
X97770000Y-111727000D01*
X97770000Y-111473000D01*
X97790000Y-111473000D01*
X97790000Y-110348750D01*
X98044000Y-110348750D01*
X98044000Y-111473000D01*
X98693250Y-111473000D01*
X98852000Y-111314250D01*
X98852000Y-110698691D01*
X98755327Y-110465302D01*
X98576699Y-110286673D01*
X98343310Y-110190000D01*
X98202750Y-110190000D01*
X98044000Y-110348750D01*
X97790000Y-110348750D01*
X97696270Y-110255020D01*
X98090145Y-109861145D01*
X98292827Y-109557809D01*
X98364000Y-109200000D01*
X98364000Y-107917630D01*
X98414317Y-107908162D01*
X98630441Y-107769090D01*
X98676969Y-107700994D01*
X98819302Y-107843327D01*
X99052691Y-107940000D01*
X99643250Y-107940000D01*
X99802000Y-107781250D01*
X99802000Y-106807000D01*
X100056000Y-106807000D01*
X100056000Y-107781250D01*
X100214750Y-107940000D01*
X100805309Y-107940000D01*
X101038698Y-107843327D01*
X101217327Y-107664699D01*
X101314000Y-107431310D01*
X101314000Y-106965750D01*
X101155250Y-106807000D01*
X100056000Y-106807000D01*
X99802000Y-106807000D01*
X99782000Y-106807000D01*
X99782000Y-106553000D01*
X99802000Y-106553000D01*
X99802000Y-105578750D01*
X100056000Y-105578750D01*
X100056000Y-106553000D01*
X101155250Y-106553000D01*
X101314000Y-106394250D01*
X101314000Y-105928690D01*
X101217327Y-105695301D01*
X101038698Y-105516673D01*
X100805309Y-105420000D01*
X100214750Y-105420000D01*
X100056000Y-105578750D01*
X99802000Y-105578750D01*
X99643250Y-105420000D01*
X99052691Y-105420000D01*
X98819302Y-105516673D01*
X98678064Y-105657910D01*
X98643090Y-105603559D01*
X98430890Y-105458569D01*
X98179000Y-105407560D01*
X96679000Y-105407560D01*
X96443683Y-105451838D01*
X96227559Y-105590910D01*
X96082569Y-105803110D01*
X96031560Y-106055000D01*
X96031560Y-107305000D01*
X96075838Y-107540317D01*
X96214910Y-107756441D01*
X96427110Y-107901431D01*
X96494000Y-107914977D01*
X96494000Y-108812710D01*
X96312000Y-108994710D01*
X96312000Y-108966816D01*
X96312162Y-108780833D01*
X96170117Y-108437057D01*
X95907327Y-108173808D01*
X95563799Y-108031162D01*
X95191833Y-108030838D01*
X95042000Y-108092748D01*
X95042000Y-105318132D01*
X96355132Y-104005000D01*
X103170014Y-104005000D01*
X103149173Y-104036191D01*
X103078000Y-104394000D01*
X103078000Y-110763569D01*
X103065560Y-110825000D01*
X103065560Y-112375000D01*
X103109838Y-112610317D01*
X103248910Y-112826441D01*
X103461110Y-112971431D01*
X103713000Y-113022440D01*
X104313000Y-113022440D01*
X104548317Y-112978162D01*
X104647528Y-112914322D01*
X104731110Y-112971431D01*
X104983000Y-113022440D01*
X105583000Y-113022440D01*
X105818317Y-112978162D01*
X105917528Y-112914322D01*
X106001110Y-112971431D01*
X106253000Y-113022440D01*
X106853000Y-113022440D01*
X107088317Y-112978162D01*
X107178980Y-112919822D01*
X107396690Y-113010000D01*
X107537250Y-113010000D01*
X107696000Y-112851250D01*
X107696000Y-111727000D01*
X107950000Y-111727000D01*
X107950000Y-112851250D01*
X108108750Y-113010000D01*
X108249310Y-113010000D01*
X108482699Y-112913327D01*
X108661327Y-112734698D01*
X108758000Y-112501309D01*
X108758000Y-111885750D01*
X108599250Y-111727000D01*
X107950000Y-111727000D01*
X107696000Y-111727000D01*
X107676000Y-111727000D01*
X107676000Y-111473000D01*
X107696000Y-111473000D01*
X107696000Y-111453000D01*
X107950000Y-111453000D01*
X107950000Y-111473000D01*
X108599250Y-111473000D01*
X108758000Y-111314250D01*
X108758000Y-110698691D01*
X108661327Y-110465302D01*
X108482699Y-110286673D01*
X108249310Y-110190000D01*
X108108750Y-110190000D01*
X108003133Y-110295617D01*
X108071827Y-110192809D01*
X108143000Y-109835000D01*
X108143000Y-107917630D01*
X108193317Y-107908162D01*
X108409441Y-107769090D01*
X108455969Y-107700994D01*
X108598302Y-107843327D01*
X108831691Y-107940000D01*
X109422250Y-107940000D01*
X109581000Y-107781250D01*
X109581000Y-106807000D01*
X109835000Y-106807000D01*
X109835000Y-107781250D01*
X109993750Y-107940000D01*
X110584309Y-107940000D01*
X110817698Y-107843327D01*
X110996327Y-107664699D01*
X111093000Y-107431310D01*
X111093000Y-106965750D01*
X110934250Y-106807000D01*
X109835000Y-106807000D01*
X109581000Y-106807000D01*
X109561000Y-106807000D01*
X109561000Y-106553000D01*
X109581000Y-106553000D01*
X109581000Y-105578750D01*
X109835000Y-105578750D01*
X109835000Y-106553000D01*
X110934250Y-106553000D01*
X111093000Y-106394250D01*
X111093000Y-105928690D01*
X110996327Y-105695301D01*
X110817698Y-105516673D01*
X110584309Y-105420000D01*
X109993750Y-105420000D01*
X109835000Y-105578750D01*
X109581000Y-105578750D01*
X109422250Y-105420000D01*
X108831691Y-105420000D01*
X108598302Y-105516673D01*
X108457064Y-105657910D01*
X108422090Y-105603559D01*
X108209890Y-105458569D01*
X107958000Y-105407560D01*
X106458000Y-105407560D01*
X106222683Y-105451838D01*
X106006559Y-105590910D01*
X105861569Y-105803110D01*
X105810560Y-106055000D01*
X105810560Y-107305000D01*
X105854838Y-107540317D01*
X105993910Y-107756441D01*
X106206110Y-107901431D01*
X106273000Y-107914977D01*
X106273000Y-109447710D01*
X106218000Y-109502710D01*
X106218000Y-108966816D01*
X106218162Y-108780833D01*
X106076117Y-108437057D01*
X105813327Y-108173808D01*
X105469799Y-108031162D01*
X105097833Y-108030838D01*
X104948000Y-108092748D01*
X104948000Y-104781290D01*
X105724290Y-104005000D01*
X113499731Y-104005000D01*
X113309173Y-104290191D01*
X113238000Y-104648000D01*
X113238000Y-110763569D01*
X113225560Y-110825000D01*
X113225560Y-112375000D01*
X113269838Y-112610317D01*
X113408910Y-112826441D01*
X113621110Y-112971431D01*
X113873000Y-113022440D01*
X114473000Y-113022440D01*
X114708317Y-112978162D01*
X114807528Y-112914322D01*
X114891110Y-112971431D01*
X115143000Y-113022440D01*
X115743000Y-113022440D01*
X115978317Y-112978162D01*
X116077528Y-112914322D01*
X116161110Y-112971431D01*
X116413000Y-113022440D01*
X117013000Y-113022440D01*
X117248317Y-112978162D01*
X117338980Y-112919822D01*
X117556690Y-113010000D01*
X117697250Y-113010000D01*
X117856000Y-112851250D01*
X117856000Y-111727000D01*
X118110000Y-111727000D01*
X118110000Y-112851250D01*
X118268750Y-113010000D01*
X118409310Y-113010000D01*
X118642699Y-112913327D01*
X118821327Y-112734698D01*
X118918000Y-112501309D01*
X118918000Y-111885750D01*
X118759250Y-111727000D01*
X118110000Y-111727000D01*
X117856000Y-111727000D01*
X117836000Y-111727000D01*
X117836000Y-111473000D01*
X117856000Y-111473000D01*
X117856000Y-110348750D01*
X118110000Y-110348750D01*
X118110000Y-111473000D01*
X118759250Y-111473000D01*
X118918000Y-111314250D01*
X118918000Y-110698691D01*
X118821327Y-110465302D01*
X118642699Y-110286673D01*
X118409310Y-110190000D01*
X118268750Y-110190000D01*
X118110000Y-110348750D01*
X117856000Y-110348750D01*
X117825770Y-110318520D01*
X118029145Y-110115145D01*
X118231827Y-109811809D01*
X118303000Y-109454000D01*
X118303000Y-107917630D01*
X118353317Y-107908162D01*
X118569441Y-107769090D01*
X118615969Y-107700994D01*
X118758302Y-107843327D01*
X118991691Y-107940000D01*
X119582250Y-107940000D01*
X119741000Y-107781250D01*
X119741000Y-106807000D01*
X119995000Y-106807000D01*
X119995000Y-107781250D01*
X120153750Y-107940000D01*
X120744309Y-107940000D01*
X120977698Y-107843327D01*
X121156327Y-107664699D01*
X121253000Y-107431310D01*
X121253000Y-106965750D01*
X121094250Y-106807000D01*
X119995000Y-106807000D01*
X119741000Y-106807000D01*
X119721000Y-106807000D01*
X119721000Y-106553000D01*
X119741000Y-106553000D01*
X119741000Y-105578750D01*
X119995000Y-105578750D01*
X119995000Y-106553000D01*
X121094250Y-106553000D01*
X121253000Y-106394250D01*
X121253000Y-105928690D01*
X121156327Y-105695301D01*
X120977698Y-105516673D01*
X120744309Y-105420000D01*
X120153750Y-105420000D01*
X119995000Y-105578750D01*
X119741000Y-105578750D01*
X119582250Y-105420000D01*
X118991691Y-105420000D01*
X118758302Y-105516673D01*
X118617064Y-105657910D01*
X118582090Y-105603559D01*
X118369890Y-105458569D01*
X118118000Y-105407560D01*
X116618000Y-105407560D01*
X116382683Y-105451838D01*
X116166559Y-105590910D01*
X116021569Y-105803110D01*
X115970560Y-106055000D01*
X115970560Y-107305000D01*
X116014838Y-107540317D01*
X116153910Y-107756441D01*
X116366110Y-107901431D01*
X116433000Y-107914977D01*
X116433000Y-109066710D01*
X116378000Y-109121710D01*
X116378000Y-108966816D01*
X116378162Y-108780833D01*
X116236117Y-108437057D01*
X115973327Y-108173808D01*
X115629799Y-108031162D01*
X115257833Y-108030838D01*
X115108000Y-108092748D01*
X115108000Y-105035290D01*
X116138290Y-104005000D01*
X118110000Y-104005000D01*
X118544346Y-103918603D01*
X118912566Y-103672566D01*
X121285000Y-101300132D01*
X123530434Y-103545566D01*
X123898654Y-103791603D01*
X124333000Y-103878000D01*
X147132710Y-103878000D01*
X149941000Y-106686290D01*
X149941000Y-110763569D01*
X149928560Y-110825000D01*
X149928560Y-112375000D01*
X149972838Y-112610317D01*
X150111910Y-112826441D01*
X150324110Y-112971431D01*
X150576000Y-113022440D01*
X151176000Y-113022440D01*
X151411317Y-112978162D01*
X151510528Y-112914322D01*
X151594110Y-112971431D01*
X151846000Y-113022440D01*
X152446000Y-113022440D01*
X152681317Y-112978162D01*
X152780528Y-112914322D01*
X152864110Y-112971431D01*
X153116000Y-113022440D01*
X153716000Y-113022440D01*
X153951317Y-112978162D01*
X154041980Y-112919822D01*
X154259690Y-113010000D01*
X154400250Y-113010000D01*
X154559000Y-112851250D01*
X154559000Y-111727000D01*
X154813000Y-111727000D01*
X154813000Y-112851250D01*
X154971750Y-113010000D01*
X155112310Y-113010000D01*
X155345699Y-112913327D01*
X155524327Y-112734698D01*
X155621000Y-112501309D01*
X155621000Y-111885750D01*
X155462250Y-111727000D01*
X154813000Y-111727000D01*
X154559000Y-111727000D01*
X154539000Y-111727000D01*
X154539000Y-111473000D01*
X154559000Y-111473000D01*
X154559000Y-110348750D01*
X154813000Y-110348750D01*
X154813000Y-111473000D01*
X155462250Y-111473000D01*
X155621000Y-111314250D01*
X155621000Y-110698691D01*
X155524327Y-110465302D01*
X155345699Y-110286673D01*
X155112310Y-110190000D01*
X154971750Y-110190000D01*
X154813000Y-110348750D01*
X154559000Y-110348750D01*
X154465270Y-110255020D01*
X154859145Y-109861145D01*
X155061827Y-109557809D01*
X155133000Y-109200000D01*
X155133000Y-107917630D01*
X155183317Y-107908162D01*
X155399441Y-107769090D01*
X155445969Y-107700994D01*
X155588302Y-107843327D01*
X155821691Y-107940000D01*
X156412250Y-107940000D01*
X156571000Y-107781250D01*
X156571000Y-106807000D01*
X156825000Y-106807000D01*
X156825000Y-107781250D01*
X156983750Y-107940000D01*
X157574309Y-107940000D01*
X157807698Y-107843327D01*
X157986327Y-107664699D01*
X158083000Y-107431310D01*
X158083000Y-106965750D01*
X157924250Y-106807000D01*
X156825000Y-106807000D01*
X156571000Y-106807000D01*
X156551000Y-106807000D01*
X156551000Y-106553000D01*
X156571000Y-106553000D01*
X156571000Y-105578750D01*
X156825000Y-105578750D01*
X156825000Y-106553000D01*
X157924250Y-106553000D01*
X158083000Y-106394250D01*
X158083000Y-105928690D01*
X157986327Y-105695301D01*
X157807698Y-105516673D01*
X157574309Y-105420000D01*
X156983750Y-105420000D01*
X156825000Y-105578750D01*
X156571000Y-105578750D01*
X156412250Y-105420000D01*
X155821691Y-105420000D01*
X155588302Y-105516673D01*
X155447064Y-105657910D01*
X155412090Y-105603559D01*
X155199890Y-105458569D01*
X154948000Y-105407560D01*
X153448000Y-105407560D01*
X153212683Y-105451838D01*
X152996559Y-105590910D01*
X152851569Y-105803110D01*
X152800560Y-106055000D01*
X152800560Y-107305000D01*
X152844838Y-107540317D01*
X152983910Y-107756441D01*
X153196110Y-107901431D01*
X153263000Y-107914977D01*
X153263000Y-108812710D01*
X153081000Y-108994710D01*
X153081000Y-108966816D01*
X153081162Y-108780833D01*
X152939117Y-108437057D01*
X152676327Y-108173808D01*
X152332799Y-108031162D01*
X151960833Y-108030838D01*
X151811000Y-108092748D01*
X151811000Y-106299000D01*
X151739827Y-105941191D01*
X151537145Y-105637855D01*
X149777290Y-103878000D01*
X156784710Y-103878000D01*
X159974000Y-107067290D01*
X159974000Y-110763569D01*
X159961560Y-110825000D01*
X159961560Y-112375000D01*
X160005838Y-112610317D01*
X160144910Y-112826441D01*
X160357110Y-112971431D01*
X160609000Y-113022440D01*
X161209000Y-113022440D01*
X161444317Y-112978162D01*
X161543528Y-112914322D01*
X161627110Y-112971431D01*
X161879000Y-113022440D01*
X162479000Y-113022440D01*
X162714317Y-112978162D01*
X162813528Y-112914322D01*
X162897110Y-112971431D01*
X163149000Y-113022440D01*
X163749000Y-113022440D01*
X163984317Y-112978162D01*
X164074980Y-112919822D01*
X164292690Y-113010000D01*
X164433250Y-113010000D01*
X164592000Y-112851250D01*
X164592000Y-111727000D01*
X164846000Y-111727000D01*
X164846000Y-112851250D01*
X165004750Y-113010000D01*
X165145310Y-113010000D01*
X165378699Y-112913327D01*
X165557327Y-112734698D01*
X165654000Y-112501309D01*
X165654000Y-111885750D01*
X165495250Y-111727000D01*
X164846000Y-111727000D01*
X164592000Y-111727000D01*
X164572000Y-111727000D01*
X164572000Y-111473000D01*
X164592000Y-111473000D01*
X164592000Y-110348750D01*
X164846000Y-110348750D01*
X164846000Y-111473000D01*
X165495250Y-111473000D01*
X165654000Y-111314250D01*
X165654000Y-110698691D01*
X165557327Y-110465302D01*
X165378699Y-110286673D01*
X165145310Y-110190000D01*
X165004750Y-110190000D01*
X164846000Y-110348750D01*
X164592000Y-110348750D01*
X164561770Y-110318520D01*
X164892145Y-109988145D01*
X165094827Y-109684809D01*
X165166000Y-109327000D01*
X165166000Y-107663630D01*
X165216317Y-107654162D01*
X165432441Y-107515090D01*
X165478969Y-107446994D01*
X165621302Y-107589327D01*
X165854691Y-107686000D01*
X166445250Y-107686000D01*
X166604000Y-107527250D01*
X166604000Y-106553000D01*
X166858000Y-106553000D01*
X166858000Y-107527250D01*
X167016750Y-107686000D01*
X167607309Y-107686000D01*
X167840698Y-107589327D01*
X168019327Y-107410699D01*
X168116000Y-107177310D01*
X168116000Y-106711750D01*
X167957250Y-106553000D01*
X166858000Y-106553000D01*
X166604000Y-106553000D01*
X166584000Y-106553000D01*
X166584000Y-106299000D01*
X166604000Y-106299000D01*
X166604000Y-105324750D01*
X166858000Y-105324750D01*
X166858000Y-106299000D01*
X167957250Y-106299000D01*
X168116000Y-106140250D01*
X168116000Y-105674690D01*
X168019327Y-105441301D01*
X167840698Y-105262673D01*
X167607309Y-105166000D01*
X167016750Y-105166000D01*
X166858000Y-105324750D01*
X166604000Y-105324750D01*
X166445250Y-105166000D01*
X165854691Y-105166000D01*
X165621302Y-105262673D01*
X165480064Y-105403910D01*
X165445090Y-105349559D01*
X165232890Y-105204569D01*
X164981000Y-105153560D01*
X163481000Y-105153560D01*
X163245683Y-105197838D01*
X163029559Y-105336910D01*
X162884569Y-105549110D01*
X162833560Y-105801000D01*
X162833560Y-107051000D01*
X162877838Y-107286317D01*
X163016910Y-107502441D01*
X163229110Y-107647431D01*
X163296000Y-107660977D01*
X163296000Y-108939710D01*
X163114000Y-109121710D01*
X163114000Y-108966816D01*
X163114162Y-108780833D01*
X162972117Y-108437057D01*
X162709327Y-108173808D01*
X162365799Y-108031162D01*
X161993833Y-108030838D01*
X161844000Y-108092748D01*
X161844000Y-106680000D01*
X161772827Y-106322191D01*
X161570145Y-106018855D01*
X159429290Y-103878000D01*
X166534868Y-103878000D01*
X170139434Y-107482566D01*
X170261000Y-107563794D01*
X170261000Y-110763569D01*
X170248560Y-110825000D01*
X170248560Y-112375000D01*
X170292838Y-112610317D01*
X170431910Y-112826441D01*
X170644110Y-112971431D01*
X170896000Y-113022440D01*
X171496000Y-113022440D01*
X171731317Y-112978162D01*
X171830528Y-112914322D01*
X171914110Y-112971431D01*
X172166000Y-113022440D01*
X172766000Y-113022440D01*
X173001317Y-112978162D01*
X173100528Y-112914322D01*
X173184110Y-112971431D01*
X173436000Y-113022440D01*
X174036000Y-113022440D01*
X174271317Y-112978162D01*
X174361980Y-112919822D01*
X174579690Y-113010000D01*
X174720250Y-113010000D01*
X174879000Y-112851250D01*
X174879000Y-111727000D01*
X175133000Y-111727000D01*
X175133000Y-112851250D01*
X175291750Y-113010000D01*
X175432310Y-113010000D01*
X175665699Y-112913327D01*
X175844327Y-112734698D01*
X175941000Y-112501309D01*
X175941000Y-111885750D01*
X175782250Y-111727000D01*
X175133000Y-111727000D01*
X174879000Y-111727000D01*
X174859000Y-111727000D01*
X174859000Y-111473000D01*
X174879000Y-111473000D01*
X174879000Y-110348750D01*
X175133000Y-110348750D01*
X175133000Y-111473000D01*
X175782250Y-111473000D01*
X175941000Y-111314250D01*
X175941000Y-110698691D01*
X175844327Y-110465302D01*
X175665699Y-110286673D01*
X175432310Y-110190000D01*
X175291750Y-110190000D01*
X175133000Y-110348750D01*
X174879000Y-110348750D01*
X174721770Y-110191520D01*
X175179145Y-109734145D01*
X175381827Y-109430809D01*
X175453000Y-109073000D01*
X175453000Y-107663630D01*
X175503317Y-107654162D01*
X175719441Y-107515090D01*
X175765969Y-107446994D01*
X175908302Y-107589327D01*
X176141691Y-107686000D01*
X176732250Y-107686000D01*
X176891000Y-107527250D01*
X176891000Y-106553000D01*
X177145000Y-106553000D01*
X177145000Y-107527250D01*
X177303750Y-107686000D01*
X177894309Y-107686000D01*
X178127698Y-107589327D01*
X178306327Y-107410699D01*
X178403000Y-107177310D01*
X178403000Y-106711750D01*
X178244250Y-106553000D01*
X177145000Y-106553000D01*
X176891000Y-106553000D01*
X176871000Y-106553000D01*
X176871000Y-106299000D01*
X176891000Y-106299000D01*
X176891000Y-105324750D01*
X177145000Y-105324750D01*
X177145000Y-106299000D01*
X178244250Y-106299000D01*
X178403000Y-106140250D01*
X178403000Y-105674690D01*
X178306327Y-105441301D01*
X178127698Y-105262673D01*
X177894309Y-105166000D01*
X177303750Y-105166000D01*
X177145000Y-105324750D01*
X176891000Y-105324750D01*
X176732250Y-105166000D01*
X176141691Y-105166000D01*
X175908302Y-105262673D01*
X175767064Y-105403910D01*
X175732090Y-105349559D01*
X175519890Y-105204569D01*
X175268000Y-105153560D01*
X173768000Y-105153560D01*
X173532683Y-105197838D01*
X173316559Y-105336910D01*
X173171569Y-105549110D01*
X173120560Y-105801000D01*
X173120560Y-107051000D01*
X173164838Y-107286317D01*
X173303910Y-107502441D01*
X173516110Y-107647431D01*
X173583000Y-107660977D01*
X173583000Y-108685710D01*
X173401086Y-108867624D01*
X173401162Y-108780833D01*
X173259117Y-108437057D01*
X172996327Y-108173808D01*
X172652799Y-108031162D01*
X172280833Y-108030838D01*
X172131000Y-108092748D01*
X172131000Y-107061000D01*
X172066107Y-106734763D01*
X172077000Y-106680000D01*
X171990603Y-106245655D01*
X171744566Y-105877434D01*
X168610132Y-102743000D01*
X177236600Y-94116532D01*
X184193073Y-94116532D01*
X184291736Y-94383387D01*
X184901461Y-94609908D01*
X185551460Y-94585856D01*
X186040264Y-94383387D01*
X186138927Y-94116532D01*
X185166000Y-93143605D01*
X184193073Y-94116532D01*
X177236600Y-94116532D01*
X177332566Y-94020566D01*
X177347188Y-93998683D01*
X177578603Y-93652346D01*
X177665000Y-93218000D01*
X177665000Y-92699461D01*
X183520092Y-92699461D01*
X183544144Y-93349460D01*
X183746613Y-93838264D01*
X184013468Y-93936927D01*
X184986395Y-92964000D01*
X185345605Y-92964000D01*
X186318532Y-93936927D01*
X186585387Y-93838264D01*
X186811908Y-93228539D01*
X186787856Y-92578540D01*
X186585387Y-92089736D01*
X186318532Y-91991073D01*
X185345605Y-92964000D01*
X184986395Y-92964000D01*
X184013468Y-91991073D01*
X183746613Y-92089736D01*
X183520092Y-92699461D01*
X177665000Y-92699461D01*
X177665000Y-91811468D01*
X184193073Y-91811468D01*
X185166000Y-92784395D01*
X186138927Y-91811468D01*
X186040264Y-91544613D01*
X185430539Y-91318092D01*
X184780540Y-91342144D01*
X184291736Y-91544613D01*
X184193073Y-91811468D01*
X177665000Y-91811468D01*
X177665000Y-80079795D01*
X183530716Y-80079795D01*
X183779106Y-80680943D01*
X184238637Y-81141278D01*
X184839352Y-81390716D01*
X185489795Y-81391284D01*
X186090943Y-81142894D01*
X186551278Y-80683363D01*
X186800716Y-80082648D01*
X186801284Y-79432205D01*
X186552894Y-78831057D01*
X186093363Y-78370722D01*
X185492648Y-78121284D01*
X184842205Y-78120716D01*
X184241057Y-78369106D01*
X183780722Y-78828637D01*
X183531284Y-79429352D01*
X183530716Y-80079795D01*
X177665000Y-80079795D01*
X177665000Y-72336078D01*
X178185378Y-72336078D01*
X178214917Y-72846428D01*
X178353389Y-73180729D01*
X178583984Y-73236410D01*
X179303395Y-72517000D01*
X178583984Y-71797590D01*
X178353389Y-71853271D01*
X178185378Y-72336078D01*
X177665000Y-72336078D01*
X177665000Y-71617984D01*
X178763590Y-71617984D01*
X179483000Y-72337395D01*
X179497142Y-72323252D01*
X179676748Y-72502858D01*
X179662605Y-72517000D01*
X179676748Y-72531142D01*
X179497142Y-72710748D01*
X179483000Y-72696605D01*
X178763590Y-73416016D01*
X178819271Y-73646611D01*
X179302078Y-73814622D01*
X179812428Y-73785083D01*
X180146729Y-73646611D01*
X180202410Y-73416018D01*
X180304072Y-73517680D01*
X180368910Y-73618441D01*
X180581110Y-73763431D01*
X180833000Y-73814440D01*
X182133000Y-73814440D01*
X182368317Y-73770162D01*
X182584441Y-73631090D01*
X182729431Y-73418890D01*
X182780440Y-73167000D01*
X182780440Y-71867000D01*
X182736162Y-71631683D01*
X182597090Y-71415559D01*
X182384890Y-71270569D01*
X182133000Y-71219560D01*
X180833000Y-71219560D01*
X180597683Y-71263838D01*
X180381559Y-71402910D01*
X180304063Y-71516329D01*
X180202410Y-71617982D01*
X180146729Y-71387389D01*
X179663922Y-71219378D01*
X179153572Y-71248917D01*
X178819271Y-71387389D01*
X178763590Y-71617984D01*
X177665000Y-71617984D01*
X177665000Y-70485000D01*
X177578603Y-70050654D01*
X177332566Y-69682434D01*
X175173566Y-67523434D01*
X175074630Y-67457327D01*
X174805346Y-67277397D01*
X174371000Y-67191000D01*
X172018290Y-67191000D01*
X170988000Y-66160710D01*
X170988000Y-65293480D01*
X183770020Y-65293480D01*
X183770020Y-67293480D01*
X183814298Y-67528797D01*
X183953370Y-67744921D01*
X184165570Y-67889911D01*
X184417460Y-67940920D01*
X186417460Y-67940920D01*
X186652777Y-67896642D01*
X186868901Y-67757570D01*
X187013891Y-67545370D01*
X187064900Y-67293480D01*
X187064900Y-65293480D01*
X187020622Y-65058163D01*
X186881550Y-64842039D01*
X186669350Y-64697049D01*
X186417460Y-64646040D01*
X184417460Y-64646040D01*
X184182143Y-64690318D01*
X183966019Y-64829390D01*
X183821029Y-65041590D01*
X183770020Y-65293480D01*
X170988000Y-65293480D01*
X170988000Y-62210431D01*
X171000440Y-62149000D01*
X171000440Y-61537694D01*
X178451226Y-61537694D01*
X178699538Y-62138655D01*
X179158927Y-62598846D01*
X179759453Y-62848206D01*
X180409694Y-62848774D01*
X181010655Y-62600462D01*
X181470846Y-62141073D01*
X181720206Y-61540547D01*
X181720774Y-60890306D01*
X181472462Y-60289345D01*
X181013073Y-59829154D01*
X180412547Y-59579794D01*
X179762306Y-59579226D01*
X179161345Y-59827538D01*
X178701154Y-60286927D01*
X178451794Y-60887453D01*
X178451226Y-61537694D01*
X171000440Y-61537694D01*
X171000440Y-60599000D01*
X170956162Y-60363683D01*
X170817090Y-60147559D01*
X170604890Y-60002569D01*
X170353000Y-59951560D01*
X169753000Y-59951560D01*
X169517683Y-59995838D01*
X169418472Y-60059678D01*
X169334890Y-60002569D01*
X169083000Y-59951560D01*
X168483000Y-59951560D01*
X168247683Y-59995838D01*
X168148472Y-60059678D01*
X168064890Y-60002569D01*
X167813000Y-59951560D01*
X167213000Y-59951560D01*
X166977683Y-59995838D01*
X166887020Y-60054178D01*
X166669310Y-59964000D01*
X166528750Y-59964000D01*
X166370000Y-60122750D01*
X166370000Y-61247000D01*
X166390000Y-61247000D01*
X166390000Y-61501000D01*
X166370000Y-61501000D01*
X166370000Y-62625250D01*
X166400230Y-62655480D01*
X166069855Y-62985855D01*
X165867173Y-63289191D01*
X165796000Y-63647000D01*
X165796000Y-65056370D01*
X165745683Y-65065838D01*
X165529559Y-65204910D01*
X165483031Y-65273006D01*
X165340698Y-65130673D01*
X165107309Y-65034000D01*
X164516750Y-65034000D01*
X164358000Y-65192750D01*
X164358000Y-66167000D01*
X164378000Y-66167000D01*
X164378000Y-66421000D01*
X164358000Y-66421000D01*
X164358000Y-66441000D01*
X164104000Y-66441000D01*
X164104000Y-66421000D01*
X163004750Y-66421000D01*
X162846000Y-66579750D01*
X162846000Y-67045310D01*
X162906347Y-67191000D01*
X161858290Y-67191000D01*
X160828000Y-66160710D01*
X160828000Y-65542690D01*
X162846000Y-65542690D01*
X162846000Y-66008250D01*
X163004750Y-66167000D01*
X164104000Y-66167000D01*
X164104000Y-65192750D01*
X163945250Y-65034000D01*
X163354691Y-65034000D01*
X163121302Y-65130673D01*
X162942673Y-65309301D01*
X162846000Y-65542690D01*
X160828000Y-65542690D01*
X160828000Y-62210431D01*
X160840440Y-62149000D01*
X160840440Y-61659750D01*
X165308000Y-61659750D01*
X165308000Y-62275309D01*
X165404673Y-62508698D01*
X165583301Y-62687327D01*
X165816690Y-62784000D01*
X165957250Y-62784000D01*
X166116000Y-62625250D01*
X166116000Y-61501000D01*
X165466750Y-61501000D01*
X165308000Y-61659750D01*
X160840440Y-61659750D01*
X160840440Y-60599000D01*
X160816674Y-60472691D01*
X165308000Y-60472691D01*
X165308000Y-61088250D01*
X165466750Y-61247000D01*
X166116000Y-61247000D01*
X166116000Y-60122750D01*
X165957250Y-59964000D01*
X165816690Y-59964000D01*
X165583301Y-60060673D01*
X165404673Y-60239302D01*
X165308000Y-60472691D01*
X160816674Y-60472691D01*
X160796162Y-60363683D01*
X160657090Y-60147559D01*
X160444890Y-60002569D01*
X160193000Y-59951560D01*
X159593000Y-59951560D01*
X159357683Y-59995838D01*
X159258472Y-60059678D01*
X159174890Y-60002569D01*
X158923000Y-59951560D01*
X158323000Y-59951560D01*
X158087683Y-59995838D01*
X157988472Y-60059678D01*
X157904890Y-60002569D01*
X157653000Y-59951560D01*
X157053000Y-59951560D01*
X156817683Y-59995838D01*
X156727020Y-60054178D01*
X156509310Y-59964000D01*
X156368750Y-59964000D01*
X156210000Y-60122750D01*
X156210000Y-61247000D01*
X156230000Y-61247000D01*
X156230000Y-61501000D01*
X156210000Y-61501000D01*
X156210000Y-62625250D01*
X156368750Y-62784000D01*
X156418000Y-62784000D01*
X156418000Y-62858710D01*
X155909855Y-63366855D01*
X155707173Y-63670191D01*
X155636000Y-64028000D01*
X155636000Y-65056370D01*
X155585683Y-65065838D01*
X155369559Y-65204910D01*
X155323031Y-65273006D01*
X155180698Y-65130673D01*
X154947309Y-65034000D01*
X154356750Y-65034000D01*
X154198000Y-65192750D01*
X154198000Y-66167000D01*
X154218000Y-66167000D01*
X154218000Y-66421000D01*
X154198000Y-66421000D01*
X154198000Y-67395250D01*
X154356750Y-67554000D01*
X154947309Y-67554000D01*
X155180698Y-67457327D01*
X155321936Y-67316090D01*
X155356910Y-67370441D01*
X155569110Y-67515431D01*
X155821000Y-67566440D01*
X157321000Y-67566440D01*
X157556317Y-67522162D01*
X157772441Y-67383090D01*
X157917431Y-67170890D01*
X157968440Y-66919000D01*
X157968440Y-65669000D01*
X157924162Y-65433683D01*
X157785090Y-65217559D01*
X157572890Y-65072569D01*
X157506000Y-65059023D01*
X157506000Y-64415290D01*
X157736749Y-64184541D01*
X157829883Y-64409943D01*
X158092673Y-64673192D01*
X158436201Y-64815838D01*
X158808167Y-64816162D01*
X158958000Y-64754252D01*
X158958000Y-66548000D01*
X159029173Y-66905809D01*
X159231855Y-67209145D01*
X160423970Y-68401260D01*
X160495397Y-68760346D01*
X160741434Y-69128566D01*
X161109654Y-69374603D01*
X161544000Y-69461000D01*
X173900868Y-69461000D01*
X175395000Y-70955132D01*
X175395000Y-92747868D01*
X166534868Y-101608000D01*
X138107712Y-101608000D01*
X141447856Y-98267856D01*
X141672215Y-97932077D01*
X141751001Y-97536000D01*
X141751000Y-97535995D01*
X141751000Y-93414694D01*
X159655226Y-93414694D01*
X159903538Y-94015655D01*
X160362927Y-94475846D01*
X160963453Y-94725206D01*
X161613694Y-94725774D01*
X162214655Y-94477462D01*
X162576215Y-94116532D01*
X165651073Y-94116532D01*
X165749736Y-94383387D01*
X166359461Y-94609908D01*
X167009460Y-94585856D01*
X167498264Y-94383387D01*
X167596927Y-94116532D01*
X166624000Y-93143605D01*
X165651073Y-94116532D01*
X162576215Y-94116532D01*
X162674846Y-94018073D01*
X162924206Y-93417547D01*
X162924774Y-92767306D01*
X162896742Y-92699461D01*
X164978092Y-92699461D01*
X165002144Y-93349460D01*
X165204613Y-93838264D01*
X165471468Y-93936927D01*
X166444395Y-92964000D01*
X166803605Y-92964000D01*
X167776532Y-93936927D01*
X168043387Y-93838264D01*
X168269908Y-93228539D01*
X168245856Y-92578540D01*
X168043387Y-92089736D01*
X167776532Y-91991073D01*
X166803605Y-92964000D01*
X166444395Y-92964000D01*
X165471468Y-91991073D01*
X165204613Y-92089736D01*
X164978092Y-92699461D01*
X162896742Y-92699461D01*
X162676462Y-92166345D01*
X162322204Y-91811468D01*
X165651073Y-91811468D01*
X166624000Y-92784395D01*
X167596927Y-91811468D01*
X167498264Y-91544613D01*
X166888539Y-91318092D01*
X166238540Y-91342144D01*
X165749736Y-91544613D01*
X165651073Y-91811468D01*
X162322204Y-91811468D01*
X162217073Y-91706154D01*
X161616547Y-91456794D01*
X160966306Y-91456226D01*
X160365345Y-91704538D01*
X159905154Y-92163927D01*
X159655794Y-92764453D01*
X159655226Y-93414694D01*
X141751000Y-93414694D01*
X141751000Y-85576026D01*
X143426642Y-85576026D01*
X143429291Y-85591791D01*
X143683268Y-86119036D01*
X144119680Y-86508954D01*
X144672087Y-86702184D01*
X144907000Y-86557924D01*
X144907000Y-85344000D01*
X145161000Y-85344000D01*
X145161000Y-86557924D01*
X145395913Y-86702184D01*
X145948320Y-86508954D01*
X146384732Y-86119036D01*
X146638709Y-85591791D01*
X146641358Y-85576026D01*
X146520217Y-85344000D01*
X145161000Y-85344000D01*
X144907000Y-85344000D01*
X143547783Y-85344000D01*
X143426642Y-85576026D01*
X141751000Y-85576026D01*
X141751000Y-85137712D01*
X143176711Y-83712000D01*
X143773101Y-83712000D01*
X143789585Y-83736670D01*
X144099069Y-83943461D01*
X143683268Y-84314964D01*
X143429291Y-84842209D01*
X143426642Y-84857974D01*
X143547783Y-85090000D01*
X144907000Y-85090000D01*
X144907000Y-85070000D01*
X145161000Y-85070000D01*
X145161000Y-85090000D01*
X146520217Y-85090000D01*
X146641358Y-84857974D01*
X146638709Y-84842209D01*
X146384732Y-84314964D01*
X145968931Y-83943461D01*
X146278415Y-83736670D01*
X146603271Y-83250489D01*
X146717345Y-82677000D01*
X146603271Y-82103511D01*
X146278415Y-81617330D01*
X145963634Y-81407000D01*
X146278415Y-81196670D01*
X146603271Y-80710489D01*
X146717345Y-80137000D01*
X146603271Y-79563511D01*
X146278415Y-79077330D01*
X146264087Y-79067757D01*
X146285317Y-79063762D01*
X146501441Y-78924690D01*
X146646431Y-78712490D01*
X146697440Y-78460600D01*
X146697440Y-76733400D01*
X146653162Y-76498083D01*
X146514090Y-76281959D01*
X146301890Y-76136969D01*
X146050000Y-76085960D01*
X144018000Y-76085960D01*
X143782683Y-76130238D01*
X143566559Y-76269310D01*
X143421569Y-76481510D01*
X143370560Y-76733400D01*
X143370560Y-78460600D01*
X143414838Y-78695917D01*
X143553910Y-78912041D01*
X143766110Y-79057031D01*
X143807439Y-79065400D01*
X143789585Y-79077330D01*
X143464729Y-79563511D01*
X143350655Y-80137000D01*
X143464729Y-80710489D01*
X143789585Y-81196670D01*
X144104366Y-81407000D01*
X143789585Y-81617330D01*
X143773101Y-81642000D01*
X142748005Y-81642000D01*
X142748000Y-81641999D01*
X142351923Y-81720785D01*
X142016144Y-81945144D01*
X142016142Y-81945147D01*
X139984144Y-83977144D01*
X139759785Y-84312923D01*
X139680999Y-84709000D01*
X139681000Y-84709005D01*
X139681000Y-97107288D01*
X135180288Y-101608000D01*
X124803132Y-101608000D01*
X122420000Y-99224868D01*
X122420000Y-96845943D01*
X122600041Y-96730090D01*
X122745031Y-96517890D01*
X122753400Y-96476561D01*
X122765330Y-96494415D01*
X123251511Y-96819271D01*
X123825000Y-96933345D01*
X124398489Y-96819271D01*
X124884670Y-96494415D01*
X125091461Y-96184931D01*
X125462964Y-96600732D01*
X125990209Y-96854709D01*
X126005974Y-96857358D01*
X126238000Y-96736217D01*
X126238000Y-95377000D01*
X126218000Y-95377000D01*
X126218000Y-95123000D01*
X126238000Y-95123000D01*
X126238000Y-93763783D01*
X126492000Y-93763783D01*
X126492000Y-95123000D01*
X126512000Y-95123000D01*
X126512000Y-95377000D01*
X126492000Y-95377000D01*
X126492000Y-96736217D01*
X126724026Y-96857358D01*
X126739791Y-96854709D01*
X127267036Y-96600732D01*
X127638539Y-96184931D01*
X127845330Y-96494415D01*
X128331511Y-96819271D01*
X128905000Y-96933345D01*
X129478489Y-96819271D01*
X129964670Y-96494415D01*
X130289526Y-96008234D01*
X130403600Y-95434745D01*
X130403600Y-95065255D01*
X130289526Y-94491766D01*
X129964670Y-94005585D01*
X129478489Y-93680729D01*
X128905000Y-93566655D01*
X128331511Y-93680729D01*
X127845330Y-94005585D01*
X127638539Y-94315069D01*
X127267036Y-93899268D01*
X126739791Y-93645291D01*
X126724026Y-93642642D01*
X126492000Y-93763783D01*
X126238000Y-93763783D01*
X126005974Y-93642642D01*
X125990209Y-93645291D01*
X125462964Y-93899268D01*
X125091461Y-94315069D01*
X124884670Y-94005585D01*
X124398489Y-93680729D01*
X123825000Y-93566655D01*
X123251511Y-93680729D01*
X122765330Y-94005585D01*
X122755757Y-94019913D01*
X122751762Y-93998683D01*
X122612690Y-93782559D01*
X122400490Y-93637569D01*
X122148600Y-93586560D01*
X120421400Y-93586560D01*
X120186083Y-93630838D01*
X119969959Y-93769910D01*
X119824969Y-93982110D01*
X119816600Y-94023439D01*
X119804670Y-94005585D01*
X119318489Y-93680729D01*
X118745000Y-93566655D01*
X118171511Y-93680729D01*
X117685330Y-94005585D01*
X117475000Y-94320366D01*
X117264670Y-94005585D01*
X116778489Y-93680729D01*
X116205000Y-93566655D01*
X115631511Y-93680729D01*
X115145330Y-94005585D01*
X114935000Y-94320366D01*
X114724670Y-94005585D01*
X114238489Y-93680729D01*
X113665000Y-93566655D01*
X113091511Y-93680729D01*
X112605330Y-94005585D01*
X112395000Y-94320366D01*
X112184670Y-94005585D01*
X111698489Y-93680729D01*
X111125000Y-93566655D01*
X110551511Y-93680729D01*
X110065330Y-94005585D01*
X109855000Y-94320366D01*
X109644670Y-94005585D01*
X109158489Y-93680729D01*
X108585000Y-93566655D01*
X108011511Y-93680729D01*
X107525330Y-94005585D01*
X107315000Y-94320366D01*
X107104670Y-94005585D01*
X106618489Y-93680729D01*
X106045000Y-93566655D01*
X105471511Y-93680729D01*
X104985330Y-94005585D01*
X104775000Y-94320366D01*
X104564670Y-94005585D01*
X104078489Y-93680729D01*
X103505000Y-93566655D01*
X102931511Y-93680729D01*
X102445330Y-94005585D01*
X102435757Y-94019913D01*
X102431762Y-93998683D01*
X102292690Y-93782559D01*
X102080490Y-93637569D01*
X101828600Y-93586560D01*
X100101400Y-93586560D01*
X99866083Y-93630838D01*
X99649959Y-93769910D01*
X99504969Y-93982110D01*
X99453960Y-94234000D01*
X99453960Y-96266000D01*
X99498238Y-96501317D01*
X99637310Y-96717441D01*
X99849510Y-96862431D01*
X100101400Y-96913440D01*
X101828600Y-96913440D01*
X102063917Y-96869162D01*
X102280041Y-96730090D01*
X102425031Y-96517890D01*
X102433400Y-96476561D01*
X102445330Y-96494415D01*
X102931511Y-96819271D01*
X103505000Y-96933345D01*
X104078489Y-96819271D01*
X104564670Y-96494415D01*
X104775000Y-96179634D01*
X104985330Y-96494415D01*
X105471511Y-96819271D01*
X106045000Y-96933345D01*
X106618489Y-96819271D01*
X107104670Y-96494415D01*
X107315000Y-96179634D01*
X107525330Y-96494415D01*
X108011511Y-96819271D01*
X108585000Y-96933345D01*
X109158489Y-96819271D01*
X109644670Y-96494415D01*
X109855000Y-96179634D01*
X110065330Y-96494415D01*
X110551511Y-96819271D01*
X111125000Y-96933345D01*
X111698489Y-96819271D01*
X112184670Y-96494415D01*
X112395000Y-96179634D01*
X112605330Y-96494415D01*
X113091511Y-96819271D01*
X113665000Y-96933345D01*
X114238489Y-96819271D01*
X114724670Y-96494415D01*
X114935000Y-96179634D01*
X115145330Y-96494415D01*
X115631511Y-96819271D01*
X116205000Y-96933345D01*
X116778489Y-96819271D01*
X117264670Y-96494415D01*
X117475000Y-96179634D01*
X117685330Y-96494415D01*
X118171511Y-96819271D01*
X118745000Y-96933345D01*
X119318489Y-96819271D01*
X119804670Y-96494415D01*
X119814243Y-96480087D01*
X119818238Y-96501317D01*
X119957310Y-96717441D01*
X120150000Y-96849100D01*
X120150000Y-99224868D01*
X117639868Y-101735000D01*
X95885000Y-101735000D01*
X95450654Y-101821397D01*
X95166678Y-102011144D01*
X95082434Y-102067434D01*
X93304434Y-103845434D01*
X93058397Y-104213655D01*
X92972000Y-104648000D01*
X89789000Y-104648000D01*
X89789000Y-79825255D01*
X104546400Y-79825255D01*
X104546400Y-80194745D01*
X104660474Y-80768234D01*
X104985330Y-81254415D01*
X105471511Y-81579271D01*
X106045000Y-81693345D01*
X106618489Y-81579271D01*
X107104670Y-81254415D01*
X107315000Y-80939634D01*
X107525330Y-81254415D01*
X108011511Y-81579271D01*
X108585000Y-81693345D01*
X109158489Y-81579271D01*
X109644670Y-81254415D01*
X109855000Y-80939634D01*
X110065330Y-81254415D01*
X110551511Y-81579271D01*
X111125000Y-81693345D01*
X111698489Y-81579271D01*
X112184670Y-81254415D01*
X112395000Y-80939634D01*
X112605330Y-81254415D01*
X113091511Y-81579271D01*
X113665000Y-81693345D01*
X114238489Y-81579271D01*
X114724670Y-81254415D01*
X114935000Y-80939634D01*
X115145330Y-81254415D01*
X115631511Y-81579271D01*
X116205000Y-81693345D01*
X116778489Y-81579271D01*
X117264670Y-81254415D01*
X117274243Y-81240087D01*
X117278238Y-81261317D01*
X117417310Y-81477441D01*
X117629510Y-81622431D01*
X117881400Y-81673440D01*
X119608600Y-81673440D01*
X119843917Y-81629162D01*
X120060041Y-81490090D01*
X120205031Y-81277890D01*
X120256040Y-81026000D01*
X120256040Y-78994000D01*
X120211762Y-78758683D01*
X120072690Y-78542559D01*
X119860490Y-78397569D01*
X119608600Y-78346560D01*
X117881400Y-78346560D01*
X117646083Y-78390838D01*
X117429959Y-78529910D01*
X117284969Y-78742110D01*
X117276600Y-78783439D01*
X117264670Y-78765585D01*
X116778489Y-78440729D01*
X116205000Y-78326655D01*
X115631511Y-78440729D01*
X115145330Y-78765585D01*
X114935000Y-79080366D01*
X114724670Y-78765585D01*
X114238489Y-78440729D01*
X113665000Y-78326655D01*
X113091511Y-78440729D01*
X112605330Y-78765585D01*
X112395000Y-79080366D01*
X112184670Y-78765585D01*
X111698489Y-78440729D01*
X111125000Y-78326655D01*
X110551511Y-78440729D01*
X110065330Y-78765585D01*
X109855000Y-79080366D01*
X109644670Y-78765585D01*
X109158489Y-78440729D01*
X108585000Y-78326655D01*
X108011511Y-78440729D01*
X107525330Y-78765585D01*
X107315000Y-79080366D01*
X107104670Y-78765585D01*
X106618489Y-78440729D01*
X106045000Y-78326655D01*
X105471511Y-78440729D01*
X104985330Y-78765585D01*
X104660474Y-79251766D01*
X104546400Y-79825255D01*
X89789000Y-79825255D01*
X89789000Y-68580000D01*
X96101679Y-68580000D01*
X96227354Y-69211810D01*
X96585246Y-69747433D01*
X96738748Y-69850000D01*
X96585246Y-69952567D01*
X96227354Y-70488190D01*
X96101679Y-71120000D01*
X96227354Y-71751810D01*
X96585246Y-72287433D01*
X97120869Y-72645325D01*
X97752679Y-72771000D01*
X98335321Y-72771000D01*
X98967131Y-72645325D01*
X99502754Y-72287433D01*
X99860646Y-71751810D01*
X99898621Y-71560893D01*
X105602725Y-71560893D01*
X105843519Y-72143657D01*
X106288997Y-72589914D01*
X106871341Y-72831724D01*
X107501893Y-72832275D01*
X108084657Y-72591481D01*
X108194329Y-72482000D01*
X157603446Y-72482000D01*
X164988901Y-79867455D01*
X164988716Y-80079795D01*
X165237106Y-80680943D01*
X165696637Y-81141278D01*
X166297352Y-81390716D01*
X166947795Y-81391284D01*
X167548943Y-81142894D01*
X168009278Y-80683363D01*
X168258716Y-80082648D01*
X168259284Y-79432205D01*
X168010894Y-78831057D01*
X167551363Y-78370722D01*
X166950648Y-78121284D01*
X166735650Y-78121096D01*
X161220554Y-72606000D01*
X171399560Y-72606000D01*
X171399560Y-74206000D01*
X171443838Y-74441317D01*
X171582910Y-74657441D01*
X171795110Y-74802431D01*
X172047000Y-74853440D01*
X173647000Y-74853440D01*
X173882317Y-74809162D01*
X174098441Y-74670090D01*
X174243431Y-74457890D01*
X174294440Y-74206000D01*
X174294440Y-72606000D01*
X174250162Y-72370683D01*
X174111090Y-72154559D01*
X174104452Y-72150023D01*
X174293965Y-71622777D01*
X174266778Y-71052546D01*
X174100864Y-70651995D01*
X173854745Y-70577861D01*
X173026605Y-71406000D01*
X173040748Y-71420142D01*
X172861143Y-71599748D01*
X172847000Y-71585605D01*
X172832858Y-71599748D01*
X172653252Y-71420142D01*
X172667395Y-71406000D01*
X171839255Y-70577861D01*
X171593136Y-70651995D01*
X171400035Y-71189223D01*
X171427222Y-71759454D01*
X171589384Y-72150947D01*
X171450569Y-72354110D01*
X171399560Y-72606000D01*
X161220554Y-72606000D01*
X159012809Y-70398255D01*
X172018861Y-70398255D01*
X172847000Y-71226395D01*
X173675139Y-70398255D01*
X173601005Y-70152136D01*
X173063777Y-69959035D01*
X172493546Y-69986222D01*
X172092995Y-70152136D01*
X172018861Y-70398255D01*
X159012809Y-70398255D01*
X158988277Y-70373723D01*
X158587614Y-70106009D01*
X158115000Y-70012000D01*
X108194729Y-70012000D01*
X108087003Y-69904086D01*
X107504659Y-69662276D01*
X106874107Y-69661725D01*
X106291343Y-69902519D01*
X105845086Y-70347997D01*
X105603276Y-70930341D01*
X105602725Y-71560893D01*
X99898621Y-71560893D01*
X99986321Y-71120000D01*
X99860646Y-70488190D01*
X99502754Y-69952567D01*
X99349252Y-69850000D01*
X99502754Y-69747433D01*
X99860646Y-69211810D01*
X99986321Y-68580000D01*
X99860646Y-67948190D01*
X99502754Y-67412567D01*
X99328219Y-67295946D01*
X99555236Y-67117630D01*
X99871926Y-66554477D01*
X99887467Y-66490694D01*
X100219226Y-66490694D01*
X100467538Y-67091655D01*
X100926927Y-67551846D01*
X101527453Y-67801206D01*
X102177694Y-67801774D01*
X102778655Y-67553462D01*
X103238846Y-67094073D01*
X103488206Y-66493547D01*
X103488774Y-65843306D01*
X103240462Y-65242345D01*
X102781073Y-64782154D01*
X102180547Y-64532794D01*
X101530306Y-64532226D01*
X100929345Y-64780538D01*
X100469154Y-65239927D01*
X100219794Y-65840453D01*
X100219226Y-66490694D01*
X99887467Y-66490694D01*
X99903975Y-66422944D01*
X99784836Y-66167000D01*
X98171000Y-66167000D01*
X98171000Y-66187000D01*
X97917000Y-66187000D01*
X97917000Y-66167000D01*
X96303164Y-66167000D01*
X96184025Y-66422944D01*
X96216074Y-66554477D01*
X96532764Y-67117630D01*
X96759781Y-67295946D01*
X96585246Y-67412567D01*
X96227354Y-67948190D01*
X96101679Y-68580000D01*
X89789000Y-68580000D01*
X89789000Y-65657056D01*
X96184025Y-65657056D01*
X96303164Y-65913000D01*
X97917000Y-65913000D01*
X97917000Y-64389000D01*
X98171000Y-64389000D01*
X98171000Y-65913000D01*
X99784836Y-65913000D01*
X99903975Y-65657056D01*
X99871926Y-65525523D01*
X99555236Y-64962370D01*
X99047143Y-64563276D01*
X98425000Y-64389000D01*
X98171000Y-64389000D01*
X97917000Y-64389000D01*
X97663000Y-64389000D01*
X97040857Y-64563276D01*
X96532764Y-64962370D01*
X96216074Y-65525523D01*
X96184025Y-65657056D01*
X89789000Y-65657056D01*
X89789000Y-60013694D01*
X102505226Y-60013694D01*
X102753538Y-60614655D01*
X103212927Y-61074846D01*
X103813453Y-61324206D01*
X104463694Y-61324774D01*
X105064655Y-61076462D01*
X105524846Y-60617073D01*
X105774206Y-60016547D01*
X105774774Y-59366306D01*
X105526462Y-58765345D01*
X105067073Y-58305154D01*
X104466547Y-58055794D01*
X103816306Y-58055226D01*
X103215345Y-58303538D01*
X102755154Y-58762927D01*
X102505794Y-59363453D01*
X102505226Y-60013694D01*
X89789000Y-60013694D01*
X89789000Y-58704187D01*
X92036752Y-58704187D01*
X92254757Y-59231800D01*
X92658077Y-59635824D01*
X93185309Y-59854750D01*
X93756187Y-59855248D01*
X94283800Y-59637243D01*
X94687824Y-59233923D01*
X94906750Y-58706691D01*
X94907248Y-58135813D01*
X94689243Y-57608200D01*
X94285923Y-57204176D01*
X93758691Y-56985250D01*
X93187813Y-56984752D01*
X92660200Y-57202757D01*
X92256176Y-57606077D01*
X92037250Y-58133309D01*
X92036752Y-58704187D01*
X89789000Y-58704187D01*
X89789000Y-55223078D01*
X97254378Y-55223078D01*
X97283917Y-55733428D01*
X97422389Y-56067729D01*
X97652982Y-56123410D01*
X97551320Y-56225072D01*
X97450559Y-56289910D01*
X97305569Y-56502110D01*
X97254560Y-56754000D01*
X97254560Y-58054000D01*
X97298838Y-58289317D01*
X97437910Y-58505441D01*
X97650110Y-58650431D01*
X97902000Y-58701440D01*
X99202000Y-58701440D01*
X99437317Y-58657162D01*
X99653441Y-58518090D01*
X99798431Y-58305890D01*
X99849440Y-58054000D01*
X99849440Y-56754000D01*
X99805162Y-56518683D01*
X99666090Y-56302559D01*
X99552671Y-56225063D01*
X99451018Y-56123410D01*
X99681611Y-56067729D01*
X99849622Y-55584922D01*
X99820083Y-55074572D01*
X99681611Y-54740271D01*
X99451016Y-54684590D01*
X98731605Y-55404000D01*
X98745748Y-55418142D01*
X98566142Y-55597748D01*
X98552000Y-55583605D01*
X98537858Y-55597748D01*
X98358252Y-55418142D01*
X98372395Y-55404000D01*
X97652984Y-54684590D01*
X97422389Y-54740271D01*
X97254378Y-55223078D01*
X89789000Y-55223078D01*
X89789000Y-54427745D01*
X92643861Y-54427745D01*
X92717995Y-54673864D01*
X93255223Y-54866965D01*
X93825454Y-54839778D01*
X94226005Y-54673864D01*
X94276873Y-54504984D01*
X97832590Y-54504984D01*
X98552000Y-55224395D01*
X99271410Y-54504984D01*
X99215729Y-54274389D01*
X98732922Y-54106378D01*
X98222572Y-54135917D01*
X97888271Y-54274389D01*
X97832590Y-54504984D01*
X94276873Y-54504984D01*
X94300139Y-54427745D01*
X93472000Y-53599605D01*
X92643861Y-54427745D01*
X89789000Y-54427745D01*
X89789000Y-53203223D01*
X92025035Y-53203223D01*
X92052222Y-53773454D01*
X92218136Y-54174005D01*
X92464255Y-54248139D01*
X93292395Y-53420000D01*
X93651605Y-53420000D01*
X94479745Y-54248139D01*
X94725864Y-54174005D01*
X94918965Y-53636777D01*
X94891778Y-53066546D01*
X94725864Y-52665995D01*
X94479745Y-52591861D01*
X93651605Y-53420000D01*
X93292395Y-53420000D01*
X92464255Y-52591861D01*
X92218136Y-52665995D01*
X92025035Y-53203223D01*
X89789000Y-53203223D01*
X89789000Y-52412255D01*
X92643861Y-52412255D01*
X93472000Y-53240395D01*
X94300139Y-52412255D01*
X94226005Y-52166136D01*
X93688777Y-51973035D01*
X93118546Y-52000222D01*
X92717995Y-52166136D01*
X92643861Y-52412255D01*
X89789000Y-52412255D01*
X89789000Y-49853694D01*
X102505226Y-49853694D01*
X102753538Y-50454655D01*
X103212927Y-50914846D01*
X103813453Y-51164206D01*
X104463694Y-51164774D01*
X105064655Y-50916462D01*
X105524846Y-50457073D01*
X105774206Y-49856547D01*
X105774774Y-49206306D01*
X105526462Y-48605345D01*
X105067073Y-48145154D01*
X104466547Y-47895794D01*
X103816306Y-47895226D01*
X103215345Y-48143538D01*
X102755154Y-48602927D01*
X102505794Y-49203453D01*
X102505226Y-49853694D01*
X89789000Y-49853694D01*
X89789000Y-44310000D01*
X107188000Y-44310000D01*
X107188000Y-52070000D01*
M02*
