G04 #@! TF.FileFunction,Other,Fab,Top*
%FSLAX46Y46*%
G04 Gerber Fmt 4.6, Leading zero omitted, Abs format (unit mm)*
G04 Created by KiCad (PCBNEW 4.0.7-e2-6376~58~ubuntu16.04.1) date Mon Dec 11 18:42:29 2017*
%MOMM*%
%LPD*%
G01*
G04 APERTURE LIST*
%ADD10C,0.100000*%
%ADD11C,0.050000*%
%ADD12C,0.150000*%
G04 APERTURE END LIST*
D10*
D11*
X125800000Y-46300000D02*
X125800000Y-68300000D01*
X125800000Y-68300000D02*
X109800000Y-68300000D01*
X109792000Y-68300000D02*
X109792000Y-46300000D01*
X109800000Y-46300000D02*
X125800000Y-46300000D01*
D10*
X92222000Y-58420000D02*
X94722000Y-58420000D01*
X94722000Y-58420000D02*
X94722000Y-53420000D01*
X94722000Y-53420000D02*
X92222000Y-53420000D01*
X92222000Y-53420000D02*
X92222000Y-58420000D01*
X175347000Y-72406000D02*
G75*
G03X175347000Y-72406000I-2500000J0D01*
G01*
X172847000Y-75606000D02*
X172847000Y-74406000D01*
X172197000Y-75006000D02*
X173497000Y-75006000D01*
X174768000Y-107046000D02*
X174768000Y-105806000D01*
X176768000Y-107046000D02*
X174768000Y-107046000D01*
X176768000Y-105806000D02*
X176768000Y-107046000D01*
X174768000Y-105806000D02*
X176768000Y-105806000D01*
X107458000Y-107300000D02*
X107458000Y-106060000D01*
X109458000Y-107300000D02*
X107458000Y-107300000D01*
X109458000Y-106060000D02*
X109458000Y-107300000D01*
X107458000Y-106060000D02*
X109458000Y-106060000D01*
X166481000Y-65674000D02*
X166481000Y-66914000D01*
X164481000Y-65674000D02*
X166481000Y-65674000D01*
X164481000Y-66914000D02*
X164481000Y-65674000D01*
X166481000Y-66914000D02*
X164481000Y-66914000D01*
X117618000Y-107300000D02*
X117618000Y-106060000D01*
X119618000Y-107300000D02*
X117618000Y-107300000D01*
X119618000Y-106060000D02*
X119618000Y-107300000D01*
X117618000Y-106060000D02*
X119618000Y-106060000D01*
X156321000Y-65674000D02*
X156321000Y-66914000D01*
X154321000Y-65674000D02*
X156321000Y-65674000D01*
X154321000Y-66914000D02*
X154321000Y-65674000D01*
X156321000Y-66914000D02*
X154321000Y-66914000D01*
X154448000Y-107300000D02*
X154448000Y-106060000D01*
X156448000Y-107300000D02*
X154448000Y-107300000D01*
X156448000Y-106060000D02*
X156448000Y-107300000D01*
X154448000Y-106060000D02*
X156448000Y-106060000D01*
X164481000Y-107046000D02*
X164481000Y-105806000D01*
X166481000Y-107046000D02*
X164481000Y-107046000D01*
X166481000Y-105806000D02*
X166481000Y-107046000D01*
X164481000Y-105806000D02*
X166481000Y-105806000D01*
X97679000Y-107300000D02*
X97679000Y-106060000D01*
X99679000Y-107300000D02*
X97679000Y-107300000D01*
X99679000Y-106060000D02*
X99679000Y-107300000D01*
X97679000Y-106060000D02*
X99679000Y-106060000D01*
D12*
X172363238Y-87066381D02*
X172363238Y-86399714D01*
X172363238Y-86494952D02*
X172410857Y-86447333D01*
X172506095Y-86399714D01*
X172648953Y-86399714D01*
X172744191Y-86447333D01*
X172791810Y-86542571D01*
X172791810Y-87066381D01*
X172791810Y-86542571D02*
X172839429Y-86447333D01*
X172934667Y-86399714D01*
X173077524Y-86399714D01*
X173172762Y-86447333D01*
X173220381Y-86542571D01*
X173220381Y-87066381D01*
X173696571Y-86399714D02*
X173696571Y-87399714D01*
X173696571Y-86447333D02*
X173791809Y-86399714D01*
X173982286Y-86399714D01*
X174077524Y-86447333D01*
X174125143Y-86494952D01*
X174172762Y-86590190D01*
X174172762Y-86875905D01*
X174125143Y-86971143D01*
X174077524Y-87018762D01*
X173982286Y-87066381D01*
X173791809Y-87066381D01*
X173696571Y-87018762D01*
X174601333Y-86685429D02*
X175363238Y-86685429D01*
X176363238Y-87066381D02*
X175791809Y-87066381D01*
X176077523Y-87066381D02*
X176077523Y-86066381D01*
X175982285Y-86209238D01*
X175887047Y-86304476D01*
X175791809Y-86352095D01*
X177268000Y-86066381D02*
X176791809Y-86066381D01*
X176744190Y-86542571D01*
X176791809Y-86494952D01*
X176887047Y-86447333D01*
X177125143Y-86447333D01*
X177220381Y-86494952D01*
X177268000Y-86542571D01*
X177315619Y-86637810D01*
X177315619Y-86875905D01*
X177268000Y-86971143D01*
X177220381Y-87018762D01*
X177125143Y-87066381D01*
X176887047Y-87066381D01*
X176791809Y-87018762D01*
X176744190Y-86971143D01*
X177887047Y-86494952D02*
X177791809Y-86447333D01*
X177744190Y-86399714D01*
X177696571Y-86304476D01*
X177696571Y-86256857D01*
X177744190Y-86161619D01*
X177791809Y-86114000D01*
X177887047Y-86066381D01*
X178077524Y-86066381D01*
X178172762Y-86114000D01*
X178220381Y-86161619D01*
X178268000Y-86256857D01*
X178268000Y-86304476D01*
X178220381Y-86399714D01*
X178172762Y-86447333D01*
X178077524Y-86494952D01*
X177887047Y-86494952D01*
X177791809Y-86542571D01*
X177744190Y-86590190D01*
X177696571Y-86685429D01*
X177696571Y-86875905D01*
X177744190Y-86971143D01*
X177791809Y-87018762D01*
X177887047Y-87066381D01*
X178077524Y-87066381D01*
X178172762Y-87018762D01*
X178220381Y-86971143D01*
X178268000Y-86875905D01*
X178268000Y-86685429D01*
X178220381Y-86590190D01*
X178172762Y-86542571D01*
X178077524Y-86494952D01*
X179125143Y-86399714D02*
X179125143Y-87066381D01*
X178887047Y-86018762D02*
X178648952Y-86733048D01*
X179268000Y-86733048D01*
X181612810Y-44415381D02*
X181946143Y-45415381D01*
X182279477Y-44415381D01*
X182374715Y-45510619D02*
X183136620Y-45510619D01*
X183374715Y-45415381D02*
X183374715Y-44415381D01*
X183850905Y-45415381D02*
X183850905Y-44415381D01*
X184422334Y-45415381D01*
X184422334Y-44415381D01*
X130977190Y-97829667D02*
X131453381Y-97829667D01*
X130881952Y-98115381D02*
X131215285Y-97115381D01*
X131548619Y-98115381D01*
X132453381Y-98115381D02*
X132120047Y-97639190D01*
X131881952Y-98115381D02*
X131881952Y-97115381D01*
X132262905Y-97115381D01*
X132358143Y-97163000D01*
X132405762Y-97210619D01*
X132453381Y-97305857D01*
X132453381Y-97448714D01*
X132405762Y-97543952D01*
X132358143Y-97591571D01*
X132262905Y-97639190D01*
X131881952Y-97639190D01*
X132881952Y-98115381D02*
X132881952Y-97115381D01*
X133120047Y-97115381D01*
X133262905Y-97163000D01*
X133358143Y-97258238D01*
X133405762Y-97353476D01*
X133453381Y-97543952D01*
X133453381Y-97686810D01*
X133405762Y-97877286D01*
X133358143Y-97972524D01*
X133262905Y-98067762D01*
X133120047Y-98115381D01*
X132881952Y-98115381D01*
X133643857Y-98210619D02*
X134405762Y-98210619D01*
X134596238Y-97829667D02*
X135072429Y-97829667D01*
X134501000Y-98115381D02*
X134834333Y-97115381D01*
X135167667Y-98115381D01*
X135977191Y-98115381D02*
X135501000Y-98115381D01*
X135501000Y-97115381D01*
X136310524Y-98115381D02*
X136310524Y-97115381D01*
X136548619Y-98210619D02*
X137310524Y-98210619D01*
X137739095Y-97115381D02*
X137834334Y-97115381D01*
X137929572Y-97163000D01*
X137977191Y-97210619D01*
X138024810Y-97305857D01*
X138072429Y-97496333D01*
X138072429Y-97734429D01*
X138024810Y-97924905D01*
X137977191Y-98020143D01*
X137929572Y-98067762D01*
X137834334Y-98115381D01*
X137739095Y-98115381D01*
X137643857Y-98067762D01*
X137596238Y-98020143D01*
X137548619Y-97924905D01*
X137501000Y-97734429D01*
X137501000Y-97496333D01*
X137548619Y-97305857D01*
X137596238Y-97210619D01*
X137643857Y-97163000D01*
X137739095Y-97115381D01*
X138929572Y-97448714D02*
X138929572Y-98115381D01*
X138691476Y-97067762D02*
X138453381Y-97782048D01*
X139072429Y-97782048D01*
X94226334Y-62682381D02*
X93750143Y-62682381D01*
X93750143Y-61682381D01*
X94559667Y-62682381D02*
X94559667Y-61682381D01*
X94893001Y-62396667D01*
X95226334Y-61682381D01*
X95226334Y-62682381D01*
X96226334Y-62682381D02*
X95654905Y-62682381D01*
X95940619Y-62682381D02*
X95940619Y-61682381D01*
X95845381Y-61825238D01*
X95750143Y-61920476D01*
X95654905Y-61968095D01*
X97178715Y-62682381D02*
X96607286Y-62682381D01*
X96893000Y-62682381D02*
X96893000Y-61682381D01*
X96797762Y-61825238D01*
X96702524Y-61920476D01*
X96607286Y-61968095D01*
X98131096Y-62682381D02*
X97559667Y-62682381D01*
X97845381Y-62682381D02*
X97845381Y-61682381D01*
X97750143Y-61825238D01*
X97654905Y-61920476D01*
X97559667Y-61968095D01*
X98464429Y-61682381D02*
X99131096Y-61682381D01*
X98702524Y-62682381D01*
X115288095Y-54878571D02*
X115621429Y-54878571D01*
X115764286Y-55402381D02*
X115288095Y-55402381D01*
X115288095Y-54402381D01*
X115764286Y-54402381D01*
X116145238Y-55354762D02*
X116288095Y-55402381D01*
X116526191Y-55402381D01*
X116621429Y-55354762D01*
X116669048Y-55307143D01*
X116716667Y-55211905D01*
X116716667Y-55116667D01*
X116669048Y-55021429D01*
X116621429Y-54973810D01*
X116526191Y-54926190D01*
X116335714Y-54878571D01*
X116240476Y-54830952D01*
X116192857Y-54783333D01*
X116145238Y-54688095D01*
X116145238Y-54592857D01*
X116192857Y-54497619D01*
X116240476Y-54450000D01*
X116335714Y-54402381D01*
X116573810Y-54402381D01*
X116716667Y-54450000D01*
X117145238Y-55402381D02*
X117145238Y-54402381D01*
X117526191Y-54402381D01*
X117621429Y-54450000D01*
X117669048Y-54497619D01*
X117716667Y-54592857D01*
X117716667Y-54735714D01*
X117669048Y-54830952D01*
X117621429Y-54878571D01*
X117526191Y-54926190D01*
X117145238Y-54926190D01*
X118145238Y-55021429D02*
X118907143Y-55021429D01*
X119907143Y-55402381D02*
X119335714Y-55402381D01*
X119621428Y-55402381D02*
X119621428Y-54402381D01*
X119526190Y-54545238D01*
X119430952Y-54640476D01*
X119335714Y-54688095D01*
X120288095Y-54497619D02*
X120335714Y-54450000D01*
X120430952Y-54402381D01*
X120669048Y-54402381D01*
X120764286Y-54450000D01*
X120811905Y-54497619D01*
X120859524Y-54592857D01*
X120859524Y-54688095D01*
X120811905Y-54830952D01*
X120240476Y-55402381D01*
X120859524Y-55402381D01*
X178363952Y-68264619D02*
X178411571Y-68217000D01*
X178506809Y-68169381D01*
X178744905Y-68169381D01*
X178840143Y-68217000D01*
X178887762Y-68264619D01*
X178935381Y-68359857D01*
X178935381Y-68455095D01*
X178887762Y-68597952D01*
X178316333Y-69169381D01*
X178935381Y-69169381D01*
X179316333Y-68264619D02*
X179363952Y-68217000D01*
X179459190Y-68169381D01*
X179697286Y-68169381D01*
X179792524Y-68217000D01*
X179840143Y-68264619D01*
X179887762Y-68359857D01*
X179887762Y-68455095D01*
X179840143Y-68597952D01*
X179268714Y-69169381D01*
X179887762Y-69169381D01*
X180506809Y-68169381D02*
X180602048Y-68169381D01*
X180697286Y-68217000D01*
X180744905Y-68264619D01*
X180792524Y-68359857D01*
X180840143Y-68550333D01*
X180840143Y-68788429D01*
X180792524Y-68978905D01*
X180744905Y-69074143D01*
X180697286Y-69121762D01*
X180602048Y-69169381D01*
X180506809Y-69169381D01*
X180411571Y-69121762D01*
X180363952Y-69074143D01*
X180316333Y-68978905D01*
X180268714Y-68788429D01*
X180268714Y-68550333D01*
X180316333Y-68359857D01*
X180363952Y-68264619D01*
X180411571Y-68217000D01*
X180506809Y-68169381D01*
X181697286Y-68502714D02*
X181697286Y-69169381D01*
X181268714Y-68502714D02*
X181268714Y-69026524D01*
X181316333Y-69121762D01*
X181411571Y-69169381D01*
X181554429Y-69169381D01*
X181649667Y-69121762D01*
X181697286Y-69074143D01*
X182506810Y-68645571D02*
X182173476Y-68645571D01*
X182173476Y-69169381D02*
X182173476Y-68169381D01*
X182649667Y-68169381D01*
X100512619Y-52696857D02*
X100465000Y-52649238D01*
X100417381Y-52554000D01*
X100417381Y-52315904D01*
X100465000Y-52220666D01*
X100512619Y-52173047D01*
X100607857Y-52125428D01*
X100703095Y-52125428D01*
X100845952Y-52173047D01*
X101417381Y-52744476D01*
X101417381Y-52125428D01*
X100512619Y-51744476D02*
X100465000Y-51696857D01*
X100417381Y-51601619D01*
X100417381Y-51363523D01*
X100465000Y-51268285D01*
X100512619Y-51220666D01*
X100607857Y-51173047D01*
X100703095Y-51173047D01*
X100845952Y-51220666D01*
X101417381Y-51792095D01*
X101417381Y-51173047D01*
X100750714Y-50315904D02*
X101417381Y-50315904D01*
X100750714Y-50744476D02*
X101274524Y-50744476D01*
X101369762Y-50696857D01*
X101417381Y-50601619D01*
X101417381Y-50458761D01*
X101369762Y-50363523D01*
X101322143Y-50315904D01*
X100893571Y-49506380D02*
X100893571Y-49839714D01*
X101417381Y-49839714D02*
X100417381Y-49839714D01*
X100417381Y-49363523D01*
X189174381Y-62975857D02*
X189174381Y-63547286D01*
X189174381Y-63261572D02*
X188174381Y-63261572D01*
X188317238Y-63356810D01*
X188412476Y-63452048D01*
X188460095Y-63547286D01*
X189174381Y-62547286D02*
X188174381Y-62547286D01*
X189174381Y-61975857D01*
X188174381Y-61975857D01*
X188507714Y-61071095D02*
X189174381Y-61071095D01*
X188126762Y-61309191D02*
X188841048Y-61547286D01*
X188841048Y-60928238D01*
X188174381Y-60356810D02*
X188174381Y-60261571D01*
X188222000Y-60166333D01*
X188269619Y-60118714D01*
X188364857Y-60071095D01*
X188555333Y-60023476D01*
X188793429Y-60023476D01*
X188983905Y-60071095D01*
X189079143Y-60118714D01*
X189126762Y-60166333D01*
X189174381Y-60261571D01*
X189174381Y-60356810D01*
X189126762Y-60452048D01*
X189079143Y-60499667D01*
X188983905Y-60547286D01*
X188793429Y-60594905D01*
X188555333Y-60594905D01*
X188364857Y-60547286D01*
X188269619Y-60499667D01*
X188222000Y-60452048D01*
X188174381Y-60356810D01*
X188174381Y-59404429D02*
X188174381Y-59309190D01*
X188222000Y-59213952D01*
X188269619Y-59166333D01*
X188364857Y-59118714D01*
X188555333Y-59071095D01*
X188793429Y-59071095D01*
X188983905Y-59118714D01*
X189079143Y-59166333D01*
X189126762Y-59213952D01*
X189174381Y-59309190D01*
X189174381Y-59404429D01*
X189126762Y-59499667D01*
X189079143Y-59547286D01*
X188983905Y-59594905D01*
X188793429Y-59642524D01*
X188555333Y-59642524D01*
X188364857Y-59594905D01*
X188269619Y-59547286D01*
X188222000Y-59499667D01*
X188174381Y-59404429D01*
X188174381Y-58737762D02*
X188174381Y-58071095D01*
X189174381Y-58499667D01*
X93238286Y-128566381D02*
X93238286Y-127566381D01*
X93619239Y-127566381D01*
X93714477Y-127614000D01*
X93762096Y-127661619D01*
X93809715Y-127756857D01*
X93809715Y-127899714D01*
X93762096Y-127994952D01*
X93714477Y-128042571D01*
X93619239Y-128090190D01*
X93238286Y-128090190D01*
X94238286Y-128566381D02*
X94238286Y-127566381D01*
X94714476Y-128566381D02*
X94714476Y-127566381D01*
X95285905Y-128566381D01*
X95285905Y-127566381D01*
X95666857Y-127566381D02*
X96333524Y-127566381D01*
X95666857Y-128566381D01*
X96333524Y-128566381D01*
X96666857Y-128280667D02*
X97143048Y-128280667D01*
X96571619Y-128566381D02*
X96904952Y-127566381D01*
X97238286Y-128566381D01*
X97333524Y-128661619D02*
X98095429Y-128661619D01*
X98857334Y-128566381D02*
X98285905Y-128566381D01*
X98571619Y-128566381D02*
X98571619Y-127566381D01*
X98476381Y-127709238D01*
X98381143Y-127804476D01*
X98285905Y-127852095D01*
X95544191Y-92400381D02*
X95544191Y-91400381D01*
X96020381Y-92400381D02*
X96020381Y-91400381D01*
X96591810Y-92400381D01*
X96591810Y-91400381D01*
X96925143Y-91400381D02*
X97496572Y-91400381D01*
X97210857Y-92400381D02*
X97210857Y-91400381D01*
X97829905Y-91876571D02*
X98163239Y-91876571D01*
X98306096Y-92400381D02*
X97829905Y-92400381D01*
X97829905Y-91400381D01*
X98306096Y-91400381D01*
X98734667Y-92400381D02*
X98734667Y-91400381D01*
X99306096Y-92400381D01*
X99306096Y-91400381D01*
X99734667Y-92352762D02*
X99877524Y-92400381D01*
X100115620Y-92400381D01*
X100210858Y-92352762D01*
X100258477Y-92305143D01*
X100306096Y-92209905D01*
X100306096Y-92114667D01*
X100258477Y-92019429D01*
X100210858Y-91971810D01*
X100115620Y-91924190D01*
X99925143Y-91876571D01*
X99829905Y-91828952D01*
X99782286Y-91781333D01*
X99734667Y-91686095D01*
X99734667Y-91590857D01*
X99782286Y-91495619D01*
X99829905Y-91448000D01*
X99925143Y-91400381D01*
X100163239Y-91400381D01*
X100306096Y-91448000D01*
X100734667Y-92400381D02*
X100734667Y-91400381D01*
X101210857Y-92400381D02*
X101210857Y-91400381D01*
X101448952Y-91400381D01*
X101591810Y-91448000D01*
X101687048Y-91543238D01*
X101734667Y-91638476D01*
X101782286Y-91828952D01*
X101782286Y-91971810D01*
X101734667Y-92162286D01*
X101687048Y-92257524D01*
X101591810Y-92352762D01*
X101448952Y-92400381D01*
X101210857Y-92400381D01*
X102163238Y-92114667D02*
X102639429Y-92114667D01*
X102068000Y-92400381D02*
X102401333Y-91400381D01*
X102734667Y-92400381D01*
X103068000Y-92400381D02*
X103068000Y-91400381D01*
X103306095Y-91400381D01*
X103448953Y-91448000D01*
X103544191Y-91543238D01*
X103591810Y-91638476D01*
X103639429Y-91828952D01*
X103639429Y-91971810D01*
X103591810Y-92162286D01*
X103544191Y-92257524D01*
X103448953Y-92352762D01*
X103306095Y-92400381D01*
X103068000Y-92400381D01*
X142748286Y-74949381D02*
X142272095Y-74949381D01*
X142272095Y-73949381D01*
X143653048Y-74854143D02*
X143605429Y-74901762D01*
X143462572Y-74949381D01*
X143367334Y-74949381D01*
X143224476Y-74901762D01*
X143129238Y-74806524D01*
X143081619Y-74711286D01*
X143034000Y-74520810D01*
X143034000Y-74377952D01*
X143081619Y-74187476D01*
X143129238Y-74092238D01*
X143224476Y-73997000D01*
X143367334Y-73949381D01*
X143462572Y-73949381D01*
X143605429Y-73997000D01*
X143653048Y-74044619D01*
X144081619Y-74949381D02*
X144081619Y-73949381D01*
X144319714Y-73949381D01*
X144462572Y-73997000D01*
X144557810Y-74092238D01*
X144605429Y-74187476D01*
X144653048Y-74377952D01*
X144653048Y-74520810D01*
X144605429Y-74711286D01*
X144557810Y-74806524D01*
X144462572Y-74901762D01*
X144319714Y-74949381D01*
X144081619Y-74949381D01*
X144843524Y-75044619D02*
X145605429Y-75044619D01*
X145843524Y-74949381D02*
X145843524Y-73949381D01*
X146272095Y-74044619D02*
X146319714Y-73997000D01*
X146414952Y-73949381D01*
X146653048Y-73949381D01*
X146748286Y-73997000D01*
X146795905Y-74044619D01*
X146843524Y-74139857D01*
X146843524Y-74235095D01*
X146795905Y-74377952D01*
X146224476Y-74949381D01*
X146843524Y-74949381D01*
X147843524Y-74854143D02*
X147795905Y-74901762D01*
X147653048Y-74949381D01*
X147557810Y-74949381D01*
X147414952Y-74901762D01*
X147319714Y-74806524D01*
X147272095Y-74711286D01*
X147224476Y-74520810D01*
X147224476Y-74377952D01*
X147272095Y-74187476D01*
X147319714Y-74092238D01*
X147414952Y-73997000D01*
X147557810Y-73949381D01*
X147653048Y-73949381D01*
X147795905Y-73997000D01*
X147843524Y-74044619D01*
X121785524Y-78906667D02*
X122261715Y-78906667D01*
X121690286Y-79192381D02*
X122023619Y-78192381D01*
X122356953Y-79192381D01*
X123261715Y-79192381D02*
X122928381Y-78716190D01*
X122690286Y-79192381D02*
X122690286Y-78192381D01*
X123071239Y-78192381D01*
X123166477Y-78240000D01*
X123214096Y-78287619D01*
X123261715Y-78382857D01*
X123261715Y-78525714D01*
X123214096Y-78620952D01*
X123166477Y-78668571D01*
X123071239Y-78716190D01*
X122690286Y-78716190D01*
X123690286Y-79192381D02*
X123690286Y-78192381D01*
X123928381Y-78192381D01*
X124071239Y-78240000D01*
X124166477Y-78335238D01*
X124214096Y-78430476D01*
X124261715Y-78620952D01*
X124261715Y-78763810D01*
X124214096Y-78954286D01*
X124166477Y-79049524D01*
X124071239Y-79144762D01*
X123928381Y-79192381D01*
X123690286Y-79192381D01*
X124452191Y-79287619D02*
X125214096Y-79287619D01*
X125452191Y-79192381D02*
X125452191Y-78192381D01*
X125690286Y-78192381D01*
X125833144Y-78240000D01*
X125928382Y-78335238D01*
X125976001Y-78430476D01*
X126023620Y-78620952D01*
X126023620Y-78763810D01*
X125976001Y-78954286D01*
X125928382Y-79049524D01*
X125833144Y-79144762D01*
X125690286Y-79192381D01*
X125452191Y-79192381D01*
X126452191Y-79192381D02*
X126452191Y-78192381D01*
X126690286Y-79287619D02*
X127452191Y-79287619D01*
X127880762Y-78192381D02*
X127976001Y-78192381D01*
X128071239Y-78240000D01*
X128118858Y-78287619D01*
X128166477Y-78382857D01*
X128214096Y-78573333D01*
X128214096Y-78811429D01*
X128166477Y-79001905D01*
X128118858Y-79097143D01*
X128071239Y-79144762D01*
X127976001Y-79192381D01*
X127880762Y-79192381D01*
X127785524Y-79144762D01*
X127737905Y-79097143D01*
X127690286Y-79001905D01*
X127642667Y-78811429D01*
X127642667Y-78573333D01*
X127690286Y-78382857D01*
X127737905Y-78287619D01*
X127785524Y-78240000D01*
X127880762Y-78192381D01*
X129071239Y-78192381D02*
X128880762Y-78192381D01*
X128785524Y-78240000D01*
X128737905Y-78287619D01*
X128642667Y-78430476D01*
X128595048Y-78620952D01*
X128595048Y-79001905D01*
X128642667Y-79097143D01*
X128690286Y-79144762D01*
X128785524Y-79192381D01*
X128976001Y-79192381D01*
X129071239Y-79144762D01*
X129118858Y-79097143D01*
X129166477Y-79001905D01*
X129166477Y-78763810D01*
X129118858Y-78668571D01*
X129071239Y-78620952D01*
X128976001Y-78573333D01*
X128785524Y-78573333D01*
X128690286Y-78620952D01*
X128642667Y-78668571D01*
X128595048Y-78763810D01*
X132024381Y-60126476D02*
X132024381Y-60697905D01*
X132024381Y-60412191D02*
X131024381Y-60412191D01*
X131167238Y-60507429D01*
X131262476Y-60602667D01*
X131310095Y-60697905D01*
X131024381Y-59507429D02*
X131024381Y-59412190D01*
X131072000Y-59316952D01*
X131119619Y-59269333D01*
X131214857Y-59221714D01*
X131405333Y-59174095D01*
X131643429Y-59174095D01*
X131833905Y-59221714D01*
X131929143Y-59269333D01*
X131976762Y-59316952D01*
X132024381Y-59412190D01*
X132024381Y-59507429D01*
X131976762Y-59602667D01*
X131929143Y-59650286D01*
X131833905Y-59697905D01*
X131643429Y-59745524D01*
X131405333Y-59745524D01*
X131214857Y-59697905D01*
X131119619Y-59650286D01*
X131072000Y-59602667D01*
X131024381Y-59507429D01*
X132024381Y-58745524D02*
X131024381Y-58745524D01*
X132024381Y-58174095D02*
X131452952Y-58602667D01*
X131024381Y-58174095D02*
X131595810Y-58745524D01*
X104452381Y-55690476D02*
X104452381Y-56261905D01*
X104452381Y-55976191D02*
X103452381Y-55976191D01*
X103595238Y-56071429D01*
X103690476Y-56166667D01*
X103738095Y-56261905D01*
X103452381Y-55071429D02*
X103452381Y-54976190D01*
X103500000Y-54880952D01*
X103547619Y-54833333D01*
X103642857Y-54785714D01*
X103833333Y-54738095D01*
X104071429Y-54738095D01*
X104261905Y-54785714D01*
X104357143Y-54833333D01*
X104404762Y-54880952D01*
X104452381Y-54976190D01*
X104452381Y-55071429D01*
X104404762Y-55166667D01*
X104357143Y-55214286D01*
X104261905Y-55261905D01*
X104071429Y-55309524D01*
X103833333Y-55309524D01*
X103642857Y-55261905D01*
X103547619Y-55214286D01*
X103500000Y-55166667D01*
X103452381Y-55071429D01*
X104452381Y-54309524D02*
X103452381Y-54309524D01*
X104452381Y-53738095D02*
X103880952Y-54166667D01*
X103452381Y-53738095D02*
X104023810Y-54309524D01*
X178324095Y-63825429D02*
X179086000Y-63825429D01*
X178705048Y-64206381D02*
X178705048Y-63444476D01*
X180086000Y-64206381D02*
X179514571Y-64206381D01*
X179800285Y-64206381D02*
X179800285Y-63206381D01*
X179705047Y-63349238D01*
X179609809Y-63444476D01*
X179514571Y-63492095D01*
X180466952Y-63301619D02*
X180514571Y-63254000D01*
X180609809Y-63206381D01*
X180847905Y-63206381D01*
X180943143Y-63254000D01*
X180990762Y-63301619D01*
X181038381Y-63396857D01*
X181038381Y-63492095D01*
X180990762Y-63634952D01*
X180419333Y-64206381D01*
X181038381Y-64206381D01*
X181324095Y-63206381D02*
X181657428Y-64206381D01*
X181990762Y-63206381D01*
X101251000Y-74366429D02*
X102012905Y-74366429D01*
X101631953Y-74747381D02*
X101631953Y-73985476D01*
X102393857Y-73747381D02*
X103012905Y-73747381D01*
X102679571Y-74128333D01*
X102822429Y-74128333D01*
X102917667Y-74175952D01*
X102965286Y-74223571D01*
X103012905Y-74318810D01*
X103012905Y-74556905D01*
X102965286Y-74652143D01*
X102917667Y-74699762D01*
X102822429Y-74747381D01*
X102536714Y-74747381D01*
X102441476Y-74699762D01*
X102393857Y-74652143D01*
X103489095Y-74699762D02*
X103489095Y-74747381D01*
X103441476Y-74842619D01*
X103393857Y-74890238D01*
X103822428Y-73747381D02*
X104441476Y-73747381D01*
X104108142Y-74128333D01*
X104251000Y-74128333D01*
X104346238Y-74175952D01*
X104393857Y-74223571D01*
X104441476Y-74318810D01*
X104441476Y-74556905D01*
X104393857Y-74652143D01*
X104346238Y-74699762D01*
X104251000Y-74747381D01*
X103965285Y-74747381D01*
X103870047Y-74699762D01*
X103822428Y-74652143D01*
X104727190Y-73747381D02*
X105060523Y-74747381D01*
X105393857Y-73747381D01*
X94432381Y-49934619D02*
X94432381Y-50506048D01*
X94432381Y-50220334D02*
X93432381Y-50220334D01*
X93575238Y-50315572D01*
X93670476Y-50410810D01*
X93718095Y-50506048D01*
X93432381Y-49315572D02*
X93432381Y-49220333D01*
X93480000Y-49125095D01*
X93527619Y-49077476D01*
X93622857Y-49029857D01*
X93813333Y-48982238D01*
X94051429Y-48982238D01*
X94241905Y-49029857D01*
X94337143Y-49077476D01*
X94384762Y-49125095D01*
X94432381Y-49220333D01*
X94432381Y-49315572D01*
X94384762Y-49410810D01*
X94337143Y-49458429D01*
X94241905Y-49506048D01*
X94051429Y-49553667D01*
X93813333Y-49553667D01*
X93622857Y-49506048D01*
X93527619Y-49458429D01*
X93480000Y-49410810D01*
X93432381Y-49315572D01*
X93432381Y-48363191D02*
X93432381Y-48267952D01*
X93480000Y-48172714D01*
X93527619Y-48125095D01*
X93622857Y-48077476D01*
X93813333Y-48029857D01*
X94051429Y-48029857D01*
X94241905Y-48077476D01*
X94337143Y-48125095D01*
X94384762Y-48172714D01*
X94432381Y-48267952D01*
X94432381Y-48363191D01*
X94384762Y-48458429D01*
X94337143Y-48506048D01*
X94241905Y-48553667D01*
X94051429Y-48601286D01*
X93813333Y-48601286D01*
X93622857Y-48553667D01*
X93527619Y-48506048D01*
X93480000Y-48458429D01*
X93432381Y-48363191D01*
X93765714Y-47601286D02*
X94432381Y-47601286D01*
X93860952Y-47601286D02*
X93813333Y-47553667D01*
X93765714Y-47458429D01*
X93765714Y-47315571D01*
X93813333Y-47220333D01*
X93908571Y-47172714D01*
X94432381Y-47172714D01*
X93908571Y-46363190D02*
X93908571Y-46696524D01*
X94432381Y-46696524D02*
X93432381Y-46696524D01*
X93432381Y-46220333D01*
X93829143Y-56086666D02*
X93876762Y-56134285D01*
X93924381Y-56277142D01*
X93924381Y-56372380D01*
X93876762Y-56515238D01*
X93781524Y-56610476D01*
X93686286Y-56658095D01*
X93495810Y-56705714D01*
X93352952Y-56705714D01*
X93162476Y-56658095D01*
X93067238Y-56610476D01*
X92972000Y-56515238D01*
X92924381Y-56372380D01*
X92924381Y-56277142D01*
X92972000Y-56134285D01*
X93019619Y-56086666D01*
X92924381Y-55753333D02*
X92924381Y-55134285D01*
X93305333Y-55467619D01*
X93305333Y-55324761D01*
X93352952Y-55229523D01*
X93400571Y-55181904D01*
X93495810Y-55134285D01*
X93733905Y-55134285D01*
X93829143Y-55181904D01*
X93876762Y-55229523D01*
X93924381Y-55324761D01*
X93924381Y-55610476D01*
X93876762Y-55705714D01*
X93829143Y-55753333D01*
X160258286Y-97099429D02*
X161020191Y-97099429D01*
X160639239Y-97480381D02*
X160639239Y-96718476D01*
X161639238Y-96908952D02*
X161544000Y-96861333D01*
X161496381Y-96813714D01*
X161448762Y-96718476D01*
X161448762Y-96670857D01*
X161496381Y-96575619D01*
X161544000Y-96528000D01*
X161639238Y-96480381D01*
X161829715Y-96480381D01*
X161924953Y-96528000D01*
X161972572Y-96575619D01*
X162020191Y-96670857D01*
X162020191Y-96718476D01*
X161972572Y-96813714D01*
X161924953Y-96861333D01*
X161829715Y-96908952D01*
X161639238Y-96908952D01*
X161544000Y-96956571D01*
X161496381Y-97004190D01*
X161448762Y-97099429D01*
X161448762Y-97289905D01*
X161496381Y-97385143D01*
X161544000Y-97432762D01*
X161639238Y-97480381D01*
X161829715Y-97480381D01*
X161924953Y-97432762D01*
X161972572Y-97385143D01*
X162020191Y-97289905D01*
X162020191Y-97099429D01*
X161972572Y-97004190D01*
X161924953Y-96956571D01*
X161829715Y-96908952D01*
X162305905Y-96480381D02*
X162639238Y-97480381D01*
X162972572Y-96480381D01*
X168711619Y-75271048D02*
X168664000Y-75223429D01*
X168616381Y-75128191D01*
X168616381Y-74890095D01*
X168664000Y-74794857D01*
X168711619Y-74747238D01*
X168806857Y-74699619D01*
X168902095Y-74699619D01*
X169044952Y-74747238D01*
X169616381Y-75318667D01*
X169616381Y-74699619D01*
X168711619Y-74318667D02*
X168664000Y-74271048D01*
X168616381Y-74175810D01*
X168616381Y-73937714D01*
X168664000Y-73842476D01*
X168711619Y-73794857D01*
X168806857Y-73747238D01*
X168902095Y-73747238D01*
X169044952Y-73794857D01*
X169616381Y-74366286D01*
X169616381Y-73747238D01*
X168616381Y-73128191D02*
X168616381Y-73032952D01*
X168664000Y-72937714D01*
X168711619Y-72890095D01*
X168806857Y-72842476D01*
X168997333Y-72794857D01*
X169235429Y-72794857D01*
X169425905Y-72842476D01*
X169521143Y-72890095D01*
X169568762Y-72937714D01*
X169616381Y-73032952D01*
X169616381Y-73128191D01*
X169568762Y-73223429D01*
X169521143Y-73271048D01*
X169425905Y-73318667D01*
X169235429Y-73366286D01*
X168997333Y-73366286D01*
X168806857Y-73318667D01*
X168711619Y-73271048D01*
X168664000Y-73223429D01*
X168616381Y-73128191D01*
X168949714Y-71937714D02*
X169616381Y-71937714D01*
X168949714Y-72366286D02*
X169473524Y-72366286D01*
X169568762Y-72318667D01*
X169616381Y-72223429D01*
X169616381Y-72080571D01*
X169568762Y-71985333D01*
X169521143Y-71937714D01*
X169092571Y-71128190D02*
X169092571Y-71461524D01*
X169616381Y-71461524D02*
X168616381Y-71461524D01*
X168616381Y-70985333D01*
X173204143Y-72572666D02*
X173251762Y-72620285D01*
X173299381Y-72763142D01*
X173299381Y-72858380D01*
X173251762Y-73001238D01*
X173156524Y-73096476D01*
X173061286Y-73144095D01*
X172870810Y-73191714D01*
X172727952Y-73191714D01*
X172537476Y-73144095D01*
X172442238Y-73096476D01*
X172347000Y-73001238D01*
X172299381Y-72858380D01*
X172299381Y-72763142D01*
X172347000Y-72620285D01*
X172394619Y-72572666D01*
X173299381Y-72096476D02*
X173299381Y-71906000D01*
X173251762Y-71810761D01*
X173204143Y-71763142D01*
X173061286Y-71667904D01*
X172870810Y-71620285D01*
X172489857Y-71620285D01*
X172394619Y-71667904D01*
X172347000Y-71715523D01*
X172299381Y-71810761D01*
X172299381Y-72001238D01*
X172347000Y-72096476D01*
X172394619Y-72144095D01*
X172489857Y-72191714D01*
X172727952Y-72191714D01*
X172823190Y-72144095D01*
X172870810Y-72096476D01*
X172918429Y-72001238D01*
X172918429Y-71810761D01*
X172870810Y-71715523D01*
X172823190Y-71667904D01*
X172727952Y-71620285D01*
X176061762Y-108656381D02*
X175490333Y-108656381D01*
X175776047Y-108656381D02*
X175776047Y-107656381D01*
X175680809Y-107799238D01*
X175585571Y-107894476D01*
X175490333Y-107942095D01*
X176490333Y-107989714D02*
X176490333Y-108656381D01*
X176490333Y-108084952D02*
X176537952Y-108037333D01*
X176633190Y-107989714D01*
X176776048Y-107989714D01*
X176871286Y-108037333D01*
X176918905Y-108132571D01*
X176918905Y-108656381D01*
X177728429Y-108132571D02*
X177395095Y-108132571D01*
X177395095Y-108656381D02*
X177395095Y-107656381D01*
X177871286Y-107656381D01*
X175601334Y-105033143D02*
X175553715Y-105080762D01*
X175410858Y-105128381D01*
X175315620Y-105128381D01*
X175172762Y-105080762D01*
X175077524Y-104985524D01*
X175029905Y-104890286D01*
X174982286Y-104699810D01*
X174982286Y-104556952D01*
X175029905Y-104366476D01*
X175077524Y-104271238D01*
X175172762Y-104176000D01*
X175315620Y-104128381D01*
X175410858Y-104128381D01*
X175553715Y-104176000D01*
X175601334Y-104223619D01*
X175982286Y-104223619D02*
X176029905Y-104176000D01*
X176125143Y-104128381D01*
X176363239Y-104128381D01*
X176458477Y-104176000D01*
X176506096Y-104223619D01*
X176553715Y-104318857D01*
X176553715Y-104414095D01*
X176506096Y-104556952D01*
X175934667Y-105128381D01*
X176553715Y-105128381D01*
X109005762Y-108910381D02*
X108434333Y-108910381D01*
X108720047Y-108910381D02*
X108720047Y-107910381D01*
X108624809Y-108053238D01*
X108529571Y-108148476D01*
X108434333Y-108196095D01*
X109434333Y-108243714D02*
X109434333Y-108910381D01*
X109434333Y-108338952D02*
X109481952Y-108291333D01*
X109577190Y-108243714D01*
X109720048Y-108243714D01*
X109815286Y-108291333D01*
X109862905Y-108386571D01*
X109862905Y-108910381D01*
X110672429Y-108386571D02*
X110339095Y-108386571D01*
X110339095Y-108910381D02*
X110339095Y-107910381D01*
X110815286Y-107910381D01*
X108291334Y-105287143D02*
X108243715Y-105334762D01*
X108100858Y-105382381D01*
X108005620Y-105382381D01*
X107862762Y-105334762D01*
X107767524Y-105239524D01*
X107719905Y-105144286D01*
X107672286Y-104953810D01*
X107672286Y-104810952D01*
X107719905Y-104620476D01*
X107767524Y-104525238D01*
X107862762Y-104430000D01*
X108005620Y-104382381D01*
X108100858Y-104382381D01*
X108243715Y-104430000D01*
X108291334Y-104477619D01*
X109148477Y-104715714D02*
X109148477Y-105382381D01*
X108910381Y-104334762D02*
X108672286Y-105049048D01*
X109291334Y-105049048D01*
X163869762Y-65095381D02*
X163298333Y-65095381D01*
X163584047Y-65095381D02*
X163584047Y-64095381D01*
X163488809Y-64238238D01*
X163393571Y-64333476D01*
X163298333Y-64381095D01*
X164298333Y-64428714D02*
X164298333Y-65095381D01*
X164298333Y-64523952D02*
X164345952Y-64476333D01*
X164441190Y-64428714D01*
X164584048Y-64428714D01*
X164679286Y-64476333D01*
X164726905Y-64571571D01*
X164726905Y-65095381D01*
X165536429Y-64571571D02*
X165203095Y-64571571D01*
X165203095Y-65095381D02*
X165203095Y-64095381D01*
X165679286Y-64095381D01*
X161631334Y-66524143D02*
X161583715Y-66571762D01*
X161440858Y-66619381D01*
X161345620Y-66619381D01*
X161202762Y-66571762D01*
X161107524Y-66476524D01*
X161059905Y-66381286D01*
X161012286Y-66190810D01*
X161012286Y-66047952D01*
X161059905Y-65857476D01*
X161107524Y-65762238D01*
X161202762Y-65667000D01*
X161345620Y-65619381D01*
X161440858Y-65619381D01*
X161583715Y-65667000D01*
X161631334Y-65714619D01*
X162536096Y-65619381D02*
X162059905Y-65619381D01*
X162012286Y-66095571D01*
X162059905Y-66047952D01*
X162155143Y-66000333D01*
X162393239Y-66000333D01*
X162488477Y-66047952D01*
X162536096Y-66095571D01*
X162583715Y-66190810D01*
X162583715Y-66428905D01*
X162536096Y-66524143D01*
X162488477Y-66571762D01*
X162393239Y-66619381D01*
X162155143Y-66619381D01*
X162059905Y-66571762D01*
X162012286Y-66524143D01*
X119165762Y-108910381D02*
X118594333Y-108910381D01*
X118880047Y-108910381D02*
X118880047Y-107910381D01*
X118784809Y-108053238D01*
X118689571Y-108148476D01*
X118594333Y-108196095D01*
X119594333Y-108243714D02*
X119594333Y-108910381D01*
X119594333Y-108338952D02*
X119641952Y-108291333D01*
X119737190Y-108243714D01*
X119880048Y-108243714D01*
X119975286Y-108291333D01*
X120022905Y-108386571D01*
X120022905Y-108910381D01*
X120832429Y-108386571D02*
X120499095Y-108386571D01*
X120499095Y-108910381D02*
X120499095Y-107910381D01*
X120975286Y-107910381D01*
X118451334Y-105287143D02*
X118403715Y-105334762D01*
X118260858Y-105382381D01*
X118165620Y-105382381D01*
X118022762Y-105334762D01*
X117927524Y-105239524D01*
X117879905Y-105144286D01*
X117832286Y-104953810D01*
X117832286Y-104810952D01*
X117879905Y-104620476D01*
X117927524Y-104525238D01*
X118022762Y-104430000D01*
X118165620Y-104382381D01*
X118260858Y-104382381D01*
X118403715Y-104430000D01*
X118451334Y-104477619D01*
X119308477Y-104382381D02*
X119118000Y-104382381D01*
X119022762Y-104430000D01*
X118975143Y-104477619D01*
X118879905Y-104620476D01*
X118832286Y-104810952D01*
X118832286Y-105191905D01*
X118879905Y-105287143D01*
X118927524Y-105334762D01*
X119022762Y-105382381D01*
X119213239Y-105382381D01*
X119308477Y-105334762D01*
X119356096Y-105287143D01*
X119403715Y-105191905D01*
X119403715Y-104953810D01*
X119356096Y-104858571D01*
X119308477Y-104810952D01*
X119213239Y-104763333D01*
X119022762Y-104763333D01*
X118927524Y-104810952D01*
X118879905Y-104858571D01*
X118832286Y-104953810D01*
X153836762Y-64968381D02*
X153265333Y-64968381D01*
X153551047Y-64968381D02*
X153551047Y-63968381D01*
X153455809Y-64111238D01*
X153360571Y-64206476D01*
X153265333Y-64254095D01*
X154265333Y-64301714D02*
X154265333Y-64968381D01*
X154265333Y-64396952D02*
X154312952Y-64349333D01*
X154408190Y-64301714D01*
X154551048Y-64301714D01*
X154646286Y-64349333D01*
X154693905Y-64444571D01*
X154693905Y-64968381D01*
X155503429Y-64444571D02*
X155170095Y-64444571D01*
X155170095Y-64968381D02*
X155170095Y-63968381D01*
X155646286Y-63968381D01*
X155154334Y-68401143D02*
X155106715Y-68448762D01*
X154963858Y-68496381D01*
X154868620Y-68496381D01*
X154725762Y-68448762D01*
X154630524Y-68353524D01*
X154582905Y-68258286D01*
X154535286Y-68067810D01*
X154535286Y-67924952D01*
X154582905Y-67734476D01*
X154630524Y-67639238D01*
X154725762Y-67544000D01*
X154868620Y-67496381D01*
X154963858Y-67496381D01*
X155106715Y-67544000D01*
X155154334Y-67591619D01*
X155487667Y-67496381D02*
X156154334Y-67496381D01*
X155725762Y-68496381D01*
X155868762Y-108910381D02*
X155297333Y-108910381D01*
X155583047Y-108910381D02*
X155583047Y-107910381D01*
X155487809Y-108053238D01*
X155392571Y-108148476D01*
X155297333Y-108196095D01*
X156297333Y-108243714D02*
X156297333Y-108910381D01*
X156297333Y-108338952D02*
X156344952Y-108291333D01*
X156440190Y-108243714D01*
X156583048Y-108243714D01*
X156678286Y-108291333D01*
X156725905Y-108386571D01*
X156725905Y-108910381D01*
X157535429Y-108386571D02*
X157202095Y-108386571D01*
X157202095Y-108910381D02*
X157202095Y-107910381D01*
X157678286Y-107910381D01*
X155281334Y-105287143D02*
X155233715Y-105334762D01*
X155090858Y-105382381D01*
X154995620Y-105382381D01*
X154852762Y-105334762D01*
X154757524Y-105239524D01*
X154709905Y-105144286D01*
X154662286Y-104953810D01*
X154662286Y-104810952D01*
X154709905Y-104620476D01*
X154757524Y-104525238D01*
X154852762Y-104430000D01*
X154995620Y-104382381D01*
X155090858Y-104382381D01*
X155233715Y-104430000D01*
X155281334Y-104477619D01*
X155852762Y-104810952D02*
X155757524Y-104763333D01*
X155709905Y-104715714D01*
X155662286Y-104620476D01*
X155662286Y-104572857D01*
X155709905Y-104477619D01*
X155757524Y-104430000D01*
X155852762Y-104382381D01*
X156043239Y-104382381D01*
X156138477Y-104430000D01*
X156186096Y-104477619D01*
X156233715Y-104572857D01*
X156233715Y-104620476D01*
X156186096Y-104715714D01*
X156138477Y-104763333D01*
X156043239Y-104810952D01*
X155852762Y-104810952D01*
X155757524Y-104858571D01*
X155709905Y-104906190D01*
X155662286Y-105001429D01*
X155662286Y-105191905D01*
X155709905Y-105287143D01*
X155757524Y-105334762D01*
X155852762Y-105382381D01*
X156043239Y-105382381D01*
X156138477Y-105334762D01*
X156186096Y-105287143D01*
X156233715Y-105191905D01*
X156233715Y-105001429D01*
X156186096Y-104906190D01*
X156138477Y-104858571D01*
X156043239Y-104810952D01*
X166028762Y-108656381D02*
X165457333Y-108656381D01*
X165743047Y-108656381D02*
X165743047Y-107656381D01*
X165647809Y-107799238D01*
X165552571Y-107894476D01*
X165457333Y-107942095D01*
X166457333Y-107989714D02*
X166457333Y-108656381D01*
X166457333Y-108084952D02*
X166504952Y-108037333D01*
X166600190Y-107989714D01*
X166743048Y-107989714D01*
X166838286Y-108037333D01*
X166885905Y-108132571D01*
X166885905Y-108656381D01*
X167695429Y-108132571D02*
X167362095Y-108132571D01*
X167362095Y-108656381D02*
X167362095Y-107656381D01*
X167838286Y-107656381D01*
X164838143Y-105033143D02*
X164790524Y-105080762D01*
X164647667Y-105128381D01*
X164552429Y-105128381D01*
X164409571Y-105080762D01*
X164314333Y-104985524D01*
X164266714Y-104890286D01*
X164219095Y-104699810D01*
X164219095Y-104556952D01*
X164266714Y-104366476D01*
X164314333Y-104271238D01*
X164409571Y-104176000D01*
X164552429Y-104128381D01*
X164647667Y-104128381D01*
X164790524Y-104176000D01*
X164838143Y-104223619D01*
X165790524Y-105128381D02*
X165219095Y-105128381D01*
X165504809Y-105128381D02*
X165504809Y-104128381D01*
X165409571Y-104271238D01*
X165314333Y-104366476D01*
X165219095Y-104414095D01*
X166409571Y-104128381D02*
X166504810Y-104128381D01*
X166600048Y-104176000D01*
X166647667Y-104223619D01*
X166695286Y-104318857D01*
X166742905Y-104509333D01*
X166742905Y-104747429D01*
X166695286Y-104937905D01*
X166647667Y-105033143D01*
X166600048Y-105080762D01*
X166504810Y-105128381D01*
X166409571Y-105128381D01*
X166314333Y-105080762D01*
X166266714Y-105033143D01*
X166219095Y-104937905D01*
X166171476Y-104747429D01*
X166171476Y-104509333D01*
X166219095Y-104318857D01*
X166266714Y-104223619D01*
X166314333Y-104176000D01*
X166409571Y-104128381D01*
X169979286Y-128463381D02*
X169979286Y-127463381D01*
X170360239Y-127463381D01*
X170455477Y-127511000D01*
X170503096Y-127558619D01*
X170550715Y-127653857D01*
X170550715Y-127796714D01*
X170503096Y-127891952D01*
X170455477Y-127939571D01*
X170360239Y-127987190D01*
X169979286Y-127987190D01*
X170979286Y-128463381D02*
X170979286Y-127463381D01*
X171455476Y-128463381D02*
X171455476Y-127463381D01*
X172026905Y-128463381D01*
X172026905Y-127463381D01*
X172407857Y-127463381D02*
X173074524Y-127463381D01*
X172407857Y-128463381D01*
X173074524Y-128463381D01*
X173407857Y-128177667D02*
X173884048Y-128177667D01*
X173312619Y-128463381D02*
X173645952Y-127463381D01*
X173979286Y-128463381D01*
X174074524Y-128558619D02*
X174836429Y-128558619D01*
X175503096Y-127463381D02*
X175312619Y-127463381D01*
X175217381Y-127511000D01*
X175169762Y-127558619D01*
X175074524Y-127701476D01*
X175026905Y-127891952D01*
X175026905Y-128272905D01*
X175074524Y-128368143D01*
X175122143Y-128415762D01*
X175217381Y-128463381D01*
X175407858Y-128463381D01*
X175503096Y-128415762D01*
X175550715Y-128368143D01*
X175598334Y-128272905D01*
X175598334Y-128034810D01*
X175550715Y-127939571D01*
X175503096Y-127891952D01*
X175407858Y-127844333D01*
X175217381Y-127844333D01*
X175122143Y-127891952D01*
X175074524Y-127939571D01*
X175026905Y-128034810D01*
X103050286Y-128463381D02*
X103050286Y-127463381D01*
X103431239Y-127463381D01*
X103526477Y-127511000D01*
X103574096Y-127558619D01*
X103621715Y-127653857D01*
X103621715Y-127796714D01*
X103574096Y-127891952D01*
X103526477Y-127939571D01*
X103431239Y-127987190D01*
X103050286Y-127987190D01*
X104050286Y-128463381D02*
X104050286Y-127463381D01*
X104526476Y-128463381D02*
X104526476Y-127463381D01*
X105097905Y-128463381D01*
X105097905Y-127463381D01*
X105478857Y-127463381D02*
X106145524Y-127463381D01*
X105478857Y-128463381D01*
X106145524Y-128463381D01*
X106478857Y-128177667D02*
X106955048Y-128177667D01*
X106383619Y-128463381D02*
X106716952Y-127463381D01*
X107050286Y-128463381D01*
X107145524Y-128558619D02*
X107907429Y-128558619D01*
X108097905Y-127558619D02*
X108145524Y-127511000D01*
X108240762Y-127463381D01*
X108478858Y-127463381D01*
X108574096Y-127511000D01*
X108621715Y-127558619D01*
X108669334Y-127653857D01*
X108669334Y-127749095D01*
X108621715Y-127891952D01*
X108050286Y-128463381D01*
X108669334Y-128463381D01*
X165571286Y-45415381D02*
X165571286Y-44415381D01*
X165952239Y-44415381D01*
X166047477Y-44463000D01*
X166095096Y-44510619D01*
X166142715Y-44605857D01*
X166142715Y-44748714D01*
X166095096Y-44843952D01*
X166047477Y-44891571D01*
X165952239Y-44939190D01*
X165571286Y-44939190D01*
X166571286Y-45415381D02*
X166571286Y-44415381D01*
X167047476Y-45415381D02*
X167047476Y-44415381D01*
X167618905Y-45415381D01*
X167618905Y-44415381D01*
X167999857Y-44415381D02*
X168666524Y-44415381D01*
X167999857Y-45415381D01*
X168666524Y-45415381D01*
X168999857Y-45129667D02*
X169476048Y-45129667D01*
X168904619Y-45415381D02*
X169237952Y-44415381D01*
X169571286Y-45415381D01*
X169666524Y-45510619D02*
X170428429Y-45510619D01*
X170809381Y-44843952D02*
X170714143Y-44796333D01*
X170666524Y-44748714D01*
X170618905Y-44653476D01*
X170618905Y-44605857D01*
X170666524Y-44510619D01*
X170714143Y-44463000D01*
X170809381Y-44415381D01*
X170999858Y-44415381D01*
X171095096Y-44463000D01*
X171142715Y-44510619D01*
X171190334Y-44605857D01*
X171190334Y-44653476D01*
X171142715Y-44748714D01*
X171095096Y-44796333D01*
X170999858Y-44843952D01*
X170809381Y-44843952D01*
X170714143Y-44891571D01*
X170666524Y-44939190D01*
X170618905Y-45034429D01*
X170618905Y-45224905D01*
X170666524Y-45320143D01*
X170714143Y-45367762D01*
X170809381Y-45415381D01*
X170999858Y-45415381D01*
X171095096Y-45367762D01*
X171142715Y-45320143D01*
X171190334Y-45224905D01*
X171190334Y-45034429D01*
X171142715Y-44939190D01*
X171095096Y-44891571D01*
X170999858Y-44843952D01*
X113083286Y-128463381D02*
X113083286Y-127463381D01*
X113464239Y-127463381D01*
X113559477Y-127511000D01*
X113607096Y-127558619D01*
X113654715Y-127653857D01*
X113654715Y-127796714D01*
X113607096Y-127891952D01*
X113559477Y-127939571D01*
X113464239Y-127987190D01*
X113083286Y-127987190D01*
X114083286Y-128463381D02*
X114083286Y-127463381D01*
X114559476Y-128463381D02*
X114559476Y-127463381D01*
X115130905Y-128463381D01*
X115130905Y-127463381D01*
X115511857Y-127463381D02*
X116178524Y-127463381D01*
X115511857Y-128463381D01*
X116178524Y-128463381D01*
X116511857Y-128177667D02*
X116988048Y-128177667D01*
X116416619Y-128463381D02*
X116749952Y-127463381D01*
X117083286Y-128463381D01*
X117178524Y-128558619D02*
X117940429Y-128558619D01*
X118083286Y-127463381D02*
X118702334Y-127463381D01*
X118369000Y-127844333D01*
X118511858Y-127844333D01*
X118607096Y-127891952D01*
X118654715Y-127939571D01*
X118702334Y-128034810D01*
X118702334Y-128272905D01*
X118654715Y-128368143D01*
X118607096Y-128415762D01*
X118511858Y-128463381D01*
X118226143Y-128463381D01*
X118130905Y-128415762D01*
X118083286Y-128368143D01*
X155411286Y-45415381D02*
X155411286Y-44415381D01*
X155792239Y-44415381D01*
X155887477Y-44463000D01*
X155935096Y-44510619D01*
X155982715Y-44605857D01*
X155982715Y-44748714D01*
X155935096Y-44843952D01*
X155887477Y-44891571D01*
X155792239Y-44939190D01*
X155411286Y-44939190D01*
X156411286Y-45415381D02*
X156411286Y-44415381D01*
X156887476Y-45415381D02*
X156887476Y-44415381D01*
X157458905Y-45415381D01*
X157458905Y-44415381D01*
X157839857Y-44415381D02*
X158506524Y-44415381D01*
X157839857Y-45415381D01*
X158506524Y-45415381D01*
X158839857Y-45129667D02*
X159316048Y-45129667D01*
X158744619Y-45415381D02*
X159077952Y-44415381D01*
X159411286Y-45415381D01*
X159506524Y-45510619D02*
X160268429Y-45510619D01*
X160411286Y-44415381D02*
X161077953Y-44415381D01*
X160649381Y-45415381D01*
X149913286Y-128463381D02*
X149913286Y-127463381D01*
X150294239Y-127463381D01*
X150389477Y-127511000D01*
X150437096Y-127558619D01*
X150484715Y-127653857D01*
X150484715Y-127796714D01*
X150437096Y-127891952D01*
X150389477Y-127939571D01*
X150294239Y-127987190D01*
X149913286Y-127987190D01*
X150913286Y-128463381D02*
X150913286Y-127463381D01*
X151389476Y-128463381D02*
X151389476Y-127463381D01*
X151960905Y-128463381D01*
X151960905Y-127463381D01*
X152341857Y-127463381D02*
X153008524Y-127463381D01*
X152341857Y-128463381D01*
X153008524Y-128463381D01*
X153341857Y-128177667D02*
X153818048Y-128177667D01*
X153246619Y-128463381D02*
X153579952Y-127463381D01*
X153913286Y-128463381D01*
X154008524Y-128558619D02*
X154770429Y-128558619D01*
X155437096Y-127796714D02*
X155437096Y-128463381D01*
X155199000Y-127415762D02*
X154960905Y-128130048D01*
X155579953Y-128130048D01*
X159946286Y-128463381D02*
X159946286Y-127463381D01*
X160327239Y-127463381D01*
X160422477Y-127511000D01*
X160470096Y-127558619D01*
X160517715Y-127653857D01*
X160517715Y-127796714D01*
X160470096Y-127891952D01*
X160422477Y-127939571D01*
X160327239Y-127987190D01*
X159946286Y-127987190D01*
X160946286Y-128463381D02*
X160946286Y-127463381D01*
X161422476Y-128463381D02*
X161422476Y-127463381D01*
X161993905Y-128463381D01*
X161993905Y-127463381D01*
X162374857Y-127463381D02*
X163041524Y-127463381D01*
X162374857Y-128463381D01*
X163041524Y-128463381D01*
X163374857Y-128177667D02*
X163851048Y-128177667D01*
X163279619Y-128463381D02*
X163612952Y-127463381D01*
X163946286Y-128463381D01*
X164041524Y-128558619D02*
X164803429Y-128558619D01*
X165517715Y-127463381D02*
X165041524Y-127463381D01*
X164993905Y-127939571D01*
X165041524Y-127891952D01*
X165136762Y-127844333D01*
X165374858Y-127844333D01*
X165470096Y-127891952D01*
X165517715Y-127939571D01*
X165565334Y-128034810D01*
X165565334Y-128272905D01*
X165517715Y-128368143D01*
X165470096Y-128415762D01*
X165374858Y-128463381D01*
X165136762Y-128463381D01*
X165041524Y-128415762D01*
X164993905Y-128368143D01*
X99099762Y-108910381D02*
X98528333Y-108910381D01*
X98814047Y-108910381D02*
X98814047Y-107910381D01*
X98718809Y-108053238D01*
X98623571Y-108148476D01*
X98528333Y-108196095D01*
X99528333Y-108243714D02*
X99528333Y-108910381D01*
X99528333Y-108338952D02*
X99575952Y-108291333D01*
X99671190Y-108243714D01*
X99814048Y-108243714D01*
X99909286Y-108291333D01*
X99956905Y-108386571D01*
X99956905Y-108910381D01*
X100766429Y-108386571D02*
X100433095Y-108386571D01*
X100433095Y-108910381D02*
X100433095Y-107910381D01*
X100909286Y-107910381D01*
X98512334Y-105287143D02*
X98464715Y-105334762D01*
X98321858Y-105382381D01*
X98226620Y-105382381D01*
X98083762Y-105334762D01*
X97988524Y-105239524D01*
X97940905Y-105144286D01*
X97893286Y-104953810D01*
X97893286Y-104810952D01*
X97940905Y-104620476D01*
X97988524Y-104525238D01*
X98083762Y-104430000D01*
X98226620Y-104382381D01*
X98321858Y-104382381D01*
X98464715Y-104430000D01*
X98512334Y-104477619D01*
X99464715Y-105382381D02*
X98893286Y-105382381D01*
X99179000Y-105382381D02*
X99179000Y-104382381D01*
X99083762Y-104525238D01*
X98988524Y-104620476D01*
X98893286Y-104668095D01*
M02*
