G04 #@! TF.FileFunction,Paste,Top*
%FSLAX46Y46*%
G04 Gerber Fmt 4.6, Leading zero omitted, Abs format (unit mm)*
G04 Created by KiCad (PCBNEW 4.0.7-e2-6376~58~ubuntu16.04.1) date Tue Dec 12 15:57:28 2017*
%MOMM*%
%LPD*%
G01*
G04 APERTURE LIST*
%ADD10C,0.100000*%
%ADD11R,0.600000X1.550000*%
%ADD12R,1.500000X1.250000*%
G04 APERTURE END LIST*
D10*
D11*
X159893000Y-55974000D03*
X158623000Y-55974000D03*
X157353000Y-55974000D03*
X156083000Y-55974000D03*
X156083000Y-61374000D03*
X157353000Y-61374000D03*
X158623000Y-61374000D03*
X159893000Y-61374000D03*
D12*
X174518000Y-106426000D03*
X177018000Y-106426000D03*
X107208000Y-106680000D03*
X109708000Y-106680000D03*
X166731000Y-66294000D03*
X164231000Y-66294000D03*
X117368000Y-106680000D03*
X119868000Y-106680000D03*
X156571000Y-66294000D03*
X154071000Y-66294000D03*
X154198000Y-106680000D03*
X156698000Y-106680000D03*
X164231000Y-106426000D03*
X166731000Y-106426000D03*
D11*
X94107000Y-117000000D03*
X95377000Y-117000000D03*
X96647000Y-117000000D03*
X97917000Y-117000000D03*
X97917000Y-111600000D03*
X96647000Y-111600000D03*
X95377000Y-111600000D03*
X94107000Y-111600000D03*
X171196000Y-117000000D03*
X172466000Y-117000000D03*
X173736000Y-117000000D03*
X175006000Y-117000000D03*
X175006000Y-111600000D03*
X173736000Y-111600000D03*
X172466000Y-111600000D03*
X171196000Y-111600000D03*
X104013000Y-117000000D03*
X105283000Y-117000000D03*
X106553000Y-117000000D03*
X107823000Y-117000000D03*
X107823000Y-111600000D03*
X106553000Y-111600000D03*
X105283000Y-111600000D03*
X104013000Y-111600000D03*
X170053000Y-55974000D03*
X168783000Y-55974000D03*
X167513000Y-55974000D03*
X166243000Y-55974000D03*
X166243000Y-61374000D03*
X167513000Y-61374000D03*
X168783000Y-61374000D03*
X170053000Y-61374000D03*
X114173000Y-117000000D03*
X115443000Y-117000000D03*
X116713000Y-117000000D03*
X117983000Y-117000000D03*
X117983000Y-111600000D03*
X116713000Y-111600000D03*
X115443000Y-111600000D03*
X114173000Y-111600000D03*
X150876000Y-117000000D03*
X152146000Y-117000000D03*
X153416000Y-117000000D03*
X154686000Y-117000000D03*
X154686000Y-111600000D03*
X153416000Y-111600000D03*
X152146000Y-111600000D03*
X150876000Y-111600000D03*
X160909000Y-117000000D03*
X162179000Y-117000000D03*
X163449000Y-117000000D03*
X164719000Y-117000000D03*
X164719000Y-111600000D03*
X163449000Y-111600000D03*
X162179000Y-111600000D03*
X160909000Y-111600000D03*
D12*
X97429000Y-106680000D03*
X99929000Y-106680000D03*
M02*
