G04 #@! TF.FileFunction,Copper,L2,Bot,Signal*
%FSLAX46Y46*%
G04 Gerber Fmt 4.6, Leading zero omitted, Abs format (unit mm)*
G04 Created by KiCad (PCBNEW 4.0.7-e2-6376~58~ubuntu16.04.1) date Mon Dec 11 18:42:29 2017*
%MOMM*%
%LPD*%
G01*
G04 APERTURE LIST*
%ADD10C,0.100000*%
%ADD11C,2.000000*%
%ADD12R,2.540000X2.540000*%
%ADD13C,2.540000*%
%ADD14R,1.727200X2.032000*%
%ADD15O,1.727200X2.032000*%
%ADD16O,2.540000X2.032000*%
%ADD17R,2.800000X1.100000*%
%ADD18O,2.800000X1.100000*%
%ADD19R,1.300000X1.300000*%
%ADD20C,1.300000*%
%ADD21R,2.000000X2.000000*%
%ADD22R,2.032000X1.727200*%
%ADD23O,2.032000X1.727200*%
%ADD24C,1.998980*%
%ADD25C,1.600000*%
%ADD26R,1.600000X1.600000*%
%ADD27C,1.900000*%
%ADD28C,0.600000*%
%ADD29C,1.000000*%
%ADD30C,0.800000*%
%ADD31C,1.200000*%
%ADD32C,0.600000*%
%ADD33C,0.254000*%
G04 APERTURE END LIST*
D10*
D11*
X166624000Y-79756000D03*
X166624000Y-92964000D03*
X185166000Y-79756000D03*
X185166000Y-92964000D03*
D12*
X185420000Y-49530000D03*
D13*
X180340000Y-49530000D03*
D14*
X121285000Y-95250000D03*
D15*
X123825000Y-95250000D03*
X126365000Y-95250000D03*
X128905000Y-95250000D03*
D16*
X98044000Y-68580000D03*
X98044000Y-66040000D03*
X98044000Y-71120000D03*
D17*
X110300000Y-52700000D03*
D18*
X110300000Y-54700000D03*
X110300000Y-56700000D03*
X110300000Y-58700000D03*
X110300000Y-60700000D03*
X110300000Y-62700000D03*
X110300000Y-64700000D03*
X110300000Y-66700000D03*
X125300000Y-66700000D03*
X125300000Y-64700000D03*
X125300000Y-62700000D03*
X125300000Y-60700000D03*
X125300000Y-58700000D03*
X125300000Y-56700000D03*
X125300000Y-54700000D03*
X125300000Y-52700000D03*
D19*
X181483000Y-72517000D03*
D20*
X179483000Y-72517000D03*
D19*
X98552000Y-57404000D03*
D20*
X98552000Y-55404000D03*
D11*
X185417460Y-56133480D03*
D21*
X185417460Y-66293480D03*
D12*
X93472000Y-123444000D03*
D13*
X98552000Y-123444000D03*
D14*
X100965000Y-95250000D03*
D15*
X103505000Y-95250000D03*
X106045000Y-95250000D03*
X108585000Y-95250000D03*
X111125000Y-95250000D03*
X113665000Y-95250000D03*
X116205000Y-95250000D03*
X118745000Y-95250000D03*
D22*
X145034000Y-77597000D03*
D23*
X145034000Y-80137000D03*
X145034000Y-82677000D03*
X145034000Y-85217000D03*
D14*
X118745000Y-80010000D03*
D15*
X116205000Y-80010000D03*
X113665000Y-80010000D03*
X111125000Y-80010000D03*
X108585000Y-80010000D03*
X106045000Y-80010000D03*
D24*
X131445000Y-64770000D03*
X131445000Y-54610000D03*
X104140000Y-59690000D03*
X104140000Y-49530000D03*
X180086000Y-61214000D03*
X101854000Y-66167000D03*
D25*
X93472000Y-58420000D03*
X93472000Y-53420000D03*
D24*
X161290000Y-93091000D03*
D26*
X172847000Y-73406000D03*
D25*
X172847000Y-71406000D03*
D12*
X170434000Y-123444000D03*
D13*
X175514000Y-123444000D03*
D12*
X103505000Y-123444000D03*
D13*
X108585000Y-123444000D03*
D12*
X170688000Y-49530000D03*
D13*
X165608000Y-49530000D03*
D12*
X113538000Y-123444000D03*
D13*
X118618000Y-123444000D03*
D12*
X160528000Y-49530000D03*
D13*
X155448000Y-49530000D03*
D12*
X150368000Y-123444000D03*
D13*
X155448000Y-123444000D03*
D12*
X160401000Y-123444000D03*
D13*
X165481000Y-123444000D03*
D27*
X107188000Y-71247000D03*
D28*
X105283000Y-108966000D03*
X168910000Y-63881000D03*
X115443000Y-108966000D03*
X152146000Y-108966000D03*
X95377000Y-108966000D03*
X158623000Y-63881000D03*
X172466000Y-108966000D03*
X162179000Y-108966000D03*
D29*
X124800000Y-54700000D02*
X120105000Y-54700000D01*
X120105000Y-54700000D02*
X118745000Y-56060000D01*
X111125000Y-78105000D02*
X111125000Y-80010000D01*
X118745000Y-70485000D02*
X111125000Y-78105000D01*
X118745000Y-56060000D02*
X118745000Y-70485000D01*
X124800000Y-52700000D02*
X117480000Y-52700000D01*
X108585000Y-77470000D02*
X108585000Y-80010000D01*
X116205000Y-69850000D02*
X108585000Y-77470000D01*
X116205000Y-53975000D02*
X116205000Y-69850000D01*
X117480000Y-52700000D02*
X116205000Y-53975000D01*
D30*
X104140000Y-49530000D02*
X104140000Y-53848000D01*
X106992000Y-56700000D02*
X110800000Y-56700000D01*
X104140000Y-53848000D02*
X106992000Y-56700000D01*
D29*
X124800000Y-64700000D02*
X131375000Y-64700000D01*
X131375000Y-64700000D02*
X131445000Y-64770000D01*
X101854000Y-66167000D02*
X102870000Y-66167000D01*
X102870000Y-66167000D02*
X104140000Y-64897000D01*
X93472000Y-58420000D02*
X93599000Y-58420000D01*
X93599000Y-58420000D02*
X94742000Y-59563000D01*
X94742000Y-59563000D02*
X98552000Y-59563000D01*
X104140000Y-59690000D02*
X104140000Y-64897000D01*
X104140000Y-64897000D02*
X104140000Y-65151000D01*
X104140000Y-65151000D02*
X104013000Y-65024000D01*
X104013000Y-65024000D02*
X104013000Y-64897000D01*
X104013000Y-64897000D02*
X104013000Y-65024000D01*
D31*
X98552000Y-57404000D02*
X98552000Y-59563000D01*
X98552000Y-59563000D02*
X104013000Y-65024000D01*
X104013000Y-65024000D02*
X105689000Y-66700000D01*
X98044000Y-68580000D02*
X103632000Y-68580000D01*
X105512000Y-66700000D02*
X105689000Y-66700000D01*
X105689000Y-66700000D02*
X110800000Y-66700000D01*
X103632000Y-68580000D02*
X105512000Y-66700000D01*
X104130000Y-59700000D02*
X104140000Y-59690000D01*
D29*
X110650000Y-66600000D02*
X110750000Y-66700000D01*
D30*
X110650000Y-66600000D02*
X110750000Y-66700000D01*
D31*
X107061000Y-71120000D02*
X98044000Y-71120000D01*
X107188000Y-71247000D02*
X107061000Y-71120000D01*
D29*
X161290000Y-93091000D02*
X161290000Y-87884000D01*
X161290000Y-87884000D02*
X161290000Y-87757000D01*
X161290000Y-87757000D02*
X161290000Y-87884000D01*
D31*
X166624000Y-79756000D02*
X170180000Y-79756000D01*
X172847000Y-77089000D02*
X172847000Y-73406000D01*
X170180000Y-79756000D02*
X172847000Y-77089000D01*
X166624000Y-79756000D02*
X166624000Y-82550000D01*
X153924000Y-95250000D02*
X128905000Y-95250000D01*
X166624000Y-82550000D02*
X161290000Y-87884000D01*
X161290000Y-87884000D02*
X153924000Y-95250000D01*
D29*
X110800000Y-52700000D02*
X111755000Y-52700000D01*
X111755000Y-52700000D02*
X113665000Y-54610000D01*
X106045000Y-76835000D02*
X106045000Y-80010000D01*
X113665000Y-69215000D02*
X106045000Y-76835000D01*
X113665000Y-54610000D02*
X113665000Y-69215000D01*
D31*
X185420000Y-49530000D02*
X185420000Y-56130940D01*
X185420000Y-56130940D02*
X185417460Y-56133480D01*
D32*
X103505000Y-97536000D02*
X103505000Y-95250000D01*
X105283000Y-99314000D02*
X103505000Y-97536000D01*
X105283000Y-104902000D02*
X105283000Y-99314000D01*
X105283000Y-108966000D02*
X105283000Y-104902000D01*
X118745000Y-95250000D02*
X118745000Y-92456000D01*
X168910000Y-70104000D02*
X168910000Y-63881000D01*
X148082000Y-90932000D02*
X168910000Y-70104000D01*
X120269000Y-90932000D02*
X148082000Y-90932000D01*
X118745000Y-92456000D02*
X120269000Y-90932000D01*
X106045000Y-95250000D02*
X106045000Y-97663000D01*
X115443000Y-107061000D02*
X115443000Y-108966000D01*
X106045000Y-97663000D02*
X115443000Y-107061000D01*
X106045000Y-95504000D02*
X106045000Y-95250000D01*
X108585000Y-95250000D02*
X108585000Y-97155000D01*
X152146000Y-106299000D02*
X152146000Y-108966000D01*
X149606000Y-103759000D02*
X152146000Y-106299000D01*
X115189000Y-103759000D02*
X149606000Y-103759000D01*
X108585000Y-97155000D02*
X115189000Y-103759000D01*
D30*
X108585000Y-95250000D02*
X108585000Y-95885000D01*
D32*
X100965000Y-99187000D02*
X100965000Y-95250000D01*
X95377000Y-104775000D02*
X100965000Y-99187000D01*
X95377000Y-108966000D02*
X95377000Y-104775000D01*
X116205000Y-95250000D02*
X116205000Y-91948000D01*
X158623000Y-77724000D02*
X158623000Y-63881000D01*
X147320000Y-89027000D02*
X158623000Y-77724000D01*
X119126000Y-89027000D02*
X147320000Y-89027000D01*
X116205000Y-91948000D02*
X119126000Y-89027000D01*
D29*
X180086000Y-61214000D02*
X181864000Y-61214000D01*
X185417460Y-64767460D02*
X185417460Y-66293480D01*
X181864000Y-61214000D02*
X185417460Y-64767460D01*
D31*
X181483000Y-72517000D02*
X183261000Y-72517000D01*
X183261000Y-72517000D02*
X185417460Y-70360540D01*
X185416940Y-66294000D02*
X185417460Y-66293480D01*
X185417460Y-66293480D02*
X185417460Y-70360540D01*
X185417460Y-70360540D02*
X185417460Y-79504540D01*
X185417460Y-79504540D02*
X185166000Y-79756000D01*
D32*
X113665000Y-95250000D02*
X113665000Y-91313000D01*
X142113000Y-80137000D02*
X145034000Y-80137000D01*
X135636000Y-86614000D02*
X142113000Y-80137000D01*
X118364000Y-86614000D02*
X135636000Y-86614000D01*
X113665000Y-91313000D02*
X118364000Y-86614000D01*
X113665000Y-95250000D02*
X113665000Y-97155000D01*
X172466000Y-106807000D02*
X172466000Y-108966000D01*
X165735000Y-100076000D02*
X172466000Y-106807000D01*
X116586000Y-100076000D02*
X165735000Y-100076000D01*
X113665000Y-97155000D02*
X116586000Y-100076000D01*
X111125000Y-95250000D02*
X111125000Y-91186000D01*
X141859000Y-77597000D02*
X145034000Y-77597000D01*
X134874000Y-84582000D02*
X141859000Y-77597000D01*
X117729000Y-84582000D02*
X134874000Y-84582000D01*
X111125000Y-91186000D02*
X117729000Y-84582000D01*
X111125000Y-95250000D02*
X111125000Y-97155000D01*
X162179000Y-106680000D02*
X162179000Y-108966000D01*
X157353000Y-101854000D02*
X162179000Y-106680000D01*
X115824000Y-101854000D02*
X157353000Y-101854000D01*
X111125000Y-97155000D02*
X115824000Y-101854000D01*
D29*
X111125000Y-95250000D02*
X111125000Y-94615000D01*
X113665000Y-80010000D02*
X113665000Y-79375000D01*
D33*
G36*
X107188000Y-52070000D02*
X107196685Y-52116159D01*
X107223965Y-52158553D01*
X107265590Y-52186994D01*
X107315000Y-52197000D01*
X108252560Y-52197000D01*
X108252560Y-53250000D01*
X108296838Y-53485317D01*
X108435910Y-53701441D01*
X108622162Y-53828701D01*
X108572210Y-53862078D01*
X108315335Y-54246520D01*
X108225132Y-54700000D01*
X108315335Y-55153480D01*
X108572210Y-55537922D01*
X108762396Y-55665000D01*
X107420711Y-55665000D01*
X105175000Y-53419288D01*
X105175000Y-50806309D01*
X105524846Y-50457073D01*
X105774206Y-49856547D01*
X105774774Y-49206306D01*
X105526462Y-48605345D01*
X105067073Y-48145154D01*
X104466547Y-47895794D01*
X103816306Y-47895226D01*
X103215345Y-48143538D01*
X102755154Y-48602927D01*
X102505794Y-49203453D01*
X102505226Y-49853694D01*
X102753538Y-50454655D01*
X103105000Y-50806731D01*
X103105000Y-53847995D01*
X103104999Y-53848000D01*
X103183785Y-54244077D01*
X103408144Y-54579856D01*
X106260142Y-57431853D01*
X106260144Y-57431856D01*
X106519578Y-57605203D01*
X106595923Y-57656215D01*
X106992000Y-57735001D01*
X106992005Y-57735000D01*
X108762396Y-57735000D01*
X108572210Y-57862078D01*
X108315335Y-58246520D01*
X108225132Y-58700000D01*
X108315335Y-59153480D01*
X108572210Y-59537922D01*
X108814778Y-59700000D01*
X108572210Y-59862078D01*
X108315335Y-60246520D01*
X108225132Y-60700000D01*
X108315335Y-61153480D01*
X108572210Y-61537922D01*
X108814778Y-61700000D01*
X108572210Y-61862078D01*
X108315335Y-62246520D01*
X108225132Y-62700000D01*
X108315335Y-63153480D01*
X108572210Y-63537922D01*
X108814778Y-63700000D01*
X108572210Y-63862078D01*
X108315335Y-64246520D01*
X108225132Y-64700000D01*
X108315335Y-65153480D01*
X108523485Y-65465000D01*
X106200554Y-65465000D01*
X105275000Y-64539446D01*
X105275000Y-60866484D01*
X105524846Y-60617073D01*
X105774206Y-60016547D01*
X105774774Y-59366306D01*
X105526462Y-58765345D01*
X105067073Y-58305154D01*
X104466547Y-58055794D01*
X103816306Y-58055226D01*
X103215345Y-58303538D01*
X102755154Y-58762927D01*
X102505794Y-59363453D01*
X102505226Y-60013694D01*
X102753538Y-60614655D01*
X103005000Y-60866556D01*
X103005000Y-62269446D01*
X99787000Y-59051446D01*
X99787000Y-58322620D01*
X99798431Y-58305890D01*
X99849440Y-58054000D01*
X99849440Y-56754000D01*
X99805162Y-56518683D01*
X99666090Y-56302559D01*
X99552671Y-56225063D01*
X99451018Y-56123410D01*
X99681611Y-56067729D01*
X99849622Y-55584922D01*
X99820083Y-55074572D01*
X99681611Y-54740271D01*
X99451016Y-54684590D01*
X98731605Y-55404000D01*
X98745748Y-55418142D01*
X98566142Y-55597748D01*
X98552000Y-55583605D01*
X98537858Y-55597748D01*
X98358252Y-55418142D01*
X98372395Y-55404000D01*
X97652984Y-54684590D01*
X97422389Y-54740271D01*
X97254378Y-55223078D01*
X97283917Y-55733428D01*
X97422389Y-56067729D01*
X97652982Y-56123410D01*
X97551320Y-56225072D01*
X97450559Y-56289910D01*
X97305569Y-56502110D01*
X97254560Y-56754000D01*
X97254560Y-58054000D01*
X97298838Y-58289317D01*
X97317000Y-58317542D01*
X97317000Y-58428000D01*
X95212132Y-58428000D01*
X94898308Y-58114176D01*
X94689243Y-57608200D01*
X94285923Y-57204176D01*
X93758691Y-56985250D01*
X93187813Y-56984752D01*
X92660200Y-57202757D01*
X92256176Y-57606077D01*
X92037250Y-58133309D01*
X92036752Y-58704187D01*
X92254757Y-59231800D01*
X92658077Y-59635824D01*
X93185309Y-59854750D01*
X93428830Y-59854962D01*
X93939434Y-60365566D01*
X94307654Y-60611603D01*
X94742000Y-60698000D01*
X97940446Y-60698000D01*
X101774886Y-64532440D01*
X101530306Y-64532226D01*
X100929345Y-64780538D01*
X100469154Y-65239927D01*
X100219794Y-65840453D01*
X100219226Y-66490694D01*
X100467538Y-67091655D01*
X100720441Y-67345000D01*
X99401633Y-67345000D01*
X99328219Y-67295946D01*
X99555236Y-67117630D01*
X99871926Y-66554477D01*
X99903975Y-66422944D01*
X99784836Y-66167000D01*
X98171000Y-66167000D01*
X98171000Y-66187000D01*
X97917000Y-66187000D01*
X97917000Y-66167000D01*
X96303164Y-66167000D01*
X96184025Y-66422944D01*
X96216074Y-66554477D01*
X96532764Y-67117630D01*
X96759781Y-67295946D01*
X96585246Y-67412567D01*
X96227354Y-67948190D01*
X96101679Y-68580000D01*
X96227354Y-69211810D01*
X96585246Y-69747433D01*
X96738748Y-69850000D01*
X96585246Y-69952567D01*
X96227354Y-70488190D01*
X96101679Y-71120000D01*
X96227354Y-71751810D01*
X96585246Y-72287433D01*
X97120869Y-72645325D01*
X97752679Y-72771000D01*
X98335321Y-72771000D01*
X98967131Y-72645325D01*
X99401633Y-72355000D01*
X106054493Y-72355000D01*
X106288997Y-72589914D01*
X106871341Y-72831724D01*
X107501893Y-72832275D01*
X108084657Y-72591481D01*
X108530914Y-72146003D01*
X108772724Y-71563659D01*
X108773275Y-70933107D01*
X108532481Y-70350343D01*
X108087003Y-69904086D01*
X107504659Y-69662276D01*
X106874107Y-69661725D01*
X106333742Y-69885000D01*
X99401633Y-69885000D01*
X99349252Y-69850000D01*
X99401633Y-69815000D01*
X103632000Y-69815000D01*
X104104614Y-69720991D01*
X104505277Y-69453277D01*
X106023554Y-67935000D01*
X110800000Y-67935000D01*
X111051366Y-67885000D01*
X111189868Y-67885000D01*
X111643348Y-67794797D01*
X112027790Y-67537922D01*
X112284665Y-67153480D01*
X112374868Y-66700000D01*
X112284665Y-66246520D01*
X112027790Y-65862078D01*
X111785222Y-65700000D01*
X112027790Y-65537922D01*
X112284665Y-65153480D01*
X112374868Y-64700000D01*
X112284665Y-64246520D01*
X112027790Y-63862078D01*
X111785222Y-63700000D01*
X112027790Y-63537922D01*
X112284665Y-63153480D01*
X112374868Y-62700000D01*
X112284665Y-62246520D01*
X112027790Y-61862078D01*
X111785222Y-61700000D01*
X112027790Y-61537922D01*
X112284665Y-61153480D01*
X112374868Y-60700000D01*
X112284665Y-60246520D01*
X112027790Y-59862078D01*
X111785222Y-59700000D01*
X112027790Y-59537922D01*
X112284665Y-59153480D01*
X112374868Y-58700000D01*
X112284665Y-58246520D01*
X112027790Y-57862078D01*
X111785222Y-57700000D01*
X112027790Y-57537922D01*
X112284665Y-57153480D01*
X112374868Y-56700000D01*
X112284665Y-56246520D01*
X112027790Y-55862078D01*
X111785222Y-55700000D01*
X112027790Y-55537922D01*
X112284665Y-55153480D01*
X112337538Y-54887670D01*
X112530000Y-55080132D01*
X112530000Y-68744868D01*
X105242434Y-76032434D01*
X104996397Y-76400654D01*
X104910000Y-76835000D01*
X104910000Y-78878324D01*
X104660474Y-79251766D01*
X104546400Y-79825255D01*
X104546400Y-80194745D01*
X104660474Y-80768234D01*
X104985330Y-81254415D01*
X105471511Y-81579271D01*
X106045000Y-81693345D01*
X106618489Y-81579271D01*
X107104670Y-81254415D01*
X107315000Y-80939634D01*
X107525330Y-81254415D01*
X108011511Y-81579271D01*
X108585000Y-81693345D01*
X109158489Y-81579271D01*
X109644670Y-81254415D01*
X109855000Y-80939634D01*
X110065330Y-81254415D01*
X110551511Y-81579271D01*
X111125000Y-81693345D01*
X111698489Y-81579271D01*
X112184670Y-81254415D01*
X112395000Y-80939634D01*
X112605330Y-81254415D01*
X113091511Y-81579271D01*
X113665000Y-81693345D01*
X114238489Y-81579271D01*
X114724670Y-81254415D01*
X114935000Y-80939634D01*
X115145330Y-81254415D01*
X115631511Y-81579271D01*
X116205000Y-81693345D01*
X116778489Y-81579271D01*
X117264670Y-81254415D01*
X117274243Y-81240087D01*
X117278238Y-81261317D01*
X117417310Y-81477441D01*
X117629510Y-81622431D01*
X117881400Y-81673440D01*
X119608600Y-81673440D01*
X119843917Y-81629162D01*
X120060041Y-81490090D01*
X120205031Y-81277890D01*
X120256040Y-81026000D01*
X120256040Y-78994000D01*
X120211762Y-78758683D01*
X120072690Y-78542559D01*
X119860490Y-78397569D01*
X119608600Y-78346560D01*
X117881400Y-78346560D01*
X117646083Y-78390838D01*
X117429959Y-78529910D01*
X117284969Y-78742110D01*
X117276600Y-78783439D01*
X117264670Y-78765585D01*
X116778489Y-78440729D01*
X116205000Y-78326655D01*
X115631511Y-78440729D01*
X115145330Y-78765585D01*
X114935000Y-79080366D01*
X114724670Y-78765585D01*
X114493349Y-78611021D01*
X114467566Y-78572434D01*
X114099346Y-78326397D01*
X113665000Y-78240000D01*
X113230654Y-78326397D01*
X112862434Y-78572434D01*
X112836651Y-78611021D01*
X112605330Y-78765585D01*
X112395000Y-79080366D01*
X112260000Y-78878324D01*
X112260000Y-78575132D01*
X119547566Y-71287566D01*
X119793603Y-70919346D01*
X119797729Y-70898603D01*
X119880000Y-70485000D01*
X119880000Y-67009744D01*
X123306197Y-67009744D01*
X123306602Y-67036146D01*
X123522276Y-67448118D01*
X123879187Y-67746196D01*
X124323000Y-67885000D01*
X125173000Y-67885000D01*
X125173000Y-66827000D01*
X125427000Y-66827000D01*
X125427000Y-67885000D01*
X126277000Y-67885000D01*
X126720813Y-67746196D01*
X127077724Y-67448118D01*
X127293398Y-67036146D01*
X127293803Y-67009744D01*
X127168361Y-66827000D01*
X125427000Y-66827000D01*
X125173000Y-66827000D01*
X123431639Y-66827000D01*
X123306197Y-67009744D01*
X119880000Y-67009744D01*
X119880000Y-56530132D01*
X120575133Y-55835000D01*
X123612735Y-55835000D01*
X123572210Y-55862078D01*
X123315335Y-56246520D01*
X123225132Y-56700000D01*
X123315335Y-57153480D01*
X123572210Y-57537922D01*
X123814778Y-57700000D01*
X123572210Y-57862078D01*
X123315335Y-58246520D01*
X123225132Y-58700000D01*
X123315335Y-59153480D01*
X123572210Y-59537922D01*
X123814778Y-59700000D01*
X123572210Y-59862078D01*
X123315335Y-60246520D01*
X123225132Y-60700000D01*
X123315335Y-61153480D01*
X123572210Y-61537922D01*
X123814778Y-61700000D01*
X123572210Y-61862078D01*
X123315335Y-62246520D01*
X123225132Y-62700000D01*
X123315335Y-63153480D01*
X123572210Y-63537922D01*
X123814778Y-63700000D01*
X123572210Y-63862078D01*
X123315335Y-64246520D01*
X123225132Y-64700000D01*
X123315335Y-65153480D01*
X123572210Y-65537922D01*
X123819831Y-65703376D01*
X123522276Y-65951882D01*
X123306602Y-66363854D01*
X123306197Y-66390256D01*
X123431639Y-66573000D01*
X125173000Y-66573000D01*
X125173000Y-66553000D01*
X125427000Y-66553000D01*
X125427000Y-66573000D01*
X127168361Y-66573000D01*
X127293803Y-66390256D01*
X127293398Y-66363854D01*
X127077724Y-65951882D01*
X126937772Y-65835000D01*
X130198638Y-65835000D01*
X130517927Y-66154846D01*
X131118453Y-66404206D01*
X131768694Y-66404774D01*
X132369655Y-66156462D01*
X132829846Y-65697073D01*
X133079206Y-65096547D01*
X133079774Y-64446306D01*
X132831462Y-63845345D01*
X132372073Y-63385154D01*
X131771547Y-63135794D01*
X131121306Y-63135226D01*
X130520345Y-63383538D01*
X130338566Y-63565000D01*
X126987265Y-63565000D01*
X127027790Y-63537922D01*
X127284665Y-63153480D01*
X127374868Y-62700000D01*
X127284665Y-62246520D01*
X127027790Y-61862078D01*
X126785222Y-61700000D01*
X127027790Y-61537922D01*
X127027942Y-61537694D01*
X178451226Y-61537694D01*
X178699538Y-62138655D01*
X179158927Y-62598846D01*
X179759453Y-62848206D01*
X180409694Y-62848774D01*
X181010655Y-62600462D01*
X181262556Y-62349000D01*
X181393868Y-62349000D01*
X183928772Y-64883904D01*
X183821029Y-65041590D01*
X183770020Y-65293480D01*
X183770020Y-67293480D01*
X183814298Y-67528797D01*
X183953370Y-67744921D01*
X184165570Y-67889911D01*
X184182460Y-67893331D01*
X184182460Y-69848986D01*
X182749446Y-71282000D01*
X182401620Y-71282000D01*
X182384890Y-71270569D01*
X182133000Y-71219560D01*
X180833000Y-71219560D01*
X180597683Y-71263838D01*
X180381559Y-71402910D01*
X180304063Y-71516329D01*
X180202410Y-71617982D01*
X180146729Y-71387389D01*
X179663922Y-71219378D01*
X179153572Y-71248917D01*
X178819271Y-71387389D01*
X178763590Y-71617984D01*
X179483000Y-72337395D01*
X179497142Y-72323252D01*
X179676748Y-72502858D01*
X179662605Y-72517000D01*
X179676748Y-72531142D01*
X179497142Y-72710748D01*
X179483000Y-72696605D01*
X178763590Y-73416016D01*
X178819271Y-73646611D01*
X179302078Y-73814622D01*
X179812428Y-73785083D01*
X180146729Y-73646611D01*
X180202410Y-73416018D01*
X180304072Y-73517680D01*
X180368910Y-73618441D01*
X180581110Y-73763431D01*
X180833000Y-73814440D01*
X182133000Y-73814440D01*
X182368317Y-73770162D01*
X182396542Y-73752000D01*
X183261000Y-73752000D01*
X183733614Y-73657991D01*
X184134277Y-73390277D01*
X184182460Y-73342094D01*
X184182460Y-78427601D01*
X183780722Y-78828637D01*
X183531284Y-79429352D01*
X183530716Y-80079795D01*
X183779106Y-80680943D01*
X184238637Y-81141278D01*
X184839352Y-81390716D01*
X185489795Y-81391284D01*
X186090943Y-81142894D01*
X186551278Y-80683363D01*
X186800716Y-80082648D01*
X186801284Y-79432205D01*
X186652460Y-79072024D01*
X186652460Y-67896702D01*
X186652777Y-67896642D01*
X186868901Y-67757570D01*
X187013891Y-67545370D01*
X187064900Y-67293480D01*
X187064900Y-65293480D01*
X187020622Y-65058163D01*
X186881550Y-64842039D01*
X186669350Y-64697049D01*
X186532960Y-64669429D01*
X186466063Y-64333114D01*
X186220026Y-63964894D01*
X182666566Y-60411434D01*
X182480228Y-60286927D01*
X182298346Y-60165397D01*
X181864000Y-60079000D01*
X181262484Y-60079000D01*
X181013073Y-59829154D01*
X180412547Y-59579794D01*
X179762306Y-59579226D01*
X179161345Y-59827538D01*
X178701154Y-60286927D01*
X178451794Y-60887453D01*
X178451226Y-61537694D01*
X127027942Y-61537694D01*
X127284665Y-61153480D01*
X127374868Y-60700000D01*
X127284665Y-60246520D01*
X127027790Y-59862078D01*
X126785222Y-59700000D01*
X127027790Y-59537922D01*
X127284665Y-59153480D01*
X127374868Y-58700000D01*
X127284665Y-58246520D01*
X127027790Y-57862078D01*
X126785222Y-57700000D01*
X127027790Y-57537922D01*
X127284665Y-57153480D01*
X127374868Y-56700000D01*
X127284665Y-56246520D01*
X127027790Y-55862078D01*
X126878256Y-55762163D01*
X130472443Y-55762163D01*
X130571042Y-56028965D01*
X131180582Y-56255401D01*
X131830377Y-56231341D01*
X132318958Y-56028965D01*
X132417557Y-55762163D01*
X131445000Y-54789605D01*
X130472443Y-55762163D01*
X126878256Y-55762163D01*
X126785222Y-55700000D01*
X127027790Y-55537922D01*
X127284665Y-55153480D01*
X127374868Y-54700000D01*
X127304370Y-54345582D01*
X129799599Y-54345582D01*
X129823659Y-54995377D01*
X130026035Y-55483958D01*
X130292837Y-55582557D01*
X131265395Y-54610000D01*
X131624605Y-54610000D01*
X132597163Y-55582557D01*
X132863965Y-55483958D01*
X133090401Y-54874418D01*
X133066341Y-54224623D01*
X132863965Y-53736042D01*
X132597163Y-53637443D01*
X131624605Y-54610000D01*
X131265395Y-54610000D01*
X130292837Y-53637443D01*
X130026035Y-53736042D01*
X129799599Y-54345582D01*
X127304370Y-54345582D01*
X127284665Y-54246520D01*
X127027790Y-53862078D01*
X126785222Y-53700000D01*
X127027790Y-53537922D01*
X127081300Y-53457837D01*
X130472443Y-53457837D01*
X131445000Y-54430395D01*
X132417557Y-53457837D01*
X132318958Y-53191035D01*
X131709418Y-52964599D01*
X131059623Y-52988659D01*
X130571042Y-53191035D01*
X130472443Y-53457837D01*
X127081300Y-53457837D01*
X127284665Y-53153480D01*
X127374868Y-52700000D01*
X127284665Y-52246520D01*
X127251577Y-52197000D01*
X128905000Y-52197000D01*
X128951159Y-52188315D01*
X128993553Y-52161035D01*
X129021994Y-52119410D01*
X129032000Y-52070000D01*
X129032000Y-49907265D01*
X153542670Y-49907265D01*
X153832078Y-50607686D01*
X154367495Y-51144039D01*
X155067410Y-51434668D01*
X155825265Y-51435330D01*
X156525686Y-51145922D01*
X157062039Y-50610505D01*
X157352668Y-49910590D01*
X157353330Y-49152735D01*
X157063922Y-48452314D01*
X156871944Y-48260000D01*
X158610560Y-48260000D01*
X158610560Y-50800000D01*
X158654838Y-51035317D01*
X158793910Y-51251441D01*
X159006110Y-51396431D01*
X159258000Y-51447440D01*
X161798000Y-51447440D01*
X162033317Y-51403162D01*
X162249441Y-51264090D01*
X162394431Y-51051890D01*
X162445440Y-50800000D01*
X162445440Y-49907265D01*
X163702670Y-49907265D01*
X163992078Y-50607686D01*
X164527495Y-51144039D01*
X165227410Y-51434668D01*
X165985265Y-51435330D01*
X166685686Y-51145922D01*
X167222039Y-50610505D01*
X167512668Y-49910590D01*
X167513330Y-49152735D01*
X167223922Y-48452314D01*
X167031944Y-48260000D01*
X168770560Y-48260000D01*
X168770560Y-50800000D01*
X168814838Y-51035317D01*
X168953910Y-51251441D01*
X169166110Y-51396431D01*
X169418000Y-51447440D01*
X171958000Y-51447440D01*
X172193317Y-51403162D01*
X172409441Y-51264090D01*
X172554431Y-51051890D01*
X172589689Y-50877777D01*
X179171828Y-50877777D01*
X179303520Y-51172657D01*
X180011036Y-51444261D01*
X180768632Y-51424436D01*
X181376480Y-51172657D01*
X181508172Y-50877777D01*
X180340000Y-49709605D01*
X179171828Y-50877777D01*
X172589689Y-50877777D01*
X172605440Y-50800000D01*
X172605440Y-49201036D01*
X178425739Y-49201036D01*
X178445564Y-49958632D01*
X178697343Y-50566480D01*
X178992223Y-50698172D01*
X180160395Y-49530000D01*
X180519605Y-49530000D01*
X181687777Y-50698172D01*
X181982657Y-50566480D01*
X182254261Y-49858964D01*
X182234436Y-49101368D01*
X181982657Y-48493520D01*
X181687777Y-48361828D01*
X180519605Y-49530000D01*
X180160395Y-49530000D01*
X178992223Y-48361828D01*
X178697343Y-48493520D01*
X178425739Y-49201036D01*
X172605440Y-49201036D01*
X172605440Y-48260000D01*
X172590806Y-48182223D01*
X179171828Y-48182223D01*
X180340000Y-49350395D01*
X181430395Y-48260000D01*
X183502560Y-48260000D01*
X183502560Y-50800000D01*
X183546838Y-51035317D01*
X183685910Y-51251441D01*
X183898110Y-51396431D01*
X184150000Y-51447440D01*
X184185000Y-51447440D01*
X184185000Y-55053566D01*
X184032182Y-55206117D01*
X183782744Y-55806832D01*
X183782176Y-56457275D01*
X184030566Y-57058423D01*
X184490097Y-57518758D01*
X185090812Y-57768196D01*
X185741255Y-57768764D01*
X186342403Y-57520374D01*
X186802738Y-57060843D01*
X187052176Y-56460128D01*
X187052744Y-55809685D01*
X186804354Y-55208537D01*
X186655000Y-55058922D01*
X186655000Y-51447440D01*
X186690000Y-51447440D01*
X186925317Y-51403162D01*
X187141441Y-51264090D01*
X187286431Y-51051890D01*
X187337440Y-50800000D01*
X187337440Y-48260000D01*
X187293162Y-48024683D01*
X187154090Y-47808559D01*
X186941890Y-47663569D01*
X186690000Y-47612560D01*
X184150000Y-47612560D01*
X183914683Y-47656838D01*
X183698559Y-47795910D01*
X183553569Y-48008110D01*
X183502560Y-48260000D01*
X181430395Y-48260000D01*
X181508172Y-48182223D01*
X181376480Y-47887343D01*
X180668964Y-47615739D01*
X179911368Y-47635564D01*
X179303520Y-47887343D01*
X179171828Y-48182223D01*
X172590806Y-48182223D01*
X172561162Y-48024683D01*
X172422090Y-47808559D01*
X172209890Y-47663569D01*
X171958000Y-47612560D01*
X169418000Y-47612560D01*
X169182683Y-47656838D01*
X168966559Y-47795910D01*
X168821569Y-48008110D01*
X168770560Y-48260000D01*
X167031944Y-48260000D01*
X166688505Y-47915961D01*
X165988590Y-47625332D01*
X165230735Y-47624670D01*
X164530314Y-47914078D01*
X163993961Y-48449495D01*
X163703332Y-49149410D01*
X163702670Y-49907265D01*
X162445440Y-49907265D01*
X162445440Y-48260000D01*
X162401162Y-48024683D01*
X162262090Y-47808559D01*
X162049890Y-47663569D01*
X161798000Y-47612560D01*
X159258000Y-47612560D01*
X159022683Y-47656838D01*
X158806559Y-47795910D01*
X158661569Y-48008110D01*
X158610560Y-48260000D01*
X156871944Y-48260000D01*
X156528505Y-47915961D01*
X155828590Y-47625332D01*
X155070735Y-47624670D01*
X154370314Y-47914078D01*
X153833961Y-48449495D01*
X153543332Y-49149410D01*
X153542670Y-49907265D01*
X129032000Y-49907265D01*
X129032000Y-44310000D01*
X189690000Y-44310000D01*
X189690000Y-128790000D01*
X89762000Y-128790000D01*
X89762000Y-122174000D01*
X91554560Y-122174000D01*
X91554560Y-124714000D01*
X91598838Y-124949317D01*
X91737910Y-125165441D01*
X91950110Y-125310431D01*
X92202000Y-125361440D01*
X94742000Y-125361440D01*
X94977317Y-125317162D01*
X95193441Y-125178090D01*
X95338431Y-124965890D01*
X95389440Y-124714000D01*
X95389440Y-123821265D01*
X96646670Y-123821265D01*
X96936078Y-124521686D01*
X97471495Y-125058039D01*
X98171410Y-125348668D01*
X98929265Y-125349330D01*
X99629686Y-125059922D01*
X100166039Y-124524505D01*
X100456668Y-123824590D01*
X100457330Y-123066735D01*
X100167922Y-122366314D01*
X99975944Y-122174000D01*
X101587560Y-122174000D01*
X101587560Y-124714000D01*
X101631838Y-124949317D01*
X101770910Y-125165441D01*
X101983110Y-125310431D01*
X102235000Y-125361440D01*
X104775000Y-125361440D01*
X105010317Y-125317162D01*
X105226441Y-125178090D01*
X105371431Y-124965890D01*
X105422440Y-124714000D01*
X105422440Y-123821265D01*
X106679670Y-123821265D01*
X106969078Y-124521686D01*
X107504495Y-125058039D01*
X108204410Y-125348668D01*
X108962265Y-125349330D01*
X109662686Y-125059922D01*
X110199039Y-124524505D01*
X110489668Y-123824590D01*
X110490330Y-123066735D01*
X110200922Y-122366314D01*
X110008944Y-122174000D01*
X111620560Y-122174000D01*
X111620560Y-124714000D01*
X111664838Y-124949317D01*
X111803910Y-125165441D01*
X112016110Y-125310431D01*
X112268000Y-125361440D01*
X114808000Y-125361440D01*
X115043317Y-125317162D01*
X115259441Y-125178090D01*
X115404431Y-124965890D01*
X115455440Y-124714000D01*
X115455440Y-123821265D01*
X116712670Y-123821265D01*
X117002078Y-124521686D01*
X117537495Y-125058039D01*
X118237410Y-125348668D01*
X118995265Y-125349330D01*
X119695686Y-125059922D01*
X120232039Y-124524505D01*
X120522668Y-123824590D01*
X120523330Y-123066735D01*
X120233922Y-122366314D01*
X120041944Y-122174000D01*
X148450560Y-122174000D01*
X148450560Y-124714000D01*
X148494838Y-124949317D01*
X148633910Y-125165441D01*
X148846110Y-125310431D01*
X149098000Y-125361440D01*
X151638000Y-125361440D01*
X151873317Y-125317162D01*
X152089441Y-125178090D01*
X152234431Y-124965890D01*
X152285440Y-124714000D01*
X152285440Y-123821265D01*
X153542670Y-123821265D01*
X153832078Y-124521686D01*
X154367495Y-125058039D01*
X155067410Y-125348668D01*
X155825265Y-125349330D01*
X156525686Y-125059922D01*
X157062039Y-124524505D01*
X157352668Y-123824590D01*
X157353330Y-123066735D01*
X157063922Y-122366314D01*
X156871944Y-122174000D01*
X158483560Y-122174000D01*
X158483560Y-124714000D01*
X158527838Y-124949317D01*
X158666910Y-125165441D01*
X158879110Y-125310431D01*
X159131000Y-125361440D01*
X161671000Y-125361440D01*
X161906317Y-125317162D01*
X162122441Y-125178090D01*
X162267431Y-124965890D01*
X162318440Y-124714000D01*
X162318440Y-123821265D01*
X163575670Y-123821265D01*
X163865078Y-124521686D01*
X164400495Y-125058039D01*
X165100410Y-125348668D01*
X165858265Y-125349330D01*
X166558686Y-125059922D01*
X167095039Y-124524505D01*
X167385668Y-123824590D01*
X167386330Y-123066735D01*
X167096922Y-122366314D01*
X166904944Y-122174000D01*
X168516560Y-122174000D01*
X168516560Y-124714000D01*
X168560838Y-124949317D01*
X168699910Y-125165441D01*
X168912110Y-125310431D01*
X169164000Y-125361440D01*
X171704000Y-125361440D01*
X171939317Y-125317162D01*
X172155441Y-125178090D01*
X172300431Y-124965890D01*
X172351440Y-124714000D01*
X172351440Y-123821265D01*
X173608670Y-123821265D01*
X173898078Y-124521686D01*
X174433495Y-125058039D01*
X175133410Y-125348668D01*
X175891265Y-125349330D01*
X176591686Y-125059922D01*
X177128039Y-124524505D01*
X177418668Y-123824590D01*
X177419330Y-123066735D01*
X177129922Y-122366314D01*
X176594505Y-121829961D01*
X175894590Y-121539332D01*
X175136735Y-121538670D01*
X174436314Y-121828078D01*
X173899961Y-122363495D01*
X173609332Y-123063410D01*
X173608670Y-123821265D01*
X172351440Y-123821265D01*
X172351440Y-122174000D01*
X172307162Y-121938683D01*
X172168090Y-121722559D01*
X171955890Y-121577569D01*
X171704000Y-121526560D01*
X169164000Y-121526560D01*
X168928683Y-121570838D01*
X168712559Y-121709910D01*
X168567569Y-121922110D01*
X168516560Y-122174000D01*
X166904944Y-122174000D01*
X166561505Y-121829961D01*
X165861590Y-121539332D01*
X165103735Y-121538670D01*
X164403314Y-121828078D01*
X163866961Y-122363495D01*
X163576332Y-123063410D01*
X163575670Y-123821265D01*
X162318440Y-123821265D01*
X162318440Y-122174000D01*
X162274162Y-121938683D01*
X162135090Y-121722559D01*
X161922890Y-121577569D01*
X161671000Y-121526560D01*
X159131000Y-121526560D01*
X158895683Y-121570838D01*
X158679559Y-121709910D01*
X158534569Y-121922110D01*
X158483560Y-122174000D01*
X156871944Y-122174000D01*
X156528505Y-121829961D01*
X155828590Y-121539332D01*
X155070735Y-121538670D01*
X154370314Y-121828078D01*
X153833961Y-122363495D01*
X153543332Y-123063410D01*
X153542670Y-123821265D01*
X152285440Y-123821265D01*
X152285440Y-122174000D01*
X152241162Y-121938683D01*
X152102090Y-121722559D01*
X151889890Y-121577569D01*
X151638000Y-121526560D01*
X149098000Y-121526560D01*
X148862683Y-121570838D01*
X148646559Y-121709910D01*
X148501569Y-121922110D01*
X148450560Y-122174000D01*
X120041944Y-122174000D01*
X119698505Y-121829961D01*
X118998590Y-121539332D01*
X118240735Y-121538670D01*
X117540314Y-121828078D01*
X117003961Y-122363495D01*
X116713332Y-123063410D01*
X116712670Y-123821265D01*
X115455440Y-123821265D01*
X115455440Y-122174000D01*
X115411162Y-121938683D01*
X115272090Y-121722559D01*
X115059890Y-121577569D01*
X114808000Y-121526560D01*
X112268000Y-121526560D01*
X112032683Y-121570838D01*
X111816559Y-121709910D01*
X111671569Y-121922110D01*
X111620560Y-122174000D01*
X110008944Y-122174000D01*
X109665505Y-121829961D01*
X108965590Y-121539332D01*
X108207735Y-121538670D01*
X107507314Y-121828078D01*
X106970961Y-122363495D01*
X106680332Y-123063410D01*
X106679670Y-123821265D01*
X105422440Y-123821265D01*
X105422440Y-122174000D01*
X105378162Y-121938683D01*
X105239090Y-121722559D01*
X105026890Y-121577569D01*
X104775000Y-121526560D01*
X102235000Y-121526560D01*
X101999683Y-121570838D01*
X101783559Y-121709910D01*
X101638569Y-121922110D01*
X101587560Y-122174000D01*
X99975944Y-122174000D01*
X99632505Y-121829961D01*
X98932590Y-121539332D01*
X98174735Y-121538670D01*
X97474314Y-121828078D01*
X96937961Y-122363495D01*
X96647332Y-123063410D01*
X96646670Y-123821265D01*
X95389440Y-123821265D01*
X95389440Y-122174000D01*
X95345162Y-121938683D01*
X95206090Y-121722559D01*
X94993890Y-121577569D01*
X94742000Y-121526560D01*
X92202000Y-121526560D01*
X91966683Y-121570838D01*
X91750559Y-121709910D01*
X91605569Y-121922110D01*
X91554560Y-122174000D01*
X89762000Y-122174000D01*
X89762000Y-109151167D01*
X94441838Y-109151167D01*
X94583883Y-109494943D01*
X94846673Y-109758192D01*
X95190201Y-109900838D01*
X95562167Y-109901162D01*
X95905943Y-109759117D01*
X96169192Y-109496327D01*
X96311838Y-109152799D01*
X96312162Y-108780833D01*
X96312000Y-108780441D01*
X96312000Y-105162290D01*
X101626145Y-99848145D01*
X101828827Y-99544809D01*
X101900000Y-99187000D01*
X101900000Y-96900005D01*
X102063917Y-96869162D01*
X102280041Y-96730090D01*
X102425031Y-96517890D01*
X102433400Y-96476561D01*
X102445330Y-96494415D01*
X102570000Y-96577717D01*
X102570000Y-97536000D01*
X102641173Y-97893809D01*
X102843855Y-98197145D01*
X104348000Y-99701290D01*
X104348000Y-108965184D01*
X104347838Y-109151167D01*
X104489883Y-109494943D01*
X104752673Y-109758192D01*
X105096201Y-109900838D01*
X105468167Y-109901162D01*
X105811943Y-109759117D01*
X106075192Y-109496327D01*
X106217838Y-109152799D01*
X106218162Y-108780833D01*
X106218000Y-108780441D01*
X106218000Y-99314000D01*
X106179337Y-99119627D01*
X114508000Y-107448290D01*
X114508000Y-108965184D01*
X114507838Y-109151167D01*
X114649883Y-109494943D01*
X114912673Y-109758192D01*
X115256201Y-109900838D01*
X115628167Y-109901162D01*
X115971943Y-109759117D01*
X116235192Y-109496327D01*
X116377838Y-109152799D01*
X116378162Y-108780833D01*
X116378000Y-108780441D01*
X116378000Y-107061000D01*
X116306827Y-106703191D01*
X116104145Y-106399855D01*
X106980000Y-97275710D01*
X106980000Y-96577717D01*
X107104670Y-96494415D01*
X107315000Y-96179634D01*
X107525330Y-96494415D01*
X107650000Y-96577717D01*
X107650000Y-97155000D01*
X107721173Y-97512809D01*
X107923855Y-97816145D01*
X114527855Y-104420145D01*
X114831191Y-104622827D01*
X115189000Y-104694000D01*
X149218710Y-104694000D01*
X151211000Y-106686290D01*
X151211000Y-108965184D01*
X151210838Y-109151167D01*
X151352883Y-109494943D01*
X151615673Y-109758192D01*
X151959201Y-109900838D01*
X152331167Y-109901162D01*
X152674943Y-109759117D01*
X152938192Y-109496327D01*
X153080838Y-109152799D01*
X153081162Y-108780833D01*
X153081000Y-108780441D01*
X153081000Y-106299000D01*
X153009827Y-105941191D01*
X152807145Y-105637855D01*
X150267145Y-103097855D01*
X149963809Y-102895173D01*
X149606000Y-102824000D01*
X115576290Y-102824000D01*
X115471092Y-102718802D01*
X115525556Y-102729636D01*
X115824000Y-102789001D01*
X115824005Y-102789000D01*
X156965710Y-102789000D01*
X161244000Y-107067290D01*
X161244000Y-108965184D01*
X161243838Y-109151167D01*
X161385883Y-109494943D01*
X161648673Y-109758192D01*
X161992201Y-109900838D01*
X162364167Y-109901162D01*
X162707943Y-109759117D01*
X162971192Y-109496327D01*
X163113838Y-109152799D01*
X163114162Y-108780833D01*
X163114000Y-108780441D01*
X163114000Y-106680000D01*
X163042827Y-106322191D01*
X162840145Y-106018855D01*
X158014145Y-101192855D01*
X157741979Y-101011000D01*
X165347710Y-101011000D01*
X171531000Y-107194289D01*
X171531000Y-108965184D01*
X171530838Y-109151167D01*
X171672883Y-109494943D01*
X171935673Y-109758192D01*
X172279201Y-109900838D01*
X172651167Y-109901162D01*
X172994943Y-109759117D01*
X173258192Y-109496327D01*
X173400838Y-109152799D01*
X173401162Y-108780833D01*
X173401000Y-108780441D01*
X173401000Y-106807000D01*
X173329827Y-106449191D01*
X173127145Y-106145855D01*
X173127142Y-106145853D01*
X166396145Y-99414855D01*
X166092809Y-99212173D01*
X165735000Y-99141000D01*
X116973290Y-99141000D01*
X114600000Y-96767710D01*
X114600000Y-96577717D01*
X114724670Y-96494415D01*
X114935000Y-96179634D01*
X115145330Y-96494415D01*
X115631511Y-96819271D01*
X116205000Y-96933345D01*
X116778489Y-96819271D01*
X117264670Y-96494415D01*
X117475000Y-96179634D01*
X117685330Y-96494415D01*
X118171511Y-96819271D01*
X118745000Y-96933345D01*
X119318489Y-96819271D01*
X119804670Y-96494415D01*
X119814243Y-96480087D01*
X119818238Y-96501317D01*
X119957310Y-96717441D01*
X120169510Y-96862431D01*
X120421400Y-96913440D01*
X122148600Y-96913440D01*
X122383917Y-96869162D01*
X122600041Y-96730090D01*
X122745031Y-96517890D01*
X122753400Y-96476561D01*
X122765330Y-96494415D01*
X123251511Y-96819271D01*
X123825000Y-96933345D01*
X124398489Y-96819271D01*
X124884670Y-96494415D01*
X125091461Y-96184931D01*
X125462964Y-96600732D01*
X125990209Y-96854709D01*
X126005974Y-96857358D01*
X126238000Y-96736217D01*
X126238000Y-95377000D01*
X126218000Y-95377000D01*
X126218000Y-95123000D01*
X126238000Y-95123000D01*
X126238000Y-93763783D01*
X126492000Y-93763783D01*
X126492000Y-95123000D01*
X126512000Y-95123000D01*
X126512000Y-95377000D01*
X126492000Y-95377000D01*
X126492000Y-96736217D01*
X126724026Y-96857358D01*
X126739791Y-96854709D01*
X127267036Y-96600732D01*
X127638539Y-96184931D01*
X127845330Y-96494415D01*
X128331511Y-96819271D01*
X128905000Y-96933345D01*
X129478489Y-96819271D01*
X129964670Y-96494415D01*
X129970961Y-96485000D01*
X153924000Y-96485000D01*
X154396614Y-96390991D01*
X154797277Y-96123277D01*
X160155000Y-90765554D01*
X160155000Y-91914516D01*
X159905154Y-92163927D01*
X159655794Y-92764453D01*
X159655226Y-93414694D01*
X159903538Y-94015655D01*
X160362927Y-94475846D01*
X160963453Y-94725206D01*
X161613694Y-94725774D01*
X162214655Y-94477462D01*
X162576215Y-94116532D01*
X165651073Y-94116532D01*
X165749736Y-94383387D01*
X166359461Y-94609908D01*
X167009460Y-94585856D01*
X167498264Y-94383387D01*
X167596927Y-94116532D01*
X184193073Y-94116532D01*
X184291736Y-94383387D01*
X184901461Y-94609908D01*
X185551460Y-94585856D01*
X186040264Y-94383387D01*
X186138927Y-94116532D01*
X185166000Y-93143605D01*
X184193073Y-94116532D01*
X167596927Y-94116532D01*
X166624000Y-93143605D01*
X165651073Y-94116532D01*
X162576215Y-94116532D01*
X162674846Y-94018073D01*
X162924206Y-93417547D01*
X162924774Y-92767306D01*
X162896742Y-92699461D01*
X164978092Y-92699461D01*
X165002144Y-93349460D01*
X165204613Y-93838264D01*
X165471468Y-93936927D01*
X166444395Y-92964000D01*
X166803605Y-92964000D01*
X167776532Y-93936927D01*
X168043387Y-93838264D01*
X168269908Y-93228539D01*
X168250331Y-92699461D01*
X183520092Y-92699461D01*
X183544144Y-93349460D01*
X183746613Y-93838264D01*
X184013468Y-93936927D01*
X184986395Y-92964000D01*
X185345605Y-92964000D01*
X186318532Y-93936927D01*
X186585387Y-93838264D01*
X186811908Y-93228539D01*
X186787856Y-92578540D01*
X186585387Y-92089736D01*
X186318532Y-91991073D01*
X185345605Y-92964000D01*
X184986395Y-92964000D01*
X184013468Y-91991073D01*
X183746613Y-92089736D01*
X183520092Y-92699461D01*
X168250331Y-92699461D01*
X168245856Y-92578540D01*
X168043387Y-92089736D01*
X167776532Y-91991073D01*
X166803605Y-92964000D01*
X166444395Y-92964000D01*
X165471468Y-91991073D01*
X165204613Y-92089736D01*
X164978092Y-92699461D01*
X162896742Y-92699461D01*
X162676462Y-92166345D01*
X162425000Y-91914444D01*
X162425000Y-91811468D01*
X165651073Y-91811468D01*
X166624000Y-92784395D01*
X167596927Y-91811468D01*
X184193073Y-91811468D01*
X185166000Y-92784395D01*
X186138927Y-91811468D01*
X186040264Y-91544613D01*
X185430539Y-91318092D01*
X184780540Y-91342144D01*
X184291736Y-91544613D01*
X184193073Y-91811468D01*
X167596927Y-91811468D01*
X167498264Y-91544613D01*
X166888539Y-91318092D01*
X166238540Y-91342144D01*
X165749736Y-91544613D01*
X165651073Y-91811468D01*
X162425000Y-91811468D01*
X162425000Y-88495554D01*
X167497277Y-83423277D01*
X167764991Y-83022614D01*
X167859000Y-82550000D01*
X167859000Y-80991000D01*
X170180000Y-80991000D01*
X170652614Y-80896991D01*
X171053277Y-80629277D01*
X173720277Y-77962277D01*
X173987991Y-77561614D01*
X174082000Y-77089000D01*
X174082000Y-74680669D01*
X174098441Y-74670090D01*
X174243431Y-74457890D01*
X174294440Y-74206000D01*
X174294440Y-72606000D01*
X174250162Y-72370683D01*
X174227895Y-72336078D01*
X178185378Y-72336078D01*
X178214917Y-72846428D01*
X178353389Y-73180729D01*
X178583984Y-73236410D01*
X179303395Y-72517000D01*
X178583984Y-71797590D01*
X178353389Y-71853271D01*
X178185378Y-72336078D01*
X174227895Y-72336078D01*
X174111090Y-72154559D01*
X174104452Y-72150023D01*
X174293965Y-71622777D01*
X174266778Y-71052546D01*
X174100864Y-70651995D01*
X173854745Y-70577861D01*
X173026605Y-71406000D01*
X173040748Y-71420142D01*
X172861143Y-71599748D01*
X172847000Y-71585605D01*
X172832858Y-71599748D01*
X172653252Y-71420142D01*
X172667395Y-71406000D01*
X171839255Y-70577861D01*
X171593136Y-70651995D01*
X171400035Y-71189223D01*
X171427222Y-71759454D01*
X171589384Y-72150947D01*
X171450569Y-72354110D01*
X171399560Y-72606000D01*
X171399560Y-74206000D01*
X171443838Y-74441317D01*
X171582910Y-74657441D01*
X171612000Y-74677317D01*
X171612000Y-76577446D01*
X169668446Y-78521000D01*
X167701379Y-78521000D01*
X167551363Y-78370722D01*
X166950648Y-78121284D01*
X166300205Y-78120716D01*
X165699057Y-78369106D01*
X165238722Y-78828637D01*
X164989284Y-79429352D01*
X164988716Y-80079795D01*
X165237106Y-80680943D01*
X165389000Y-80833103D01*
X165389000Y-82038446D01*
X153412446Y-94015000D01*
X129970961Y-94015000D01*
X129964670Y-94005585D01*
X129478489Y-93680729D01*
X128905000Y-93566655D01*
X128331511Y-93680729D01*
X127845330Y-94005585D01*
X127638539Y-94315069D01*
X127267036Y-93899268D01*
X126739791Y-93645291D01*
X126724026Y-93642642D01*
X126492000Y-93763783D01*
X126238000Y-93763783D01*
X126005974Y-93642642D01*
X125990209Y-93645291D01*
X125462964Y-93899268D01*
X125091461Y-94315069D01*
X124884670Y-94005585D01*
X124398489Y-93680729D01*
X123825000Y-93566655D01*
X123251511Y-93680729D01*
X122765330Y-94005585D01*
X122755757Y-94019913D01*
X122751762Y-93998683D01*
X122612690Y-93782559D01*
X122400490Y-93637569D01*
X122148600Y-93586560D01*
X120421400Y-93586560D01*
X120186083Y-93630838D01*
X119969959Y-93769910D01*
X119824969Y-93982110D01*
X119816600Y-94023439D01*
X119804670Y-94005585D01*
X119680000Y-93922283D01*
X119680000Y-92843290D01*
X120656290Y-91867000D01*
X148082000Y-91867000D01*
X148439809Y-91795827D01*
X148743145Y-91593145D01*
X169571145Y-70765145D01*
X169773827Y-70461809D01*
X169786468Y-70398255D01*
X172018861Y-70398255D01*
X172847000Y-71226395D01*
X173675139Y-70398255D01*
X173601005Y-70152136D01*
X173063777Y-69959035D01*
X172493546Y-69986222D01*
X172092995Y-70152136D01*
X172018861Y-70398255D01*
X169786468Y-70398255D01*
X169845000Y-70104000D01*
X169845000Y-63881816D01*
X169845162Y-63695833D01*
X169703117Y-63352057D01*
X169440327Y-63088808D01*
X169096799Y-62946162D01*
X168724833Y-62945838D01*
X168381057Y-63087883D01*
X168117808Y-63350673D01*
X167975162Y-63694201D01*
X167974838Y-64066167D01*
X167975000Y-64066559D01*
X167975000Y-69716710D01*
X147694710Y-89997000D01*
X120269000Y-89997000D01*
X119911191Y-90068173D01*
X119607855Y-90270855D01*
X118083855Y-91794855D01*
X117881173Y-92098191D01*
X117810000Y-92456000D01*
X117810000Y-93922283D01*
X117685330Y-94005585D01*
X117475000Y-94320366D01*
X117264670Y-94005585D01*
X117140000Y-93922283D01*
X117140000Y-92335290D01*
X119513290Y-89962000D01*
X147320000Y-89962000D01*
X147677809Y-89890827D01*
X147981145Y-89688145D01*
X159284145Y-78385145D01*
X159486827Y-78081809D01*
X159558000Y-77724000D01*
X159558000Y-63881816D01*
X159558162Y-63695833D01*
X159416117Y-63352057D01*
X159153327Y-63088808D01*
X158809799Y-62946162D01*
X158437833Y-62945838D01*
X158094057Y-63087883D01*
X157830808Y-63350673D01*
X157688162Y-63694201D01*
X157687838Y-64066167D01*
X157688000Y-64066559D01*
X157688000Y-77336710D01*
X146932710Y-88092000D01*
X119126000Y-88092000D01*
X118768191Y-88163173D01*
X118464855Y-88365855D01*
X115543855Y-91286855D01*
X115341173Y-91590191D01*
X115270000Y-91948000D01*
X115270000Y-93922283D01*
X115145330Y-94005585D01*
X114935000Y-94320366D01*
X114724670Y-94005585D01*
X114600000Y-93922283D01*
X114600000Y-91700290D01*
X118751290Y-87549000D01*
X135636000Y-87549000D01*
X135993809Y-87477827D01*
X136297145Y-87275145D01*
X137996264Y-85576026D01*
X143426642Y-85576026D01*
X143429291Y-85591791D01*
X143683268Y-86119036D01*
X144119680Y-86508954D01*
X144672087Y-86702184D01*
X144907000Y-86557924D01*
X144907000Y-85344000D01*
X145161000Y-85344000D01*
X145161000Y-86557924D01*
X145395913Y-86702184D01*
X145948320Y-86508954D01*
X146384732Y-86119036D01*
X146638709Y-85591791D01*
X146641358Y-85576026D01*
X146520217Y-85344000D01*
X145161000Y-85344000D01*
X144907000Y-85344000D01*
X143547783Y-85344000D01*
X143426642Y-85576026D01*
X137996264Y-85576026D01*
X142500290Y-81072000D01*
X143706283Y-81072000D01*
X143789585Y-81196670D01*
X144104366Y-81407000D01*
X143789585Y-81617330D01*
X143464729Y-82103511D01*
X143350655Y-82677000D01*
X143464729Y-83250489D01*
X143789585Y-83736670D01*
X144099069Y-83943461D01*
X143683268Y-84314964D01*
X143429291Y-84842209D01*
X143426642Y-84857974D01*
X143547783Y-85090000D01*
X144907000Y-85090000D01*
X144907000Y-85070000D01*
X145161000Y-85070000D01*
X145161000Y-85090000D01*
X146520217Y-85090000D01*
X146641358Y-84857974D01*
X146638709Y-84842209D01*
X146384732Y-84314964D01*
X145968931Y-83943461D01*
X146278415Y-83736670D01*
X146603271Y-83250489D01*
X146717345Y-82677000D01*
X146603271Y-82103511D01*
X146278415Y-81617330D01*
X145963634Y-81407000D01*
X146278415Y-81196670D01*
X146603271Y-80710489D01*
X146717345Y-80137000D01*
X146603271Y-79563511D01*
X146278415Y-79077330D01*
X146264087Y-79067757D01*
X146285317Y-79063762D01*
X146501441Y-78924690D01*
X146646431Y-78712490D01*
X146697440Y-78460600D01*
X146697440Y-76733400D01*
X146653162Y-76498083D01*
X146514090Y-76281959D01*
X146301890Y-76136969D01*
X146050000Y-76085960D01*
X144018000Y-76085960D01*
X143782683Y-76130238D01*
X143566559Y-76269310D01*
X143421569Y-76481510D01*
X143385019Y-76662000D01*
X141859000Y-76662000D01*
X141501191Y-76733173D01*
X141197855Y-76935855D01*
X134486710Y-83647000D01*
X117729000Y-83647000D01*
X117371191Y-83718173D01*
X117067855Y-83920855D01*
X110463855Y-90524855D01*
X110261173Y-90828191D01*
X110190000Y-91186000D01*
X110190000Y-93922283D01*
X110065330Y-94005585D01*
X109855000Y-94320366D01*
X109644670Y-94005585D01*
X109158489Y-93680729D01*
X108585000Y-93566655D01*
X108011511Y-93680729D01*
X107525330Y-94005585D01*
X107315000Y-94320366D01*
X107104670Y-94005585D01*
X106618489Y-93680729D01*
X106045000Y-93566655D01*
X105471511Y-93680729D01*
X104985330Y-94005585D01*
X104775000Y-94320366D01*
X104564670Y-94005585D01*
X104078489Y-93680729D01*
X103505000Y-93566655D01*
X102931511Y-93680729D01*
X102445330Y-94005585D01*
X102435757Y-94019913D01*
X102431762Y-93998683D01*
X102292690Y-93782559D01*
X102080490Y-93637569D01*
X101828600Y-93586560D01*
X100101400Y-93586560D01*
X99866083Y-93630838D01*
X99649959Y-93769910D01*
X99504969Y-93982110D01*
X99453960Y-94234000D01*
X99453960Y-96266000D01*
X99498238Y-96501317D01*
X99637310Y-96717441D01*
X99849510Y-96862431D01*
X100030000Y-96898981D01*
X100030000Y-98799710D01*
X94715855Y-104113855D01*
X94513173Y-104417191D01*
X94442000Y-104775000D01*
X94442000Y-108965184D01*
X94441838Y-109151167D01*
X89762000Y-109151167D01*
X89762000Y-65657056D01*
X96184025Y-65657056D01*
X96303164Y-65913000D01*
X97917000Y-65913000D01*
X97917000Y-64389000D01*
X98171000Y-64389000D01*
X98171000Y-65913000D01*
X99784836Y-65913000D01*
X99903975Y-65657056D01*
X99871926Y-65525523D01*
X99555236Y-64962370D01*
X99047143Y-64563276D01*
X98425000Y-64389000D01*
X98171000Y-64389000D01*
X97917000Y-64389000D01*
X97663000Y-64389000D01*
X97040857Y-64563276D01*
X96532764Y-64962370D01*
X96216074Y-65525523D01*
X96184025Y-65657056D01*
X89762000Y-65657056D01*
X89762000Y-54427745D01*
X92643861Y-54427745D01*
X92717995Y-54673864D01*
X93255223Y-54866965D01*
X93825454Y-54839778D01*
X94226005Y-54673864D01*
X94276873Y-54504984D01*
X97832590Y-54504984D01*
X98552000Y-55224395D01*
X99271410Y-54504984D01*
X99215729Y-54274389D01*
X98732922Y-54106378D01*
X98222572Y-54135917D01*
X97888271Y-54274389D01*
X97832590Y-54504984D01*
X94276873Y-54504984D01*
X94300139Y-54427745D01*
X93472000Y-53599605D01*
X92643861Y-54427745D01*
X89762000Y-54427745D01*
X89762000Y-53203223D01*
X92025035Y-53203223D01*
X92052222Y-53773454D01*
X92218136Y-54174005D01*
X92464255Y-54248139D01*
X93292395Y-53420000D01*
X93651605Y-53420000D01*
X94479745Y-54248139D01*
X94725864Y-54174005D01*
X94918965Y-53636777D01*
X94891778Y-53066546D01*
X94725864Y-52665995D01*
X94479745Y-52591861D01*
X93651605Y-53420000D01*
X93292395Y-53420000D01*
X92464255Y-52591861D01*
X92218136Y-52665995D01*
X92025035Y-53203223D01*
X89762000Y-53203223D01*
X89762000Y-52412255D01*
X92643861Y-52412255D01*
X93472000Y-53240395D01*
X94300139Y-52412255D01*
X94226005Y-52166136D01*
X93688777Y-51973035D01*
X93118546Y-52000222D01*
X92717995Y-52166136D01*
X92643861Y-52412255D01*
X89762000Y-52412255D01*
X89762000Y-44310000D01*
X107188000Y-44310000D01*
X107188000Y-52070000D01*
X107188000Y-52070000D01*
G37*
X107188000Y-52070000D02*
X107196685Y-52116159D01*
X107223965Y-52158553D01*
X107265590Y-52186994D01*
X107315000Y-52197000D01*
X108252560Y-52197000D01*
X108252560Y-53250000D01*
X108296838Y-53485317D01*
X108435910Y-53701441D01*
X108622162Y-53828701D01*
X108572210Y-53862078D01*
X108315335Y-54246520D01*
X108225132Y-54700000D01*
X108315335Y-55153480D01*
X108572210Y-55537922D01*
X108762396Y-55665000D01*
X107420711Y-55665000D01*
X105175000Y-53419288D01*
X105175000Y-50806309D01*
X105524846Y-50457073D01*
X105774206Y-49856547D01*
X105774774Y-49206306D01*
X105526462Y-48605345D01*
X105067073Y-48145154D01*
X104466547Y-47895794D01*
X103816306Y-47895226D01*
X103215345Y-48143538D01*
X102755154Y-48602927D01*
X102505794Y-49203453D01*
X102505226Y-49853694D01*
X102753538Y-50454655D01*
X103105000Y-50806731D01*
X103105000Y-53847995D01*
X103104999Y-53848000D01*
X103183785Y-54244077D01*
X103408144Y-54579856D01*
X106260142Y-57431853D01*
X106260144Y-57431856D01*
X106519578Y-57605203D01*
X106595923Y-57656215D01*
X106992000Y-57735001D01*
X106992005Y-57735000D01*
X108762396Y-57735000D01*
X108572210Y-57862078D01*
X108315335Y-58246520D01*
X108225132Y-58700000D01*
X108315335Y-59153480D01*
X108572210Y-59537922D01*
X108814778Y-59700000D01*
X108572210Y-59862078D01*
X108315335Y-60246520D01*
X108225132Y-60700000D01*
X108315335Y-61153480D01*
X108572210Y-61537922D01*
X108814778Y-61700000D01*
X108572210Y-61862078D01*
X108315335Y-62246520D01*
X108225132Y-62700000D01*
X108315335Y-63153480D01*
X108572210Y-63537922D01*
X108814778Y-63700000D01*
X108572210Y-63862078D01*
X108315335Y-64246520D01*
X108225132Y-64700000D01*
X108315335Y-65153480D01*
X108523485Y-65465000D01*
X106200554Y-65465000D01*
X105275000Y-64539446D01*
X105275000Y-60866484D01*
X105524846Y-60617073D01*
X105774206Y-60016547D01*
X105774774Y-59366306D01*
X105526462Y-58765345D01*
X105067073Y-58305154D01*
X104466547Y-58055794D01*
X103816306Y-58055226D01*
X103215345Y-58303538D01*
X102755154Y-58762927D01*
X102505794Y-59363453D01*
X102505226Y-60013694D01*
X102753538Y-60614655D01*
X103005000Y-60866556D01*
X103005000Y-62269446D01*
X99787000Y-59051446D01*
X99787000Y-58322620D01*
X99798431Y-58305890D01*
X99849440Y-58054000D01*
X99849440Y-56754000D01*
X99805162Y-56518683D01*
X99666090Y-56302559D01*
X99552671Y-56225063D01*
X99451018Y-56123410D01*
X99681611Y-56067729D01*
X99849622Y-55584922D01*
X99820083Y-55074572D01*
X99681611Y-54740271D01*
X99451016Y-54684590D01*
X98731605Y-55404000D01*
X98745748Y-55418142D01*
X98566142Y-55597748D01*
X98552000Y-55583605D01*
X98537858Y-55597748D01*
X98358252Y-55418142D01*
X98372395Y-55404000D01*
X97652984Y-54684590D01*
X97422389Y-54740271D01*
X97254378Y-55223078D01*
X97283917Y-55733428D01*
X97422389Y-56067729D01*
X97652982Y-56123410D01*
X97551320Y-56225072D01*
X97450559Y-56289910D01*
X97305569Y-56502110D01*
X97254560Y-56754000D01*
X97254560Y-58054000D01*
X97298838Y-58289317D01*
X97317000Y-58317542D01*
X97317000Y-58428000D01*
X95212132Y-58428000D01*
X94898308Y-58114176D01*
X94689243Y-57608200D01*
X94285923Y-57204176D01*
X93758691Y-56985250D01*
X93187813Y-56984752D01*
X92660200Y-57202757D01*
X92256176Y-57606077D01*
X92037250Y-58133309D01*
X92036752Y-58704187D01*
X92254757Y-59231800D01*
X92658077Y-59635824D01*
X93185309Y-59854750D01*
X93428830Y-59854962D01*
X93939434Y-60365566D01*
X94307654Y-60611603D01*
X94742000Y-60698000D01*
X97940446Y-60698000D01*
X101774886Y-64532440D01*
X101530306Y-64532226D01*
X100929345Y-64780538D01*
X100469154Y-65239927D01*
X100219794Y-65840453D01*
X100219226Y-66490694D01*
X100467538Y-67091655D01*
X100720441Y-67345000D01*
X99401633Y-67345000D01*
X99328219Y-67295946D01*
X99555236Y-67117630D01*
X99871926Y-66554477D01*
X99903975Y-66422944D01*
X99784836Y-66167000D01*
X98171000Y-66167000D01*
X98171000Y-66187000D01*
X97917000Y-66187000D01*
X97917000Y-66167000D01*
X96303164Y-66167000D01*
X96184025Y-66422944D01*
X96216074Y-66554477D01*
X96532764Y-67117630D01*
X96759781Y-67295946D01*
X96585246Y-67412567D01*
X96227354Y-67948190D01*
X96101679Y-68580000D01*
X96227354Y-69211810D01*
X96585246Y-69747433D01*
X96738748Y-69850000D01*
X96585246Y-69952567D01*
X96227354Y-70488190D01*
X96101679Y-71120000D01*
X96227354Y-71751810D01*
X96585246Y-72287433D01*
X97120869Y-72645325D01*
X97752679Y-72771000D01*
X98335321Y-72771000D01*
X98967131Y-72645325D01*
X99401633Y-72355000D01*
X106054493Y-72355000D01*
X106288997Y-72589914D01*
X106871341Y-72831724D01*
X107501893Y-72832275D01*
X108084657Y-72591481D01*
X108530914Y-72146003D01*
X108772724Y-71563659D01*
X108773275Y-70933107D01*
X108532481Y-70350343D01*
X108087003Y-69904086D01*
X107504659Y-69662276D01*
X106874107Y-69661725D01*
X106333742Y-69885000D01*
X99401633Y-69885000D01*
X99349252Y-69850000D01*
X99401633Y-69815000D01*
X103632000Y-69815000D01*
X104104614Y-69720991D01*
X104505277Y-69453277D01*
X106023554Y-67935000D01*
X110800000Y-67935000D01*
X111051366Y-67885000D01*
X111189868Y-67885000D01*
X111643348Y-67794797D01*
X112027790Y-67537922D01*
X112284665Y-67153480D01*
X112374868Y-66700000D01*
X112284665Y-66246520D01*
X112027790Y-65862078D01*
X111785222Y-65700000D01*
X112027790Y-65537922D01*
X112284665Y-65153480D01*
X112374868Y-64700000D01*
X112284665Y-64246520D01*
X112027790Y-63862078D01*
X111785222Y-63700000D01*
X112027790Y-63537922D01*
X112284665Y-63153480D01*
X112374868Y-62700000D01*
X112284665Y-62246520D01*
X112027790Y-61862078D01*
X111785222Y-61700000D01*
X112027790Y-61537922D01*
X112284665Y-61153480D01*
X112374868Y-60700000D01*
X112284665Y-60246520D01*
X112027790Y-59862078D01*
X111785222Y-59700000D01*
X112027790Y-59537922D01*
X112284665Y-59153480D01*
X112374868Y-58700000D01*
X112284665Y-58246520D01*
X112027790Y-57862078D01*
X111785222Y-57700000D01*
X112027790Y-57537922D01*
X112284665Y-57153480D01*
X112374868Y-56700000D01*
X112284665Y-56246520D01*
X112027790Y-55862078D01*
X111785222Y-55700000D01*
X112027790Y-55537922D01*
X112284665Y-55153480D01*
X112337538Y-54887670D01*
X112530000Y-55080132D01*
X112530000Y-68744868D01*
X105242434Y-76032434D01*
X104996397Y-76400654D01*
X104910000Y-76835000D01*
X104910000Y-78878324D01*
X104660474Y-79251766D01*
X104546400Y-79825255D01*
X104546400Y-80194745D01*
X104660474Y-80768234D01*
X104985330Y-81254415D01*
X105471511Y-81579271D01*
X106045000Y-81693345D01*
X106618489Y-81579271D01*
X107104670Y-81254415D01*
X107315000Y-80939634D01*
X107525330Y-81254415D01*
X108011511Y-81579271D01*
X108585000Y-81693345D01*
X109158489Y-81579271D01*
X109644670Y-81254415D01*
X109855000Y-80939634D01*
X110065330Y-81254415D01*
X110551511Y-81579271D01*
X111125000Y-81693345D01*
X111698489Y-81579271D01*
X112184670Y-81254415D01*
X112395000Y-80939634D01*
X112605330Y-81254415D01*
X113091511Y-81579271D01*
X113665000Y-81693345D01*
X114238489Y-81579271D01*
X114724670Y-81254415D01*
X114935000Y-80939634D01*
X115145330Y-81254415D01*
X115631511Y-81579271D01*
X116205000Y-81693345D01*
X116778489Y-81579271D01*
X117264670Y-81254415D01*
X117274243Y-81240087D01*
X117278238Y-81261317D01*
X117417310Y-81477441D01*
X117629510Y-81622431D01*
X117881400Y-81673440D01*
X119608600Y-81673440D01*
X119843917Y-81629162D01*
X120060041Y-81490090D01*
X120205031Y-81277890D01*
X120256040Y-81026000D01*
X120256040Y-78994000D01*
X120211762Y-78758683D01*
X120072690Y-78542559D01*
X119860490Y-78397569D01*
X119608600Y-78346560D01*
X117881400Y-78346560D01*
X117646083Y-78390838D01*
X117429959Y-78529910D01*
X117284969Y-78742110D01*
X117276600Y-78783439D01*
X117264670Y-78765585D01*
X116778489Y-78440729D01*
X116205000Y-78326655D01*
X115631511Y-78440729D01*
X115145330Y-78765585D01*
X114935000Y-79080366D01*
X114724670Y-78765585D01*
X114493349Y-78611021D01*
X114467566Y-78572434D01*
X114099346Y-78326397D01*
X113665000Y-78240000D01*
X113230654Y-78326397D01*
X112862434Y-78572434D01*
X112836651Y-78611021D01*
X112605330Y-78765585D01*
X112395000Y-79080366D01*
X112260000Y-78878324D01*
X112260000Y-78575132D01*
X119547566Y-71287566D01*
X119793603Y-70919346D01*
X119797729Y-70898603D01*
X119880000Y-70485000D01*
X119880000Y-67009744D01*
X123306197Y-67009744D01*
X123306602Y-67036146D01*
X123522276Y-67448118D01*
X123879187Y-67746196D01*
X124323000Y-67885000D01*
X125173000Y-67885000D01*
X125173000Y-66827000D01*
X125427000Y-66827000D01*
X125427000Y-67885000D01*
X126277000Y-67885000D01*
X126720813Y-67746196D01*
X127077724Y-67448118D01*
X127293398Y-67036146D01*
X127293803Y-67009744D01*
X127168361Y-66827000D01*
X125427000Y-66827000D01*
X125173000Y-66827000D01*
X123431639Y-66827000D01*
X123306197Y-67009744D01*
X119880000Y-67009744D01*
X119880000Y-56530132D01*
X120575133Y-55835000D01*
X123612735Y-55835000D01*
X123572210Y-55862078D01*
X123315335Y-56246520D01*
X123225132Y-56700000D01*
X123315335Y-57153480D01*
X123572210Y-57537922D01*
X123814778Y-57700000D01*
X123572210Y-57862078D01*
X123315335Y-58246520D01*
X123225132Y-58700000D01*
X123315335Y-59153480D01*
X123572210Y-59537922D01*
X123814778Y-59700000D01*
X123572210Y-59862078D01*
X123315335Y-60246520D01*
X123225132Y-60700000D01*
X123315335Y-61153480D01*
X123572210Y-61537922D01*
X123814778Y-61700000D01*
X123572210Y-61862078D01*
X123315335Y-62246520D01*
X123225132Y-62700000D01*
X123315335Y-63153480D01*
X123572210Y-63537922D01*
X123814778Y-63700000D01*
X123572210Y-63862078D01*
X123315335Y-64246520D01*
X123225132Y-64700000D01*
X123315335Y-65153480D01*
X123572210Y-65537922D01*
X123819831Y-65703376D01*
X123522276Y-65951882D01*
X123306602Y-66363854D01*
X123306197Y-66390256D01*
X123431639Y-66573000D01*
X125173000Y-66573000D01*
X125173000Y-66553000D01*
X125427000Y-66553000D01*
X125427000Y-66573000D01*
X127168361Y-66573000D01*
X127293803Y-66390256D01*
X127293398Y-66363854D01*
X127077724Y-65951882D01*
X126937772Y-65835000D01*
X130198638Y-65835000D01*
X130517927Y-66154846D01*
X131118453Y-66404206D01*
X131768694Y-66404774D01*
X132369655Y-66156462D01*
X132829846Y-65697073D01*
X133079206Y-65096547D01*
X133079774Y-64446306D01*
X132831462Y-63845345D01*
X132372073Y-63385154D01*
X131771547Y-63135794D01*
X131121306Y-63135226D01*
X130520345Y-63383538D01*
X130338566Y-63565000D01*
X126987265Y-63565000D01*
X127027790Y-63537922D01*
X127284665Y-63153480D01*
X127374868Y-62700000D01*
X127284665Y-62246520D01*
X127027790Y-61862078D01*
X126785222Y-61700000D01*
X127027790Y-61537922D01*
X127027942Y-61537694D01*
X178451226Y-61537694D01*
X178699538Y-62138655D01*
X179158927Y-62598846D01*
X179759453Y-62848206D01*
X180409694Y-62848774D01*
X181010655Y-62600462D01*
X181262556Y-62349000D01*
X181393868Y-62349000D01*
X183928772Y-64883904D01*
X183821029Y-65041590D01*
X183770020Y-65293480D01*
X183770020Y-67293480D01*
X183814298Y-67528797D01*
X183953370Y-67744921D01*
X184165570Y-67889911D01*
X184182460Y-67893331D01*
X184182460Y-69848986D01*
X182749446Y-71282000D01*
X182401620Y-71282000D01*
X182384890Y-71270569D01*
X182133000Y-71219560D01*
X180833000Y-71219560D01*
X180597683Y-71263838D01*
X180381559Y-71402910D01*
X180304063Y-71516329D01*
X180202410Y-71617982D01*
X180146729Y-71387389D01*
X179663922Y-71219378D01*
X179153572Y-71248917D01*
X178819271Y-71387389D01*
X178763590Y-71617984D01*
X179483000Y-72337395D01*
X179497142Y-72323252D01*
X179676748Y-72502858D01*
X179662605Y-72517000D01*
X179676748Y-72531142D01*
X179497142Y-72710748D01*
X179483000Y-72696605D01*
X178763590Y-73416016D01*
X178819271Y-73646611D01*
X179302078Y-73814622D01*
X179812428Y-73785083D01*
X180146729Y-73646611D01*
X180202410Y-73416018D01*
X180304072Y-73517680D01*
X180368910Y-73618441D01*
X180581110Y-73763431D01*
X180833000Y-73814440D01*
X182133000Y-73814440D01*
X182368317Y-73770162D01*
X182396542Y-73752000D01*
X183261000Y-73752000D01*
X183733614Y-73657991D01*
X184134277Y-73390277D01*
X184182460Y-73342094D01*
X184182460Y-78427601D01*
X183780722Y-78828637D01*
X183531284Y-79429352D01*
X183530716Y-80079795D01*
X183779106Y-80680943D01*
X184238637Y-81141278D01*
X184839352Y-81390716D01*
X185489795Y-81391284D01*
X186090943Y-81142894D01*
X186551278Y-80683363D01*
X186800716Y-80082648D01*
X186801284Y-79432205D01*
X186652460Y-79072024D01*
X186652460Y-67896702D01*
X186652777Y-67896642D01*
X186868901Y-67757570D01*
X187013891Y-67545370D01*
X187064900Y-67293480D01*
X187064900Y-65293480D01*
X187020622Y-65058163D01*
X186881550Y-64842039D01*
X186669350Y-64697049D01*
X186532960Y-64669429D01*
X186466063Y-64333114D01*
X186220026Y-63964894D01*
X182666566Y-60411434D01*
X182480228Y-60286927D01*
X182298346Y-60165397D01*
X181864000Y-60079000D01*
X181262484Y-60079000D01*
X181013073Y-59829154D01*
X180412547Y-59579794D01*
X179762306Y-59579226D01*
X179161345Y-59827538D01*
X178701154Y-60286927D01*
X178451794Y-60887453D01*
X178451226Y-61537694D01*
X127027942Y-61537694D01*
X127284665Y-61153480D01*
X127374868Y-60700000D01*
X127284665Y-60246520D01*
X127027790Y-59862078D01*
X126785222Y-59700000D01*
X127027790Y-59537922D01*
X127284665Y-59153480D01*
X127374868Y-58700000D01*
X127284665Y-58246520D01*
X127027790Y-57862078D01*
X126785222Y-57700000D01*
X127027790Y-57537922D01*
X127284665Y-57153480D01*
X127374868Y-56700000D01*
X127284665Y-56246520D01*
X127027790Y-55862078D01*
X126878256Y-55762163D01*
X130472443Y-55762163D01*
X130571042Y-56028965D01*
X131180582Y-56255401D01*
X131830377Y-56231341D01*
X132318958Y-56028965D01*
X132417557Y-55762163D01*
X131445000Y-54789605D01*
X130472443Y-55762163D01*
X126878256Y-55762163D01*
X126785222Y-55700000D01*
X127027790Y-55537922D01*
X127284665Y-55153480D01*
X127374868Y-54700000D01*
X127304370Y-54345582D01*
X129799599Y-54345582D01*
X129823659Y-54995377D01*
X130026035Y-55483958D01*
X130292837Y-55582557D01*
X131265395Y-54610000D01*
X131624605Y-54610000D01*
X132597163Y-55582557D01*
X132863965Y-55483958D01*
X133090401Y-54874418D01*
X133066341Y-54224623D01*
X132863965Y-53736042D01*
X132597163Y-53637443D01*
X131624605Y-54610000D01*
X131265395Y-54610000D01*
X130292837Y-53637443D01*
X130026035Y-53736042D01*
X129799599Y-54345582D01*
X127304370Y-54345582D01*
X127284665Y-54246520D01*
X127027790Y-53862078D01*
X126785222Y-53700000D01*
X127027790Y-53537922D01*
X127081300Y-53457837D01*
X130472443Y-53457837D01*
X131445000Y-54430395D01*
X132417557Y-53457837D01*
X132318958Y-53191035D01*
X131709418Y-52964599D01*
X131059623Y-52988659D01*
X130571042Y-53191035D01*
X130472443Y-53457837D01*
X127081300Y-53457837D01*
X127284665Y-53153480D01*
X127374868Y-52700000D01*
X127284665Y-52246520D01*
X127251577Y-52197000D01*
X128905000Y-52197000D01*
X128951159Y-52188315D01*
X128993553Y-52161035D01*
X129021994Y-52119410D01*
X129032000Y-52070000D01*
X129032000Y-49907265D01*
X153542670Y-49907265D01*
X153832078Y-50607686D01*
X154367495Y-51144039D01*
X155067410Y-51434668D01*
X155825265Y-51435330D01*
X156525686Y-51145922D01*
X157062039Y-50610505D01*
X157352668Y-49910590D01*
X157353330Y-49152735D01*
X157063922Y-48452314D01*
X156871944Y-48260000D01*
X158610560Y-48260000D01*
X158610560Y-50800000D01*
X158654838Y-51035317D01*
X158793910Y-51251441D01*
X159006110Y-51396431D01*
X159258000Y-51447440D01*
X161798000Y-51447440D01*
X162033317Y-51403162D01*
X162249441Y-51264090D01*
X162394431Y-51051890D01*
X162445440Y-50800000D01*
X162445440Y-49907265D01*
X163702670Y-49907265D01*
X163992078Y-50607686D01*
X164527495Y-51144039D01*
X165227410Y-51434668D01*
X165985265Y-51435330D01*
X166685686Y-51145922D01*
X167222039Y-50610505D01*
X167512668Y-49910590D01*
X167513330Y-49152735D01*
X167223922Y-48452314D01*
X167031944Y-48260000D01*
X168770560Y-48260000D01*
X168770560Y-50800000D01*
X168814838Y-51035317D01*
X168953910Y-51251441D01*
X169166110Y-51396431D01*
X169418000Y-51447440D01*
X171958000Y-51447440D01*
X172193317Y-51403162D01*
X172409441Y-51264090D01*
X172554431Y-51051890D01*
X172589689Y-50877777D01*
X179171828Y-50877777D01*
X179303520Y-51172657D01*
X180011036Y-51444261D01*
X180768632Y-51424436D01*
X181376480Y-51172657D01*
X181508172Y-50877777D01*
X180340000Y-49709605D01*
X179171828Y-50877777D01*
X172589689Y-50877777D01*
X172605440Y-50800000D01*
X172605440Y-49201036D01*
X178425739Y-49201036D01*
X178445564Y-49958632D01*
X178697343Y-50566480D01*
X178992223Y-50698172D01*
X180160395Y-49530000D01*
X180519605Y-49530000D01*
X181687777Y-50698172D01*
X181982657Y-50566480D01*
X182254261Y-49858964D01*
X182234436Y-49101368D01*
X181982657Y-48493520D01*
X181687777Y-48361828D01*
X180519605Y-49530000D01*
X180160395Y-49530000D01*
X178992223Y-48361828D01*
X178697343Y-48493520D01*
X178425739Y-49201036D01*
X172605440Y-49201036D01*
X172605440Y-48260000D01*
X172590806Y-48182223D01*
X179171828Y-48182223D01*
X180340000Y-49350395D01*
X181430395Y-48260000D01*
X183502560Y-48260000D01*
X183502560Y-50800000D01*
X183546838Y-51035317D01*
X183685910Y-51251441D01*
X183898110Y-51396431D01*
X184150000Y-51447440D01*
X184185000Y-51447440D01*
X184185000Y-55053566D01*
X184032182Y-55206117D01*
X183782744Y-55806832D01*
X183782176Y-56457275D01*
X184030566Y-57058423D01*
X184490097Y-57518758D01*
X185090812Y-57768196D01*
X185741255Y-57768764D01*
X186342403Y-57520374D01*
X186802738Y-57060843D01*
X187052176Y-56460128D01*
X187052744Y-55809685D01*
X186804354Y-55208537D01*
X186655000Y-55058922D01*
X186655000Y-51447440D01*
X186690000Y-51447440D01*
X186925317Y-51403162D01*
X187141441Y-51264090D01*
X187286431Y-51051890D01*
X187337440Y-50800000D01*
X187337440Y-48260000D01*
X187293162Y-48024683D01*
X187154090Y-47808559D01*
X186941890Y-47663569D01*
X186690000Y-47612560D01*
X184150000Y-47612560D01*
X183914683Y-47656838D01*
X183698559Y-47795910D01*
X183553569Y-48008110D01*
X183502560Y-48260000D01*
X181430395Y-48260000D01*
X181508172Y-48182223D01*
X181376480Y-47887343D01*
X180668964Y-47615739D01*
X179911368Y-47635564D01*
X179303520Y-47887343D01*
X179171828Y-48182223D01*
X172590806Y-48182223D01*
X172561162Y-48024683D01*
X172422090Y-47808559D01*
X172209890Y-47663569D01*
X171958000Y-47612560D01*
X169418000Y-47612560D01*
X169182683Y-47656838D01*
X168966559Y-47795910D01*
X168821569Y-48008110D01*
X168770560Y-48260000D01*
X167031944Y-48260000D01*
X166688505Y-47915961D01*
X165988590Y-47625332D01*
X165230735Y-47624670D01*
X164530314Y-47914078D01*
X163993961Y-48449495D01*
X163703332Y-49149410D01*
X163702670Y-49907265D01*
X162445440Y-49907265D01*
X162445440Y-48260000D01*
X162401162Y-48024683D01*
X162262090Y-47808559D01*
X162049890Y-47663569D01*
X161798000Y-47612560D01*
X159258000Y-47612560D01*
X159022683Y-47656838D01*
X158806559Y-47795910D01*
X158661569Y-48008110D01*
X158610560Y-48260000D01*
X156871944Y-48260000D01*
X156528505Y-47915961D01*
X155828590Y-47625332D01*
X155070735Y-47624670D01*
X154370314Y-47914078D01*
X153833961Y-48449495D01*
X153543332Y-49149410D01*
X153542670Y-49907265D01*
X129032000Y-49907265D01*
X129032000Y-44310000D01*
X189690000Y-44310000D01*
X189690000Y-128790000D01*
X89762000Y-128790000D01*
X89762000Y-122174000D01*
X91554560Y-122174000D01*
X91554560Y-124714000D01*
X91598838Y-124949317D01*
X91737910Y-125165441D01*
X91950110Y-125310431D01*
X92202000Y-125361440D01*
X94742000Y-125361440D01*
X94977317Y-125317162D01*
X95193441Y-125178090D01*
X95338431Y-124965890D01*
X95389440Y-124714000D01*
X95389440Y-123821265D01*
X96646670Y-123821265D01*
X96936078Y-124521686D01*
X97471495Y-125058039D01*
X98171410Y-125348668D01*
X98929265Y-125349330D01*
X99629686Y-125059922D01*
X100166039Y-124524505D01*
X100456668Y-123824590D01*
X100457330Y-123066735D01*
X100167922Y-122366314D01*
X99975944Y-122174000D01*
X101587560Y-122174000D01*
X101587560Y-124714000D01*
X101631838Y-124949317D01*
X101770910Y-125165441D01*
X101983110Y-125310431D01*
X102235000Y-125361440D01*
X104775000Y-125361440D01*
X105010317Y-125317162D01*
X105226441Y-125178090D01*
X105371431Y-124965890D01*
X105422440Y-124714000D01*
X105422440Y-123821265D01*
X106679670Y-123821265D01*
X106969078Y-124521686D01*
X107504495Y-125058039D01*
X108204410Y-125348668D01*
X108962265Y-125349330D01*
X109662686Y-125059922D01*
X110199039Y-124524505D01*
X110489668Y-123824590D01*
X110490330Y-123066735D01*
X110200922Y-122366314D01*
X110008944Y-122174000D01*
X111620560Y-122174000D01*
X111620560Y-124714000D01*
X111664838Y-124949317D01*
X111803910Y-125165441D01*
X112016110Y-125310431D01*
X112268000Y-125361440D01*
X114808000Y-125361440D01*
X115043317Y-125317162D01*
X115259441Y-125178090D01*
X115404431Y-124965890D01*
X115455440Y-124714000D01*
X115455440Y-123821265D01*
X116712670Y-123821265D01*
X117002078Y-124521686D01*
X117537495Y-125058039D01*
X118237410Y-125348668D01*
X118995265Y-125349330D01*
X119695686Y-125059922D01*
X120232039Y-124524505D01*
X120522668Y-123824590D01*
X120523330Y-123066735D01*
X120233922Y-122366314D01*
X120041944Y-122174000D01*
X148450560Y-122174000D01*
X148450560Y-124714000D01*
X148494838Y-124949317D01*
X148633910Y-125165441D01*
X148846110Y-125310431D01*
X149098000Y-125361440D01*
X151638000Y-125361440D01*
X151873317Y-125317162D01*
X152089441Y-125178090D01*
X152234431Y-124965890D01*
X152285440Y-124714000D01*
X152285440Y-123821265D01*
X153542670Y-123821265D01*
X153832078Y-124521686D01*
X154367495Y-125058039D01*
X155067410Y-125348668D01*
X155825265Y-125349330D01*
X156525686Y-125059922D01*
X157062039Y-124524505D01*
X157352668Y-123824590D01*
X157353330Y-123066735D01*
X157063922Y-122366314D01*
X156871944Y-122174000D01*
X158483560Y-122174000D01*
X158483560Y-124714000D01*
X158527838Y-124949317D01*
X158666910Y-125165441D01*
X158879110Y-125310431D01*
X159131000Y-125361440D01*
X161671000Y-125361440D01*
X161906317Y-125317162D01*
X162122441Y-125178090D01*
X162267431Y-124965890D01*
X162318440Y-124714000D01*
X162318440Y-123821265D01*
X163575670Y-123821265D01*
X163865078Y-124521686D01*
X164400495Y-125058039D01*
X165100410Y-125348668D01*
X165858265Y-125349330D01*
X166558686Y-125059922D01*
X167095039Y-124524505D01*
X167385668Y-123824590D01*
X167386330Y-123066735D01*
X167096922Y-122366314D01*
X166904944Y-122174000D01*
X168516560Y-122174000D01*
X168516560Y-124714000D01*
X168560838Y-124949317D01*
X168699910Y-125165441D01*
X168912110Y-125310431D01*
X169164000Y-125361440D01*
X171704000Y-125361440D01*
X171939317Y-125317162D01*
X172155441Y-125178090D01*
X172300431Y-124965890D01*
X172351440Y-124714000D01*
X172351440Y-123821265D01*
X173608670Y-123821265D01*
X173898078Y-124521686D01*
X174433495Y-125058039D01*
X175133410Y-125348668D01*
X175891265Y-125349330D01*
X176591686Y-125059922D01*
X177128039Y-124524505D01*
X177418668Y-123824590D01*
X177419330Y-123066735D01*
X177129922Y-122366314D01*
X176594505Y-121829961D01*
X175894590Y-121539332D01*
X175136735Y-121538670D01*
X174436314Y-121828078D01*
X173899961Y-122363495D01*
X173609332Y-123063410D01*
X173608670Y-123821265D01*
X172351440Y-123821265D01*
X172351440Y-122174000D01*
X172307162Y-121938683D01*
X172168090Y-121722559D01*
X171955890Y-121577569D01*
X171704000Y-121526560D01*
X169164000Y-121526560D01*
X168928683Y-121570838D01*
X168712559Y-121709910D01*
X168567569Y-121922110D01*
X168516560Y-122174000D01*
X166904944Y-122174000D01*
X166561505Y-121829961D01*
X165861590Y-121539332D01*
X165103735Y-121538670D01*
X164403314Y-121828078D01*
X163866961Y-122363495D01*
X163576332Y-123063410D01*
X163575670Y-123821265D01*
X162318440Y-123821265D01*
X162318440Y-122174000D01*
X162274162Y-121938683D01*
X162135090Y-121722559D01*
X161922890Y-121577569D01*
X161671000Y-121526560D01*
X159131000Y-121526560D01*
X158895683Y-121570838D01*
X158679559Y-121709910D01*
X158534569Y-121922110D01*
X158483560Y-122174000D01*
X156871944Y-122174000D01*
X156528505Y-121829961D01*
X155828590Y-121539332D01*
X155070735Y-121538670D01*
X154370314Y-121828078D01*
X153833961Y-122363495D01*
X153543332Y-123063410D01*
X153542670Y-123821265D01*
X152285440Y-123821265D01*
X152285440Y-122174000D01*
X152241162Y-121938683D01*
X152102090Y-121722559D01*
X151889890Y-121577569D01*
X151638000Y-121526560D01*
X149098000Y-121526560D01*
X148862683Y-121570838D01*
X148646559Y-121709910D01*
X148501569Y-121922110D01*
X148450560Y-122174000D01*
X120041944Y-122174000D01*
X119698505Y-121829961D01*
X118998590Y-121539332D01*
X118240735Y-121538670D01*
X117540314Y-121828078D01*
X117003961Y-122363495D01*
X116713332Y-123063410D01*
X116712670Y-123821265D01*
X115455440Y-123821265D01*
X115455440Y-122174000D01*
X115411162Y-121938683D01*
X115272090Y-121722559D01*
X115059890Y-121577569D01*
X114808000Y-121526560D01*
X112268000Y-121526560D01*
X112032683Y-121570838D01*
X111816559Y-121709910D01*
X111671569Y-121922110D01*
X111620560Y-122174000D01*
X110008944Y-122174000D01*
X109665505Y-121829961D01*
X108965590Y-121539332D01*
X108207735Y-121538670D01*
X107507314Y-121828078D01*
X106970961Y-122363495D01*
X106680332Y-123063410D01*
X106679670Y-123821265D01*
X105422440Y-123821265D01*
X105422440Y-122174000D01*
X105378162Y-121938683D01*
X105239090Y-121722559D01*
X105026890Y-121577569D01*
X104775000Y-121526560D01*
X102235000Y-121526560D01*
X101999683Y-121570838D01*
X101783559Y-121709910D01*
X101638569Y-121922110D01*
X101587560Y-122174000D01*
X99975944Y-122174000D01*
X99632505Y-121829961D01*
X98932590Y-121539332D01*
X98174735Y-121538670D01*
X97474314Y-121828078D01*
X96937961Y-122363495D01*
X96647332Y-123063410D01*
X96646670Y-123821265D01*
X95389440Y-123821265D01*
X95389440Y-122174000D01*
X95345162Y-121938683D01*
X95206090Y-121722559D01*
X94993890Y-121577569D01*
X94742000Y-121526560D01*
X92202000Y-121526560D01*
X91966683Y-121570838D01*
X91750559Y-121709910D01*
X91605569Y-121922110D01*
X91554560Y-122174000D01*
X89762000Y-122174000D01*
X89762000Y-109151167D01*
X94441838Y-109151167D01*
X94583883Y-109494943D01*
X94846673Y-109758192D01*
X95190201Y-109900838D01*
X95562167Y-109901162D01*
X95905943Y-109759117D01*
X96169192Y-109496327D01*
X96311838Y-109152799D01*
X96312162Y-108780833D01*
X96312000Y-108780441D01*
X96312000Y-105162290D01*
X101626145Y-99848145D01*
X101828827Y-99544809D01*
X101900000Y-99187000D01*
X101900000Y-96900005D01*
X102063917Y-96869162D01*
X102280041Y-96730090D01*
X102425031Y-96517890D01*
X102433400Y-96476561D01*
X102445330Y-96494415D01*
X102570000Y-96577717D01*
X102570000Y-97536000D01*
X102641173Y-97893809D01*
X102843855Y-98197145D01*
X104348000Y-99701290D01*
X104348000Y-108965184D01*
X104347838Y-109151167D01*
X104489883Y-109494943D01*
X104752673Y-109758192D01*
X105096201Y-109900838D01*
X105468167Y-109901162D01*
X105811943Y-109759117D01*
X106075192Y-109496327D01*
X106217838Y-109152799D01*
X106218162Y-108780833D01*
X106218000Y-108780441D01*
X106218000Y-99314000D01*
X106179337Y-99119627D01*
X114508000Y-107448290D01*
X114508000Y-108965184D01*
X114507838Y-109151167D01*
X114649883Y-109494943D01*
X114912673Y-109758192D01*
X115256201Y-109900838D01*
X115628167Y-109901162D01*
X115971943Y-109759117D01*
X116235192Y-109496327D01*
X116377838Y-109152799D01*
X116378162Y-108780833D01*
X116378000Y-108780441D01*
X116378000Y-107061000D01*
X116306827Y-106703191D01*
X116104145Y-106399855D01*
X106980000Y-97275710D01*
X106980000Y-96577717D01*
X107104670Y-96494415D01*
X107315000Y-96179634D01*
X107525330Y-96494415D01*
X107650000Y-96577717D01*
X107650000Y-97155000D01*
X107721173Y-97512809D01*
X107923855Y-97816145D01*
X114527855Y-104420145D01*
X114831191Y-104622827D01*
X115189000Y-104694000D01*
X149218710Y-104694000D01*
X151211000Y-106686290D01*
X151211000Y-108965184D01*
X151210838Y-109151167D01*
X151352883Y-109494943D01*
X151615673Y-109758192D01*
X151959201Y-109900838D01*
X152331167Y-109901162D01*
X152674943Y-109759117D01*
X152938192Y-109496327D01*
X153080838Y-109152799D01*
X153081162Y-108780833D01*
X153081000Y-108780441D01*
X153081000Y-106299000D01*
X153009827Y-105941191D01*
X152807145Y-105637855D01*
X150267145Y-103097855D01*
X149963809Y-102895173D01*
X149606000Y-102824000D01*
X115576290Y-102824000D01*
X115471092Y-102718802D01*
X115525556Y-102729636D01*
X115824000Y-102789001D01*
X115824005Y-102789000D01*
X156965710Y-102789000D01*
X161244000Y-107067290D01*
X161244000Y-108965184D01*
X161243838Y-109151167D01*
X161385883Y-109494943D01*
X161648673Y-109758192D01*
X161992201Y-109900838D01*
X162364167Y-109901162D01*
X162707943Y-109759117D01*
X162971192Y-109496327D01*
X163113838Y-109152799D01*
X163114162Y-108780833D01*
X163114000Y-108780441D01*
X163114000Y-106680000D01*
X163042827Y-106322191D01*
X162840145Y-106018855D01*
X158014145Y-101192855D01*
X157741979Y-101011000D01*
X165347710Y-101011000D01*
X171531000Y-107194289D01*
X171531000Y-108965184D01*
X171530838Y-109151167D01*
X171672883Y-109494943D01*
X171935673Y-109758192D01*
X172279201Y-109900838D01*
X172651167Y-109901162D01*
X172994943Y-109759117D01*
X173258192Y-109496327D01*
X173400838Y-109152799D01*
X173401162Y-108780833D01*
X173401000Y-108780441D01*
X173401000Y-106807000D01*
X173329827Y-106449191D01*
X173127145Y-106145855D01*
X173127142Y-106145853D01*
X166396145Y-99414855D01*
X166092809Y-99212173D01*
X165735000Y-99141000D01*
X116973290Y-99141000D01*
X114600000Y-96767710D01*
X114600000Y-96577717D01*
X114724670Y-96494415D01*
X114935000Y-96179634D01*
X115145330Y-96494415D01*
X115631511Y-96819271D01*
X116205000Y-96933345D01*
X116778489Y-96819271D01*
X117264670Y-96494415D01*
X117475000Y-96179634D01*
X117685330Y-96494415D01*
X118171511Y-96819271D01*
X118745000Y-96933345D01*
X119318489Y-96819271D01*
X119804670Y-96494415D01*
X119814243Y-96480087D01*
X119818238Y-96501317D01*
X119957310Y-96717441D01*
X120169510Y-96862431D01*
X120421400Y-96913440D01*
X122148600Y-96913440D01*
X122383917Y-96869162D01*
X122600041Y-96730090D01*
X122745031Y-96517890D01*
X122753400Y-96476561D01*
X122765330Y-96494415D01*
X123251511Y-96819271D01*
X123825000Y-96933345D01*
X124398489Y-96819271D01*
X124884670Y-96494415D01*
X125091461Y-96184931D01*
X125462964Y-96600732D01*
X125990209Y-96854709D01*
X126005974Y-96857358D01*
X126238000Y-96736217D01*
X126238000Y-95377000D01*
X126218000Y-95377000D01*
X126218000Y-95123000D01*
X126238000Y-95123000D01*
X126238000Y-93763783D01*
X126492000Y-93763783D01*
X126492000Y-95123000D01*
X126512000Y-95123000D01*
X126512000Y-95377000D01*
X126492000Y-95377000D01*
X126492000Y-96736217D01*
X126724026Y-96857358D01*
X126739791Y-96854709D01*
X127267036Y-96600732D01*
X127638539Y-96184931D01*
X127845330Y-96494415D01*
X128331511Y-96819271D01*
X128905000Y-96933345D01*
X129478489Y-96819271D01*
X129964670Y-96494415D01*
X129970961Y-96485000D01*
X153924000Y-96485000D01*
X154396614Y-96390991D01*
X154797277Y-96123277D01*
X160155000Y-90765554D01*
X160155000Y-91914516D01*
X159905154Y-92163927D01*
X159655794Y-92764453D01*
X159655226Y-93414694D01*
X159903538Y-94015655D01*
X160362927Y-94475846D01*
X160963453Y-94725206D01*
X161613694Y-94725774D01*
X162214655Y-94477462D01*
X162576215Y-94116532D01*
X165651073Y-94116532D01*
X165749736Y-94383387D01*
X166359461Y-94609908D01*
X167009460Y-94585856D01*
X167498264Y-94383387D01*
X167596927Y-94116532D01*
X184193073Y-94116532D01*
X184291736Y-94383387D01*
X184901461Y-94609908D01*
X185551460Y-94585856D01*
X186040264Y-94383387D01*
X186138927Y-94116532D01*
X185166000Y-93143605D01*
X184193073Y-94116532D01*
X167596927Y-94116532D01*
X166624000Y-93143605D01*
X165651073Y-94116532D01*
X162576215Y-94116532D01*
X162674846Y-94018073D01*
X162924206Y-93417547D01*
X162924774Y-92767306D01*
X162896742Y-92699461D01*
X164978092Y-92699461D01*
X165002144Y-93349460D01*
X165204613Y-93838264D01*
X165471468Y-93936927D01*
X166444395Y-92964000D01*
X166803605Y-92964000D01*
X167776532Y-93936927D01*
X168043387Y-93838264D01*
X168269908Y-93228539D01*
X168250331Y-92699461D01*
X183520092Y-92699461D01*
X183544144Y-93349460D01*
X183746613Y-93838264D01*
X184013468Y-93936927D01*
X184986395Y-92964000D01*
X185345605Y-92964000D01*
X186318532Y-93936927D01*
X186585387Y-93838264D01*
X186811908Y-93228539D01*
X186787856Y-92578540D01*
X186585387Y-92089736D01*
X186318532Y-91991073D01*
X185345605Y-92964000D01*
X184986395Y-92964000D01*
X184013468Y-91991073D01*
X183746613Y-92089736D01*
X183520092Y-92699461D01*
X168250331Y-92699461D01*
X168245856Y-92578540D01*
X168043387Y-92089736D01*
X167776532Y-91991073D01*
X166803605Y-92964000D01*
X166444395Y-92964000D01*
X165471468Y-91991073D01*
X165204613Y-92089736D01*
X164978092Y-92699461D01*
X162896742Y-92699461D01*
X162676462Y-92166345D01*
X162425000Y-91914444D01*
X162425000Y-91811468D01*
X165651073Y-91811468D01*
X166624000Y-92784395D01*
X167596927Y-91811468D01*
X184193073Y-91811468D01*
X185166000Y-92784395D01*
X186138927Y-91811468D01*
X186040264Y-91544613D01*
X185430539Y-91318092D01*
X184780540Y-91342144D01*
X184291736Y-91544613D01*
X184193073Y-91811468D01*
X167596927Y-91811468D01*
X167498264Y-91544613D01*
X166888539Y-91318092D01*
X166238540Y-91342144D01*
X165749736Y-91544613D01*
X165651073Y-91811468D01*
X162425000Y-91811468D01*
X162425000Y-88495554D01*
X167497277Y-83423277D01*
X167764991Y-83022614D01*
X167859000Y-82550000D01*
X167859000Y-80991000D01*
X170180000Y-80991000D01*
X170652614Y-80896991D01*
X171053277Y-80629277D01*
X173720277Y-77962277D01*
X173987991Y-77561614D01*
X174082000Y-77089000D01*
X174082000Y-74680669D01*
X174098441Y-74670090D01*
X174243431Y-74457890D01*
X174294440Y-74206000D01*
X174294440Y-72606000D01*
X174250162Y-72370683D01*
X174227895Y-72336078D01*
X178185378Y-72336078D01*
X178214917Y-72846428D01*
X178353389Y-73180729D01*
X178583984Y-73236410D01*
X179303395Y-72517000D01*
X178583984Y-71797590D01*
X178353389Y-71853271D01*
X178185378Y-72336078D01*
X174227895Y-72336078D01*
X174111090Y-72154559D01*
X174104452Y-72150023D01*
X174293965Y-71622777D01*
X174266778Y-71052546D01*
X174100864Y-70651995D01*
X173854745Y-70577861D01*
X173026605Y-71406000D01*
X173040748Y-71420142D01*
X172861143Y-71599748D01*
X172847000Y-71585605D01*
X172832858Y-71599748D01*
X172653252Y-71420142D01*
X172667395Y-71406000D01*
X171839255Y-70577861D01*
X171593136Y-70651995D01*
X171400035Y-71189223D01*
X171427222Y-71759454D01*
X171589384Y-72150947D01*
X171450569Y-72354110D01*
X171399560Y-72606000D01*
X171399560Y-74206000D01*
X171443838Y-74441317D01*
X171582910Y-74657441D01*
X171612000Y-74677317D01*
X171612000Y-76577446D01*
X169668446Y-78521000D01*
X167701379Y-78521000D01*
X167551363Y-78370722D01*
X166950648Y-78121284D01*
X166300205Y-78120716D01*
X165699057Y-78369106D01*
X165238722Y-78828637D01*
X164989284Y-79429352D01*
X164988716Y-80079795D01*
X165237106Y-80680943D01*
X165389000Y-80833103D01*
X165389000Y-82038446D01*
X153412446Y-94015000D01*
X129970961Y-94015000D01*
X129964670Y-94005585D01*
X129478489Y-93680729D01*
X128905000Y-93566655D01*
X128331511Y-93680729D01*
X127845330Y-94005585D01*
X127638539Y-94315069D01*
X127267036Y-93899268D01*
X126739791Y-93645291D01*
X126724026Y-93642642D01*
X126492000Y-93763783D01*
X126238000Y-93763783D01*
X126005974Y-93642642D01*
X125990209Y-93645291D01*
X125462964Y-93899268D01*
X125091461Y-94315069D01*
X124884670Y-94005585D01*
X124398489Y-93680729D01*
X123825000Y-93566655D01*
X123251511Y-93680729D01*
X122765330Y-94005585D01*
X122755757Y-94019913D01*
X122751762Y-93998683D01*
X122612690Y-93782559D01*
X122400490Y-93637569D01*
X122148600Y-93586560D01*
X120421400Y-93586560D01*
X120186083Y-93630838D01*
X119969959Y-93769910D01*
X119824969Y-93982110D01*
X119816600Y-94023439D01*
X119804670Y-94005585D01*
X119680000Y-93922283D01*
X119680000Y-92843290D01*
X120656290Y-91867000D01*
X148082000Y-91867000D01*
X148439809Y-91795827D01*
X148743145Y-91593145D01*
X169571145Y-70765145D01*
X169773827Y-70461809D01*
X169786468Y-70398255D01*
X172018861Y-70398255D01*
X172847000Y-71226395D01*
X173675139Y-70398255D01*
X173601005Y-70152136D01*
X173063777Y-69959035D01*
X172493546Y-69986222D01*
X172092995Y-70152136D01*
X172018861Y-70398255D01*
X169786468Y-70398255D01*
X169845000Y-70104000D01*
X169845000Y-63881816D01*
X169845162Y-63695833D01*
X169703117Y-63352057D01*
X169440327Y-63088808D01*
X169096799Y-62946162D01*
X168724833Y-62945838D01*
X168381057Y-63087883D01*
X168117808Y-63350673D01*
X167975162Y-63694201D01*
X167974838Y-64066167D01*
X167975000Y-64066559D01*
X167975000Y-69716710D01*
X147694710Y-89997000D01*
X120269000Y-89997000D01*
X119911191Y-90068173D01*
X119607855Y-90270855D01*
X118083855Y-91794855D01*
X117881173Y-92098191D01*
X117810000Y-92456000D01*
X117810000Y-93922283D01*
X117685330Y-94005585D01*
X117475000Y-94320366D01*
X117264670Y-94005585D01*
X117140000Y-93922283D01*
X117140000Y-92335290D01*
X119513290Y-89962000D01*
X147320000Y-89962000D01*
X147677809Y-89890827D01*
X147981145Y-89688145D01*
X159284145Y-78385145D01*
X159486827Y-78081809D01*
X159558000Y-77724000D01*
X159558000Y-63881816D01*
X159558162Y-63695833D01*
X159416117Y-63352057D01*
X159153327Y-63088808D01*
X158809799Y-62946162D01*
X158437833Y-62945838D01*
X158094057Y-63087883D01*
X157830808Y-63350673D01*
X157688162Y-63694201D01*
X157687838Y-64066167D01*
X157688000Y-64066559D01*
X157688000Y-77336710D01*
X146932710Y-88092000D01*
X119126000Y-88092000D01*
X118768191Y-88163173D01*
X118464855Y-88365855D01*
X115543855Y-91286855D01*
X115341173Y-91590191D01*
X115270000Y-91948000D01*
X115270000Y-93922283D01*
X115145330Y-94005585D01*
X114935000Y-94320366D01*
X114724670Y-94005585D01*
X114600000Y-93922283D01*
X114600000Y-91700290D01*
X118751290Y-87549000D01*
X135636000Y-87549000D01*
X135993809Y-87477827D01*
X136297145Y-87275145D01*
X137996264Y-85576026D01*
X143426642Y-85576026D01*
X143429291Y-85591791D01*
X143683268Y-86119036D01*
X144119680Y-86508954D01*
X144672087Y-86702184D01*
X144907000Y-86557924D01*
X144907000Y-85344000D01*
X145161000Y-85344000D01*
X145161000Y-86557924D01*
X145395913Y-86702184D01*
X145948320Y-86508954D01*
X146384732Y-86119036D01*
X146638709Y-85591791D01*
X146641358Y-85576026D01*
X146520217Y-85344000D01*
X145161000Y-85344000D01*
X144907000Y-85344000D01*
X143547783Y-85344000D01*
X143426642Y-85576026D01*
X137996264Y-85576026D01*
X142500290Y-81072000D01*
X143706283Y-81072000D01*
X143789585Y-81196670D01*
X144104366Y-81407000D01*
X143789585Y-81617330D01*
X143464729Y-82103511D01*
X143350655Y-82677000D01*
X143464729Y-83250489D01*
X143789585Y-83736670D01*
X144099069Y-83943461D01*
X143683268Y-84314964D01*
X143429291Y-84842209D01*
X143426642Y-84857974D01*
X143547783Y-85090000D01*
X144907000Y-85090000D01*
X144907000Y-85070000D01*
X145161000Y-85070000D01*
X145161000Y-85090000D01*
X146520217Y-85090000D01*
X146641358Y-84857974D01*
X146638709Y-84842209D01*
X146384732Y-84314964D01*
X145968931Y-83943461D01*
X146278415Y-83736670D01*
X146603271Y-83250489D01*
X146717345Y-82677000D01*
X146603271Y-82103511D01*
X146278415Y-81617330D01*
X145963634Y-81407000D01*
X146278415Y-81196670D01*
X146603271Y-80710489D01*
X146717345Y-80137000D01*
X146603271Y-79563511D01*
X146278415Y-79077330D01*
X146264087Y-79067757D01*
X146285317Y-79063762D01*
X146501441Y-78924690D01*
X146646431Y-78712490D01*
X146697440Y-78460600D01*
X146697440Y-76733400D01*
X146653162Y-76498083D01*
X146514090Y-76281959D01*
X146301890Y-76136969D01*
X146050000Y-76085960D01*
X144018000Y-76085960D01*
X143782683Y-76130238D01*
X143566559Y-76269310D01*
X143421569Y-76481510D01*
X143385019Y-76662000D01*
X141859000Y-76662000D01*
X141501191Y-76733173D01*
X141197855Y-76935855D01*
X134486710Y-83647000D01*
X117729000Y-83647000D01*
X117371191Y-83718173D01*
X117067855Y-83920855D01*
X110463855Y-90524855D01*
X110261173Y-90828191D01*
X110190000Y-91186000D01*
X110190000Y-93922283D01*
X110065330Y-94005585D01*
X109855000Y-94320366D01*
X109644670Y-94005585D01*
X109158489Y-93680729D01*
X108585000Y-93566655D01*
X108011511Y-93680729D01*
X107525330Y-94005585D01*
X107315000Y-94320366D01*
X107104670Y-94005585D01*
X106618489Y-93680729D01*
X106045000Y-93566655D01*
X105471511Y-93680729D01*
X104985330Y-94005585D01*
X104775000Y-94320366D01*
X104564670Y-94005585D01*
X104078489Y-93680729D01*
X103505000Y-93566655D01*
X102931511Y-93680729D01*
X102445330Y-94005585D01*
X102435757Y-94019913D01*
X102431762Y-93998683D01*
X102292690Y-93782559D01*
X102080490Y-93637569D01*
X101828600Y-93586560D01*
X100101400Y-93586560D01*
X99866083Y-93630838D01*
X99649959Y-93769910D01*
X99504969Y-93982110D01*
X99453960Y-94234000D01*
X99453960Y-96266000D01*
X99498238Y-96501317D01*
X99637310Y-96717441D01*
X99849510Y-96862431D01*
X100030000Y-96898981D01*
X100030000Y-98799710D01*
X94715855Y-104113855D01*
X94513173Y-104417191D01*
X94442000Y-104775000D01*
X94442000Y-108965184D01*
X94441838Y-109151167D01*
X89762000Y-109151167D01*
X89762000Y-65657056D01*
X96184025Y-65657056D01*
X96303164Y-65913000D01*
X97917000Y-65913000D01*
X97917000Y-64389000D01*
X98171000Y-64389000D01*
X98171000Y-65913000D01*
X99784836Y-65913000D01*
X99903975Y-65657056D01*
X99871926Y-65525523D01*
X99555236Y-64962370D01*
X99047143Y-64563276D01*
X98425000Y-64389000D01*
X98171000Y-64389000D01*
X97917000Y-64389000D01*
X97663000Y-64389000D01*
X97040857Y-64563276D01*
X96532764Y-64962370D01*
X96216074Y-65525523D01*
X96184025Y-65657056D01*
X89762000Y-65657056D01*
X89762000Y-54427745D01*
X92643861Y-54427745D01*
X92717995Y-54673864D01*
X93255223Y-54866965D01*
X93825454Y-54839778D01*
X94226005Y-54673864D01*
X94276873Y-54504984D01*
X97832590Y-54504984D01*
X98552000Y-55224395D01*
X99271410Y-54504984D01*
X99215729Y-54274389D01*
X98732922Y-54106378D01*
X98222572Y-54135917D01*
X97888271Y-54274389D01*
X97832590Y-54504984D01*
X94276873Y-54504984D01*
X94300139Y-54427745D01*
X93472000Y-53599605D01*
X92643861Y-54427745D01*
X89762000Y-54427745D01*
X89762000Y-53203223D01*
X92025035Y-53203223D01*
X92052222Y-53773454D01*
X92218136Y-54174005D01*
X92464255Y-54248139D01*
X93292395Y-53420000D01*
X93651605Y-53420000D01*
X94479745Y-54248139D01*
X94725864Y-54174005D01*
X94918965Y-53636777D01*
X94891778Y-53066546D01*
X94725864Y-52665995D01*
X94479745Y-52591861D01*
X93651605Y-53420000D01*
X93292395Y-53420000D01*
X92464255Y-52591861D01*
X92218136Y-52665995D01*
X92025035Y-53203223D01*
X89762000Y-53203223D01*
X89762000Y-52412255D01*
X92643861Y-52412255D01*
X93472000Y-53240395D01*
X94300139Y-52412255D01*
X94226005Y-52166136D01*
X93688777Y-51973035D01*
X93118546Y-52000222D01*
X92717995Y-52166136D01*
X92643861Y-52412255D01*
X89762000Y-52412255D01*
X89762000Y-44310000D01*
X107188000Y-44310000D01*
X107188000Y-52070000D01*
M02*
