G04 #@! TF.FileFunction,Soldermask,Top*
%FSLAX46Y46*%
G04 Gerber Fmt 4.6, Leading zero omitted, Abs format (unit mm)*
G04 Created by KiCad (PCBNEW 4.0.7-e2-6376~58~ubuntu16.04.1) date Tue Dec 12 15:57:28 2017*
%MOMM*%
%LPD*%
G01*
G04 APERTURE LIST*
%ADD10C,0.100000*%
%ADD11C,0.200000*%
%ADD12R,1.000000X1.950000*%
%ADD13C,2.400000*%
%ADD14R,2.940000X2.940000*%
%ADD15C,2.940000*%
%ADD16R,2.127200X2.432000*%
%ADD17O,2.127200X2.432000*%
%ADD18O,2.940000X2.432000*%
%ADD19R,3.200000X1.500000*%
%ADD20O,3.200000X1.500000*%
%ADD21R,1.700000X1.700000*%
%ADD22C,1.700000*%
%ADD23R,2.400000X2.400000*%
%ADD24R,2.432000X2.127200*%
%ADD25O,2.432000X2.127200*%
%ADD26C,2.398980*%
%ADD27C,2.000000*%
%ADD28R,2.000000X2.000000*%
%ADD29R,1.900000X1.650000*%
G04 APERTURE END LIST*
D10*
D11*
X178562000Y-109093000D02*
X178562000Y-109220000D01*
X178689000Y-108966000D02*
X178562000Y-109093000D01*
D12*
X159893000Y-55974000D03*
X158623000Y-55974000D03*
X157353000Y-55974000D03*
X156083000Y-55974000D03*
X156083000Y-61374000D03*
X157353000Y-61374000D03*
X158623000Y-61374000D03*
X159893000Y-61374000D03*
D13*
X166624000Y-79756000D03*
X166624000Y-92964000D03*
X185166000Y-79756000D03*
X185166000Y-92964000D03*
D14*
X185420000Y-49530000D03*
D15*
X180340000Y-49530000D03*
D16*
X121285000Y-95250000D03*
D17*
X123825000Y-95250000D03*
X126365000Y-95250000D03*
X128905000Y-95250000D03*
D18*
X98044000Y-68580000D03*
X98044000Y-66040000D03*
X98044000Y-71120000D03*
D19*
X110300000Y-52700000D03*
D20*
X110300000Y-54700000D03*
X110300000Y-56700000D03*
X110300000Y-58700000D03*
X110300000Y-60700000D03*
X110300000Y-62700000D03*
X110300000Y-64700000D03*
X110300000Y-66700000D03*
X125300000Y-66700000D03*
X125300000Y-64700000D03*
X125300000Y-62700000D03*
X125300000Y-60700000D03*
X125300000Y-58700000D03*
X125300000Y-56700000D03*
X125300000Y-54700000D03*
X125300000Y-52700000D03*
D21*
X181483000Y-72517000D03*
D22*
X179483000Y-72517000D03*
D21*
X98552000Y-57404000D03*
D22*
X98552000Y-55404000D03*
D13*
X185417460Y-56133480D03*
D23*
X185417460Y-66293480D03*
D14*
X93472000Y-123444000D03*
D15*
X98552000Y-123444000D03*
D16*
X100965000Y-95250000D03*
D17*
X103505000Y-95250000D03*
X106045000Y-95250000D03*
X108585000Y-95250000D03*
X111125000Y-95250000D03*
X113665000Y-95250000D03*
X116205000Y-95250000D03*
X118745000Y-95250000D03*
D24*
X145034000Y-77597000D03*
D25*
X145034000Y-80137000D03*
X145034000Y-82677000D03*
X145034000Y-85217000D03*
D16*
X118745000Y-80010000D03*
D17*
X116205000Y-80010000D03*
X113665000Y-80010000D03*
X111125000Y-80010000D03*
X108585000Y-80010000D03*
X106045000Y-80010000D03*
D26*
X131445000Y-64770000D03*
X131445000Y-54610000D03*
X104140000Y-59690000D03*
X104140000Y-49530000D03*
X180086000Y-61214000D03*
X101854000Y-66167000D03*
D27*
X93472000Y-58420000D03*
X93472000Y-53420000D03*
D26*
X161290000Y-93091000D03*
D28*
X172847000Y-73406000D03*
D27*
X172847000Y-71406000D03*
D29*
X174518000Y-106426000D03*
X177018000Y-106426000D03*
X107208000Y-106680000D03*
X109708000Y-106680000D03*
X166731000Y-66294000D03*
X164231000Y-66294000D03*
X117368000Y-106680000D03*
X119868000Y-106680000D03*
X156571000Y-66294000D03*
X154071000Y-66294000D03*
X154198000Y-106680000D03*
X156698000Y-106680000D03*
X164231000Y-106426000D03*
X166731000Y-106426000D03*
D14*
X170434000Y-123444000D03*
D15*
X175514000Y-123444000D03*
D14*
X103505000Y-123444000D03*
D15*
X108585000Y-123444000D03*
D14*
X170688000Y-49530000D03*
D15*
X165608000Y-49530000D03*
D14*
X113538000Y-123444000D03*
D15*
X118618000Y-123444000D03*
D14*
X160528000Y-49530000D03*
D15*
X155448000Y-49530000D03*
D14*
X150368000Y-123444000D03*
D15*
X155448000Y-123444000D03*
D14*
X160401000Y-123444000D03*
D15*
X165481000Y-123444000D03*
D12*
X94107000Y-117000000D03*
X95377000Y-117000000D03*
X96647000Y-117000000D03*
X97917000Y-117000000D03*
X97917000Y-111600000D03*
X96647000Y-111600000D03*
X95377000Y-111600000D03*
X94107000Y-111600000D03*
X171196000Y-117000000D03*
X172466000Y-117000000D03*
X173736000Y-117000000D03*
X175006000Y-117000000D03*
X175006000Y-111600000D03*
X173736000Y-111600000D03*
X172466000Y-111600000D03*
X171196000Y-111600000D03*
X104013000Y-117000000D03*
X105283000Y-117000000D03*
X106553000Y-117000000D03*
X107823000Y-117000000D03*
X107823000Y-111600000D03*
X106553000Y-111600000D03*
X105283000Y-111600000D03*
X104013000Y-111600000D03*
X170053000Y-55974000D03*
X168783000Y-55974000D03*
X167513000Y-55974000D03*
X166243000Y-55974000D03*
X166243000Y-61374000D03*
X167513000Y-61374000D03*
X168783000Y-61374000D03*
X170053000Y-61374000D03*
X114173000Y-117000000D03*
X115443000Y-117000000D03*
X116713000Y-117000000D03*
X117983000Y-117000000D03*
X117983000Y-111600000D03*
X116713000Y-111600000D03*
X115443000Y-111600000D03*
X114173000Y-111600000D03*
X150876000Y-117000000D03*
X152146000Y-117000000D03*
X153416000Y-117000000D03*
X154686000Y-117000000D03*
X154686000Y-111600000D03*
X153416000Y-111600000D03*
X152146000Y-111600000D03*
X150876000Y-111600000D03*
X160909000Y-117000000D03*
X162179000Y-117000000D03*
X163449000Y-117000000D03*
X164719000Y-117000000D03*
X164719000Y-111600000D03*
X163449000Y-111600000D03*
X162179000Y-111600000D03*
X160909000Y-111600000D03*
D29*
X97429000Y-106680000D03*
X99929000Y-106680000D03*
M02*
