G04 #@! TF.FileFunction,Other,User*
%FSLAX46Y46*%
G04 Gerber Fmt 4.6, Leading zero omitted, Abs format (unit mm)*
G04 Created by KiCad (PCBNEW 4.0.7-e2-6376~58~ubuntu16.04.1) date Tue Dec 12 15:57:28 2017*
%MOMM*%
%LPD*%
G01*
G04 APERTURE LIST*
%ADD10C,0.100000*%
%ADD11C,0.050000*%
G04 APERTURE END LIST*
D10*
D11*
X160738000Y-54924000D02*
X155238000Y-54924000D01*
X160738000Y-62424000D02*
X155238000Y-62424000D01*
X160738000Y-54924000D02*
X160738000Y-62424000D01*
X155238000Y-54924000D02*
X155238000Y-62424000D01*
X119535000Y-97000000D02*
X130685000Y-97000000D01*
X119535000Y-93500000D02*
X130685000Y-93500000D01*
X119535000Y-97000000D02*
X119535000Y-93500000D01*
X130685000Y-97000000D02*
X130685000Y-93500000D01*
X108550000Y-52200000D02*
X108550000Y-46050000D01*
X108550000Y-46050000D02*
X127050000Y-46050000D01*
X127050000Y-46050000D02*
X127050000Y-68700000D01*
X127050000Y-68700000D02*
X108550000Y-68700000D01*
X108550000Y-68700000D02*
X108550000Y-52200000D01*
X183283000Y-72517000D02*
G75*
G03X183283000Y-72517000I-2800000J0D01*
G01*
X101352000Y-56404000D02*
G75*
G03X101352000Y-56404000I-2800000J0D01*
G01*
X99215000Y-97000000D02*
X120515000Y-97000000D01*
X99215000Y-93500000D02*
X120515000Y-93500000D01*
X99215000Y-97000000D02*
X99215000Y-93500000D01*
X120515000Y-97000000D02*
X120515000Y-93500000D01*
X143284000Y-75847000D02*
X143284000Y-86997000D01*
X146784000Y-75847000D02*
X146784000Y-86997000D01*
X143284000Y-75847000D02*
X146784000Y-75847000D01*
X143284000Y-86997000D02*
X146784000Y-86997000D01*
X120495000Y-78260000D02*
X104295000Y-78260000D01*
X120495000Y-81760000D02*
X104295000Y-81760000D01*
X120495000Y-78260000D02*
X120495000Y-81760000D01*
X104295000Y-78260000D02*
X104295000Y-81760000D01*
X129945000Y-66020000D02*
X129945000Y-53370000D01*
X132945000Y-66020000D02*
X129945000Y-66020000D01*
X129945000Y-53370000D02*
X132945000Y-53370000D01*
X132945000Y-66020000D02*
X132945000Y-53370000D01*
X102640000Y-60940000D02*
X102640000Y-48290000D01*
X105640000Y-60940000D02*
X102640000Y-60940000D01*
X102640000Y-48290000D02*
X105640000Y-48290000D01*
X105640000Y-60940000D02*
X105640000Y-48290000D01*
X91872000Y-59470000D02*
X95072000Y-59470000D01*
X95072000Y-59470000D02*
X95072000Y-52370000D01*
X95072000Y-52370000D02*
X91872000Y-52370000D01*
X91872000Y-52370000D02*
X91872000Y-59470000D01*
X169997000Y-75256000D02*
X175697000Y-75256000D01*
X175697000Y-75256000D02*
X175697000Y-69556000D01*
X175697000Y-69556000D02*
X169997000Y-69556000D01*
X169997000Y-69556000D02*
X169997000Y-75256000D01*
X173518000Y-105546000D02*
X178018000Y-105546000D01*
X173518000Y-105546000D02*
X173518000Y-107296000D01*
X178018000Y-107296000D02*
X178018000Y-105546000D01*
X178018000Y-107296000D02*
X173518000Y-107296000D01*
X106208000Y-105800000D02*
X110708000Y-105800000D01*
X106208000Y-105800000D02*
X106208000Y-107550000D01*
X110708000Y-107550000D02*
X110708000Y-105800000D01*
X110708000Y-107550000D02*
X106208000Y-107550000D01*
X167731000Y-67174000D02*
X163231000Y-67174000D01*
X167731000Y-67174000D02*
X167731000Y-65424000D01*
X163231000Y-65424000D02*
X163231000Y-67174000D01*
X163231000Y-65424000D02*
X167731000Y-65424000D01*
X116368000Y-105800000D02*
X120868000Y-105800000D01*
X116368000Y-105800000D02*
X116368000Y-107550000D01*
X120868000Y-107550000D02*
X120868000Y-105800000D01*
X120868000Y-107550000D02*
X116368000Y-107550000D01*
X157571000Y-67174000D02*
X153071000Y-67174000D01*
X157571000Y-67174000D02*
X157571000Y-65424000D01*
X153071000Y-65424000D02*
X153071000Y-67174000D01*
X153071000Y-65424000D02*
X157571000Y-65424000D01*
X153198000Y-105800000D02*
X157698000Y-105800000D01*
X153198000Y-105800000D02*
X153198000Y-107550000D01*
X157698000Y-107550000D02*
X157698000Y-105800000D01*
X157698000Y-107550000D02*
X153198000Y-107550000D01*
X163231000Y-105546000D02*
X167731000Y-105546000D01*
X163231000Y-105546000D02*
X163231000Y-107296000D01*
X167731000Y-107296000D02*
X167731000Y-105546000D01*
X167731000Y-107296000D02*
X163231000Y-107296000D01*
X93262000Y-118050000D02*
X98762000Y-118050000D01*
X93262000Y-110550000D02*
X98762000Y-110550000D01*
X93262000Y-118050000D02*
X93262000Y-110550000D01*
X98762000Y-118050000D02*
X98762000Y-110550000D01*
X170351000Y-118050000D02*
X175851000Y-118050000D01*
X170351000Y-110550000D02*
X175851000Y-110550000D01*
X170351000Y-118050000D02*
X170351000Y-110550000D01*
X175851000Y-118050000D02*
X175851000Y-110550000D01*
X103168000Y-118050000D02*
X108668000Y-118050000D01*
X103168000Y-110550000D02*
X108668000Y-110550000D01*
X103168000Y-118050000D02*
X103168000Y-110550000D01*
X108668000Y-118050000D02*
X108668000Y-110550000D01*
X170898000Y-54924000D02*
X165398000Y-54924000D01*
X170898000Y-62424000D02*
X165398000Y-62424000D01*
X170898000Y-54924000D02*
X170898000Y-62424000D01*
X165398000Y-54924000D02*
X165398000Y-62424000D01*
X113328000Y-118050000D02*
X118828000Y-118050000D01*
X113328000Y-110550000D02*
X118828000Y-110550000D01*
X113328000Y-118050000D02*
X113328000Y-110550000D01*
X118828000Y-118050000D02*
X118828000Y-110550000D01*
X150031000Y-118050000D02*
X155531000Y-118050000D01*
X150031000Y-110550000D02*
X155531000Y-110550000D01*
X150031000Y-118050000D02*
X150031000Y-110550000D01*
X155531000Y-118050000D02*
X155531000Y-110550000D01*
X160064000Y-118050000D02*
X165564000Y-118050000D01*
X160064000Y-110550000D02*
X165564000Y-110550000D01*
X160064000Y-118050000D02*
X160064000Y-110550000D01*
X165564000Y-118050000D02*
X165564000Y-110550000D01*
X96429000Y-105800000D02*
X100929000Y-105800000D01*
X96429000Y-105800000D02*
X96429000Y-107550000D01*
X100929000Y-107550000D02*
X100929000Y-105800000D01*
X100929000Y-107550000D02*
X96429000Y-107550000D01*
M02*
