M48
;DRILL file {KiCad 4.0.7-e2-6376~58~ubuntu16.04.1} date Mon Dec 11 18:42:40 2017
;FORMAT={-:-/ absolute / inch / decimal}
FMAT,2
INCH,TZ
T1C0.016
T2C0.026
T3C0.031
T4C0.032
T5C0.039
T6C0.039
T7C0.040
T8C0.045
T9C0.060
%
G90
G05
M72
T1
X3.755Y-4.29
X4.145Y-4.29
X4.545Y-4.29
X5.99Y-4.29
X6.245Y-2.515
X6.385Y-4.29
X6.65Y-2.515
X6.79Y-4.29
T2
X4.3622Y-2.0748
X4.3622Y-2.1535
X4.3622Y-2.2323
X4.3622Y-2.311
X4.3622Y-2.3898
X4.3622Y-2.4685
X4.3622Y-2.5472
X4.3622Y-2.626
X4.9134Y-2.0748
X4.9134Y-2.1535
X4.9134Y-2.2323
X4.9134Y-2.311
X4.9134Y-2.3898
X4.9134Y-2.4685
X4.9134Y-2.5472
X4.9134Y-2.626
T3
X3.68Y-2.1031
X3.68Y-2.3
X3.88Y-2.1813
X3.88Y-2.26
X6.805Y-2.8113
X6.805Y-2.89
X7.0663Y-2.855
X7.145Y-2.855
T4
X4.01Y-2.605
X6.35Y-3.665
X7.09Y-2.41
T5
X4.22Y-2.805
X6.56Y-3.14
X6.56Y-3.66
X7.29Y-3.14
X7.29Y-3.66
X7.2999Y-2.21
X7.2999Y-2.61
T6
X4.1Y-1.95
X4.1Y-2.35
X5.175Y-2.15
X5.175Y-2.55
T7
X3.975Y-3.75
X4.075Y-3.75
X4.175Y-3.15
X4.175Y-3.75
X4.275Y-3.15
X4.275Y-3.75
X4.375Y-3.15
X4.375Y-3.75
X4.475Y-3.15
X4.475Y-3.75
X4.575Y-3.15
X4.575Y-3.75
X4.675Y-3.15
X4.675Y-3.75
X4.775Y-3.75
X4.875Y-3.75
X4.975Y-3.75
X5.075Y-3.75
X5.71Y-3.055
X5.71Y-3.155
X5.71Y-3.255
X5.71Y-3.355
T8
X3.86Y-2.6
X3.86Y-2.7
X3.86Y-2.8
T9
X3.68Y-4.86
X3.88Y-4.86
X4.075Y-4.86
X4.275Y-4.86
X4.47Y-4.86
X4.67Y-4.86
X5.92Y-4.86
X6.12Y-1.95
X6.12Y-4.86
X6.315Y-4.86
X6.32Y-1.95
X6.515Y-4.86
X6.52Y-1.95
X6.71Y-4.86
X6.72Y-1.95
X6.91Y-4.86
X7.1Y-1.95
X7.3Y-1.95
T0
M30
