G04 #@! TF.FileFunction,Copper,L2,Bot,Signal*
%FSLAX46Y46*%
G04 Gerber Fmt 4.6, Leading zero omitted, Abs format (unit mm)*
G04 Created by KiCad (PCBNEW 4.0.7-e2-6376~58~ubuntu16.04.1) date Thu Sep  7 17:48:40 2017*
%MOMM*%
%LPD*%
G01*
G04 APERTURE LIST*
%ADD10C,0.100000*%
%ADD11R,2.540000X2.540000*%
%ADD12C,2.540000*%
%ADD13C,1.998980*%
%ADD14R,1.727200X2.032000*%
%ADD15O,1.727200X2.032000*%
%ADD16O,2.540000X2.032000*%
%ADD17R,2.800000X1.100000*%
%ADD18O,2.800000X1.100000*%
%ADD19R,1.300000X1.300000*%
%ADD20C,1.300000*%
%ADD21C,1.699260*%
%ADD22R,1.699260X1.699260*%
%ADD23R,2.032000X1.727200*%
%ADD24O,2.032000X1.727200*%
%ADD25C,1.600000*%
%ADD26C,1.900000*%
%ADD27C,1.000000*%
%ADD28C,0.800000*%
%ADD29C,1.200000*%
%ADD30C,0.600000*%
%ADD31C,0.254000*%
G04 APERTURE END LIST*
D10*
D11*
X160360000Y-123600000D03*
D12*
X165440000Y-123600000D03*
D13*
X165735000Y-114300000D03*
X165735000Y-104140000D03*
D11*
X170540000Y-49500000D03*
D12*
X165460000Y-49500000D03*
D11*
X185465000Y-49525000D03*
D12*
X180385000Y-49525000D03*
D11*
X160580000Y-49525000D03*
D12*
X155500000Y-49525000D03*
X150420000Y-49525000D03*
D14*
X121285000Y-95250000D03*
D15*
X123825000Y-95250000D03*
X126365000Y-95250000D03*
X128905000Y-95250000D03*
D16*
X99100000Y-59700000D03*
X99100000Y-57160000D03*
X99100000Y-62240000D03*
D17*
X110300000Y-52700000D03*
D18*
X110300000Y-54700000D03*
X110300000Y-56700000D03*
X110300000Y-58700000D03*
X110300000Y-60700000D03*
X110300000Y-62700000D03*
X110300000Y-64700000D03*
X110300000Y-66700000D03*
X125300000Y-66700000D03*
X125300000Y-64700000D03*
X125300000Y-62700000D03*
X125300000Y-60700000D03*
X125300000Y-58700000D03*
X125300000Y-56700000D03*
X125300000Y-54700000D03*
X125300000Y-52700000D03*
D19*
X139065000Y-107315000D03*
D20*
X137065000Y-107315000D03*
D19*
X180340000Y-62230000D03*
D20*
X180340000Y-60230000D03*
D19*
X104775000Y-68580000D03*
D20*
X104775000Y-70580000D03*
D21*
X185417460Y-55879480D03*
D22*
X185417460Y-66039480D03*
D21*
X171002540Y-84160520D03*
D22*
X171002540Y-74000520D03*
D11*
X93460000Y-123600000D03*
D12*
X98540000Y-123600000D03*
D11*
X150360000Y-123600000D03*
D12*
X155440000Y-123600000D03*
D11*
X103460000Y-123600000D03*
D12*
X108540000Y-123600000D03*
D11*
X113360000Y-123600000D03*
D12*
X118440000Y-123600000D03*
D11*
X123360000Y-123600000D03*
D12*
X128440000Y-123600000D03*
D14*
X100965000Y-95250000D03*
D15*
X103505000Y-95250000D03*
X106045000Y-95250000D03*
X108585000Y-95250000D03*
X111125000Y-95250000D03*
X113665000Y-95250000D03*
X116205000Y-95250000D03*
X118745000Y-95250000D03*
D23*
X142240000Y-78105000D03*
D24*
X142240000Y-80645000D03*
X142240000Y-83185000D03*
X142240000Y-85725000D03*
D14*
X118745000Y-80010000D03*
D15*
X116205000Y-80010000D03*
X113665000Y-80010000D03*
X111125000Y-80010000D03*
X108585000Y-80010000D03*
X106045000Y-80010000D03*
D13*
X144780000Y-92075000D03*
X144780000Y-102235000D03*
X171000000Y-70000000D03*
X171000000Y-59840000D03*
X144780000Y-107315000D03*
X144780000Y-117475000D03*
X155575000Y-114300000D03*
X155575000Y-104140000D03*
X107315000Y-114935000D03*
X107315000Y-104775000D03*
X117475000Y-114935000D03*
X117475000Y-104775000D03*
X151130000Y-57150000D03*
X161290000Y-57150000D03*
X131445000Y-64770000D03*
X131445000Y-54610000D03*
X104140000Y-59690000D03*
X104140000Y-49530000D03*
X185420000Y-71120000D03*
X92710000Y-62230000D03*
X99060000Y-114300000D03*
X99060000Y-104140000D03*
X128905000Y-114935000D03*
X128905000Y-104775000D03*
D25*
X97155000Y-117475000D03*
X92155000Y-117475000D03*
X154305000Y-117475000D03*
X149305000Y-117475000D03*
X93345000Y-54610000D03*
X93345000Y-49610000D03*
X107315000Y-118110000D03*
X102315000Y-118110000D03*
X164465000Y-117475000D03*
X159465000Y-117475000D03*
X117475000Y-118110000D03*
X112475000Y-118110000D03*
X127635000Y-118110000D03*
X122635000Y-118110000D03*
X168910000Y-55880000D03*
X163910000Y-55880000D03*
D26*
X161290000Y-70485000D03*
X161290000Y-60325000D03*
D27*
X124800000Y-54700000D02*
X120105000Y-54700000D01*
X120105000Y-54700000D02*
X118745000Y-56060000D01*
X111125000Y-78105000D02*
X111125000Y-80010000D01*
X118745000Y-70485000D02*
X111125000Y-78105000D01*
X118745000Y-56060000D02*
X118745000Y-70485000D01*
X124800000Y-52700000D02*
X117480000Y-52700000D01*
X108585000Y-77470000D02*
X108585000Y-80010000D01*
X116205000Y-69850000D02*
X108585000Y-77470000D01*
X116205000Y-53975000D02*
X116205000Y-69850000D01*
X117480000Y-52700000D02*
X116205000Y-53975000D01*
X104140000Y-49530000D02*
X104140000Y-53340000D01*
X107500000Y-56700000D02*
X110800000Y-56700000D01*
X104140000Y-53340000D02*
X107500000Y-56700000D01*
X124800000Y-64700000D02*
X131375000Y-64700000D01*
X131375000Y-64700000D02*
X131445000Y-64770000D01*
D28*
X93345000Y-54610000D02*
X93345000Y-59055000D01*
X93345000Y-59055000D02*
X93990000Y-59700000D01*
X93990000Y-59700000D02*
X99100000Y-59700000D01*
D27*
X99100000Y-59700000D02*
X93990000Y-59700000D01*
X93990000Y-59700000D02*
X92710000Y-60980000D01*
X92710000Y-60980000D02*
X92710000Y-62230000D01*
X104775000Y-68580000D02*
X104775000Y-63500000D01*
X104775000Y-63500000D02*
X104140000Y-62865000D01*
X104140000Y-62865000D02*
X104140000Y-59690000D01*
D29*
X104140000Y-59690000D02*
X104140000Y-62865000D01*
X107975000Y-66700000D02*
X110800000Y-66700000D01*
X104140000Y-62865000D02*
X107975000Y-66700000D01*
X99100000Y-59700000D02*
X104130000Y-59700000D01*
X104130000Y-59700000D02*
X104140000Y-59690000D01*
D27*
X110650000Y-66600000D02*
X110750000Y-66700000D01*
D28*
X110650000Y-66600000D02*
X110750000Y-66700000D01*
D29*
X177163960Y-67310000D02*
X180340000Y-64133960D01*
X142875000Y-67310000D02*
X177163960Y-67310000D01*
X126365000Y-83820000D02*
X142875000Y-67310000D01*
X102870000Y-83820000D02*
X126365000Y-83820000D01*
X180340000Y-64133960D02*
X180340000Y-62230000D01*
X128905000Y-95250000D02*
X169545000Y-95250000D01*
X169545000Y-95250000D02*
X179070000Y-85725000D01*
X179070000Y-85725000D02*
X179070000Y-65403960D01*
X179070000Y-65403960D02*
X180340000Y-64133960D01*
X180340000Y-64133960D02*
X180340000Y-62230000D01*
X180340000Y-64133960D02*
X180340000Y-62230000D01*
X182880000Y-66039480D02*
X182880000Y-66040000D01*
X182880000Y-66040000D02*
X182880000Y-66039480D01*
D28*
X185417460Y-66039480D02*
X185417460Y-71117460D01*
X185417460Y-71117460D02*
X185420000Y-71120000D01*
D29*
X180340000Y-64133960D02*
X180340000Y-62230000D01*
X185417460Y-66039480D02*
X182880000Y-66039480D01*
X182880000Y-66039480D02*
X182245520Y-66039480D01*
X182245520Y-66039480D02*
X180340000Y-64133960D01*
X180340000Y-64133960D02*
X180340000Y-62230000D01*
D27*
X98960000Y-62100000D02*
X99100000Y-62240000D01*
D29*
X99100000Y-62240000D02*
X99100000Y-80050000D01*
X99100000Y-80050000D02*
X102870000Y-83820000D01*
D28*
X121285000Y-95250000D02*
X121285000Y-93345000D01*
X121285000Y-93345000D02*
X123190000Y-91440000D01*
X123190000Y-91440000D02*
X130175000Y-91440000D01*
X130175000Y-91440000D02*
X132080000Y-89535000D01*
X132080000Y-89535000D02*
X142240000Y-89535000D01*
X142240000Y-89535000D02*
X144780000Y-92075000D01*
D27*
X148930520Y-84160520D02*
X171002540Y-84160520D01*
X161290000Y-57150000D02*
X161290000Y-60325000D01*
X148590000Y-83185000D02*
X142240000Y-83185000D01*
X161290000Y-70485000D02*
X148590000Y-83185000D01*
X142240000Y-83185000D02*
X147955000Y-83185000D01*
X147955000Y-83185000D02*
X148930520Y-84160520D01*
X142240000Y-83185000D02*
X138430000Y-83185000D01*
X138430000Y-83185000D02*
X130175000Y-91440000D01*
X130175000Y-91440000D02*
X123190000Y-91440000D01*
X123190000Y-91440000D02*
X121285000Y-93345000D01*
X121285000Y-95250000D02*
X121285000Y-93345000D01*
X121285000Y-93345000D02*
X123190000Y-91440000D01*
X161290000Y-57150000D02*
X161290000Y-57785000D01*
X160580000Y-49525000D02*
X160580000Y-56440000D01*
X160580000Y-56440000D02*
X161290000Y-57150000D01*
D28*
X155500000Y-49525000D02*
X155500000Y-52780000D01*
X155500000Y-52780000D02*
X151130000Y-57150000D01*
X113665000Y-80010000D02*
X113665000Y-78740000D01*
X143510000Y-57150000D02*
X151130000Y-57150000D01*
X129540000Y-71120000D02*
X143510000Y-57150000D01*
X121285000Y-71120000D02*
X129540000Y-71120000D01*
X113665000Y-78740000D02*
X121285000Y-71120000D01*
D27*
X113665000Y-80010000D02*
X113665000Y-79375000D01*
X110800000Y-52700000D02*
X111755000Y-52700000D01*
X111755000Y-52700000D02*
X113665000Y-54610000D01*
X106045000Y-76835000D02*
X106045000Y-80010000D01*
X113665000Y-69215000D02*
X106045000Y-76835000D01*
X113665000Y-54610000D02*
X113665000Y-69215000D01*
D28*
X166705000Y-64135000D02*
X171000000Y-59840000D01*
X140970000Y-64135000D02*
X166705000Y-64135000D01*
X129540000Y-75565000D02*
X140970000Y-64135000D01*
X123190000Y-75565000D02*
X129540000Y-75565000D01*
X118745000Y-80010000D02*
X123190000Y-75565000D01*
X170540000Y-49500000D02*
X170540000Y-54250000D01*
X170540000Y-54250000D02*
X168910000Y-55880000D01*
X170815000Y-55880000D02*
X170815000Y-59655000D01*
X170815000Y-59655000D02*
X171000000Y-59840000D01*
D27*
X170540000Y-49500000D02*
X170540000Y-52430000D01*
X170815000Y-52705000D02*
X170815000Y-55880000D01*
X170540000Y-52430000D02*
X170815000Y-52705000D01*
D29*
X185465000Y-49525000D02*
X185465000Y-55831940D01*
X185465000Y-55831940D02*
X185417460Y-55879480D01*
D28*
X144780000Y-107315000D02*
X142240000Y-107315000D01*
X139065000Y-110490000D02*
X139065000Y-124460000D01*
X142240000Y-107315000D02*
X139065000Y-110490000D01*
X139065000Y-124460000D02*
X136525000Y-127000000D01*
X136525000Y-127000000D02*
X129245000Y-127000000D01*
X129245000Y-127000000D02*
X128440000Y-126195000D01*
X128440000Y-126195000D02*
X128440000Y-123600000D01*
X128905000Y-114935000D02*
X128905000Y-123135000D01*
X128905000Y-123135000D02*
X128440000Y-123600000D01*
X128905000Y-114935000D02*
X128905000Y-116840000D01*
X128905000Y-116840000D02*
X127635000Y-118110000D01*
X117475000Y-118110000D02*
X117475000Y-122635000D01*
X117475000Y-122635000D02*
X118440000Y-123600000D01*
X117475000Y-114935000D02*
X117475000Y-118110000D01*
X107315000Y-118110000D02*
X107315000Y-122375000D01*
X107315000Y-122375000D02*
X108540000Y-123600000D01*
X107315000Y-114935000D02*
X107315000Y-118110000D01*
X144780000Y-102235000D02*
X144780000Y-107315000D01*
X139065000Y-124460000D02*
X141605000Y-127000000D01*
X141605000Y-127000000D02*
X153670000Y-127000000D01*
X153670000Y-127000000D02*
X155440000Y-125230000D01*
X155440000Y-125230000D02*
X155440000Y-123600000D01*
X136525000Y-127000000D02*
X129245000Y-127000000D01*
X139065000Y-124460000D02*
X136525000Y-127000000D01*
X129245000Y-127000000D02*
X128440000Y-126195000D01*
X128440000Y-126195000D02*
X128440000Y-123600000D01*
X128440000Y-123600000D02*
X128440000Y-126195000D01*
X128440000Y-126195000D02*
X129245000Y-127000000D01*
X155440000Y-125595000D02*
X155440000Y-123600000D01*
X118440000Y-123600000D02*
X118440000Y-126060000D01*
X118440000Y-126060000D02*
X119380000Y-127000000D01*
X119380000Y-127000000D02*
X127635000Y-127000000D01*
X127635000Y-127000000D02*
X128440000Y-126195000D01*
X144780000Y-107315000D02*
X139065000Y-107315000D01*
X155440000Y-123600000D02*
X155440000Y-125595000D01*
X165440000Y-125390000D02*
X165440000Y-123600000D01*
X163830000Y-127000000D02*
X165440000Y-125390000D01*
X156845000Y-127000000D02*
X163830000Y-127000000D01*
X155440000Y-125595000D02*
X156845000Y-127000000D01*
X108540000Y-123600000D02*
X108540000Y-125775000D01*
X108540000Y-125775000D02*
X109765000Y-127000000D01*
X109765000Y-127000000D02*
X117475000Y-127000000D01*
X117475000Y-127000000D02*
X118440000Y-126035000D01*
X118440000Y-126035000D02*
X118440000Y-123600000D01*
X98540000Y-123600000D02*
X98540000Y-125845000D01*
X107315000Y-127000000D02*
X108540000Y-125775000D01*
X99695000Y-127000000D02*
X107315000Y-127000000D01*
X98540000Y-125845000D02*
X99695000Y-127000000D01*
X165735000Y-114300000D02*
X165735000Y-116205000D01*
X165735000Y-116205000D02*
X164465000Y-117475000D01*
X155575000Y-114300000D02*
X155575000Y-116205000D01*
X155575000Y-116205000D02*
X154305000Y-117475000D01*
X165735000Y-114300000D02*
X165735000Y-123305000D01*
X165735000Y-123305000D02*
X165440000Y-123600000D01*
X155575000Y-114300000D02*
X155575000Y-123465000D01*
X155575000Y-123465000D02*
X155440000Y-123600000D01*
X128905000Y-123135000D02*
X128440000Y-123600000D01*
X118745000Y-123295000D02*
X118440000Y-123600000D01*
X108585000Y-123555000D02*
X108540000Y-123600000D01*
X99060000Y-114300000D02*
X99060000Y-115570000D01*
X99060000Y-115570000D02*
X97155000Y-117475000D01*
X99060000Y-114300000D02*
X99060000Y-123080000D01*
X99060000Y-123080000D02*
X98540000Y-123600000D01*
D27*
X166000000Y-123040000D02*
X165440000Y-123600000D01*
D28*
X156000000Y-123040000D02*
X155440000Y-123600000D01*
D27*
X108540000Y-123600000D02*
X108540000Y-124505000D01*
X128440000Y-123600000D02*
X128440000Y-123995000D01*
X99000000Y-123140000D02*
X98540000Y-123600000D01*
X109000000Y-123140000D02*
X108540000Y-123600000D01*
X119000000Y-123040000D02*
X118440000Y-123600000D01*
X129000000Y-123040000D02*
X128440000Y-123600000D01*
D28*
X102315000Y-118110000D02*
X102315000Y-122455000D01*
X102315000Y-122455000D02*
X103460000Y-123600000D01*
X107315000Y-104775000D02*
X106680000Y-104775000D01*
X106680000Y-104775000D02*
X102315000Y-109140000D01*
X102315000Y-109140000D02*
X102315000Y-118110000D01*
X103505000Y-100965000D02*
X107315000Y-104775000D01*
X103505000Y-95250000D02*
X103505000Y-100965000D01*
D30*
X165735000Y-101600000D02*
X165735000Y-104140000D01*
X161925000Y-97790000D02*
X165735000Y-101600000D01*
X120015000Y-97790000D02*
X161925000Y-97790000D01*
D28*
X159465000Y-117475000D02*
X159465000Y-122705000D01*
X159465000Y-122705000D02*
X160360000Y-123600000D01*
X165735000Y-104140000D02*
X162560000Y-104140000D01*
X159465000Y-107235000D02*
X159465000Y-117475000D01*
X162560000Y-104140000D02*
X159465000Y-107235000D01*
D27*
X160250000Y-123490000D02*
X160360000Y-123600000D01*
D30*
X118745000Y-95250000D02*
X118745000Y-96520000D01*
X118745000Y-96520000D02*
X120015000Y-97790000D01*
D28*
X112475000Y-118110000D02*
X112475000Y-122715000D01*
X112475000Y-122715000D02*
X113360000Y-123600000D01*
X117475000Y-104775000D02*
X114935000Y-104775000D01*
X112475000Y-107235000D02*
X112475000Y-118110000D01*
X114935000Y-104775000D02*
X112475000Y-107235000D01*
X106045000Y-95250000D02*
X106045000Y-98425000D01*
X112395000Y-104775000D02*
X117475000Y-104775000D01*
X106045000Y-98425000D02*
X112395000Y-104775000D01*
X112475000Y-122715000D02*
X113360000Y-123600000D01*
D30*
X108585000Y-95250000D02*
X108585000Y-97790000D01*
X108585000Y-97790000D02*
X112395000Y-101600000D01*
X112395000Y-101600000D02*
X120015000Y-101600000D01*
X120015000Y-101600000D02*
X122635000Y-104220000D01*
X122635000Y-104220000D02*
X122635000Y-118110000D01*
X125730000Y-101600000D02*
X128905000Y-104775000D01*
X112395000Y-101600000D02*
X125730000Y-101600000D01*
X108585000Y-97790000D02*
X112395000Y-101600000D01*
D28*
X122635000Y-118110000D02*
X122635000Y-122875000D01*
X122635000Y-122875000D02*
X123360000Y-123600000D01*
X108585000Y-95250000D02*
X108585000Y-95885000D01*
X122635000Y-122875000D02*
X123360000Y-123600000D01*
X92155000Y-117475000D02*
X92155000Y-122295000D01*
X92155000Y-122295000D02*
X93460000Y-123600000D01*
X99060000Y-104140000D02*
X96520000Y-104140000D01*
X92155000Y-108505000D02*
X92155000Y-117475000D01*
X96520000Y-104140000D02*
X92155000Y-108505000D01*
X99060000Y-99060000D02*
X99060000Y-104140000D01*
X100965000Y-95250000D02*
X100965000Y-97155000D01*
X100965000Y-97155000D02*
X99060000Y-99060000D01*
D30*
X116205000Y-95250000D02*
X116205000Y-97155000D01*
X155575000Y-101600000D02*
X155575000Y-104140000D01*
X153670000Y-99695000D02*
X155575000Y-101600000D01*
X118745000Y-99695000D02*
X153670000Y-99695000D01*
X116205000Y-97155000D02*
X118745000Y-99695000D01*
D28*
X149305000Y-117475000D02*
X149305000Y-122545000D01*
X149305000Y-122545000D02*
X150360000Y-123600000D01*
X155575000Y-104140000D02*
X151765000Y-104140000D01*
X149305000Y-106600000D02*
X149305000Y-117475000D01*
X151765000Y-104140000D02*
X149305000Y-106600000D01*
D27*
X171000000Y-70000000D02*
X171000000Y-73997980D01*
X171000000Y-73997980D02*
X171002540Y-74000520D01*
D28*
X137160000Y-80645000D02*
X142240000Y-80645000D01*
X129540000Y-88265000D02*
X137160000Y-80645000D01*
X114935000Y-88265000D02*
X129540000Y-88265000D01*
X113665000Y-95250000D02*
X113665000Y-89535000D01*
X113665000Y-89535000D02*
X114935000Y-88265000D01*
X111125000Y-95250000D02*
X111125000Y-88265000D01*
X136525000Y-78105000D02*
X142240000Y-78105000D01*
X128270000Y-86360000D02*
X136525000Y-78105000D01*
X113030000Y-86360000D02*
X128270000Y-86360000D01*
X111125000Y-88265000D02*
X113030000Y-86360000D01*
D27*
X111125000Y-95250000D02*
X111125000Y-94615000D01*
D31*
G36*
X107188000Y-52070000D02*
X107196685Y-52116159D01*
X107223965Y-52158553D01*
X107265590Y-52186994D01*
X107315000Y-52197000D01*
X108252560Y-52197000D01*
X108252560Y-53250000D01*
X108296838Y-53485317D01*
X108435910Y-53701441D01*
X108622162Y-53828701D01*
X108572210Y-53862078D01*
X108315335Y-54246520D01*
X108225132Y-54700000D01*
X108315335Y-55153480D01*
X108572210Y-55537922D01*
X108612735Y-55565000D01*
X107970133Y-55565000D01*
X105275000Y-52869868D01*
X105275000Y-50706484D01*
X105524846Y-50457073D01*
X105774206Y-49856547D01*
X105774774Y-49206306D01*
X105526462Y-48605345D01*
X105067073Y-48145154D01*
X104466547Y-47895794D01*
X103816306Y-47895226D01*
X103215345Y-48143538D01*
X102755154Y-48602927D01*
X102505794Y-49203453D01*
X102505226Y-49853694D01*
X102753538Y-50454655D01*
X103005000Y-50706556D01*
X103005000Y-53340000D01*
X103091397Y-53774346D01*
X103144569Y-53853923D01*
X103337434Y-54142566D01*
X106697434Y-57502567D01*
X107065655Y-57748604D01*
X107500000Y-57835000D01*
X108612735Y-57835000D01*
X108572210Y-57862078D01*
X108315335Y-58246520D01*
X108225132Y-58700000D01*
X108315335Y-59153480D01*
X108572210Y-59537922D01*
X108814778Y-59700000D01*
X108572210Y-59862078D01*
X108315335Y-60246520D01*
X108225132Y-60700000D01*
X108315335Y-61153480D01*
X108572210Y-61537922D01*
X108814778Y-61700000D01*
X108572210Y-61862078D01*
X108315335Y-62246520D01*
X108225132Y-62700000D01*
X108315335Y-63153480D01*
X108572210Y-63537922D01*
X108814778Y-63700000D01*
X108572210Y-63862078D01*
X108315335Y-64246520D01*
X108225132Y-64700000D01*
X108315335Y-65153480D01*
X108523485Y-65465000D01*
X108486554Y-65465000D01*
X105375000Y-62353446D01*
X105375000Y-60766658D01*
X105524846Y-60617073D01*
X105774206Y-60016547D01*
X105774774Y-59366306D01*
X105526462Y-58765345D01*
X105067073Y-58305154D01*
X104466547Y-58055794D01*
X103816306Y-58055226D01*
X103215345Y-58303538D01*
X103053601Y-58465000D01*
X100457633Y-58465000D01*
X100384219Y-58415946D01*
X100611236Y-58237630D01*
X100927926Y-57674477D01*
X100959975Y-57542944D01*
X100840836Y-57287000D01*
X99227000Y-57287000D01*
X99227000Y-57307000D01*
X98973000Y-57307000D01*
X98973000Y-57287000D01*
X97359164Y-57287000D01*
X97240025Y-57542944D01*
X97272074Y-57674477D01*
X97588764Y-58237630D01*
X97815781Y-58415946D01*
X97641246Y-58532567D01*
X97619575Y-58565000D01*
X94380000Y-58565000D01*
X94380000Y-56777056D01*
X97240025Y-56777056D01*
X97359164Y-57033000D01*
X98973000Y-57033000D01*
X98973000Y-55509000D01*
X99227000Y-55509000D01*
X99227000Y-57033000D01*
X100840836Y-57033000D01*
X100959975Y-56777056D01*
X100927926Y-56645523D01*
X100611236Y-56082370D01*
X100103143Y-55683276D01*
X99481000Y-55509000D01*
X99227000Y-55509000D01*
X98973000Y-55509000D01*
X98719000Y-55509000D01*
X98096857Y-55683276D01*
X97588764Y-56082370D01*
X97272074Y-56645523D01*
X97240025Y-56777056D01*
X94380000Y-56777056D01*
X94380000Y-55604432D01*
X94560824Y-55423923D01*
X94779750Y-54896691D01*
X94780248Y-54325813D01*
X94562243Y-53798200D01*
X94158923Y-53394176D01*
X93631691Y-53175250D01*
X93060813Y-53174752D01*
X92533200Y-53392757D01*
X92129176Y-53796077D01*
X91910250Y-54323309D01*
X91909752Y-54894187D01*
X92127757Y-55421800D01*
X92310000Y-55604361D01*
X92310000Y-59054995D01*
X92309999Y-59055000D01*
X92388785Y-59451077D01*
X92486920Y-59597948D01*
X91907434Y-60177434D01*
X91661397Y-60545654D01*
X91575000Y-60980000D01*
X91575000Y-61053516D01*
X91325154Y-61302927D01*
X91075794Y-61903453D01*
X91075226Y-62553694D01*
X91323538Y-63154655D01*
X91782927Y-63614846D01*
X92383453Y-63864206D01*
X93033694Y-63864774D01*
X93634655Y-63616462D01*
X94094846Y-63157073D01*
X94344206Y-62556547D01*
X94344774Y-61906306D01*
X94096462Y-61305345D01*
X94043171Y-61251961D01*
X94460132Y-60835000D01*
X97619575Y-60835000D01*
X97641246Y-60867433D01*
X97794748Y-60970000D01*
X97641246Y-61072567D01*
X97283354Y-61608190D01*
X97157679Y-62240000D01*
X97283354Y-62871810D01*
X97641246Y-63407433D01*
X97865000Y-63556941D01*
X97865000Y-80050000D01*
X97959009Y-80522614D01*
X98226723Y-80923277D01*
X101996723Y-84693277D01*
X102397386Y-84960991D01*
X102870000Y-85055000D01*
X126365000Y-85055000D01*
X126837614Y-84960991D01*
X127238277Y-84693277D01*
X143386554Y-68545000D01*
X170241220Y-68545000D01*
X170075345Y-68613538D01*
X169615154Y-69072927D01*
X169365794Y-69673453D01*
X169365226Y-70323694D01*
X169613538Y-70924655D01*
X169865000Y-71176556D01*
X169865000Y-72581571D01*
X169701469Y-72686800D01*
X169556479Y-72899000D01*
X169505470Y-73150890D01*
X169505470Y-74850150D01*
X169549748Y-75085467D01*
X169688820Y-75301591D01*
X169901020Y-75446581D01*
X170152910Y-75497590D01*
X171852170Y-75497590D01*
X172087487Y-75453312D01*
X172303611Y-75314240D01*
X172448601Y-75102040D01*
X172499610Y-74850150D01*
X172499610Y-73150890D01*
X172455332Y-72915573D01*
X172316260Y-72699449D01*
X172135000Y-72575599D01*
X172135000Y-71176484D01*
X172384846Y-70927073D01*
X172634206Y-70326547D01*
X172634774Y-69676306D01*
X172386462Y-69075345D01*
X171927073Y-68615154D01*
X171758123Y-68545000D01*
X177163960Y-68545000D01*
X177636574Y-68450991D01*
X177835000Y-68318407D01*
X177835000Y-85213446D01*
X169033446Y-94015000D01*
X129970961Y-94015000D01*
X129964670Y-94005585D01*
X129478489Y-93680729D01*
X128905000Y-93566655D01*
X128331511Y-93680729D01*
X127845330Y-94005585D01*
X127638539Y-94315069D01*
X127267036Y-93899268D01*
X126739791Y-93645291D01*
X126724026Y-93642642D01*
X126492000Y-93763783D01*
X126492000Y-95123000D01*
X126512000Y-95123000D01*
X126512000Y-95377000D01*
X126492000Y-95377000D01*
X126492000Y-95397000D01*
X126238000Y-95397000D01*
X126238000Y-95377000D01*
X126218000Y-95377000D01*
X126218000Y-95123000D01*
X126238000Y-95123000D01*
X126238000Y-93763783D01*
X126005974Y-93642642D01*
X125990209Y-93645291D01*
X125462964Y-93899268D01*
X125091461Y-94315069D01*
X124884670Y-94005585D01*
X124398489Y-93680729D01*
X123825000Y-93566655D01*
X123251511Y-93680729D01*
X122765330Y-94005585D01*
X122755757Y-94019913D01*
X122751762Y-93998683D01*
X122612690Y-93782559D01*
X122517567Y-93717565D01*
X123660132Y-92575000D01*
X130175000Y-92575000D01*
X130609346Y-92488603D01*
X130977566Y-92242566D01*
X132650132Y-90570000D01*
X141811288Y-90570000D01*
X143145658Y-91904369D01*
X143145226Y-92398694D01*
X143393538Y-92999655D01*
X143852927Y-93459846D01*
X144453453Y-93709206D01*
X145103694Y-93709774D01*
X145704655Y-93461462D01*
X146164846Y-93002073D01*
X146414206Y-92401547D01*
X146414774Y-91751306D01*
X146166462Y-91150345D01*
X145707073Y-90690154D01*
X145106547Y-90440794D01*
X144609071Y-90440359D01*
X142971856Y-88803144D01*
X142636077Y-88578785D01*
X142240000Y-88499999D01*
X142239995Y-88500000D01*
X134720132Y-88500000D01*
X137136106Y-86084026D01*
X140632642Y-86084026D01*
X140635291Y-86099791D01*
X140889268Y-86627036D01*
X141325680Y-87016954D01*
X141878087Y-87210184D01*
X142113000Y-87065924D01*
X142113000Y-85852000D01*
X142367000Y-85852000D01*
X142367000Y-87065924D01*
X142601913Y-87210184D01*
X143154320Y-87016954D01*
X143590732Y-86627036D01*
X143844709Y-86099791D01*
X143847358Y-86084026D01*
X143726217Y-85852000D01*
X142367000Y-85852000D01*
X142113000Y-85852000D01*
X140753783Y-85852000D01*
X140632642Y-86084026D01*
X137136106Y-86084026D01*
X138900132Y-84320000D01*
X141108324Y-84320000D01*
X141305069Y-84451461D01*
X140889268Y-84822964D01*
X140635291Y-85350209D01*
X140632642Y-85365974D01*
X140753783Y-85598000D01*
X142113000Y-85598000D01*
X142113000Y-85578000D01*
X142367000Y-85578000D01*
X142367000Y-85598000D01*
X143726217Y-85598000D01*
X143847358Y-85365974D01*
X143844709Y-85350209D01*
X143590732Y-84822964D01*
X143174931Y-84451461D01*
X143371676Y-84320000D01*
X147484868Y-84320000D01*
X148127954Y-84963086D01*
X148496175Y-85209124D01*
X148930520Y-85295520D01*
X170037806Y-85295520D01*
X170160466Y-85418394D01*
X170705933Y-85644892D01*
X171296556Y-85645408D01*
X171842417Y-85419862D01*
X172260414Y-85002594D01*
X172486912Y-84457127D01*
X172487428Y-83866504D01*
X172261882Y-83320643D01*
X171844614Y-82902646D01*
X171299147Y-82676148D01*
X170708524Y-82675632D01*
X170162663Y-82901178D01*
X170038104Y-83025520D01*
X150354612Y-83025520D01*
X161310114Y-72070018D01*
X161603893Y-72070275D01*
X162186657Y-71829481D01*
X162632914Y-71384003D01*
X162874724Y-70801659D01*
X162875275Y-70171107D01*
X162634481Y-69588343D01*
X162189003Y-69142086D01*
X161606659Y-68900276D01*
X160976107Y-68899725D01*
X160393343Y-69140519D01*
X159947086Y-69585997D01*
X159705276Y-70168341D01*
X159705017Y-70464851D01*
X148119868Y-82050000D01*
X143371676Y-82050000D01*
X143169634Y-81915000D01*
X143484415Y-81704670D01*
X143809271Y-81218489D01*
X143923345Y-80645000D01*
X143809271Y-80071511D01*
X143484415Y-79585330D01*
X143470087Y-79575757D01*
X143491317Y-79571762D01*
X143707441Y-79432690D01*
X143852431Y-79220490D01*
X143903440Y-78968600D01*
X143903440Y-77241400D01*
X143859162Y-77006083D01*
X143720090Y-76789959D01*
X143507890Y-76644969D01*
X143256000Y-76593960D01*
X141224000Y-76593960D01*
X140988683Y-76638238D01*
X140772559Y-76777310D01*
X140627569Y-76989510D01*
X140611269Y-77070000D01*
X136525005Y-77070000D01*
X136525000Y-77069999D01*
X136128923Y-77148785D01*
X135793144Y-77373144D01*
X135793142Y-77373147D01*
X127841288Y-85325000D01*
X113030005Y-85325000D01*
X113030000Y-85324999D01*
X112633923Y-85403785D01*
X112298144Y-85628144D01*
X112298142Y-85628147D01*
X110393144Y-87533144D01*
X110168785Y-87868923D01*
X110089999Y-88265000D01*
X110090000Y-88265005D01*
X110090000Y-93989101D01*
X110065330Y-94005585D01*
X109855000Y-94320366D01*
X109644670Y-94005585D01*
X109158489Y-93680729D01*
X108585000Y-93566655D01*
X108011511Y-93680729D01*
X107525330Y-94005585D01*
X107315000Y-94320366D01*
X107104670Y-94005585D01*
X106618489Y-93680729D01*
X106045000Y-93566655D01*
X105471511Y-93680729D01*
X104985330Y-94005585D01*
X104775000Y-94320366D01*
X104564670Y-94005585D01*
X104078489Y-93680729D01*
X103505000Y-93566655D01*
X102931511Y-93680729D01*
X102445330Y-94005585D01*
X102435757Y-94019913D01*
X102431762Y-93998683D01*
X102292690Y-93782559D01*
X102080490Y-93637569D01*
X101828600Y-93586560D01*
X100101400Y-93586560D01*
X99866083Y-93630838D01*
X99649959Y-93769910D01*
X99504969Y-93982110D01*
X99453960Y-94234000D01*
X99453960Y-96266000D01*
X99498238Y-96501317D01*
X99637310Y-96717441D01*
X99816448Y-96839841D01*
X98328144Y-98328144D01*
X98103785Y-98663923D01*
X98024999Y-99060000D01*
X98025000Y-99060005D01*
X98025000Y-102863691D01*
X97783269Y-103105000D01*
X96520005Y-103105000D01*
X96520000Y-103104999D01*
X96123922Y-103183785D01*
X95989429Y-103273651D01*
X95788144Y-103408144D01*
X95788142Y-103408147D01*
X91423144Y-107773144D01*
X91198785Y-108108923D01*
X91119999Y-108505000D01*
X91120000Y-108505005D01*
X91120000Y-116480568D01*
X90939176Y-116661077D01*
X90720250Y-117188309D01*
X90719752Y-117759187D01*
X90937757Y-118286800D01*
X91120000Y-118469361D01*
X91120000Y-122294995D01*
X91119999Y-122295000D01*
X91198785Y-122691077D01*
X91423144Y-123026856D01*
X91542560Y-123146272D01*
X91542560Y-124870000D01*
X91586838Y-125105317D01*
X91725910Y-125321441D01*
X91938110Y-125466431D01*
X92190000Y-125517440D01*
X94730000Y-125517440D01*
X94965317Y-125473162D01*
X95181441Y-125334090D01*
X95326431Y-125121890D01*
X95377440Y-124870000D01*
X95377440Y-122330000D01*
X95333162Y-122094683D01*
X95194090Y-121878559D01*
X94981890Y-121733569D01*
X94730000Y-121682560D01*
X93190000Y-121682560D01*
X93190000Y-118469432D01*
X93370824Y-118288923D01*
X93589750Y-117761691D01*
X93590248Y-117190813D01*
X93372243Y-116663200D01*
X93190000Y-116480639D01*
X93190000Y-108933712D01*
X96948711Y-105175000D01*
X97783691Y-105175000D01*
X98132927Y-105524846D01*
X98733453Y-105774206D01*
X99383694Y-105774774D01*
X99984655Y-105526462D01*
X100444846Y-105067073D01*
X100694206Y-104466547D01*
X100694774Y-103816306D01*
X100446462Y-103215345D01*
X100095000Y-102863269D01*
X100095000Y-99488712D01*
X101696853Y-97886858D01*
X101696856Y-97886856D01*
X101921215Y-97551077D01*
X101953256Y-97389999D01*
X102000001Y-97155000D01*
X102000000Y-97154995D01*
X102000000Y-96881189D01*
X102063917Y-96869162D01*
X102280041Y-96730090D01*
X102425031Y-96517890D01*
X102433400Y-96476561D01*
X102445330Y-96494415D01*
X102470000Y-96510899D01*
X102470000Y-100964995D01*
X102469999Y-100965000D01*
X102548785Y-101361077D01*
X102773144Y-101696856D01*
X105533789Y-104457500D01*
X101583144Y-108408144D01*
X101358785Y-108743923D01*
X101279999Y-109140000D01*
X101280000Y-109140005D01*
X101280000Y-117115568D01*
X101099176Y-117296077D01*
X100880250Y-117823309D01*
X100879752Y-118394187D01*
X101097757Y-118921800D01*
X101280000Y-119104361D01*
X101280000Y-122454995D01*
X101279999Y-122455000D01*
X101358785Y-122851077D01*
X101542560Y-123126117D01*
X101542560Y-124870000D01*
X101586838Y-125105317D01*
X101725910Y-125321441D01*
X101938110Y-125466431D01*
X102190000Y-125517440D01*
X104730000Y-125517440D01*
X104965317Y-125473162D01*
X105181441Y-125334090D01*
X105326431Y-125121890D01*
X105377440Y-124870000D01*
X105377440Y-122330000D01*
X105333162Y-122094683D01*
X105194090Y-121878559D01*
X104981890Y-121733569D01*
X104730000Y-121682560D01*
X103350000Y-121682560D01*
X103350000Y-119104432D01*
X103530824Y-118923923D01*
X103749750Y-118396691D01*
X103750248Y-117825813D01*
X103532243Y-117298200D01*
X103350000Y-117115639D01*
X103350000Y-109568712D01*
X106650030Y-106268681D01*
X106988453Y-106409206D01*
X107638694Y-106409774D01*
X108239655Y-106161462D01*
X108699846Y-105702073D01*
X108949206Y-105101547D01*
X108949774Y-104451306D01*
X108701462Y-103850345D01*
X108242073Y-103390154D01*
X107641547Y-103140794D01*
X107144071Y-103140359D01*
X104540000Y-100536288D01*
X104540000Y-96510899D01*
X104564670Y-96494415D01*
X104775000Y-96179634D01*
X104985330Y-96494415D01*
X105010000Y-96510899D01*
X105010000Y-98424995D01*
X105009999Y-98425000D01*
X105088785Y-98821077D01*
X105313144Y-99156856D01*
X111663142Y-105506853D01*
X111663144Y-105506856D01*
X111951690Y-105699655D01*
X111998923Y-105731215D01*
X112395000Y-105810001D01*
X112395005Y-105810000D01*
X112436288Y-105810000D01*
X111743144Y-106503144D01*
X111518785Y-106838923D01*
X111439999Y-107235000D01*
X111440000Y-107235005D01*
X111440000Y-117115568D01*
X111259176Y-117296077D01*
X111040250Y-117823309D01*
X111039752Y-118394187D01*
X111257757Y-118921800D01*
X111440000Y-119104361D01*
X111440000Y-122714995D01*
X111439999Y-122715000D01*
X111442560Y-122727875D01*
X111442560Y-124870000D01*
X111486838Y-125105317D01*
X111625910Y-125321441D01*
X111838110Y-125466431D01*
X112090000Y-125517440D01*
X114630000Y-125517440D01*
X114865317Y-125473162D01*
X115081441Y-125334090D01*
X115226431Y-125121890D01*
X115277440Y-124870000D01*
X115277440Y-122330000D01*
X115233162Y-122094683D01*
X115094090Y-121878559D01*
X114881890Y-121733569D01*
X114630000Y-121682560D01*
X113510000Y-121682560D01*
X113510000Y-119104432D01*
X113690824Y-118923923D01*
X113909750Y-118396691D01*
X113910248Y-117825813D01*
X113692243Y-117298200D01*
X113510000Y-117115639D01*
X113510000Y-107663712D01*
X115363711Y-105810000D01*
X116198691Y-105810000D01*
X116547927Y-106159846D01*
X117148453Y-106409206D01*
X117798694Y-106409774D01*
X118399655Y-106161462D01*
X118859846Y-105702073D01*
X119109206Y-105101547D01*
X119109774Y-104451306D01*
X118861462Y-103850345D01*
X118402073Y-103390154D01*
X117801547Y-103140794D01*
X117151306Y-103140226D01*
X116550345Y-103388538D01*
X116198269Y-103740000D01*
X112823711Y-103740000D01*
X107080000Y-97996288D01*
X107080000Y-96510899D01*
X107104670Y-96494415D01*
X107315000Y-96179634D01*
X107525330Y-96494415D01*
X107650000Y-96577717D01*
X107650000Y-97790000D01*
X107721173Y-98147809D01*
X107923855Y-98451145D01*
X111733855Y-102261145D01*
X112037191Y-102463827D01*
X112395000Y-102535000D01*
X119627710Y-102535000D01*
X121700000Y-104607290D01*
X121700000Y-117015742D01*
X121419176Y-117296077D01*
X121200250Y-117823309D01*
X121199752Y-118394187D01*
X121417757Y-118921800D01*
X121600000Y-119104361D01*
X121600000Y-121922343D01*
X121493569Y-122078110D01*
X121442560Y-122330000D01*
X121442560Y-124870000D01*
X121486838Y-125105317D01*
X121625910Y-125321441D01*
X121838110Y-125466431D01*
X122090000Y-125517440D01*
X124630000Y-125517440D01*
X124865317Y-125473162D01*
X125081441Y-125334090D01*
X125226431Y-125121890D01*
X125277440Y-124870000D01*
X125277440Y-122330000D01*
X125233162Y-122094683D01*
X125094090Y-121878559D01*
X124881890Y-121733569D01*
X124630000Y-121682560D01*
X123670000Y-121682560D01*
X123670000Y-119104432D01*
X123850824Y-118923923D01*
X124069750Y-118396691D01*
X124070248Y-117825813D01*
X123852243Y-117298200D01*
X123570000Y-117015464D01*
X123570000Y-107134078D01*
X135767378Y-107134078D01*
X135796917Y-107644428D01*
X135935389Y-107978729D01*
X136165984Y-108034410D01*
X136885395Y-107315000D01*
X136165984Y-106595590D01*
X135935389Y-106651271D01*
X135767378Y-107134078D01*
X123570000Y-107134078D01*
X123570000Y-104220005D01*
X123570001Y-104220000D01*
X123498827Y-103862192D01*
X123498827Y-103862191D01*
X123296145Y-103558855D01*
X122272290Y-102535000D01*
X125342710Y-102535000D01*
X127270781Y-104463071D01*
X127270226Y-105098694D01*
X127518538Y-105699655D01*
X127977927Y-106159846D01*
X128578453Y-106409206D01*
X129228694Y-106409774D01*
X129829655Y-106161462D01*
X130289846Y-105702073D01*
X130539206Y-105101547D01*
X130539774Y-104451306D01*
X130291462Y-103850345D01*
X129832073Y-103390154D01*
X129231547Y-103140794D01*
X128592526Y-103140236D01*
X126391145Y-100938855D01*
X126087809Y-100736173D01*
X125730000Y-100665000D01*
X112782290Y-100665000D01*
X109520000Y-97402710D01*
X109520000Y-96577717D01*
X109644670Y-96494415D01*
X109855000Y-96179634D01*
X110065330Y-96494415D01*
X110551511Y-96819271D01*
X111125000Y-96933345D01*
X111698489Y-96819271D01*
X112184670Y-96494415D01*
X112395000Y-96179634D01*
X112605330Y-96494415D01*
X113091511Y-96819271D01*
X113665000Y-96933345D01*
X114238489Y-96819271D01*
X114724670Y-96494415D01*
X114935000Y-96179634D01*
X115145330Y-96494415D01*
X115270000Y-96577717D01*
X115270000Y-97155000D01*
X115341173Y-97512809D01*
X115543855Y-97816145D01*
X118083855Y-100356145D01*
X118387191Y-100558827D01*
X118745000Y-100630000D01*
X144384247Y-100630000D01*
X143855345Y-100848538D01*
X143395154Y-101307927D01*
X143145794Y-101908453D01*
X143145226Y-102558694D01*
X143393538Y-103159655D01*
X143745000Y-103511731D01*
X143745000Y-106038691D01*
X143503269Y-106280000D01*
X142240005Y-106280000D01*
X142240000Y-106279999D01*
X142239995Y-106280000D01*
X140221844Y-106280000D01*
X140179090Y-106213559D01*
X139966890Y-106068569D01*
X139715000Y-106017560D01*
X138415000Y-106017560D01*
X138179683Y-106061838D01*
X137963559Y-106200910D01*
X137886063Y-106314329D01*
X137784410Y-106415982D01*
X137728729Y-106185389D01*
X137245922Y-106017378D01*
X136735572Y-106046917D01*
X136401271Y-106185389D01*
X136345590Y-106415984D01*
X137065000Y-107135395D01*
X137079142Y-107121252D01*
X137258748Y-107300858D01*
X137244605Y-107315000D01*
X137258748Y-107329142D01*
X137079142Y-107508748D01*
X137065000Y-107494605D01*
X136345590Y-108214016D01*
X136401271Y-108444611D01*
X136884078Y-108612622D01*
X137394428Y-108583083D01*
X137728729Y-108444611D01*
X137784410Y-108214018D01*
X137886072Y-108315680D01*
X137950910Y-108416441D01*
X138163110Y-108561431D01*
X138415000Y-108612440D01*
X139478848Y-108612440D01*
X138333144Y-109758144D01*
X138108785Y-110093923D01*
X138029999Y-110490000D01*
X138030000Y-110490005D01*
X138030000Y-124031289D01*
X136096288Y-125965000D01*
X129673711Y-125965000D01*
X129475000Y-125766288D01*
X129475000Y-125233559D01*
X129517686Y-125215922D01*
X130054039Y-124680505D01*
X130344668Y-123980590D01*
X130345330Y-123222735D01*
X130055922Y-122522314D01*
X129940000Y-122406189D01*
X129940000Y-116840005D01*
X129940001Y-116840000D01*
X129940000Y-116839995D01*
X129940000Y-116211309D01*
X130289846Y-115862073D01*
X130539206Y-115261547D01*
X130539774Y-114611306D01*
X130291462Y-114010345D01*
X129832073Y-113550154D01*
X129231547Y-113300794D01*
X128581306Y-113300226D01*
X127980345Y-113548538D01*
X127520154Y-114007927D01*
X127270794Y-114608453D01*
X127270226Y-115258694D01*
X127518538Y-115859655D01*
X127870000Y-116211731D01*
X127870000Y-116411289D01*
X127606314Y-116674975D01*
X127350813Y-116674752D01*
X126823200Y-116892757D01*
X126419176Y-117296077D01*
X126200250Y-117823309D01*
X126199752Y-118394187D01*
X126417757Y-118921800D01*
X126821077Y-119325824D01*
X127348309Y-119544750D01*
X127870000Y-119545205D01*
X127870000Y-121774306D01*
X127362314Y-121984078D01*
X126825961Y-122519495D01*
X126535332Y-123219410D01*
X126534670Y-123977265D01*
X126824078Y-124677686D01*
X127359495Y-125214039D01*
X127405000Y-125232934D01*
X127405000Y-125766289D01*
X127206288Y-125965000D01*
X119808711Y-125965000D01*
X119475000Y-125631288D01*
X119475000Y-125233559D01*
X119517686Y-125215922D01*
X120054039Y-124680505D01*
X120344668Y-123980590D01*
X120345330Y-123222735D01*
X120055922Y-122522314D01*
X119865375Y-122331434D01*
X119802566Y-122237434D01*
X119709388Y-122175174D01*
X119520505Y-121985961D01*
X118820590Y-121695332D01*
X118510000Y-121695061D01*
X118510000Y-119104432D01*
X118690824Y-118923923D01*
X118909750Y-118396691D01*
X118910248Y-117825813D01*
X118692243Y-117298200D01*
X118510000Y-117115639D01*
X118510000Y-116211309D01*
X118859846Y-115862073D01*
X119109206Y-115261547D01*
X119109774Y-114611306D01*
X118861462Y-114010345D01*
X118402073Y-113550154D01*
X117801547Y-113300794D01*
X117151306Y-113300226D01*
X116550345Y-113548538D01*
X116090154Y-114007927D01*
X115840794Y-114608453D01*
X115840226Y-115258694D01*
X116088538Y-115859655D01*
X116440000Y-116211731D01*
X116440000Y-117115568D01*
X116259176Y-117296077D01*
X116040250Y-117823309D01*
X116039752Y-118394187D01*
X116257757Y-118921800D01*
X116440000Y-119104361D01*
X116440000Y-122634995D01*
X116439999Y-122635000D01*
X116518785Y-123031077D01*
X116577220Y-123118532D01*
X116535332Y-123219410D01*
X116534670Y-123977265D01*
X116824078Y-124677686D01*
X117359495Y-125214039D01*
X117405000Y-125232934D01*
X117405000Y-125606289D01*
X117046288Y-125965000D01*
X110193711Y-125965000D01*
X109575000Y-125346288D01*
X109575000Y-125233559D01*
X109617686Y-125215922D01*
X110154039Y-124680505D01*
X110444668Y-123980590D01*
X110445330Y-123222735D01*
X110155922Y-122522314D01*
X109620505Y-121985961D01*
X108920590Y-121695332D01*
X108350000Y-121694834D01*
X108350000Y-119104432D01*
X108530824Y-118923923D01*
X108749750Y-118396691D01*
X108750248Y-117825813D01*
X108532243Y-117298200D01*
X108350000Y-117115639D01*
X108350000Y-116211309D01*
X108699846Y-115862073D01*
X108949206Y-115261547D01*
X108949774Y-114611306D01*
X108701462Y-114010345D01*
X108242073Y-113550154D01*
X107641547Y-113300794D01*
X106991306Y-113300226D01*
X106390345Y-113548538D01*
X105930154Y-114007927D01*
X105680794Y-114608453D01*
X105680226Y-115258694D01*
X105928538Y-115859655D01*
X106280000Y-116211731D01*
X106280000Y-117115568D01*
X106099176Y-117296077D01*
X105880250Y-117823309D01*
X105879752Y-118394187D01*
X106097757Y-118921800D01*
X106280000Y-119104361D01*
X106280000Y-122374995D01*
X106279999Y-122375000D01*
X106358785Y-122771077D01*
X106583144Y-123106856D01*
X106653044Y-123176756D01*
X106635332Y-123219410D01*
X106634670Y-123977265D01*
X106924078Y-124677686D01*
X107459495Y-125214039D01*
X107505000Y-125232934D01*
X107505000Y-125346289D01*
X106886288Y-125965000D01*
X100123711Y-125965000D01*
X99575000Y-125416288D01*
X99575000Y-125233559D01*
X99617686Y-125215922D01*
X100154039Y-124680505D01*
X100444668Y-123980590D01*
X100445330Y-123222735D01*
X100155922Y-122522314D01*
X100095000Y-122461285D01*
X100095000Y-115576309D01*
X100444846Y-115227073D01*
X100694206Y-114626547D01*
X100694774Y-113976306D01*
X100446462Y-113375345D01*
X99987073Y-112915154D01*
X99386547Y-112665794D01*
X98736306Y-112665226D01*
X98135345Y-112913538D01*
X97675154Y-113372927D01*
X97425794Y-113973453D01*
X97425226Y-114623694D01*
X97673538Y-115224655D01*
X97807469Y-115358820D01*
X97126313Y-116039975D01*
X96870813Y-116039752D01*
X96343200Y-116257757D01*
X95939176Y-116661077D01*
X95720250Y-117188309D01*
X95719752Y-117759187D01*
X95937757Y-118286800D01*
X96341077Y-118690824D01*
X96868309Y-118909750D01*
X97439187Y-118910248D01*
X97966800Y-118692243D01*
X98025000Y-118634144D01*
X98025000Y-121751581D01*
X97462314Y-121984078D01*
X96925961Y-122519495D01*
X96635332Y-123219410D01*
X96634670Y-123977265D01*
X96924078Y-124677686D01*
X97459495Y-125214039D01*
X97505000Y-125232934D01*
X97505000Y-125844995D01*
X97504999Y-125845000D01*
X97583785Y-126241077D01*
X97808144Y-126576856D01*
X98963142Y-127731853D01*
X98963144Y-127731856D01*
X99298923Y-127956215D01*
X99695000Y-128035001D01*
X99695005Y-128035000D01*
X107314995Y-128035000D01*
X107315000Y-128035001D01*
X107711077Y-127956215D01*
X108046856Y-127731856D01*
X108540000Y-127238712D01*
X109033142Y-127731853D01*
X109033144Y-127731856D01*
X109368923Y-127956215D01*
X109765000Y-128035001D01*
X109765005Y-128035000D01*
X117474995Y-128035000D01*
X117475000Y-128035001D01*
X117871077Y-127956215D01*
X118206856Y-127731856D01*
X118427500Y-127511212D01*
X118648142Y-127731853D01*
X118648144Y-127731856D01*
X118983923Y-127956215D01*
X119380000Y-128035001D01*
X119380005Y-128035000D01*
X127634995Y-128035000D01*
X127635000Y-128035001D01*
X128031077Y-127956215D01*
X128366856Y-127731856D01*
X128440000Y-127658712D01*
X128513142Y-127731853D01*
X128513144Y-127731856D01*
X128848923Y-127956215D01*
X129245000Y-128035001D01*
X129245005Y-128035000D01*
X136524995Y-128035000D01*
X136525000Y-128035001D01*
X136921077Y-127956215D01*
X137256856Y-127731856D01*
X139065000Y-125923711D01*
X140873142Y-127731853D01*
X140873144Y-127731856D01*
X141074429Y-127866349D01*
X141208922Y-127956215D01*
X141605000Y-128035000D01*
X153669995Y-128035000D01*
X153670000Y-128035001D01*
X154066077Y-127956215D01*
X154401856Y-127731856D01*
X155257500Y-126876212D01*
X156113142Y-127731853D01*
X156113144Y-127731856D01*
X156448923Y-127956215D01*
X156845000Y-128035001D01*
X156845005Y-128035000D01*
X163829995Y-128035000D01*
X163830000Y-128035001D01*
X164226077Y-127956215D01*
X164561856Y-127731856D01*
X166171853Y-126121858D01*
X166171856Y-126121856D01*
X166396215Y-125786077D01*
X166425486Y-125638923D01*
X166475001Y-125390000D01*
X166475000Y-125389995D01*
X166475000Y-125233559D01*
X166517686Y-125215922D01*
X167054039Y-124680505D01*
X167344668Y-123980590D01*
X167345330Y-123222735D01*
X167055922Y-122522314D01*
X166865375Y-122331434D01*
X166802566Y-122237434D01*
X166770000Y-122215674D01*
X166770000Y-116205005D01*
X166770001Y-116205000D01*
X166770000Y-116204995D01*
X166770000Y-115576309D01*
X167119846Y-115227073D01*
X167369206Y-114626547D01*
X167369774Y-113976306D01*
X167121462Y-113375345D01*
X166662073Y-112915154D01*
X166061547Y-112665794D01*
X165411306Y-112665226D01*
X164810345Y-112913538D01*
X164350154Y-113372927D01*
X164100794Y-113973453D01*
X164100226Y-114623694D01*
X164348538Y-115224655D01*
X164700000Y-115576731D01*
X164700000Y-115776289D01*
X164436314Y-116039975D01*
X164180813Y-116039752D01*
X163653200Y-116257757D01*
X163249176Y-116661077D01*
X163030250Y-117188309D01*
X163029752Y-117759187D01*
X163247757Y-118286800D01*
X163651077Y-118690824D01*
X164178309Y-118909750D01*
X164700000Y-118910205D01*
X164700000Y-121844549D01*
X164362314Y-121984078D01*
X163825961Y-122519495D01*
X163535332Y-123219410D01*
X163534670Y-123977265D01*
X163824078Y-124677686D01*
X164255963Y-125110326D01*
X163401288Y-125965000D01*
X157273711Y-125965000D01*
X156521163Y-125212451D01*
X157054039Y-124680505D01*
X157344668Y-123980590D01*
X157345330Y-123222735D01*
X157055922Y-122522314D01*
X156610000Y-122075612D01*
X156610000Y-116205005D01*
X156610001Y-116205000D01*
X156610000Y-116204995D01*
X156610000Y-115576309D01*
X156959846Y-115227073D01*
X157209206Y-114626547D01*
X157209774Y-113976306D01*
X156961462Y-113375345D01*
X156502073Y-112915154D01*
X155901547Y-112665794D01*
X155251306Y-112665226D01*
X154650345Y-112913538D01*
X154190154Y-113372927D01*
X153940794Y-113973453D01*
X153940226Y-114623694D01*
X154188538Y-115224655D01*
X154540000Y-115576731D01*
X154540000Y-115776289D01*
X154276314Y-116039975D01*
X154020813Y-116039752D01*
X153493200Y-116257757D01*
X153089176Y-116661077D01*
X152870250Y-117188309D01*
X152869752Y-117759187D01*
X153087757Y-118286800D01*
X153491077Y-118690824D01*
X154018309Y-118909750D01*
X154540000Y-118910205D01*
X154540000Y-121910660D01*
X154362314Y-121984078D01*
X153825961Y-122519495D01*
X153535332Y-123219410D01*
X153534670Y-123977265D01*
X153824078Y-124677686D01*
X154176032Y-125030256D01*
X153241288Y-125965000D01*
X142033711Y-125965000D01*
X140100000Y-124031288D01*
X140100000Y-118627163D01*
X143807443Y-118627163D01*
X143906042Y-118893965D01*
X144515582Y-119120401D01*
X145165377Y-119096341D01*
X145653958Y-118893965D01*
X145752557Y-118627163D01*
X144780000Y-117654605D01*
X143807443Y-118627163D01*
X140100000Y-118627163D01*
X140100000Y-117210582D01*
X143134599Y-117210582D01*
X143158659Y-117860377D01*
X143361035Y-118348958D01*
X143627837Y-118447557D01*
X144600395Y-117475000D01*
X144959605Y-117475000D01*
X145932163Y-118447557D01*
X146198965Y-118348958D01*
X146425401Y-117739418D01*
X146401341Y-117089623D01*
X146198965Y-116601042D01*
X145932163Y-116502443D01*
X144959605Y-117475000D01*
X144600395Y-117475000D01*
X143627837Y-116502443D01*
X143361035Y-116601042D01*
X143134599Y-117210582D01*
X140100000Y-117210582D01*
X140100000Y-116322837D01*
X143807443Y-116322837D01*
X144780000Y-117295395D01*
X145752557Y-116322837D01*
X145653958Y-116056035D01*
X145044418Y-115829599D01*
X144394623Y-115853659D01*
X143906042Y-116056035D01*
X143807443Y-116322837D01*
X140100000Y-116322837D01*
X140100000Y-110918712D01*
X142668711Y-108350000D01*
X143503691Y-108350000D01*
X143852927Y-108699846D01*
X144453453Y-108949206D01*
X145103694Y-108949774D01*
X145704655Y-108701462D01*
X146164846Y-108242073D01*
X146414206Y-107641547D01*
X146414774Y-106991306D01*
X146166462Y-106390345D01*
X145815000Y-106038269D01*
X145815000Y-103511309D01*
X146164846Y-103162073D01*
X146414206Y-102561547D01*
X146414774Y-101911306D01*
X146166462Y-101310345D01*
X145707073Y-100850154D01*
X145176883Y-100630000D01*
X153282710Y-100630000D01*
X154640000Y-101987290D01*
X154640000Y-102763865D01*
X154298269Y-103105000D01*
X151765000Y-103105000D01*
X151368922Y-103183785D01*
X151234429Y-103273651D01*
X151033144Y-103408144D01*
X151033142Y-103408147D01*
X148573144Y-105868144D01*
X148348785Y-106203923D01*
X148269999Y-106600000D01*
X148270000Y-106600005D01*
X148270000Y-116480568D01*
X148089176Y-116661077D01*
X147870250Y-117188309D01*
X147869752Y-117759187D01*
X148087757Y-118286800D01*
X148270000Y-118469361D01*
X148270000Y-122544995D01*
X148269999Y-122545000D01*
X148348785Y-122941077D01*
X148442560Y-123081422D01*
X148442560Y-124870000D01*
X148486838Y-125105317D01*
X148625910Y-125321441D01*
X148838110Y-125466431D01*
X149090000Y-125517440D01*
X151630000Y-125517440D01*
X151865317Y-125473162D01*
X152081441Y-125334090D01*
X152226431Y-125121890D01*
X152277440Y-124870000D01*
X152277440Y-122330000D01*
X152233162Y-122094683D01*
X152094090Y-121878559D01*
X151881890Y-121733569D01*
X151630000Y-121682560D01*
X150340000Y-121682560D01*
X150340000Y-118469432D01*
X150520824Y-118288923D01*
X150739750Y-117761691D01*
X150740248Y-117190813D01*
X150522243Y-116663200D01*
X150340000Y-116480639D01*
X150340000Y-107028712D01*
X152193711Y-105175000D01*
X154298691Y-105175000D01*
X154647927Y-105524846D01*
X155248453Y-105774206D01*
X155898694Y-105774774D01*
X156499655Y-105526462D01*
X156959846Y-105067073D01*
X157209206Y-104466547D01*
X157209774Y-103816306D01*
X156961462Y-103215345D01*
X156510000Y-102763095D01*
X156510000Y-101600000D01*
X156438827Y-101242191D01*
X156236145Y-100938855D01*
X154331145Y-99033855D01*
X154027809Y-98831173D01*
X153670000Y-98760000D01*
X119132290Y-98760000D01*
X117140000Y-96767710D01*
X117140000Y-96577717D01*
X117264670Y-96494415D01*
X117475000Y-96179634D01*
X117685330Y-96494415D01*
X117823240Y-96586564D01*
X117881173Y-96877809D01*
X118083855Y-97181145D01*
X119353855Y-98451145D01*
X119657191Y-98653827D01*
X120015000Y-98725000D01*
X161537710Y-98725000D01*
X164800000Y-101987290D01*
X164800000Y-102763865D01*
X164458269Y-103105000D01*
X162560005Y-103105000D01*
X162560000Y-103104999D01*
X162163923Y-103183785D01*
X161828144Y-103408144D01*
X158733144Y-106503144D01*
X158508785Y-106838923D01*
X158429999Y-107235000D01*
X158430000Y-107235005D01*
X158430000Y-116480568D01*
X158249176Y-116661077D01*
X158030250Y-117188309D01*
X158029752Y-117759187D01*
X158247757Y-118286800D01*
X158430000Y-118469361D01*
X158430000Y-122704995D01*
X158429999Y-122705000D01*
X158442560Y-122768147D01*
X158442560Y-124870000D01*
X158486838Y-125105317D01*
X158625910Y-125321441D01*
X158838110Y-125466431D01*
X159090000Y-125517440D01*
X161630000Y-125517440D01*
X161865317Y-125473162D01*
X162081441Y-125334090D01*
X162226431Y-125121890D01*
X162277440Y-124870000D01*
X162277440Y-122330000D01*
X162233162Y-122094683D01*
X162094090Y-121878559D01*
X161881890Y-121733569D01*
X161630000Y-121682560D01*
X160500000Y-121682560D01*
X160500000Y-118469432D01*
X160680824Y-118288923D01*
X160899750Y-117761691D01*
X160900248Y-117190813D01*
X160682243Y-116663200D01*
X160500000Y-116480639D01*
X160500000Y-107663712D01*
X162988712Y-105175000D01*
X164458691Y-105175000D01*
X164807927Y-105524846D01*
X165408453Y-105774206D01*
X166058694Y-105774774D01*
X166659655Y-105526462D01*
X167119846Y-105067073D01*
X167369206Y-104466547D01*
X167369774Y-103816306D01*
X167121462Y-103215345D01*
X166670000Y-102763095D01*
X166670000Y-101600000D01*
X166598827Y-101242191D01*
X166396145Y-100938855D01*
X162586145Y-97128855D01*
X162282809Y-96926173D01*
X161925000Y-96855000D01*
X129298867Y-96855000D01*
X129478489Y-96819271D01*
X129964670Y-96494415D01*
X129970961Y-96485000D01*
X169545000Y-96485000D01*
X170017614Y-96390991D01*
X170418277Y-96123277D01*
X179943277Y-86598277D01*
X180210991Y-86197614D01*
X180305000Y-85725000D01*
X180305000Y-65915514D01*
X180340000Y-65880514D01*
X181372243Y-66912757D01*
X181772906Y-67180471D01*
X182245520Y-67274480D01*
X182877386Y-67274480D01*
X182880000Y-67275000D01*
X182882614Y-67274480D01*
X184061224Y-67274480D01*
X184103740Y-67340551D01*
X184315940Y-67485541D01*
X184382460Y-67499012D01*
X184382460Y-69846226D01*
X184035154Y-70192927D01*
X183785794Y-70793453D01*
X183785226Y-71443694D01*
X184033538Y-72044655D01*
X184492927Y-72504846D01*
X185093453Y-72754206D01*
X185743694Y-72754774D01*
X186344655Y-72506462D01*
X186804846Y-72047073D01*
X187054206Y-71446547D01*
X187054774Y-70796306D01*
X186806462Y-70195345D01*
X186452460Y-69840725D01*
X186452460Y-67501670D01*
X186502407Y-67492272D01*
X186718531Y-67353200D01*
X186863521Y-67141000D01*
X186914530Y-66889110D01*
X186914530Y-65189850D01*
X186870252Y-64954533D01*
X186731180Y-64738409D01*
X186518980Y-64593419D01*
X186267090Y-64542410D01*
X184567830Y-64542410D01*
X184332513Y-64586688D01*
X184116389Y-64725760D01*
X184062602Y-64804480D01*
X182757074Y-64804480D01*
X181575000Y-63622406D01*
X181575000Y-63148620D01*
X181586431Y-63131890D01*
X181637440Y-62880000D01*
X181637440Y-61580000D01*
X181593162Y-61344683D01*
X181454090Y-61128559D01*
X181340671Y-61051063D01*
X181239018Y-60949410D01*
X181469611Y-60893729D01*
X181637622Y-60410922D01*
X181608083Y-59900572D01*
X181469611Y-59566271D01*
X181239016Y-59510590D01*
X180519605Y-60230000D01*
X180533748Y-60244142D01*
X180354142Y-60423748D01*
X180340000Y-60409605D01*
X180325858Y-60423748D01*
X180146252Y-60244142D01*
X180160395Y-60230000D01*
X179440984Y-59510590D01*
X179210389Y-59566271D01*
X179042378Y-60049078D01*
X179071917Y-60559428D01*
X179210389Y-60893729D01*
X179440982Y-60949410D01*
X179339320Y-61051072D01*
X179238559Y-61115910D01*
X179093569Y-61328110D01*
X179042560Y-61580000D01*
X179042560Y-62880000D01*
X179086838Y-63115317D01*
X179105000Y-63143542D01*
X179105000Y-63622406D01*
X176652406Y-66075000D01*
X142875000Y-66075000D01*
X142402386Y-66169009D01*
X142001723Y-66436723D01*
X125853446Y-82585000D01*
X103381554Y-82585000D01*
X100335000Y-79538446D01*
X100335000Y-71479016D01*
X104055590Y-71479016D01*
X104111271Y-71709611D01*
X104594078Y-71877622D01*
X105104428Y-71848083D01*
X105438729Y-71709611D01*
X105494410Y-71479016D01*
X104775000Y-70759605D01*
X104055590Y-71479016D01*
X100335000Y-71479016D01*
X100335000Y-63556941D01*
X100558754Y-63407433D01*
X100916646Y-62871810D01*
X101042321Y-62240000D01*
X100916646Y-61608190D01*
X100558754Y-61072567D01*
X100405252Y-60970000D01*
X100457633Y-60935000D01*
X102905000Y-60935000D01*
X102905000Y-62865000D01*
X102999009Y-63337614D01*
X103266723Y-63738277D01*
X103640000Y-64111554D01*
X103640000Y-67515025D01*
X103528569Y-67678110D01*
X103477560Y-67930000D01*
X103477560Y-69230000D01*
X103521838Y-69465317D01*
X103660910Y-69681441D01*
X103774329Y-69758937D01*
X103875982Y-69860590D01*
X103645389Y-69916271D01*
X103477378Y-70399078D01*
X103506917Y-70909428D01*
X103645389Y-71243729D01*
X103875984Y-71299410D01*
X104595395Y-70580000D01*
X104581252Y-70565858D01*
X104760858Y-70386252D01*
X104775000Y-70400395D01*
X104789142Y-70386252D01*
X104968748Y-70565858D01*
X104954605Y-70580000D01*
X105674016Y-71299410D01*
X105904611Y-71243729D01*
X106072622Y-70760922D01*
X106043083Y-70250572D01*
X105904611Y-69916271D01*
X105674018Y-69860590D01*
X105775680Y-69758928D01*
X105876441Y-69694090D01*
X106021431Y-69481890D01*
X106072440Y-69230000D01*
X106072440Y-67930000D01*
X106028162Y-67694683D01*
X105910000Y-67511054D01*
X105910000Y-66381554D01*
X107101723Y-67573277D01*
X107502386Y-67840991D01*
X107975000Y-67935000D01*
X110800000Y-67935000D01*
X111051366Y-67885000D01*
X111189868Y-67885000D01*
X111643348Y-67794797D01*
X112027790Y-67537922D01*
X112284665Y-67153480D01*
X112374868Y-66700000D01*
X112284665Y-66246520D01*
X112027790Y-65862078D01*
X111785222Y-65700000D01*
X112027790Y-65537922D01*
X112284665Y-65153480D01*
X112374868Y-64700000D01*
X112284665Y-64246520D01*
X112027790Y-63862078D01*
X111785222Y-63700000D01*
X112027790Y-63537922D01*
X112284665Y-63153480D01*
X112374868Y-62700000D01*
X112284665Y-62246520D01*
X112027790Y-61862078D01*
X111785222Y-61700000D01*
X112027790Y-61537922D01*
X112284665Y-61153480D01*
X112374868Y-60700000D01*
X112284665Y-60246520D01*
X112027790Y-59862078D01*
X111785222Y-59700000D01*
X112027790Y-59537922D01*
X112284665Y-59153480D01*
X112374868Y-58700000D01*
X112284665Y-58246520D01*
X112027790Y-57862078D01*
X111785222Y-57700000D01*
X112027790Y-57537922D01*
X112284665Y-57153480D01*
X112374868Y-56700000D01*
X112284665Y-56246520D01*
X112027790Y-55862078D01*
X111785222Y-55700000D01*
X112027790Y-55537922D01*
X112284665Y-55153480D01*
X112337538Y-54887670D01*
X112530000Y-55080132D01*
X112530000Y-68744868D01*
X105242434Y-76032434D01*
X104996397Y-76400654D01*
X104910000Y-76835000D01*
X104910000Y-78878324D01*
X104660474Y-79251766D01*
X104546400Y-79825255D01*
X104546400Y-80194745D01*
X104660474Y-80768234D01*
X104985330Y-81254415D01*
X105471511Y-81579271D01*
X106045000Y-81693345D01*
X106618489Y-81579271D01*
X107104670Y-81254415D01*
X107315000Y-80939634D01*
X107525330Y-81254415D01*
X108011511Y-81579271D01*
X108585000Y-81693345D01*
X109158489Y-81579271D01*
X109644670Y-81254415D01*
X109855000Y-80939634D01*
X110065330Y-81254415D01*
X110551511Y-81579271D01*
X111125000Y-81693345D01*
X111698489Y-81579271D01*
X112184670Y-81254415D01*
X112395000Y-80939634D01*
X112605330Y-81254415D01*
X113091511Y-81579271D01*
X113665000Y-81693345D01*
X114238489Y-81579271D01*
X114724670Y-81254415D01*
X114935000Y-80939634D01*
X115145330Y-81254415D01*
X115631511Y-81579271D01*
X116205000Y-81693345D01*
X116778489Y-81579271D01*
X117264670Y-81254415D01*
X117274243Y-81240087D01*
X117278238Y-81261317D01*
X117417310Y-81477441D01*
X117629510Y-81622431D01*
X117881400Y-81673440D01*
X119608600Y-81673440D01*
X119843917Y-81629162D01*
X120060041Y-81490090D01*
X120205031Y-81277890D01*
X120256040Y-81026000D01*
X120256040Y-79962672D01*
X123618711Y-76600000D01*
X129539995Y-76600000D01*
X129540000Y-76600001D01*
X129936077Y-76521215D01*
X130271856Y-76296856D01*
X141398712Y-65170000D01*
X166704995Y-65170000D01*
X166705000Y-65170001D01*
X167101077Y-65091215D01*
X167436856Y-64866856D01*
X170829369Y-61474342D01*
X171323694Y-61474774D01*
X171924655Y-61226462D01*
X172384846Y-60767073D01*
X172634206Y-60166547D01*
X172634774Y-59516306D01*
X172558201Y-59330984D01*
X179620590Y-59330984D01*
X180340000Y-60050395D01*
X181059410Y-59330984D01*
X181003729Y-59100389D01*
X180520922Y-58932378D01*
X180010572Y-58961917D01*
X179676271Y-59100389D01*
X179620590Y-59330984D01*
X172558201Y-59330984D01*
X172386462Y-58915345D01*
X171927073Y-58455154D01*
X171850000Y-58423151D01*
X171850000Y-56334704D01*
X171863603Y-56314346D01*
X171950000Y-55880000D01*
X171950000Y-52705000D01*
X171863603Y-52270654D01*
X171675000Y-51988390D01*
X171675000Y-51417440D01*
X171810000Y-51417440D01*
X172045317Y-51373162D01*
X172261441Y-51234090D01*
X172406431Y-51021890D01*
X172436627Y-50872777D01*
X179216828Y-50872777D01*
X179348520Y-51167657D01*
X180056036Y-51439261D01*
X180813632Y-51419436D01*
X181421480Y-51167657D01*
X181553172Y-50872777D01*
X180385000Y-49704605D01*
X179216828Y-50872777D01*
X172436627Y-50872777D01*
X172457440Y-50770000D01*
X172457440Y-49196036D01*
X178470739Y-49196036D01*
X178490564Y-49953632D01*
X178742343Y-50561480D01*
X179037223Y-50693172D01*
X180205395Y-49525000D01*
X180564605Y-49525000D01*
X181732777Y-50693172D01*
X182027657Y-50561480D01*
X182299261Y-49853964D01*
X182279436Y-49096368D01*
X182027657Y-48488520D01*
X181732777Y-48356828D01*
X180564605Y-49525000D01*
X180205395Y-49525000D01*
X179037223Y-48356828D01*
X178742343Y-48488520D01*
X178470739Y-49196036D01*
X172457440Y-49196036D01*
X172457440Y-48230000D01*
X172447510Y-48177223D01*
X179216828Y-48177223D01*
X180385000Y-49345395D01*
X181475395Y-48255000D01*
X183547560Y-48255000D01*
X183547560Y-50795000D01*
X183591838Y-51030317D01*
X183730910Y-51246441D01*
X183943110Y-51391431D01*
X184195000Y-51442440D01*
X184230000Y-51442440D01*
X184230000Y-54967115D01*
X184159586Y-55037406D01*
X183933088Y-55582873D01*
X183932572Y-56173496D01*
X184158118Y-56719357D01*
X184575386Y-57137354D01*
X185120853Y-57363852D01*
X185711476Y-57364368D01*
X186257337Y-57138822D01*
X186675334Y-56721554D01*
X186901832Y-56176087D01*
X186902348Y-55585464D01*
X186700000Y-55095746D01*
X186700000Y-51442440D01*
X186735000Y-51442440D01*
X186970317Y-51398162D01*
X187186441Y-51259090D01*
X187331431Y-51046890D01*
X187382440Y-50795000D01*
X187382440Y-48255000D01*
X187338162Y-48019683D01*
X187199090Y-47803559D01*
X186986890Y-47658569D01*
X186735000Y-47607560D01*
X184195000Y-47607560D01*
X183959683Y-47651838D01*
X183743559Y-47790910D01*
X183598569Y-48003110D01*
X183547560Y-48255000D01*
X181475395Y-48255000D01*
X181553172Y-48177223D01*
X181421480Y-47882343D01*
X180713964Y-47610739D01*
X179956368Y-47630564D01*
X179348520Y-47882343D01*
X179216828Y-48177223D01*
X172447510Y-48177223D01*
X172413162Y-47994683D01*
X172274090Y-47778559D01*
X172061890Y-47633569D01*
X171810000Y-47582560D01*
X169270000Y-47582560D01*
X169034683Y-47626838D01*
X168818559Y-47765910D01*
X168673569Y-47978110D01*
X168622560Y-48230000D01*
X168622560Y-50770000D01*
X168666838Y-51005317D01*
X168805910Y-51221441D01*
X169018110Y-51366431D01*
X169270000Y-51417440D01*
X169405000Y-51417440D01*
X169405000Y-52430000D01*
X169491397Y-52864346D01*
X169505000Y-52884704D01*
X169505000Y-53821289D01*
X168881314Y-54444975D01*
X168625813Y-54444752D01*
X168098200Y-54662757D01*
X167694176Y-55066077D01*
X167475250Y-55593309D01*
X167474752Y-56164187D01*
X167692757Y-56691800D01*
X168096077Y-57095824D01*
X168623309Y-57314750D01*
X169194187Y-57315248D01*
X169721800Y-57097243D01*
X169780000Y-57039144D01*
X169780000Y-58748368D01*
X169615154Y-58912927D01*
X169365794Y-59513453D01*
X169365359Y-60010929D01*
X166276288Y-63100000D01*
X140970005Y-63100000D01*
X140970000Y-63099999D01*
X140573923Y-63178785D01*
X140238144Y-63403144D01*
X129111288Y-74530000D01*
X123190000Y-74530000D01*
X122793922Y-74608785D01*
X122659429Y-74698651D01*
X122458144Y-74833144D01*
X122458142Y-74833147D01*
X118944728Y-78346560D01*
X117881400Y-78346560D01*
X117646083Y-78390838D01*
X117429959Y-78529910D01*
X117284969Y-78742110D01*
X117276600Y-78783439D01*
X117264670Y-78765585D01*
X116778489Y-78440729D01*
X116205000Y-78326655D01*
X115631511Y-78440729D01*
X115145330Y-78765585D01*
X114935000Y-79080366D01*
X114876259Y-78992453D01*
X121713711Y-72155000D01*
X129539995Y-72155000D01*
X129540000Y-72155001D01*
X129936077Y-72076215D01*
X130271856Y-71851856D01*
X143938711Y-58185000D01*
X149853691Y-58185000D01*
X150202927Y-58534846D01*
X150803453Y-58784206D01*
X151453694Y-58784774D01*
X152054655Y-58536462D01*
X152514846Y-58077073D01*
X152764206Y-57476547D01*
X152764641Y-56979071D01*
X156231853Y-53511858D01*
X156231856Y-53511856D01*
X156406822Y-53250000D01*
X156456215Y-53176078D01*
X156535000Y-52780000D01*
X156535000Y-51158559D01*
X156577686Y-51140922D01*
X157114039Y-50605505D01*
X157404668Y-49905590D01*
X157405330Y-49147735D01*
X157115922Y-48447314D01*
X156923944Y-48255000D01*
X158662560Y-48255000D01*
X158662560Y-50795000D01*
X158706838Y-51030317D01*
X158845910Y-51246441D01*
X159058110Y-51391431D01*
X159310000Y-51442440D01*
X159445000Y-51442440D01*
X159445000Y-56440000D01*
X159531397Y-56874346D01*
X159655587Y-57060210D01*
X159655226Y-57473694D01*
X159903538Y-58074655D01*
X160155000Y-58326556D01*
X160155000Y-59218446D01*
X159947086Y-59425997D01*
X159705276Y-60008341D01*
X159704725Y-60638893D01*
X159945519Y-61221657D01*
X160390997Y-61667914D01*
X160973341Y-61909724D01*
X161603893Y-61910275D01*
X162186657Y-61669481D01*
X162632914Y-61224003D01*
X162874724Y-60641659D01*
X162875275Y-60011107D01*
X162634481Y-59428343D01*
X162425000Y-59218496D01*
X162425000Y-58326484D01*
X162674846Y-58077073D01*
X162924206Y-57476547D01*
X162924657Y-56960293D01*
X162966986Y-57002622D01*
X163081861Y-56887747D01*
X163155995Y-57133864D01*
X163693223Y-57326965D01*
X164263454Y-57299778D01*
X164664005Y-57133864D01*
X164738139Y-56887745D01*
X163910000Y-56059605D01*
X163895858Y-56073748D01*
X163716252Y-55894142D01*
X163730395Y-55880000D01*
X164089605Y-55880000D01*
X164917745Y-56708139D01*
X165163864Y-56634005D01*
X165356965Y-56096777D01*
X165329778Y-55526546D01*
X165163864Y-55125995D01*
X164917745Y-55051861D01*
X164089605Y-55880000D01*
X163730395Y-55880000D01*
X162902255Y-55051861D01*
X162656136Y-55125995D01*
X162463035Y-55663223D01*
X162480475Y-56029016D01*
X162217073Y-55765154D01*
X161715000Y-55556675D01*
X161715000Y-54872255D01*
X163081861Y-54872255D01*
X163910000Y-55700395D01*
X164738139Y-54872255D01*
X164664005Y-54626136D01*
X164126777Y-54433035D01*
X163556546Y-54460222D01*
X163155995Y-54626136D01*
X163081861Y-54872255D01*
X161715000Y-54872255D01*
X161715000Y-51442440D01*
X161850000Y-51442440D01*
X162085317Y-51398162D01*
X162301441Y-51259090D01*
X162446431Y-51046890D01*
X162486752Y-50847777D01*
X164291828Y-50847777D01*
X164423520Y-51142657D01*
X165131036Y-51414261D01*
X165888632Y-51394436D01*
X166496480Y-51142657D01*
X166628172Y-50847777D01*
X165460000Y-49679605D01*
X164291828Y-50847777D01*
X162486752Y-50847777D01*
X162497440Y-50795000D01*
X162497440Y-49171036D01*
X163545739Y-49171036D01*
X163565564Y-49928632D01*
X163817343Y-50536480D01*
X164112223Y-50668172D01*
X165280395Y-49500000D01*
X165639605Y-49500000D01*
X166807777Y-50668172D01*
X167102657Y-50536480D01*
X167374261Y-49828964D01*
X167354436Y-49071368D01*
X167102657Y-48463520D01*
X166807777Y-48331828D01*
X165639605Y-49500000D01*
X165280395Y-49500000D01*
X164112223Y-48331828D01*
X163817343Y-48463520D01*
X163545739Y-49171036D01*
X162497440Y-49171036D01*
X162497440Y-48255000D01*
X162478102Y-48152223D01*
X164291828Y-48152223D01*
X165460000Y-49320395D01*
X166628172Y-48152223D01*
X166496480Y-47857343D01*
X165788964Y-47585739D01*
X165031368Y-47605564D01*
X164423520Y-47857343D01*
X164291828Y-48152223D01*
X162478102Y-48152223D01*
X162453162Y-48019683D01*
X162314090Y-47803559D01*
X162101890Y-47658569D01*
X161850000Y-47607560D01*
X159310000Y-47607560D01*
X159074683Y-47651838D01*
X158858559Y-47790910D01*
X158713569Y-48003110D01*
X158662560Y-48255000D01*
X156923944Y-48255000D01*
X156580505Y-47910961D01*
X155880590Y-47620332D01*
X155122735Y-47619670D01*
X154422314Y-47909078D01*
X153885961Y-48444495D01*
X153595332Y-49144410D01*
X153594670Y-49902265D01*
X153884078Y-50602686D01*
X154419495Y-51139039D01*
X154465000Y-51157934D01*
X154465000Y-52351289D01*
X151300630Y-55515658D01*
X150806306Y-55515226D01*
X150205345Y-55763538D01*
X149853269Y-56115000D01*
X143510000Y-56115000D01*
X143113922Y-56193785D01*
X142979429Y-56283651D01*
X142778144Y-56418144D01*
X142778142Y-56418147D01*
X129111288Y-70085000D01*
X121285000Y-70085000D01*
X120888922Y-70163785D01*
X120759036Y-70250572D01*
X120553144Y-70388144D01*
X120553142Y-70388147D01*
X112933144Y-78008144D01*
X112708785Y-78343923D01*
X112629999Y-78740000D01*
X112630000Y-78740005D01*
X112630000Y-78749101D01*
X112605330Y-78765585D01*
X112395000Y-79080366D01*
X112260000Y-78878324D01*
X112260000Y-78575132D01*
X119547566Y-71287566D01*
X119793603Y-70919346D01*
X119817012Y-70801659D01*
X119880000Y-70485000D01*
X119880000Y-67009744D01*
X123306197Y-67009744D01*
X123306602Y-67036146D01*
X123522276Y-67448118D01*
X123879187Y-67746196D01*
X124323000Y-67885000D01*
X125173000Y-67885000D01*
X125173000Y-66827000D01*
X125427000Y-66827000D01*
X125427000Y-67885000D01*
X126277000Y-67885000D01*
X126720813Y-67746196D01*
X127077724Y-67448118D01*
X127293398Y-67036146D01*
X127293803Y-67009744D01*
X127168361Y-66827000D01*
X125427000Y-66827000D01*
X125173000Y-66827000D01*
X123431639Y-66827000D01*
X123306197Y-67009744D01*
X119880000Y-67009744D01*
X119880000Y-56530132D01*
X120575133Y-55835000D01*
X123612735Y-55835000D01*
X123572210Y-55862078D01*
X123315335Y-56246520D01*
X123225132Y-56700000D01*
X123315335Y-57153480D01*
X123572210Y-57537922D01*
X123814778Y-57700000D01*
X123572210Y-57862078D01*
X123315335Y-58246520D01*
X123225132Y-58700000D01*
X123315335Y-59153480D01*
X123572210Y-59537922D01*
X123814778Y-59700000D01*
X123572210Y-59862078D01*
X123315335Y-60246520D01*
X123225132Y-60700000D01*
X123315335Y-61153480D01*
X123572210Y-61537922D01*
X123814778Y-61700000D01*
X123572210Y-61862078D01*
X123315335Y-62246520D01*
X123225132Y-62700000D01*
X123315335Y-63153480D01*
X123572210Y-63537922D01*
X123814778Y-63700000D01*
X123572210Y-63862078D01*
X123315335Y-64246520D01*
X123225132Y-64700000D01*
X123315335Y-65153480D01*
X123572210Y-65537922D01*
X123819831Y-65703376D01*
X123522276Y-65951882D01*
X123306602Y-66363854D01*
X123306197Y-66390256D01*
X123431639Y-66573000D01*
X125173000Y-66573000D01*
X125173000Y-66553000D01*
X125427000Y-66553000D01*
X125427000Y-66573000D01*
X127168361Y-66573000D01*
X127293803Y-66390256D01*
X127293398Y-66363854D01*
X127077724Y-65951882D01*
X126937772Y-65835000D01*
X130198638Y-65835000D01*
X130517927Y-66154846D01*
X131118453Y-66404206D01*
X131768694Y-66404774D01*
X132369655Y-66156462D01*
X132829846Y-65697073D01*
X133079206Y-65096547D01*
X133079774Y-64446306D01*
X132831462Y-63845345D01*
X132372073Y-63385154D01*
X131771547Y-63135794D01*
X131121306Y-63135226D01*
X130520345Y-63383538D01*
X130338566Y-63565000D01*
X126987265Y-63565000D01*
X127027790Y-63537922D01*
X127284665Y-63153480D01*
X127374868Y-62700000D01*
X127284665Y-62246520D01*
X127027790Y-61862078D01*
X126785222Y-61700000D01*
X127027790Y-61537922D01*
X127284665Y-61153480D01*
X127374868Y-60700000D01*
X127284665Y-60246520D01*
X127027790Y-59862078D01*
X126785222Y-59700000D01*
X127027790Y-59537922D01*
X127284665Y-59153480D01*
X127374868Y-58700000D01*
X127284665Y-58246520D01*
X127027790Y-57862078D01*
X126785222Y-57700000D01*
X127027790Y-57537922D01*
X127284665Y-57153480D01*
X127374868Y-56700000D01*
X127284665Y-56246520D01*
X127027790Y-55862078D01*
X126878256Y-55762163D01*
X130472443Y-55762163D01*
X130571042Y-56028965D01*
X131180582Y-56255401D01*
X131830377Y-56231341D01*
X132318958Y-56028965D01*
X132417557Y-55762163D01*
X131445000Y-54789605D01*
X130472443Y-55762163D01*
X126878256Y-55762163D01*
X126785222Y-55700000D01*
X127027790Y-55537922D01*
X127284665Y-55153480D01*
X127374868Y-54700000D01*
X127304370Y-54345582D01*
X129799599Y-54345582D01*
X129823659Y-54995377D01*
X130026035Y-55483958D01*
X130292837Y-55582557D01*
X131265395Y-54610000D01*
X131624605Y-54610000D01*
X132597163Y-55582557D01*
X132863965Y-55483958D01*
X133090401Y-54874418D01*
X133066341Y-54224623D01*
X132863965Y-53736042D01*
X132597163Y-53637443D01*
X131624605Y-54610000D01*
X131265395Y-54610000D01*
X130292837Y-53637443D01*
X130026035Y-53736042D01*
X129799599Y-54345582D01*
X127304370Y-54345582D01*
X127284665Y-54246520D01*
X127027790Y-53862078D01*
X126785222Y-53700000D01*
X127027790Y-53537922D01*
X127081300Y-53457837D01*
X130472443Y-53457837D01*
X131445000Y-54430395D01*
X132417557Y-53457837D01*
X132318958Y-53191035D01*
X131709418Y-52964599D01*
X131059623Y-52988659D01*
X130571042Y-53191035D01*
X130472443Y-53457837D01*
X127081300Y-53457837D01*
X127284665Y-53153480D01*
X127374868Y-52700000D01*
X127284665Y-52246520D01*
X127251577Y-52197000D01*
X128905000Y-52197000D01*
X128951159Y-52188315D01*
X128993553Y-52161035D01*
X129021994Y-52119410D01*
X129032000Y-52070000D01*
X129032000Y-50872777D01*
X149251828Y-50872777D01*
X149383520Y-51167657D01*
X150091036Y-51439261D01*
X150848632Y-51419436D01*
X151456480Y-51167657D01*
X151588172Y-50872777D01*
X150420000Y-49704605D01*
X149251828Y-50872777D01*
X129032000Y-50872777D01*
X129032000Y-49196036D01*
X148505739Y-49196036D01*
X148525564Y-49953632D01*
X148777343Y-50561480D01*
X149072223Y-50693172D01*
X150240395Y-49525000D01*
X150599605Y-49525000D01*
X151767777Y-50693172D01*
X152062657Y-50561480D01*
X152334261Y-49853964D01*
X152314436Y-49096368D01*
X152062657Y-48488520D01*
X151767777Y-48356828D01*
X150599605Y-49525000D01*
X150240395Y-49525000D01*
X149072223Y-48356828D01*
X148777343Y-48488520D01*
X148505739Y-49196036D01*
X129032000Y-49196036D01*
X129032000Y-48177223D01*
X149251828Y-48177223D01*
X150420000Y-49345395D01*
X151588172Y-48177223D01*
X151456480Y-47882343D01*
X150748964Y-47610739D01*
X149991368Y-47630564D01*
X149383520Y-47882343D01*
X149251828Y-48177223D01*
X129032000Y-48177223D01*
X129032000Y-44310000D01*
X189690000Y-44310000D01*
X189690000Y-128790000D01*
X89762000Y-128790000D01*
X89762000Y-50617745D01*
X92516861Y-50617745D01*
X92590995Y-50863864D01*
X93128223Y-51056965D01*
X93698454Y-51029778D01*
X94099005Y-50863864D01*
X94173139Y-50617745D01*
X93345000Y-49789605D01*
X92516861Y-50617745D01*
X89762000Y-50617745D01*
X89762000Y-49393223D01*
X91898035Y-49393223D01*
X91925222Y-49963454D01*
X92091136Y-50364005D01*
X92337255Y-50438139D01*
X93165395Y-49610000D01*
X93524605Y-49610000D01*
X94352745Y-50438139D01*
X94598864Y-50364005D01*
X94791965Y-49826777D01*
X94764778Y-49256546D01*
X94598864Y-48855995D01*
X94352745Y-48781861D01*
X93524605Y-49610000D01*
X93165395Y-49610000D01*
X92337255Y-48781861D01*
X92091136Y-48855995D01*
X91898035Y-49393223D01*
X89762000Y-49393223D01*
X89762000Y-48602255D01*
X92516861Y-48602255D01*
X93345000Y-49430395D01*
X94173139Y-48602255D01*
X94099005Y-48356136D01*
X93561777Y-48163035D01*
X92991546Y-48190222D01*
X92590995Y-48356136D01*
X92516861Y-48602255D01*
X89762000Y-48602255D01*
X89762000Y-44310000D01*
X107188000Y-44310000D01*
X107188000Y-52070000D01*
X107188000Y-52070000D01*
G37*
X107188000Y-52070000D02*
X107196685Y-52116159D01*
X107223965Y-52158553D01*
X107265590Y-52186994D01*
X107315000Y-52197000D01*
X108252560Y-52197000D01*
X108252560Y-53250000D01*
X108296838Y-53485317D01*
X108435910Y-53701441D01*
X108622162Y-53828701D01*
X108572210Y-53862078D01*
X108315335Y-54246520D01*
X108225132Y-54700000D01*
X108315335Y-55153480D01*
X108572210Y-55537922D01*
X108612735Y-55565000D01*
X107970133Y-55565000D01*
X105275000Y-52869868D01*
X105275000Y-50706484D01*
X105524846Y-50457073D01*
X105774206Y-49856547D01*
X105774774Y-49206306D01*
X105526462Y-48605345D01*
X105067073Y-48145154D01*
X104466547Y-47895794D01*
X103816306Y-47895226D01*
X103215345Y-48143538D01*
X102755154Y-48602927D01*
X102505794Y-49203453D01*
X102505226Y-49853694D01*
X102753538Y-50454655D01*
X103005000Y-50706556D01*
X103005000Y-53340000D01*
X103091397Y-53774346D01*
X103144569Y-53853923D01*
X103337434Y-54142566D01*
X106697434Y-57502567D01*
X107065655Y-57748604D01*
X107500000Y-57835000D01*
X108612735Y-57835000D01*
X108572210Y-57862078D01*
X108315335Y-58246520D01*
X108225132Y-58700000D01*
X108315335Y-59153480D01*
X108572210Y-59537922D01*
X108814778Y-59700000D01*
X108572210Y-59862078D01*
X108315335Y-60246520D01*
X108225132Y-60700000D01*
X108315335Y-61153480D01*
X108572210Y-61537922D01*
X108814778Y-61700000D01*
X108572210Y-61862078D01*
X108315335Y-62246520D01*
X108225132Y-62700000D01*
X108315335Y-63153480D01*
X108572210Y-63537922D01*
X108814778Y-63700000D01*
X108572210Y-63862078D01*
X108315335Y-64246520D01*
X108225132Y-64700000D01*
X108315335Y-65153480D01*
X108523485Y-65465000D01*
X108486554Y-65465000D01*
X105375000Y-62353446D01*
X105375000Y-60766658D01*
X105524846Y-60617073D01*
X105774206Y-60016547D01*
X105774774Y-59366306D01*
X105526462Y-58765345D01*
X105067073Y-58305154D01*
X104466547Y-58055794D01*
X103816306Y-58055226D01*
X103215345Y-58303538D01*
X103053601Y-58465000D01*
X100457633Y-58465000D01*
X100384219Y-58415946D01*
X100611236Y-58237630D01*
X100927926Y-57674477D01*
X100959975Y-57542944D01*
X100840836Y-57287000D01*
X99227000Y-57287000D01*
X99227000Y-57307000D01*
X98973000Y-57307000D01*
X98973000Y-57287000D01*
X97359164Y-57287000D01*
X97240025Y-57542944D01*
X97272074Y-57674477D01*
X97588764Y-58237630D01*
X97815781Y-58415946D01*
X97641246Y-58532567D01*
X97619575Y-58565000D01*
X94380000Y-58565000D01*
X94380000Y-56777056D01*
X97240025Y-56777056D01*
X97359164Y-57033000D01*
X98973000Y-57033000D01*
X98973000Y-55509000D01*
X99227000Y-55509000D01*
X99227000Y-57033000D01*
X100840836Y-57033000D01*
X100959975Y-56777056D01*
X100927926Y-56645523D01*
X100611236Y-56082370D01*
X100103143Y-55683276D01*
X99481000Y-55509000D01*
X99227000Y-55509000D01*
X98973000Y-55509000D01*
X98719000Y-55509000D01*
X98096857Y-55683276D01*
X97588764Y-56082370D01*
X97272074Y-56645523D01*
X97240025Y-56777056D01*
X94380000Y-56777056D01*
X94380000Y-55604432D01*
X94560824Y-55423923D01*
X94779750Y-54896691D01*
X94780248Y-54325813D01*
X94562243Y-53798200D01*
X94158923Y-53394176D01*
X93631691Y-53175250D01*
X93060813Y-53174752D01*
X92533200Y-53392757D01*
X92129176Y-53796077D01*
X91910250Y-54323309D01*
X91909752Y-54894187D01*
X92127757Y-55421800D01*
X92310000Y-55604361D01*
X92310000Y-59054995D01*
X92309999Y-59055000D01*
X92388785Y-59451077D01*
X92486920Y-59597948D01*
X91907434Y-60177434D01*
X91661397Y-60545654D01*
X91575000Y-60980000D01*
X91575000Y-61053516D01*
X91325154Y-61302927D01*
X91075794Y-61903453D01*
X91075226Y-62553694D01*
X91323538Y-63154655D01*
X91782927Y-63614846D01*
X92383453Y-63864206D01*
X93033694Y-63864774D01*
X93634655Y-63616462D01*
X94094846Y-63157073D01*
X94344206Y-62556547D01*
X94344774Y-61906306D01*
X94096462Y-61305345D01*
X94043171Y-61251961D01*
X94460132Y-60835000D01*
X97619575Y-60835000D01*
X97641246Y-60867433D01*
X97794748Y-60970000D01*
X97641246Y-61072567D01*
X97283354Y-61608190D01*
X97157679Y-62240000D01*
X97283354Y-62871810D01*
X97641246Y-63407433D01*
X97865000Y-63556941D01*
X97865000Y-80050000D01*
X97959009Y-80522614D01*
X98226723Y-80923277D01*
X101996723Y-84693277D01*
X102397386Y-84960991D01*
X102870000Y-85055000D01*
X126365000Y-85055000D01*
X126837614Y-84960991D01*
X127238277Y-84693277D01*
X143386554Y-68545000D01*
X170241220Y-68545000D01*
X170075345Y-68613538D01*
X169615154Y-69072927D01*
X169365794Y-69673453D01*
X169365226Y-70323694D01*
X169613538Y-70924655D01*
X169865000Y-71176556D01*
X169865000Y-72581571D01*
X169701469Y-72686800D01*
X169556479Y-72899000D01*
X169505470Y-73150890D01*
X169505470Y-74850150D01*
X169549748Y-75085467D01*
X169688820Y-75301591D01*
X169901020Y-75446581D01*
X170152910Y-75497590D01*
X171852170Y-75497590D01*
X172087487Y-75453312D01*
X172303611Y-75314240D01*
X172448601Y-75102040D01*
X172499610Y-74850150D01*
X172499610Y-73150890D01*
X172455332Y-72915573D01*
X172316260Y-72699449D01*
X172135000Y-72575599D01*
X172135000Y-71176484D01*
X172384846Y-70927073D01*
X172634206Y-70326547D01*
X172634774Y-69676306D01*
X172386462Y-69075345D01*
X171927073Y-68615154D01*
X171758123Y-68545000D01*
X177163960Y-68545000D01*
X177636574Y-68450991D01*
X177835000Y-68318407D01*
X177835000Y-85213446D01*
X169033446Y-94015000D01*
X129970961Y-94015000D01*
X129964670Y-94005585D01*
X129478489Y-93680729D01*
X128905000Y-93566655D01*
X128331511Y-93680729D01*
X127845330Y-94005585D01*
X127638539Y-94315069D01*
X127267036Y-93899268D01*
X126739791Y-93645291D01*
X126724026Y-93642642D01*
X126492000Y-93763783D01*
X126492000Y-95123000D01*
X126512000Y-95123000D01*
X126512000Y-95377000D01*
X126492000Y-95377000D01*
X126492000Y-95397000D01*
X126238000Y-95397000D01*
X126238000Y-95377000D01*
X126218000Y-95377000D01*
X126218000Y-95123000D01*
X126238000Y-95123000D01*
X126238000Y-93763783D01*
X126005974Y-93642642D01*
X125990209Y-93645291D01*
X125462964Y-93899268D01*
X125091461Y-94315069D01*
X124884670Y-94005585D01*
X124398489Y-93680729D01*
X123825000Y-93566655D01*
X123251511Y-93680729D01*
X122765330Y-94005585D01*
X122755757Y-94019913D01*
X122751762Y-93998683D01*
X122612690Y-93782559D01*
X122517567Y-93717565D01*
X123660132Y-92575000D01*
X130175000Y-92575000D01*
X130609346Y-92488603D01*
X130977566Y-92242566D01*
X132650132Y-90570000D01*
X141811288Y-90570000D01*
X143145658Y-91904369D01*
X143145226Y-92398694D01*
X143393538Y-92999655D01*
X143852927Y-93459846D01*
X144453453Y-93709206D01*
X145103694Y-93709774D01*
X145704655Y-93461462D01*
X146164846Y-93002073D01*
X146414206Y-92401547D01*
X146414774Y-91751306D01*
X146166462Y-91150345D01*
X145707073Y-90690154D01*
X145106547Y-90440794D01*
X144609071Y-90440359D01*
X142971856Y-88803144D01*
X142636077Y-88578785D01*
X142240000Y-88499999D01*
X142239995Y-88500000D01*
X134720132Y-88500000D01*
X137136106Y-86084026D01*
X140632642Y-86084026D01*
X140635291Y-86099791D01*
X140889268Y-86627036D01*
X141325680Y-87016954D01*
X141878087Y-87210184D01*
X142113000Y-87065924D01*
X142113000Y-85852000D01*
X142367000Y-85852000D01*
X142367000Y-87065924D01*
X142601913Y-87210184D01*
X143154320Y-87016954D01*
X143590732Y-86627036D01*
X143844709Y-86099791D01*
X143847358Y-86084026D01*
X143726217Y-85852000D01*
X142367000Y-85852000D01*
X142113000Y-85852000D01*
X140753783Y-85852000D01*
X140632642Y-86084026D01*
X137136106Y-86084026D01*
X138900132Y-84320000D01*
X141108324Y-84320000D01*
X141305069Y-84451461D01*
X140889268Y-84822964D01*
X140635291Y-85350209D01*
X140632642Y-85365974D01*
X140753783Y-85598000D01*
X142113000Y-85598000D01*
X142113000Y-85578000D01*
X142367000Y-85578000D01*
X142367000Y-85598000D01*
X143726217Y-85598000D01*
X143847358Y-85365974D01*
X143844709Y-85350209D01*
X143590732Y-84822964D01*
X143174931Y-84451461D01*
X143371676Y-84320000D01*
X147484868Y-84320000D01*
X148127954Y-84963086D01*
X148496175Y-85209124D01*
X148930520Y-85295520D01*
X170037806Y-85295520D01*
X170160466Y-85418394D01*
X170705933Y-85644892D01*
X171296556Y-85645408D01*
X171842417Y-85419862D01*
X172260414Y-85002594D01*
X172486912Y-84457127D01*
X172487428Y-83866504D01*
X172261882Y-83320643D01*
X171844614Y-82902646D01*
X171299147Y-82676148D01*
X170708524Y-82675632D01*
X170162663Y-82901178D01*
X170038104Y-83025520D01*
X150354612Y-83025520D01*
X161310114Y-72070018D01*
X161603893Y-72070275D01*
X162186657Y-71829481D01*
X162632914Y-71384003D01*
X162874724Y-70801659D01*
X162875275Y-70171107D01*
X162634481Y-69588343D01*
X162189003Y-69142086D01*
X161606659Y-68900276D01*
X160976107Y-68899725D01*
X160393343Y-69140519D01*
X159947086Y-69585997D01*
X159705276Y-70168341D01*
X159705017Y-70464851D01*
X148119868Y-82050000D01*
X143371676Y-82050000D01*
X143169634Y-81915000D01*
X143484415Y-81704670D01*
X143809271Y-81218489D01*
X143923345Y-80645000D01*
X143809271Y-80071511D01*
X143484415Y-79585330D01*
X143470087Y-79575757D01*
X143491317Y-79571762D01*
X143707441Y-79432690D01*
X143852431Y-79220490D01*
X143903440Y-78968600D01*
X143903440Y-77241400D01*
X143859162Y-77006083D01*
X143720090Y-76789959D01*
X143507890Y-76644969D01*
X143256000Y-76593960D01*
X141224000Y-76593960D01*
X140988683Y-76638238D01*
X140772559Y-76777310D01*
X140627569Y-76989510D01*
X140611269Y-77070000D01*
X136525005Y-77070000D01*
X136525000Y-77069999D01*
X136128923Y-77148785D01*
X135793144Y-77373144D01*
X135793142Y-77373147D01*
X127841288Y-85325000D01*
X113030005Y-85325000D01*
X113030000Y-85324999D01*
X112633923Y-85403785D01*
X112298144Y-85628144D01*
X112298142Y-85628147D01*
X110393144Y-87533144D01*
X110168785Y-87868923D01*
X110089999Y-88265000D01*
X110090000Y-88265005D01*
X110090000Y-93989101D01*
X110065330Y-94005585D01*
X109855000Y-94320366D01*
X109644670Y-94005585D01*
X109158489Y-93680729D01*
X108585000Y-93566655D01*
X108011511Y-93680729D01*
X107525330Y-94005585D01*
X107315000Y-94320366D01*
X107104670Y-94005585D01*
X106618489Y-93680729D01*
X106045000Y-93566655D01*
X105471511Y-93680729D01*
X104985330Y-94005585D01*
X104775000Y-94320366D01*
X104564670Y-94005585D01*
X104078489Y-93680729D01*
X103505000Y-93566655D01*
X102931511Y-93680729D01*
X102445330Y-94005585D01*
X102435757Y-94019913D01*
X102431762Y-93998683D01*
X102292690Y-93782559D01*
X102080490Y-93637569D01*
X101828600Y-93586560D01*
X100101400Y-93586560D01*
X99866083Y-93630838D01*
X99649959Y-93769910D01*
X99504969Y-93982110D01*
X99453960Y-94234000D01*
X99453960Y-96266000D01*
X99498238Y-96501317D01*
X99637310Y-96717441D01*
X99816448Y-96839841D01*
X98328144Y-98328144D01*
X98103785Y-98663923D01*
X98024999Y-99060000D01*
X98025000Y-99060005D01*
X98025000Y-102863691D01*
X97783269Y-103105000D01*
X96520005Y-103105000D01*
X96520000Y-103104999D01*
X96123922Y-103183785D01*
X95989429Y-103273651D01*
X95788144Y-103408144D01*
X95788142Y-103408147D01*
X91423144Y-107773144D01*
X91198785Y-108108923D01*
X91119999Y-108505000D01*
X91120000Y-108505005D01*
X91120000Y-116480568D01*
X90939176Y-116661077D01*
X90720250Y-117188309D01*
X90719752Y-117759187D01*
X90937757Y-118286800D01*
X91120000Y-118469361D01*
X91120000Y-122294995D01*
X91119999Y-122295000D01*
X91198785Y-122691077D01*
X91423144Y-123026856D01*
X91542560Y-123146272D01*
X91542560Y-124870000D01*
X91586838Y-125105317D01*
X91725910Y-125321441D01*
X91938110Y-125466431D01*
X92190000Y-125517440D01*
X94730000Y-125517440D01*
X94965317Y-125473162D01*
X95181441Y-125334090D01*
X95326431Y-125121890D01*
X95377440Y-124870000D01*
X95377440Y-122330000D01*
X95333162Y-122094683D01*
X95194090Y-121878559D01*
X94981890Y-121733569D01*
X94730000Y-121682560D01*
X93190000Y-121682560D01*
X93190000Y-118469432D01*
X93370824Y-118288923D01*
X93589750Y-117761691D01*
X93590248Y-117190813D01*
X93372243Y-116663200D01*
X93190000Y-116480639D01*
X93190000Y-108933712D01*
X96948711Y-105175000D01*
X97783691Y-105175000D01*
X98132927Y-105524846D01*
X98733453Y-105774206D01*
X99383694Y-105774774D01*
X99984655Y-105526462D01*
X100444846Y-105067073D01*
X100694206Y-104466547D01*
X100694774Y-103816306D01*
X100446462Y-103215345D01*
X100095000Y-102863269D01*
X100095000Y-99488712D01*
X101696853Y-97886858D01*
X101696856Y-97886856D01*
X101921215Y-97551077D01*
X101953256Y-97389999D01*
X102000001Y-97155000D01*
X102000000Y-97154995D01*
X102000000Y-96881189D01*
X102063917Y-96869162D01*
X102280041Y-96730090D01*
X102425031Y-96517890D01*
X102433400Y-96476561D01*
X102445330Y-96494415D01*
X102470000Y-96510899D01*
X102470000Y-100964995D01*
X102469999Y-100965000D01*
X102548785Y-101361077D01*
X102773144Y-101696856D01*
X105533789Y-104457500D01*
X101583144Y-108408144D01*
X101358785Y-108743923D01*
X101279999Y-109140000D01*
X101280000Y-109140005D01*
X101280000Y-117115568D01*
X101099176Y-117296077D01*
X100880250Y-117823309D01*
X100879752Y-118394187D01*
X101097757Y-118921800D01*
X101280000Y-119104361D01*
X101280000Y-122454995D01*
X101279999Y-122455000D01*
X101358785Y-122851077D01*
X101542560Y-123126117D01*
X101542560Y-124870000D01*
X101586838Y-125105317D01*
X101725910Y-125321441D01*
X101938110Y-125466431D01*
X102190000Y-125517440D01*
X104730000Y-125517440D01*
X104965317Y-125473162D01*
X105181441Y-125334090D01*
X105326431Y-125121890D01*
X105377440Y-124870000D01*
X105377440Y-122330000D01*
X105333162Y-122094683D01*
X105194090Y-121878559D01*
X104981890Y-121733569D01*
X104730000Y-121682560D01*
X103350000Y-121682560D01*
X103350000Y-119104432D01*
X103530824Y-118923923D01*
X103749750Y-118396691D01*
X103750248Y-117825813D01*
X103532243Y-117298200D01*
X103350000Y-117115639D01*
X103350000Y-109568712D01*
X106650030Y-106268681D01*
X106988453Y-106409206D01*
X107638694Y-106409774D01*
X108239655Y-106161462D01*
X108699846Y-105702073D01*
X108949206Y-105101547D01*
X108949774Y-104451306D01*
X108701462Y-103850345D01*
X108242073Y-103390154D01*
X107641547Y-103140794D01*
X107144071Y-103140359D01*
X104540000Y-100536288D01*
X104540000Y-96510899D01*
X104564670Y-96494415D01*
X104775000Y-96179634D01*
X104985330Y-96494415D01*
X105010000Y-96510899D01*
X105010000Y-98424995D01*
X105009999Y-98425000D01*
X105088785Y-98821077D01*
X105313144Y-99156856D01*
X111663142Y-105506853D01*
X111663144Y-105506856D01*
X111951690Y-105699655D01*
X111998923Y-105731215D01*
X112395000Y-105810001D01*
X112395005Y-105810000D01*
X112436288Y-105810000D01*
X111743144Y-106503144D01*
X111518785Y-106838923D01*
X111439999Y-107235000D01*
X111440000Y-107235005D01*
X111440000Y-117115568D01*
X111259176Y-117296077D01*
X111040250Y-117823309D01*
X111039752Y-118394187D01*
X111257757Y-118921800D01*
X111440000Y-119104361D01*
X111440000Y-122714995D01*
X111439999Y-122715000D01*
X111442560Y-122727875D01*
X111442560Y-124870000D01*
X111486838Y-125105317D01*
X111625910Y-125321441D01*
X111838110Y-125466431D01*
X112090000Y-125517440D01*
X114630000Y-125517440D01*
X114865317Y-125473162D01*
X115081441Y-125334090D01*
X115226431Y-125121890D01*
X115277440Y-124870000D01*
X115277440Y-122330000D01*
X115233162Y-122094683D01*
X115094090Y-121878559D01*
X114881890Y-121733569D01*
X114630000Y-121682560D01*
X113510000Y-121682560D01*
X113510000Y-119104432D01*
X113690824Y-118923923D01*
X113909750Y-118396691D01*
X113910248Y-117825813D01*
X113692243Y-117298200D01*
X113510000Y-117115639D01*
X113510000Y-107663712D01*
X115363711Y-105810000D01*
X116198691Y-105810000D01*
X116547927Y-106159846D01*
X117148453Y-106409206D01*
X117798694Y-106409774D01*
X118399655Y-106161462D01*
X118859846Y-105702073D01*
X119109206Y-105101547D01*
X119109774Y-104451306D01*
X118861462Y-103850345D01*
X118402073Y-103390154D01*
X117801547Y-103140794D01*
X117151306Y-103140226D01*
X116550345Y-103388538D01*
X116198269Y-103740000D01*
X112823711Y-103740000D01*
X107080000Y-97996288D01*
X107080000Y-96510899D01*
X107104670Y-96494415D01*
X107315000Y-96179634D01*
X107525330Y-96494415D01*
X107650000Y-96577717D01*
X107650000Y-97790000D01*
X107721173Y-98147809D01*
X107923855Y-98451145D01*
X111733855Y-102261145D01*
X112037191Y-102463827D01*
X112395000Y-102535000D01*
X119627710Y-102535000D01*
X121700000Y-104607290D01*
X121700000Y-117015742D01*
X121419176Y-117296077D01*
X121200250Y-117823309D01*
X121199752Y-118394187D01*
X121417757Y-118921800D01*
X121600000Y-119104361D01*
X121600000Y-121922343D01*
X121493569Y-122078110D01*
X121442560Y-122330000D01*
X121442560Y-124870000D01*
X121486838Y-125105317D01*
X121625910Y-125321441D01*
X121838110Y-125466431D01*
X122090000Y-125517440D01*
X124630000Y-125517440D01*
X124865317Y-125473162D01*
X125081441Y-125334090D01*
X125226431Y-125121890D01*
X125277440Y-124870000D01*
X125277440Y-122330000D01*
X125233162Y-122094683D01*
X125094090Y-121878559D01*
X124881890Y-121733569D01*
X124630000Y-121682560D01*
X123670000Y-121682560D01*
X123670000Y-119104432D01*
X123850824Y-118923923D01*
X124069750Y-118396691D01*
X124070248Y-117825813D01*
X123852243Y-117298200D01*
X123570000Y-117015464D01*
X123570000Y-107134078D01*
X135767378Y-107134078D01*
X135796917Y-107644428D01*
X135935389Y-107978729D01*
X136165984Y-108034410D01*
X136885395Y-107315000D01*
X136165984Y-106595590D01*
X135935389Y-106651271D01*
X135767378Y-107134078D01*
X123570000Y-107134078D01*
X123570000Y-104220005D01*
X123570001Y-104220000D01*
X123498827Y-103862192D01*
X123498827Y-103862191D01*
X123296145Y-103558855D01*
X122272290Y-102535000D01*
X125342710Y-102535000D01*
X127270781Y-104463071D01*
X127270226Y-105098694D01*
X127518538Y-105699655D01*
X127977927Y-106159846D01*
X128578453Y-106409206D01*
X129228694Y-106409774D01*
X129829655Y-106161462D01*
X130289846Y-105702073D01*
X130539206Y-105101547D01*
X130539774Y-104451306D01*
X130291462Y-103850345D01*
X129832073Y-103390154D01*
X129231547Y-103140794D01*
X128592526Y-103140236D01*
X126391145Y-100938855D01*
X126087809Y-100736173D01*
X125730000Y-100665000D01*
X112782290Y-100665000D01*
X109520000Y-97402710D01*
X109520000Y-96577717D01*
X109644670Y-96494415D01*
X109855000Y-96179634D01*
X110065330Y-96494415D01*
X110551511Y-96819271D01*
X111125000Y-96933345D01*
X111698489Y-96819271D01*
X112184670Y-96494415D01*
X112395000Y-96179634D01*
X112605330Y-96494415D01*
X113091511Y-96819271D01*
X113665000Y-96933345D01*
X114238489Y-96819271D01*
X114724670Y-96494415D01*
X114935000Y-96179634D01*
X115145330Y-96494415D01*
X115270000Y-96577717D01*
X115270000Y-97155000D01*
X115341173Y-97512809D01*
X115543855Y-97816145D01*
X118083855Y-100356145D01*
X118387191Y-100558827D01*
X118745000Y-100630000D01*
X144384247Y-100630000D01*
X143855345Y-100848538D01*
X143395154Y-101307927D01*
X143145794Y-101908453D01*
X143145226Y-102558694D01*
X143393538Y-103159655D01*
X143745000Y-103511731D01*
X143745000Y-106038691D01*
X143503269Y-106280000D01*
X142240005Y-106280000D01*
X142240000Y-106279999D01*
X142239995Y-106280000D01*
X140221844Y-106280000D01*
X140179090Y-106213559D01*
X139966890Y-106068569D01*
X139715000Y-106017560D01*
X138415000Y-106017560D01*
X138179683Y-106061838D01*
X137963559Y-106200910D01*
X137886063Y-106314329D01*
X137784410Y-106415982D01*
X137728729Y-106185389D01*
X137245922Y-106017378D01*
X136735572Y-106046917D01*
X136401271Y-106185389D01*
X136345590Y-106415984D01*
X137065000Y-107135395D01*
X137079142Y-107121252D01*
X137258748Y-107300858D01*
X137244605Y-107315000D01*
X137258748Y-107329142D01*
X137079142Y-107508748D01*
X137065000Y-107494605D01*
X136345590Y-108214016D01*
X136401271Y-108444611D01*
X136884078Y-108612622D01*
X137394428Y-108583083D01*
X137728729Y-108444611D01*
X137784410Y-108214018D01*
X137886072Y-108315680D01*
X137950910Y-108416441D01*
X138163110Y-108561431D01*
X138415000Y-108612440D01*
X139478848Y-108612440D01*
X138333144Y-109758144D01*
X138108785Y-110093923D01*
X138029999Y-110490000D01*
X138030000Y-110490005D01*
X138030000Y-124031289D01*
X136096288Y-125965000D01*
X129673711Y-125965000D01*
X129475000Y-125766288D01*
X129475000Y-125233559D01*
X129517686Y-125215922D01*
X130054039Y-124680505D01*
X130344668Y-123980590D01*
X130345330Y-123222735D01*
X130055922Y-122522314D01*
X129940000Y-122406189D01*
X129940000Y-116840005D01*
X129940001Y-116840000D01*
X129940000Y-116839995D01*
X129940000Y-116211309D01*
X130289846Y-115862073D01*
X130539206Y-115261547D01*
X130539774Y-114611306D01*
X130291462Y-114010345D01*
X129832073Y-113550154D01*
X129231547Y-113300794D01*
X128581306Y-113300226D01*
X127980345Y-113548538D01*
X127520154Y-114007927D01*
X127270794Y-114608453D01*
X127270226Y-115258694D01*
X127518538Y-115859655D01*
X127870000Y-116211731D01*
X127870000Y-116411289D01*
X127606314Y-116674975D01*
X127350813Y-116674752D01*
X126823200Y-116892757D01*
X126419176Y-117296077D01*
X126200250Y-117823309D01*
X126199752Y-118394187D01*
X126417757Y-118921800D01*
X126821077Y-119325824D01*
X127348309Y-119544750D01*
X127870000Y-119545205D01*
X127870000Y-121774306D01*
X127362314Y-121984078D01*
X126825961Y-122519495D01*
X126535332Y-123219410D01*
X126534670Y-123977265D01*
X126824078Y-124677686D01*
X127359495Y-125214039D01*
X127405000Y-125232934D01*
X127405000Y-125766289D01*
X127206288Y-125965000D01*
X119808711Y-125965000D01*
X119475000Y-125631288D01*
X119475000Y-125233559D01*
X119517686Y-125215922D01*
X120054039Y-124680505D01*
X120344668Y-123980590D01*
X120345330Y-123222735D01*
X120055922Y-122522314D01*
X119865375Y-122331434D01*
X119802566Y-122237434D01*
X119709388Y-122175174D01*
X119520505Y-121985961D01*
X118820590Y-121695332D01*
X118510000Y-121695061D01*
X118510000Y-119104432D01*
X118690824Y-118923923D01*
X118909750Y-118396691D01*
X118910248Y-117825813D01*
X118692243Y-117298200D01*
X118510000Y-117115639D01*
X118510000Y-116211309D01*
X118859846Y-115862073D01*
X119109206Y-115261547D01*
X119109774Y-114611306D01*
X118861462Y-114010345D01*
X118402073Y-113550154D01*
X117801547Y-113300794D01*
X117151306Y-113300226D01*
X116550345Y-113548538D01*
X116090154Y-114007927D01*
X115840794Y-114608453D01*
X115840226Y-115258694D01*
X116088538Y-115859655D01*
X116440000Y-116211731D01*
X116440000Y-117115568D01*
X116259176Y-117296077D01*
X116040250Y-117823309D01*
X116039752Y-118394187D01*
X116257757Y-118921800D01*
X116440000Y-119104361D01*
X116440000Y-122634995D01*
X116439999Y-122635000D01*
X116518785Y-123031077D01*
X116577220Y-123118532D01*
X116535332Y-123219410D01*
X116534670Y-123977265D01*
X116824078Y-124677686D01*
X117359495Y-125214039D01*
X117405000Y-125232934D01*
X117405000Y-125606289D01*
X117046288Y-125965000D01*
X110193711Y-125965000D01*
X109575000Y-125346288D01*
X109575000Y-125233559D01*
X109617686Y-125215922D01*
X110154039Y-124680505D01*
X110444668Y-123980590D01*
X110445330Y-123222735D01*
X110155922Y-122522314D01*
X109620505Y-121985961D01*
X108920590Y-121695332D01*
X108350000Y-121694834D01*
X108350000Y-119104432D01*
X108530824Y-118923923D01*
X108749750Y-118396691D01*
X108750248Y-117825813D01*
X108532243Y-117298200D01*
X108350000Y-117115639D01*
X108350000Y-116211309D01*
X108699846Y-115862073D01*
X108949206Y-115261547D01*
X108949774Y-114611306D01*
X108701462Y-114010345D01*
X108242073Y-113550154D01*
X107641547Y-113300794D01*
X106991306Y-113300226D01*
X106390345Y-113548538D01*
X105930154Y-114007927D01*
X105680794Y-114608453D01*
X105680226Y-115258694D01*
X105928538Y-115859655D01*
X106280000Y-116211731D01*
X106280000Y-117115568D01*
X106099176Y-117296077D01*
X105880250Y-117823309D01*
X105879752Y-118394187D01*
X106097757Y-118921800D01*
X106280000Y-119104361D01*
X106280000Y-122374995D01*
X106279999Y-122375000D01*
X106358785Y-122771077D01*
X106583144Y-123106856D01*
X106653044Y-123176756D01*
X106635332Y-123219410D01*
X106634670Y-123977265D01*
X106924078Y-124677686D01*
X107459495Y-125214039D01*
X107505000Y-125232934D01*
X107505000Y-125346289D01*
X106886288Y-125965000D01*
X100123711Y-125965000D01*
X99575000Y-125416288D01*
X99575000Y-125233559D01*
X99617686Y-125215922D01*
X100154039Y-124680505D01*
X100444668Y-123980590D01*
X100445330Y-123222735D01*
X100155922Y-122522314D01*
X100095000Y-122461285D01*
X100095000Y-115576309D01*
X100444846Y-115227073D01*
X100694206Y-114626547D01*
X100694774Y-113976306D01*
X100446462Y-113375345D01*
X99987073Y-112915154D01*
X99386547Y-112665794D01*
X98736306Y-112665226D01*
X98135345Y-112913538D01*
X97675154Y-113372927D01*
X97425794Y-113973453D01*
X97425226Y-114623694D01*
X97673538Y-115224655D01*
X97807469Y-115358820D01*
X97126313Y-116039975D01*
X96870813Y-116039752D01*
X96343200Y-116257757D01*
X95939176Y-116661077D01*
X95720250Y-117188309D01*
X95719752Y-117759187D01*
X95937757Y-118286800D01*
X96341077Y-118690824D01*
X96868309Y-118909750D01*
X97439187Y-118910248D01*
X97966800Y-118692243D01*
X98025000Y-118634144D01*
X98025000Y-121751581D01*
X97462314Y-121984078D01*
X96925961Y-122519495D01*
X96635332Y-123219410D01*
X96634670Y-123977265D01*
X96924078Y-124677686D01*
X97459495Y-125214039D01*
X97505000Y-125232934D01*
X97505000Y-125844995D01*
X97504999Y-125845000D01*
X97583785Y-126241077D01*
X97808144Y-126576856D01*
X98963142Y-127731853D01*
X98963144Y-127731856D01*
X99298923Y-127956215D01*
X99695000Y-128035001D01*
X99695005Y-128035000D01*
X107314995Y-128035000D01*
X107315000Y-128035001D01*
X107711077Y-127956215D01*
X108046856Y-127731856D01*
X108540000Y-127238712D01*
X109033142Y-127731853D01*
X109033144Y-127731856D01*
X109368923Y-127956215D01*
X109765000Y-128035001D01*
X109765005Y-128035000D01*
X117474995Y-128035000D01*
X117475000Y-128035001D01*
X117871077Y-127956215D01*
X118206856Y-127731856D01*
X118427500Y-127511212D01*
X118648142Y-127731853D01*
X118648144Y-127731856D01*
X118983923Y-127956215D01*
X119380000Y-128035001D01*
X119380005Y-128035000D01*
X127634995Y-128035000D01*
X127635000Y-128035001D01*
X128031077Y-127956215D01*
X128366856Y-127731856D01*
X128440000Y-127658712D01*
X128513142Y-127731853D01*
X128513144Y-127731856D01*
X128848923Y-127956215D01*
X129245000Y-128035001D01*
X129245005Y-128035000D01*
X136524995Y-128035000D01*
X136525000Y-128035001D01*
X136921077Y-127956215D01*
X137256856Y-127731856D01*
X139065000Y-125923711D01*
X140873142Y-127731853D01*
X140873144Y-127731856D01*
X141074429Y-127866349D01*
X141208922Y-127956215D01*
X141605000Y-128035000D01*
X153669995Y-128035000D01*
X153670000Y-128035001D01*
X154066077Y-127956215D01*
X154401856Y-127731856D01*
X155257500Y-126876212D01*
X156113142Y-127731853D01*
X156113144Y-127731856D01*
X156448923Y-127956215D01*
X156845000Y-128035001D01*
X156845005Y-128035000D01*
X163829995Y-128035000D01*
X163830000Y-128035001D01*
X164226077Y-127956215D01*
X164561856Y-127731856D01*
X166171853Y-126121858D01*
X166171856Y-126121856D01*
X166396215Y-125786077D01*
X166425486Y-125638923D01*
X166475001Y-125390000D01*
X166475000Y-125389995D01*
X166475000Y-125233559D01*
X166517686Y-125215922D01*
X167054039Y-124680505D01*
X167344668Y-123980590D01*
X167345330Y-123222735D01*
X167055922Y-122522314D01*
X166865375Y-122331434D01*
X166802566Y-122237434D01*
X166770000Y-122215674D01*
X166770000Y-116205005D01*
X166770001Y-116205000D01*
X166770000Y-116204995D01*
X166770000Y-115576309D01*
X167119846Y-115227073D01*
X167369206Y-114626547D01*
X167369774Y-113976306D01*
X167121462Y-113375345D01*
X166662073Y-112915154D01*
X166061547Y-112665794D01*
X165411306Y-112665226D01*
X164810345Y-112913538D01*
X164350154Y-113372927D01*
X164100794Y-113973453D01*
X164100226Y-114623694D01*
X164348538Y-115224655D01*
X164700000Y-115576731D01*
X164700000Y-115776289D01*
X164436314Y-116039975D01*
X164180813Y-116039752D01*
X163653200Y-116257757D01*
X163249176Y-116661077D01*
X163030250Y-117188309D01*
X163029752Y-117759187D01*
X163247757Y-118286800D01*
X163651077Y-118690824D01*
X164178309Y-118909750D01*
X164700000Y-118910205D01*
X164700000Y-121844549D01*
X164362314Y-121984078D01*
X163825961Y-122519495D01*
X163535332Y-123219410D01*
X163534670Y-123977265D01*
X163824078Y-124677686D01*
X164255963Y-125110326D01*
X163401288Y-125965000D01*
X157273711Y-125965000D01*
X156521163Y-125212451D01*
X157054039Y-124680505D01*
X157344668Y-123980590D01*
X157345330Y-123222735D01*
X157055922Y-122522314D01*
X156610000Y-122075612D01*
X156610000Y-116205005D01*
X156610001Y-116205000D01*
X156610000Y-116204995D01*
X156610000Y-115576309D01*
X156959846Y-115227073D01*
X157209206Y-114626547D01*
X157209774Y-113976306D01*
X156961462Y-113375345D01*
X156502073Y-112915154D01*
X155901547Y-112665794D01*
X155251306Y-112665226D01*
X154650345Y-112913538D01*
X154190154Y-113372927D01*
X153940794Y-113973453D01*
X153940226Y-114623694D01*
X154188538Y-115224655D01*
X154540000Y-115576731D01*
X154540000Y-115776289D01*
X154276314Y-116039975D01*
X154020813Y-116039752D01*
X153493200Y-116257757D01*
X153089176Y-116661077D01*
X152870250Y-117188309D01*
X152869752Y-117759187D01*
X153087757Y-118286800D01*
X153491077Y-118690824D01*
X154018309Y-118909750D01*
X154540000Y-118910205D01*
X154540000Y-121910660D01*
X154362314Y-121984078D01*
X153825961Y-122519495D01*
X153535332Y-123219410D01*
X153534670Y-123977265D01*
X153824078Y-124677686D01*
X154176032Y-125030256D01*
X153241288Y-125965000D01*
X142033711Y-125965000D01*
X140100000Y-124031288D01*
X140100000Y-118627163D01*
X143807443Y-118627163D01*
X143906042Y-118893965D01*
X144515582Y-119120401D01*
X145165377Y-119096341D01*
X145653958Y-118893965D01*
X145752557Y-118627163D01*
X144780000Y-117654605D01*
X143807443Y-118627163D01*
X140100000Y-118627163D01*
X140100000Y-117210582D01*
X143134599Y-117210582D01*
X143158659Y-117860377D01*
X143361035Y-118348958D01*
X143627837Y-118447557D01*
X144600395Y-117475000D01*
X144959605Y-117475000D01*
X145932163Y-118447557D01*
X146198965Y-118348958D01*
X146425401Y-117739418D01*
X146401341Y-117089623D01*
X146198965Y-116601042D01*
X145932163Y-116502443D01*
X144959605Y-117475000D01*
X144600395Y-117475000D01*
X143627837Y-116502443D01*
X143361035Y-116601042D01*
X143134599Y-117210582D01*
X140100000Y-117210582D01*
X140100000Y-116322837D01*
X143807443Y-116322837D01*
X144780000Y-117295395D01*
X145752557Y-116322837D01*
X145653958Y-116056035D01*
X145044418Y-115829599D01*
X144394623Y-115853659D01*
X143906042Y-116056035D01*
X143807443Y-116322837D01*
X140100000Y-116322837D01*
X140100000Y-110918712D01*
X142668711Y-108350000D01*
X143503691Y-108350000D01*
X143852927Y-108699846D01*
X144453453Y-108949206D01*
X145103694Y-108949774D01*
X145704655Y-108701462D01*
X146164846Y-108242073D01*
X146414206Y-107641547D01*
X146414774Y-106991306D01*
X146166462Y-106390345D01*
X145815000Y-106038269D01*
X145815000Y-103511309D01*
X146164846Y-103162073D01*
X146414206Y-102561547D01*
X146414774Y-101911306D01*
X146166462Y-101310345D01*
X145707073Y-100850154D01*
X145176883Y-100630000D01*
X153282710Y-100630000D01*
X154640000Y-101987290D01*
X154640000Y-102763865D01*
X154298269Y-103105000D01*
X151765000Y-103105000D01*
X151368922Y-103183785D01*
X151234429Y-103273651D01*
X151033144Y-103408144D01*
X151033142Y-103408147D01*
X148573144Y-105868144D01*
X148348785Y-106203923D01*
X148269999Y-106600000D01*
X148270000Y-106600005D01*
X148270000Y-116480568D01*
X148089176Y-116661077D01*
X147870250Y-117188309D01*
X147869752Y-117759187D01*
X148087757Y-118286800D01*
X148270000Y-118469361D01*
X148270000Y-122544995D01*
X148269999Y-122545000D01*
X148348785Y-122941077D01*
X148442560Y-123081422D01*
X148442560Y-124870000D01*
X148486838Y-125105317D01*
X148625910Y-125321441D01*
X148838110Y-125466431D01*
X149090000Y-125517440D01*
X151630000Y-125517440D01*
X151865317Y-125473162D01*
X152081441Y-125334090D01*
X152226431Y-125121890D01*
X152277440Y-124870000D01*
X152277440Y-122330000D01*
X152233162Y-122094683D01*
X152094090Y-121878559D01*
X151881890Y-121733569D01*
X151630000Y-121682560D01*
X150340000Y-121682560D01*
X150340000Y-118469432D01*
X150520824Y-118288923D01*
X150739750Y-117761691D01*
X150740248Y-117190813D01*
X150522243Y-116663200D01*
X150340000Y-116480639D01*
X150340000Y-107028712D01*
X152193711Y-105175000D01*
X154298691Y-105175000D01*
X154647927Y-105524846D01*
X155248453Y-105774206D01*
X155898694Y-105774774D01*
X156499655Y-105526462D01*
X156959846Y-105067073D01*
X157209206Y-104466547D01*
X157209774Y-103816306D01*
X156961462Y-103215345D01*
X156510000Y-102763095D01*
X156510000Y-101600000D01*
X156438827Y-101242191D01*
X156236145Y-100938855D01*
X154331145Y-99033855D01*
X154027809Y-98831173D01*
X153670000Y-98760000D01*
X119132290Y-98760000D01*
X117140000Y-96767710D01*
X117140000Y-96577717D01*
X117264670Y-96494415D01*
X117475000Y-96179634D01*
X117685330Y-96494415D01*
X117823240Y-96586564D01*
X117881173Y-96877809D01*
X118083855Y-97181145D01*
X119353855Y-98451145D01*
X119657191Y-98653827D01*
X120015000Y-98725000D01*
X161537710Y-98725000D01*
X164800000Y-101987290D01*
X164800000Y-102763865D01*
X164458269Y-103105000D01*
X162560005Y-103105000D01*
X162560000Y-103104999D01*
X162163923Y-103183785D01*
X161828144Y-103408144D01*
X158733144Y-106503144D01*
X158508785Y-106838923D01*
X158429999Y-107235000D01*
X158430000Y-107235005D01*
X158430000Y-116480568D01*
X158249176Y-116661077D01*
X158030250Y-117188309D01*
X158029752Y-117759187D01*
X158247757Y-118286800D01*
X158430000Y-118469361D01*
X158430000Y-122704995D01*
X158429999Y-122705000D01*
X158442560Y-122768147D01*
X158442560Y-124870000D01*
X158486838Y-125105317D01*
X158625910Y-125321441D01*
X158838110Y-125466431D01*
X159090000Y-125517440D01*
X161630000Y-125517440D01*
X161865317Y-125473162D01*
X162081441Y-125334090D01*
X162226431Y-125121890D01*
X162277440Y-124870000D01*
X162277440Y-122330000D01*
X162233162Y-122094683D01*
X162094090Y-121878559D01*
X161881890Y-121733569D01*
X161630000Y-121682560D01*
X160500000Y-121682560D01*
X160500000Y-118469432D01*
X160680824Y-118288923D01*
X160899750Y-117761691D01*
X160900248Y-117190813D01*
X160682243Y-116663200D01*
X160500000Y-116480639D01*
X160500000Y-107663712D01*
X162988712Y-105175000D01*
X164458691Y-105175000D01*
X164807927Y-105524846D01*
X165408453Y-105774206D01*
X166058694Y-105774774D01*
X166659655Y-105526462D01*
X167119846Y-105067073D01*
X167369206Y-104466547D01*
X167369774Y-103816306D01*
X167121462Y-103215345D01*
X166670000Y-102763095D01*
X166670000Y-101600000D01*
X166598827Y-101242191D01*
X166396145Y-100938855D01*
X162586145Y-97128855D01*
X162282809Y-96926173D01*
X161925000Y-96855000D01*
X129298867Y-96855000D01*
X129478489Y-96819271D01*
X129964670Y-96494415D01*
X129970961Y-96485000D01*
X169545000Y-96485000D01*
X170017614Y-96390991D01*
X170418277Y-96123277D01*
X179943277Y-86598277D01*
X180210991Y-86197614D01*
X180305000Y-85725000D01*
X180305000Y-65915514D01*
X180340000Y-65880514D01*
X181372243Y-66912757D01*
X181772906Y-67180471D01*
X182245520Y-67274480D01*
X182877386Y-67274480D01*
X182880000Y-67275000D01*
X182882614Y-67274480D01*
X184061224Y-67274480D01*
X184103740Y-67340551D01*
X184315940Y-67485541D01*
X184382460Y-67499012D01*
X184382460Y-69846226D01*
X184035154Y-70192927D01*
X183785794Y-70793453D01*
X183785226Y-71443694D01*
X184033538Y-72044655D01*
X184492927Y-72504846D01*
X185093453Y-72754206D01*
X185743694Y-72754774D01*
X186344655Y-72506462D01*
X186804846Y-72047073D01*
X187054206Y-71446547D01*
X187054774Y-70796306D01*
X186806462Y-70195345D01*
X186452460Y-69840725D01*
X186452460Y-67501670D01*
X186502407Y-67492272D01*
X186718531Y-67353200D01*
X186863521Y-67141000D01*
X186914530Y-66889110D01*
X186914530Y-65189850D01*
X186870252Y-64954533D01*
X186731180Y-64738409D01*
X186518980Y-64593419D01*
X186267090Y-64542410D01*
X184567830Y-64542410D01*
X184332513Y-64586688D01*
X184116389Y-64725760D01*
X184062602Y-64804480D01*
X182757074Y-64804480D01*
X181575000Y-63622406D01*
X181575000Y-63148620D01*
X181586431Y-63131890D01*
X181637440Y-62880000D01*
X181637440Y-61580000D01*
X181593162Y-61344683D01*
X181454090Y-61128559D01*
X181340671Y-61051063D01*
X181239018Y-60949410D01*
X181469611Y-60893729D01*
X181637622Y-60410922D01*
X181608083Y-59900572D01*
X181469611Y-59566271D01*
X181239016Y-59510590D01*
X180519605Y-60230000D01*
X180533748Y-60244142D01*
X180354142Y-60423748D01*
X180340000Y-60409605D01*
X180325858Y-60423748D01*
X180146252Y-60244142D01*
X180160395Y-60230000D01*
X179440984Y-59510590D01*
X179210389Y-59566271D01*
X179042378Y-60049078D01*
X179071917Y-60559428D01*
X179210389Y-60893729D01*
X179440982Y-60949410D01*
X179339320Y-61051072D01*
X179238559Y-61115910D01*
X179093569Y-61328110D01*
X179042560Y-61580000D01*
X179042560Y-62880000D01*
X179086838Y-63115317D01*
X179105000Y-63143542D01*
X179105000Y-63622406D01*
X176652406Y-66075000D01*
X142875000Y-66075000D01*
X142402386Y-66169009D01*
X142001723Y-66436723D01*
X125853446Y-82585000D01*
X103381554Y-82585000D01*
X100335000Y-79538446D01*
X100335000Y-71479016D01*
X104055590Y-71479016D01*
X104111271Y-71709611D01*
X104594078Y-71877622D01*
X105104428Y-71848083D01*
X105438729Y-71709611D01*
X105494410Y-71479016D01*
X104775000Y-70759605D01*
X104055590Y-71479016D01*
X100335000Y-71479016D01*
X100335000Y-63556941D01*
X100558754Y-63407433D01*
X100916646Y-62871810D01*
X101042321Y-62240000D01*
X100916646Y-61608190D01*
X100558754Y-61072567D01*
X100405252Y-60970000D01*
X100457633Y-60935000D01*
X102905000Y-60935000D01*
X102905000Y-62865000D01*
X102999009Y-63337614D01*
X103266723Y-63738277D01*
X103640000Y-64111554D01*
X103640000Y-67515025D01*
X103528569Y-67678110D01*
X103477560Y-67930000D01*
X103477560Y-69230000D01*
X103521838Y-69465317D01*
X103660910Y-69681441D01*
X103774329Y-69758937D01*
X103875982Y-69860590D01*
X103645389Y-69916271D01*
X103477378Y-70399078D01*
X103506917Y-70909428D01*
X103645389Y-71243729D01*
X103875984Y-71299410D01*
X104595395Y-70580000D01*
X104581252Y-70565858D01*
X104760858Y-70386252D01*
X104775000Y-70400395D01*
X104789142Y-70386252D01*
X104968748Y-70565858D01*
X104954605Y-70580000D01*
X105674016Y-71299410D01*
X105904611Y-71243729D01*
X106072622Y-70760922D01*
X106043083Y-70250572D01*
X105904611Y-69916271D01*
X105674018Y-69860590D01*
X105775680Y-69758928D01*
X105876441Y-69694090D01*
X106021431Y-69481890D01*
X106072440Y-69230000D01*
X106072440Y-67930000D01*
X106028162Y-67694683D01*
X105910000Y-67511054D01*
X105910000Y-66381554D01*
X107101723Y-67573277D01*
X107502386Y-67840991D01*
X107975000Y-67935000D01*
X110800000Y-67935000D01*
X111051366Y-67885000D01*
X111189868Y-67885000D01*
X111643348Y-67794797D01*
X112027790Y-67537922D01*
X112284665Y-67153480D01*
X112374868Y-66700000D01*
X112284665Y-66246520D01*
X112027790Y-65862078D01*
X111785222Y-65700000D01*
X112027790Y-65537922D01*
X112284665Y-65153480D01*
X112374868Y-64700000D01*
X112284665Y-64246520D01*
X112027790Y-63862078D01*
X111785222Y-63700000D01*
X112027790Y-63537922D01*
X112284665Y-63153480D01*
X112374868Y-62700000D01*
X112284665Y-62246520D01*
X112027790Y-61862078D01*
X111785222Y-61700000D01*
X112027790Y-61537922D01*
X112284665Y-61153480D01*
X112374868Y-60700000D01*
X112284665Y-60246520D01*
X112027790Y-59862078D01*
X111785222Y-59700000D01*
X112027790Y-59537922D01*
X112284665Y-59153480D01*
X112374868Y-58700000D01*
X112284665Y-58246520D01*
X112027790Y-57862078D01*
X111785222Y-57700000D01*
X112027790Y-57537922D01*
X112284665Y-57153480D01*
X112374868Y-56700000D01*
X112284665Y-56246520D01*
X112027790Y-55862078D01*
X111785222Y-55700000D01*
X112027790Y-55537922D01*
X112284665Y-55153480D01*
X112337538Y-54887670D01*
X112530000Y-55080132D01*
X112530000Y-68744868D01*
X105242434Y-76032434D01*
X104996397Y-76400654D01*
X104910000Y-76835000D01*
X104910000Y-78878324D01*
X104660474Y-79251766D01*
X104546400Y-79825255D01*
X104546400Y-80194745D01*
X104660474Y-80768234D01*
X104985330Y-81254415D01*
X105471511Y-81579271D01*
X106045000Y-81693345D01*
X106618489Y-81579271D01*
X107104670Y-81254415D01*
X107315000Y-80939634D01*
X107525330Y-81254415D01*
X108011511Y-81579271D01*
X108585000Y-81693345D01*
X109158489Y-81579271D01*
X109644670Y-81254415D01*
X109855000Y-80939634D01*
X110065330Y-81254415D01*
X110551511Y-81579271D01*
X111125000Y-81693345D01*
X111698489Y-81579271D01*
X112184670Y-81254415D01*
X112395000Y-80939634D01*
X112605330Y-81254415D01*
X113091511Y-81579271D01*
X113665000Y-81693345D01*
X114238489Y-81579271D01*
X114724670Y-81254415D01*
X114935000Y-80939634D01*
X115145330Y-81254415D01*
X115631511Y-81579271D01*
X116205000Y-81693345D01*
X116778489Y-81579271D01*
X117264670Y-81254415D01*
X117274243Y-81240087D01*
X117278238Y-81261317D01*
X117417310Y-81477441D01*
X117629510Y-81622431D01*
X117881400Y-81673440D01*
X119608600Y-81673440D01*
X119843917Y-81629162D01*
X120060041Y-81490090D01*
X120205031Y-81277890D01*
X120256040Y-81026000D01*
X120256040Y-79962672D01*
X123618711Y-76600000D01*
X129539995Y-76600000D01*
X129540000Y-76600001D01*
X129936077Y-76521215D01*
X130271856Y-76296856D01*
X141398712Y-65170000D01*
X166704995Y-65170000D01*
X166705000Y-65170001D01*
X167101077Y-65091215D01*
X167436856Y-64866856D01*
X170829369Y-61474342D01*
X171323694Y-61474774D01*
X171924655Y-61226462D01*
X172384846Y-60767073D01*
X172634206Y-60166547D01*
X172634774Y-59516306D01*
X172558201Y-59330984D01*
X179620590Y-59330984D01*
X180340000Y-60050395D01*
X181059410Y-59330984D01*
X181003729Y-59100389D01*
X180520922Y-58932378D01*
X180010572Y-58961917D01*
X179676271Y-59100389D01*
X179620590Y-59330984D01*
X172558201Y-59330984D01*
X172386462Y-58915345D01*
X171927073Y-58455154D01*
X171850000Y-58423151D01*
X171850000Y-56334704D01*
X171863603Y-56314346D01*
X171950000Y-55880000D01*
X171950000Y-52705000D01*
X171863603Y-52270654D01*
X171675000Y-51988390D01*
X171675000Y-51417440D01*
X171810000Y-51417440D01*
X172045317Y-51373162D01*
X172261441Y-51234090D01*
X172406431Y-51021890D01*
X172436627Y-50872777D01*
X179216828Y-50872777D01*
X179348520Y-51167657D01*
X180056036Y-51439261D01*
X180813632Y-51419436D01*
X181421480Y-51167657D01*
X181553172Y-50872777D01*
X180385000Y-49704605D01*
X179216828Y-50872777D01*
X172436627Y-50872777D01*
X172457440Y-50770000D01*
X172457440Y-49196036D01*
X178470739Y-49196036D01*
X178490564Y-49953632D01*
X178742343Y-50561480D01*
X179037223Y-50693172D01*
X180205395Y-49525000D01*
X180564605Y-49525000D01*
X181732777Y-50693172D01*
X182027657Y-50561480D01*
X182299261Y-49853964D01*
X182279436Y-49096368D01*
X182027657Y-48488520D01*
X181732777Y-48356828D01*
X180564605Y-49525000D01*
X180205395Y-49525000D01*
X179037223Y-48356828D01*
X178742343Y-48488520D01*
X178470739Y-49196036D01*
X172457440Y-49196036D01*
X172457440Y-48230000D01*
X172447510Y-48177223D01*
X179216828Y-48177223D01*
X180385000Y-49345395D01*
X181475395Y-48255000D01*
X183547560Y-48255000D01*
X183547560Y-50795000D01*
X183591838Y-51030317D01*
X183730910Y-51246441D01*
X183943110Y-51391431D01*
X184195000Y-51442440D01*
X184230000Y-51442440D01*
X184230000Y-54967115D01*
X184159586Y-55037406D01*
X183933088Y-55582873D01*
X183932572Y-56173496D01*
X184158118Y-56719357D01*
X184575386Y-57137354D01*
X185120853Y-57363852D01*
X185711476Y-57364368D01*
X186257337Y-57138822D01*
X186675334Y-56721554D01*
X186901832Y-56176087D01*
X186902348Y-55585464D01*
X186700000Y-55095746D01*
X186700000Y-51442440D01*
X186735000Y-51442440D01*
X186970317Y-51398162D01*
X187186441Y-51259090D01*
X187331431Y-51046890D01*
X187382440Y-50795000D01*
X187382440Y-48255000D01*
X187338162Y-48019683D01*
X187199090Y-47803559D01*
X186986890Y-47658569D01*
X186735000Y-47607560D01*
X184195000Y-47607560D01*
X183959683Y-47651838D01*
X183743559Y-47790910D01*
X183598569Y-48003110D01*
X183547560Y-48255000D01*
X181475395Y-48255000D01*
X181553172Y-48177223D01*
X181421480Y-47882343D01*
X180713964Y-47610739D01*
X179956368Y-47630564D01*
X179348520Y-47882343D01*
X179216828Y-48177223D01*
X172447510Y-48177223D01*
X172413162Y-47994683D01*
X172274090Y-47778559D01*
X172061890Y-47633569D01*
X171810000Y-47582560D01*
X169270000Y-47582560D01*
X169034683Y-47626838D01*
X168818559Y-47765910D01*
X168673569Y-47978110D01*
X168622560Y-48230000D01*
X168622560Y-50770000D01*
X168666838Y-51005317D01*
X168805910Y-51221441D01*
X169018110Y-51366431D01*
X169270000Y-51417440D01*
X169405000Y-51417440D01*
X169405000Y-52430000D01*
X169491397Y-52864346D01*
X169505000Y-52884704D01*
X169505000Y-53821289D01*
X168881314Y-54444975D01*
X168625813Y-54444752D01*
X168098200Y-54662757D01*
X167694176Y-55066077D01*
X167475250Y-55593309D01*
X167474752Y-56164187D01*
X167692757Y-56691800D01*
X168096077Y-57095824D01*
X168623309Y-57314750D01*
X169194187Y-57315248D01*
X169721800Y-57097243D01*
X169780000Y-57039144D01*
X169780000Y-58748368D01*
X169615154Y-58912927D01*
X169365794Y-59513453D01*
X169365359Y-60010929D01*
X166276288Y-63100000D01*
X140970005Y-63100000D01*
X140970000Y-63099999D01*
X140573923Y-63178785D01*
X140238144Y-63403144D01*
X129111288Y-74530000D01*
X123190000Y-74530000D01*
X122793922Y-74608785D01*
X122659429Y-74698651D01*
X122458144Y-74833144D01*
X122458142Y-74833147D01*
X118944728Y-78346560D01*
X117881400Y-78346560D01*
X117646083Y-78390838D01*
X117429959Y-78529910D01*
X117284969Y-78742110D01*
X117276600Y-78783439D01*
X117264670Y-78765585D01*
X116778489Y-78440729D01*
X116205000Y-78326655D01*
X115631511Y-78440729D01*
X115145330Y-78765585D01*
X114935000Y-79080366D01*
X114876259Y-78992453D01*
X121713711Y-72155000D01*
X129539995Y-72155000D01*
X129540000Y-72155001D01*
X129936077Y-72076215D01*
X130271856Y-71851856D01*
X143938711Y-58185000D01*
X149853691Y-58185000D01*
X150202927Y-58534846D01*
X150803453Y-58784206D01*
X151453694Y-58784774D01*
X152054655Y-58536462D01*
X152514846Y-58077073D01*
X152764206Y-57476547D01*
X152764641Y-56979071D01*
X156231853Y-53511858D01*
X156231856Y-53511856D01*
X156406822Y-53250000D01*
X156456215Y-53176078D01*
X156535000Y-52780000D01*
X156535000Y-51158559D01*
X156577686Y-51140922D01*
X157114039Y-50605505D01*
X157404668Y-49905590D01*
X157405330Y-49147735D01*
X157115922Y-48447314D01*
X156923944Y-48255000D01*
X158662560Y-48255000D01*
X158662560Y-50795000D01*
X158706838Y-51030317D01*
X158845910Y-51246441D01*
X159058110Y-51391431D01*
X159310000Y-51442440D01*
X159445000Y-51442440D01*
X159445000Y-56440000D01*
X159531397Y-56874346D01*
X159655587Y-57060210D01*
X159655226Y-57473694D01*
X159903538Y-58074655D01*
X160155000Y-58326556D01*
X160155000Y-59218446D01*
X159947086Y-59425997D01*
X159705276Y-60008341D01*
X159704725Y-60638893D01*
X159945519Y-61221657D01*
X160390997Y-61667914D01*
X160973341Y-61909724D01*
X161603893Y-61910275D01*
X162186657Y-61669481D01*
X162632914Y-61224003D01*
X162874724Y-60641659D01*
X162875275Y-60011107D01*
X162634481Y-59428343D01*
X162425000Y-59218496D01*
X162425000Y-58326484D01*
X162674846Y-58077073D01*
X162924206Y-57476547D01*
X162924657Y-56960293D01*
X162966986Y-57002622D01*
X163081861Y-56887747D01*
X163155995Y-57133864D01*
X163693223Y-57326965D01*
X164263454Y-57299778D01*
X164664005Y-57133864D01*
X164738139Y-56887745D01*
X163910000Y-56059605D01*
X163895858Y-56073748D01*
X163716252Y-55894142D01*
X163730395Y-55880000D01*
X164089605Y-55880000D01*
X164917745Y-56708139D01*
X165163864Y-56634005D01*
X165356965Y-56096777D01*
X165329778Y-55526546D01*
X165163864Y-55125995D01*
X164917745Y-55051861D01*
X164089605Y-55880000D01*
X163730395Y-55880000D01*
X162902255Y-55051861D01*
X162656136Y-55125995D01*
X162463035Y-55663223D01*
X162480475Y-56029016D01*
X162217073Y-55765154D01*
X161715000Y-55556675D01*
X161715000Y-54872255D01*
X163081861Y-54872255D01*
X163910000Y-55700395D01*
X164738139Y-54872255D01*
X164664005Y-54626136D01*
X164126777Y-54433035D01*
X163556546Y-54460222D01*
X163155995Y-54626136D01*
X163081861Y-54872255D01*
X161715000Y-54872255D01*
X161715000Y-51442440D01*
X161850000Y-51442440D01*
X162085317Y-51398162D01*
X162301441Y-51259090D01*
X162446431Y-51046890D01*
X162486752Y-50847777D01*
X164291828Y-50847777D01*
X164423520Y-51142657D01*
X165131036Y-51414261D01*
X165888632Y-51394436D01*
X166496480Y-51142657D01*
X166628172Y-50847777D01*
X165460000Y-49679605D01*
X164291828Y-50847777D01*
X162486752Y-50847777D01*
X162497440Y-50795000D01*
X162497440Y-49171036D01*
X163545739Y-49171036D01*
X163565564Y-49928632D01*
X163817343Y-50536480D01*
X164112223Y-50668172D01*
X165280395Y-49500000D01*
X165639605Y-49500000D01*
X166807777Y-50668172D01*
X167102657Y-50536480D01*
X167374261Y-49828964D01*
X167354436Y-49071368D01*
X167102657Y-48463520D01*
X166807777Y-48331828D01*
X165639605Y-49500000D01*
X165280395Y-49500000D01*
X164112223Y-48331828D01*
X163817343Y-48463520D01*
X163545739Y-49171036D01*
X162497440Y-49171036D01*
X162497440Y-48255000D01*
X162478102Y-48152223D01*
X164291828Y-48152223D01*
X165460000Y-49320395D01*
X166628172Y-48152223D01*
X166496480Y-47857343D01*
X165788964Y-47585739D01*
X165031368Y-47605564D01*
X164423520Y-47857343D01*
X164291828Y-48152223D01*
X162478102Y-48152223D01*
X162453162Y-48019683D01*
X162314090Y-47803559D01*
X162101890Y-47658569D01*
X161850000Y-47607560D01*
X159310000Y-47607560D01*
X159074683Y-47651838D01*
X158858559Y-47790910D01*
X158713569Y-48003110D01*
X158662560Y-48255000D01*
X156923944Y-48255000D01*
X156580505Y-47910961D01*
X155880590Y-47620332D01*
X155122735Y-47619670D01*
X154422314Y-47909078D01*
X153885961Y-48444495D01*
X153595332Y-49144410D01*
X153594670Y-49902265D01*
X153884078Y-50602686D01*
X154419495Y-51139039D01*
X154465000Y-51157934D01*
X154465000Y-52351289D01*
X151300630Y-55515658D01*
X150806306Y-55515226D01*
X150205345Y-55763538D01*
X149853269Y-56115000D01*
X143510000Y-56115000D01*
X143113922Y-56193785D01*
X142979429Y-56283651D01*
X142778144Y-56418144D01*
X142778142Y-56418147D01*
X129111288Y-70085000D01*
X121285000Y-70085000D01*
X120888922Y-70163785D01*
X120759036Y-70250572D01*
X120553144Y-70388144D01*
X120553142Y-70388147D01*
X112933144Y-78008144D01*
X112708785Y-78343923D01*
X112629999Y-78740000D01*
X112630000Y-78740005D01*
X112630000Y-78749101D01*
X112605330Y-78765585D01*
X112395000Y-79080366D01*
X112260000Y-78878324D01*
X112260000Y-78575132D01*
X119547566Y-71287566D01*
X119793603Y-70919346D01*
X119817012Y-70801659D01*
X119880000Y-70485000D01*
X119880000Y-67009744D01*
X123306197Y-67009744D01*
X123306602Y-67036146D01*
X123522276Y-67448118D01*
X123879187Y-67746196D01*
X124323000Y-67885000D01*
X125173000Y-67885000D01*
X125173000Y-66827000D01*
X125427000Y-66827000D01*
X125427000Y-67885000D01*
X126277000Y-67885000D01*
X126720813Y-67746196D01*
X127077724Y-67448118D01*
X127293398Y-67036146D01*
X127293803Y-67009744D01*
X127168361Y-66827000D01*
X125427000Y-66827000D01*
X125173000Y-66827000D01*
X123431639Y-66827000D01*
X123306197Y-67009744D01*
X119880000Y-67009744D01*
X119880000Y-56530132D01*
X120575133Y-55835000D01*
X123612735Y-55835000D01*
X123572210Y-55862078D01*
X123315335Y-56246520D01*
X123225132Y-56700000D01*
X123315335Y-57153480D01*
X123572210Y-57537922D01*
X123814778Y-57700000D01*
X123572210Y-57862078D01*
X123315335Y-58246520D01*
X123225132Y-58700000D01*
X123315335Y-59153480D01*
X123572210Y-59537922D01*
X123814778Y-59700000D01*
X123572210Y-59862078D01*
X123315335Y-60246520D01*
X123225132Y-60700000D01*
X123315335Y-61153480D01*
X123572210Y-61537922D01*
X123814778Y-61700000D01*
X123572210Y-61862078D01*
X123315335Y-62246520D01*
X123225132Y-62700000D01*
X123315335Y-63153480D01*
X123572210Y-63537922D01*
X123814778Y-63700000D01*
X123572210Y-63862078D01*
X123315335Y-64246520D01*
X123225132Y-64700000D01*
X123315335Y-65153480D01*
X123572210Y-65537922D01*
X123819831Y-65703376D01*
X123522276Y-65951882D01*
X123306602Y-66363854D01*
X123306197Y-66390256D01*
X123431639Y-66573000D01*
X125173000Y-66573000D01*
X125173000Y-66553000D01*
X125427000Y-66553000D01*
X125427000Y-66573000D01*
X127168361Y-66573000D01*
X127293803Y-66390256D01*
X127293398Y-66363854D01*
X127077724Y-65951882D01*
X126937772Y-65835000D01*
X130198638Y-65835000D01*
X130517927Y-66154846D01*
X131118453Y-66404206D01*
X131768694Y-66404774D01*
X132369655Y-66156462D01*
X132829846Y-65697073D01*
X133079206Y-65096547D01*
X133079774Y-64446306D01*
X132831462Y-63845345D01*
X132372073Y-63385154D01*
X131771547Y-63135794D01*
X131121306Y-63135226D01*
X130520345Y-63383538D01*
X130338566Y-63565000D01*
X126987265Y-63565000D01*
X127027790Y-63537922D01*
X127284665Y-63153480D01*
X127374868Y-62700000D01*
X127284665Y-62246520D01*
X127027790Y-61862078D01*
X126785222Y-61700000D01*
X127027790Y-61537922D01*
X127284665Y-61153480D01*
X127374868Y-60700000D01*
X127284665Y-60246520D01*
X127027790Y-59862078D01*
X126785222Y-59700000D01*
X127027790Y-59537922D01*
X127284665Y-59153480D01*
X127374868Y-58700000D01*
X127284665Y-58246520D01*
X127027790Y-57862078D01*
X126785222Y-57700000D01*
X127027790Y-57537922D01*
X127284665Y-57153480D01*
X127374868Y-56700000D01*
X127284665Y-56246520D01*
X127027790Y-55862078D01*
X126878256Y-55762163D01*
X130472443Y-55762163D01*
X130571042Y-56028965D01*
X131180582Y-56255401D01*
X131830377Y-56231341D01*
X132318958Y-56028965D01*
X132417557Y-55762163D01*
X131445000Y-54789605D01*
X130472443Y-55762163D01*
X126878256Y-55762163D01*
X126785222Y-55700000D01*
X127027790Y-55537922D01*
X127284665Y-55153480D01*
X127374868Y-54700000D01*
X127304370Y-54345582D01*
X129799599Y-54345582D01*
X129823659Y-54995377D01*
X130026035Y-55483958D01*
X130292837Y-55582557D01*
X131265395Y-54610000D01*
X131624605Y-54610000D01*
X132597163Y-55582557D01*
X132863965Y-55483958D01*
X133090401Y-54874418D01*
X133066341Y-54224623D01*
X132863965Y-53736042D01*
X132597163Y-53637443D01*
X131624605Y-54610000D01*
X131265395Y-54610000D01*
X130292837Y-53637443D01*
X130026035Y-53736042D01*
X129799599Y-54345582D01*
X127304370Y-54345582D01*
X127284665Y-54246520D01*
X127027790Y-53862078D01*
X126785222Y-53700000D01*
X127027790Y-53537922D01*
X127081300Y-53457837D01*
X130472443Y-53457837D01*
X131445000Y-54430395D01*
X132417557Y-53457837D01*
X132318958Y-53191035D01*
X131709418Y-52964599D01*
X131059623Y-52988659D01*
X130571042Y-53191035D01*
X130472443Y-53457837D01*
X127081300Y-53457837D01*
X127284665Y-53153480D01*
X127374868Y-52700000D01*
X127284665Y-52246520D01*
X127251577Y-52197000D01*
X128905000Y-52197000D01*
X128951159Y-52188315D01*
X128993553Y-52161035D01*
X129021994Y-52119410D01*
X129032000Y-52070000D01*
X129032000Y-50872777D01*
X149251828Y-50872777D01*
X149383520Y-51167657D01*
X150091036Y-51439261D01*
X150848632Y-51419436D01*
X151456480Y-51167657D01*
X151588172Y-50872777D01*
X150420000Y-49704605D01*
X149251828Y-50872777D01*
X129032000Y-50872777D01*
X129032000Y-49196036D01*
X148505739Y-49196036D01*
X148525564Y-49953632D01*
X148777343Y-50561480D01*
X149072223Y-50693172D01*
X150240395Y-49525000D01*
X150599605Y-49525000D01*
X151767777Y-50693172D01*
X152062657Y-50561480D01*
X152334261Y-49853964D01*
X152314436Y-49096368D01*
X152062657Y-48488520D01*
X151767777Y-48356828D01*
X150599605Y-49525000D01*
X150240395Y-49525000D01*
X149072223Y-48356828D01*
X148777343Y-48488520D01*
X148505739Y-49196036D01*
X129032000Y-49196036D01*
X129032000Y-48177223D01*
X149251828Y-48177223D01*
X150420000Y-49345395D01*
X151588172Y-48177223D01*
X151456480Y-47882343D01*
X150748964Y-47610739D01*
X149991368Y-47630564D01*
X149383520Y-47882343D01*
X149251828Y-48177223D01*
X129032000Y-48177223D01*
X129032000Y-44310000D01*
X189690000Y-44310000D01*
X189690000Y-128790000D01*
X89762000Y-128790000D01*
X89762000Y-50617745D01*
X92516861Y-50617745D01*
X92590995Y-50863864D01*
X93128223Y-51056965D01*
X93698454Y-51029778D01*
X94099005Y-50863864D01*
X94173139Y-50617745D01*
X93345000Y-49789605D01*
X92516861Y-50617745D01*
X89762000Y-50617745D01*
X89762000Y-49393223D01*
X91898035Y-49393223D01*
X91925222Y-49963454D01*
X92091136Y-50364005D01*
X92337255Y-50438139D01*
X93165395Y-49610000D01*
X93524605Y-49610000D01*
X94352745Y-50438139D01*
X94598864Y-50364005D01*
X94791965Y-49826777D01*
X94764778Y-49256546D01*
X94598864Y-48855995D01*
X94352745Y-48781861D01*
X93524605Y-49610000D01*
X93165395Y-49610000D01*
X92337255Y-48781861D01*
X92091136Y-48855995D01*
X91898035Y-49393223D01*
X89762000Y-49393223D01*
X89762000Y-48602255D01*
X92516861Y-48602255D01*
X93345000Y-49430395D01*
X94173139Y-48602255D01*
X94099005Y-48356136D01*
X93561777Y-48163035D01*
X92991546Y-48190222D01*
X92590995Y-48356136D01*
X92516861Y-48602255D01*
X89762000Y-48602255D01*
X89762000Y-44310000D01*
X107188000Y-44310000D01*
X107188000Y-52070000D01*
M02*
